<?xml version="1.0" encoding="utf-8"?>
<!-- Generator: Adobe Illustrator 19.1.0, SVG Export Plug-In . SVG Version: 6.00 Build 0)  -->
<svg version="1.1" id="Layer_1" xmlns="http://www.w3.org/2000/svg" xmlns:xlink="http://www.w3.org/1999/xlink" x="0px" y="0px"
	 viewBox="-271 279.1 160.5 55.9" style="enable-background:new -271 279.1 160.5 55.9;" xml:space="preserve">
<style type="text/css">
	.st0{fill:#FFFFFF;}
	.st1{fill:#FFFFFF;stroke:#002D5B;stroke-width:0.6143;}
	.st2{fill:#002D5B;}
	.st3{clip-path:url(#SVGID_4_);fill:#002D5B;}
	.st4{clip-path:url(#SVGID_6_);fill:#002D5B;}
	.st5{clip-path:url(#SVGID_8_);fill:#002D5B;}
	.st6{clip-path:url(#SVGID_10_);fill:#002D5B;}
	.st7{clip-path:url(#SVGID_12_);fill:#002D5B;}
	.st8{clip-path:url(#SVGID_14_);fill:#002D5B;}
	.st9{clip-path:url(#SVGID_16_);fill:#002D5B;}
	.st10{clip-path:url(#SVGID_18_);fill:#002D5B;}
	.st11{clip-path:url(#SVGID_20_);fill:#002D5B;}
	.st12{clip-path:url(#SVGID_22_);fill:#002D5B;}
	.st13{clip-path:url(#SVGID_24_);fill:#002D5B;}
	.st14{clip-path:url(#SVGID_26_);fill:#002D5B;}
	.st15{clip-path:url(#SVGID_28_);fill:#002D5B;}
	.st16{clip-path:url(#SVGID_30_);fill:#002D5B;}
	.st17{clip-path:url(#SVGID_32_);fill:#002D5B;}
	.st18{clip-path:url(#SVGID_34_);fill:#002D5B;}
	.st19{clip-path:url(#SVGID_36_);fill:#002D5B;}
	.st20{clip-path:url(#SVGID_38_);fill:#002D5B;}
	.st21{clip-path:url(#SVGID_40_);fill:#FFFFFF;}
	.st22{clip-path:url(#SVGID_42_);fill:#002D5B;}
	.st23{clip-path:url(#SVGID_44_);fill:#FFFFFF;}
	.st24{fill:none;stroke:#002D5B;stroke-width:0.6143;}
</style>
<path class="st0" d="M-219.1,307.7c0,13.1-10.6,23.8-23.6,23.8s-23.6-10.6-23.6-23.8c0-13.1,10.6-23.8,23.6-23.8
	C-229.7,283.9-219.1,294.6-219.1,307.7z"/>
<path class="st0" d="M-209.9,294.3c-0.3,0-0.4,0-0.2-0.4l0.6-1.6c0.2-0.6,0.4-1,0.4-1.1l0,0c0.1,0.1,0.1,0.4,0.4,1.1l0.6,1.6
	c0.1,0.3,0.1,0.4-0.3,0.4H-209.9z M-208.4,294.9c0.4,0,0.4,0,0.6,0.4l0.6,1.8c0.2,0.6,0.1,0.7-0.4,0.7h-0.3c-0.1,0.1-0.1,0.3,0,0.4
	c0.5,0,1.1,0,1.6,0c0.7,0,1.2,0,1.8,0c0.1-0.1,0.1-0.3,0-0.4h-0.2c-0.7-0.1-0.8-0.2-1.1-1.1l-1.9-5.7c-0.2-0.6-0.4-1.3-0.6-1.9
	c-0.1-0.1-0.1-0.1-0.2-0.1c0,0-0.5,0.6-0.9,0.7c0,0.2-0.1,0.6-0.3,1l-1.8,4.8c-0.3,0.7-0.5,1.3-0.7,1.7c-0.2,0.5-0.4,0.6-0.7,0.6
	l-0.4,0.1c-0.1,0.1-0.1,0.3,0,0.4c0.5,0,0.9,0,1.3,0c0.6,0,1,0,1.4,0c0.1-0.1,0.1-0.3,0-0.4l-0.4-0.1c-0.5-0.1-0.6-0.1-0.3-0.9
	l0.6-1.6c0.1-0.4,0.1-0.4,0.5-0.4C-210.2,294.9-208.4,294.9-208.4,294.9z"/>
<path class="st0" d="M-192,297.9c0.1,0.1,0.1,0.3,0,0.4c-0.6,0-1.1,0-1.6,0c-0.6,0-1.2,0-1.8,0c-0.1-0.1-0.2-0.3,0-0.4l0.4-0.1
	c0.5-0.1,0.6-0.2,0.6-1.1v-4.3v-1.3l0,0c-0.4,0.7-0.6,1.2-0.8,1.7l-1.2,2.4c-0.5,1-1.1,2.5-1.4,3.1c-0.1,0.1-0.3,0.1-0.4,0
	c-0.2-0.7-0.8-2.1-1.1-2.7l-1.2-2.6c-0.3-0.6-0.6-1.4-0.8-1.8l0,0c0,0.7-0.1,1.7-0.1,2.3c0,0.8-0.1,2-0.1,3.2c0,0.9,0,1.1,0.6,1.2
	l0.4,0.1c0.1,0.1,0.1,0.3,0,0.4c-0.5,0-0.9,0-1.4,0c-0.4,0-0.9,0-1.4,0c-0.1-0.1-0.1-0.3,0-0.4h0.2c0.6-0.1,0.8-0.3,0.8-1.1
	c0.1-0.9,0.1-1.7,0.2-3.2c0.1-0.9,0.1-2.1,0.1-2.9c0-0.6-0.2-0.9-0.7-1l-0.5-0.1c-0.1-0.1-0.1-0.4,0.1-0.4c0.4,0,0.8,0,1.3,0
	s0.9,0,1.4,0c0.1,0.8,0.4,1.5,0.7,2.3l1.5,3.1c0.1,0.2,0.5,0.9,0.6,1.2c0.2-0.4,0.4-0.8,0.7-1.4l1.3-2.6c0.4-0.9,0.9-1.7,1.1-2.6
	c0.4,0,0.8,0,1.1,0c0.6,0,1,0,1.4,0c0.1,0.1,0.2,0.3,0,0.4l-0.4,0.1c-0.6,0.1-0.7,0.3-0.7,1c0,2,0,4,0.1,6c0,0.9,0.2,1,0.6,1.1H-192
	z"/>
<path class="st0" d="M-189.1,291.2c0-1.4-0.1-1.5-0.8-1.6h-0.2c-0.1-0.1-0.1-0.3,0-0.4c0.5,0,1.1,0,1.7,0h2.6c0.9,0,1.6,0,1.8,0
	c0.1,0.2,0.1,1.3,0.2,1.9c-0.1,0.1-0.3,0.1-0.4,0.1c-0.2-0.8-0.4-1.1-0.8-1.2c-0.3-0.1-0.7-0.1-1.1-0.1h-0.9c-0.6,0-0.6,0-0.6,0.8
	v2.3c0,0.4,0,0.4,0.3,0.4h0.6c1.2,0,1.4,0,1.5-0.6l0.1-0.5c0.1-0.1,0.4-0.1,0.4,0c0,0.4,0,0.9,0,1.4s0,1,0,1.4
	c-0.1,0.1-0.3,0.1-0.4,0l-0.1-0.5c-0.1-0.6-0.3-0.6-1.5-0.6h-0.6c-0.3,0-0.3,0-0.3,0.4v1.7c0,0.7,0,1.2,0.2,1.4
	c0.2,0.2,0.4,0.3,1.5,0.3c1.7,0,2-0.4,2.5-1.5c0.1-0.1,0.4-0.1,0.4,0.1c-0.1,0.6-0.4,1.6-0.6,2c-0.6,0-1.8,0-3.3,0h-1.5
	c-0.6,0-1.4,0-2,0c-0.1-0.1-0.1-0.3,0-0.4l0.5-0.1c0.6-0.1,0.8-0.1,0.8-1.5V291.2z"/>
<path class="st0" d="M-179,290.4c0-0.6,0-0.7,0.7-0.7c1.2,0,1.9,0.9,1.9,2c0,1.3-0.6,1.9-1.9,1.9c-0.6,0-0.6,0-0.6-0.5v-2.7H-179z
	 M-180.6,296.3c0,1.4-0.1,1.5-0.8,1.6h-0.3c-0.1,0.1-0.1,0.3,0,0.4c0.6,0,1.2,0,1.8,0c0.6,0,1.2,0,1.8,0c0.1-0.1,0.1-0.3,0-0.4h-0.3
	c-0.6-0.1-0.8-0.1-0.8-1.6v-1.7c0-0.3,0-0.3,0.4-0.3s0.6,0.1,0.8,0.5c0.3,0.5,0.7,1.3,1.1,1.8c0.8,1.3,1.5,1.8,2.8,1.8
	c0.5,0,0.7,0,0.9-0.1c0-0.1,0-0.2,0-0.3c-0.2,0-0.6-0.1-0.9-0.4c-0.6-0.5-1.3-1.7-2.4-3.5c-0.1-0.1-0.1-0.2,0-0.2
	c0.7-0.3,1.6-0.9,1.6-2.1c0-1-0.5-1.6-1.2-2c-0.6-0.3-1.5-0.5-2.6-0.5s-2.3,0-3.1,0.1c-0.1,0.1-0.1,0.3,0,0.4h0.4
	c0.6,0.1,0.6,0.2,0.6,1.5v5H-180.6z"/>
<path class="st0" d="M-169.5,296.3c0,1.4,0.1,1.5,0.8,1.6h0.3c0.1,0.1,0.1,0.3,0,0.4c-0.6,0-1.2,0-1.8,0s-1.2,0-1.8,0
	c-0.1-0.1-0.1-0.3,0-0.4h0.3c0.6-0.1,0.8-0.1,0.8-1.6v-5.1c0-1.4-0.1-1.5-0.8-1.6h-0.3c-0.1-0.1-0.1-0.3,0-0.4c0.6,0,1.2,0,1.8,0
	c0.6,0,1.2,0,1.8,0c0.1,0.1,0.1,0.3,0,0.4h-0.3c-0.6,0.1-0.8,0.1-0.8,1.6V296.3z"/>
<path class="st0" d="M-158.3,291.5c-0.1,0.1-0.3,0.1-0.4,0c-0.2-0.9-0.8-2-2.6-2c-1.7,0-3.4,1.2-3.4,4c0,2.9,1.8,4.3,3.5,4.3
	c1.7,0,2.4-1.1,2.8-2c0.1-0.1,0.3-0.1,0.4,0.1c-0.1,0.9-0.5,1.8-0.6,2.1c-0.2,0-0.3,0.1-0.5,0.1c-0.3,0.1-1.2,0.3-2.1,0.3
	c-1.3,0-2.5-0.3-3.5-0.9c-1.1-0.7-1.9-2-1.9-3.7c0-1.6,0.7-2.8,1.7-3.6c1-0.8,2.4-1.2,3.7-1.2c0.8,0,1.7,0.1,2.3,0.3
	c0.2,0,0.3,0.1,0.4,0.1C-158.5,289.7-158.5,290.5-158.3,291.5z"/>
<path class="st0" d="M-154.2,294.3c-0.3,0-0.4,0-0.2-0.4l0.6-1.6c0.2-0.6,0.4-1,0.4-1.1l0,0c0.1,0.1,0.1,0.4,0.4,1.1l0.6,1.6
	c0.1,0.3,0.1,0.4-0.3,0.4H-154.2z M-152.6,294.9c0.4,0,0.4,0,0.6,0.4l0.6,1.8c0.2,0.6,0.1,0.7-0.4,0.7h-0.3c-0.1,0.1-0.1,0.3,0,0.4
	c0.5,0,1.1,0,1.6,0c0.7,0,1.2,0,1.8,0c0.1-0.1,0.1-0.3,0-0.4h-0.2c-0.7-0.1-0.8-0.2-1.1-1.1l-1.9-5.7c-0.2-0.6-0.4-1.3-0.6-1.9
	c-0.1-0.1-0.1-0.1-0.2-0.1c0,0-0.5,0.6-0.9,0.7c0,0.2-0.1,0.6-0.3,1l-1.9,4.8c-0.3,0.7-0.5,1.3-0.7,1.7c-0.2,0.5-0.3,0.6-0.7,0.6
	l-0.4,0.1c-0.1,0.1-0.1,0.3,0,0.4c0.5,0,0.9,0,1.3,0c0.6,0,1,0,1.4,0c0.1-0.1,0.1-0.3,0-0.4l-0.4-0.1c-0.5-0.1-0.6-0.1-0.3-0.9
	l0.6-1.6c0.1-0.4,0.1-0.4,0.5-0.4C-154.5,294.9-152.6,294.9-152.6,294.9z"/>
<path class="st0" d="M-139,295.9c0,0.4,0,2.1,0,2.4c-0.1,0.1-0.3,0.2-0.5,0.2c-0.2-0.3-0.6-0.7-1.6-1.9l-3.2-3.6
	c-0.9-1-1.3-1.5-1.5-1.7c0,0,0,0.1,0,0.9v2.7c0,1,0,2.3,0.2,2.7c0.1,0.2,0.4,0.3,0.7,0.3h0.3c0.1,0.1,0.1,0.4,0,0.4
	c-0.5,0-1,0-1.5,0c-0.6,0-0.9,0-1.4,0c-0.1-0.1-0.1-0.3,0-0.4l0.3-0.1c0.3,0,0.5-0.1,0.6-0.3c0.2-0.4,0.2-1.6,0.2-2.7v-3.2
	c0-1.1,0-1.3-0.4-1.7c-0.1-0.1-0.5-0.2-0.7-0.3h-0.2c-0.1-0.1-0.1-0.4,0.1-0.4c0.5,0.1,1.3,0,1.6,0c0.3,0,0.6,0,0.9,0
	c0.2,0.6,1.7,2.3,2.2,2.8l1.3,1.5c0.6,0.6,1.8,2.1,2,2.1c0,0,0-0.1,0-0.3v-2.7c0-1,0-2.3-0.3-2.7c-0.1-0.2-0.3-0.3-0.7-0.3h-0.3
	c-0.1-0.1-0.1-0.4,0-0.4c0.5,0,1,0,1.6,0s0.9,0,1.4,0c0.1,0.1,0.1,0.3,0,0.4l-0.3,0.1c-0.3,0-0.5,0.1-0.6,0.3
	c-0.2,0.4-0.2,1.6-0.2,2.7L-139,295.9L-139,295.9z"/>
<path class="st0" d="M-204.7,305.5c-0.1,0.1-0.3,0.1-0.4,0c-0.2-0.9-0.8-2-2.6-2c-1.7,0-3.4,1.2-3.4,4c0,2.9,1.8,4.3,3.5,4.3
	c1.7,0,2.4-1.1,2.8-2c0.1-0.1,0.3-0.1,0.4,0.1c-0.1,0.9-0.5,1.8-0.6,2.1c-0.2,0-0.3,0.1-0.5,0.1c-0.3,0.1-1.2,0.3-2.1,0.3
	c-1.3,0-2.5-0.3-3.5-0.9c-1.1-0.7-1.9-2-1.9-3.7c0-1.6,0.7-2.8,1.7-3.6c1-0.8,2.4-1.2,3.7-1.2c0.8,0,1.7,0.1,2.3,0.3
	c0.2,0,0.3,0.1,0.4,0.1C-204.8,303.7-204.8,304.5-204.7,305.5z"/>
<path class="st0" d="M-198.4,303.5c2.1,0,3.1,2.4,3.1,4.4c0,2.7-1.2,3.9-2.8,3.9c-2.3,0-3.1-2.6-3.1-4.4
	C-201.3,304.5-199.8,303.5-198.4,303.5z M-198.3,303c-2.8,0-4.8,2.1-4.8,4.8c0,2.4,1.8,4.6,4.8,4.6c2.7,0,4.8-2,4.8-4.7
	C-193.5,305.2-195.1,303-198.3,303z"/>
<path class="st0" d="M-189.2,309.9c0,0.7,0,1.2,0.2,1.4c0.2,0.2,0.4,0.3,1.5,0.3c1.5,0,1.7-0.1,2.3-1.5c0.1-0.1,0.4,0,0.4,0.1
	c-0.1,0.6-0.4,1.6-0.6,2c-0.6,0-1.7,0-3.2,0h-1.4c-0.7,0-1.4,0-1.9,0c-0.1-0.1-0.1-0.3,0-0.4l0.4-0.1c0.6-0.1,0.8-0.1,0.8-1.5v-5.1
	c0-1.4-0.1-1.5-0.8-1.5l-0.4-0.1c-0.1-0.1-0.1-0.3,0-0.4c0.7,0,1.3,0,1.9,0s1.2,0,1.8,0c0.1,0.1,0.1,0.3,0,0.4l-0.3,0.1
	c-0.6,0.1-0.8,0.1-0.8,1.5v4.8H-189.2z"/>
<path class="st0" d="M-181.1,309.9c0,0.7,0,1.2,0.2,1.4c0.2,0.2,0.4,0.3,1.5,0.3c1.5,0,1.7-0.1,2.3-1.5c0.1-0.1,0.4,0,0.4,0.1
	c-0.1,0.6-0.4,1.6-0.6,2c-0.6,0-1.7,0-3.2,0h-1.4c-0.7,0-1.4,0-1.9,0c-0.1-0.1-0.1-0.3,0-0.4l0.4-0.1c0.6-0.1,0.8-0.1,0.8-1.5v-5.1
	c0-1.4-0.1-1.5-0.8-1.5l-0.4-0.1c-0.1-0.1-0.1-0.3,0-0.4c0.7,0,1.3,0,1.9,0s1.2,0,1.8,0c0.1,0.1,0.1,0.3,0,0.4l-0.3,0.1
	c-0.6,0.1-0.8,0.1-0.8,1.5L-181.1,309.9L-181.1,309.9z"/>
<path class="st0" d="M-174.6,305.2c0-1.4-0.1-1.5-0.8-1.6h-0.2c-0.1-0.1-0.1-0.3,0-0.4c0.5,0,1.1,0,1.7,0h2.6c0.9,0,1.6,0,1.8,0
	c0.1,0.2,0.1,1.3,0.2,1.9c-0.1,0.1-0.3,0.1-0.4,0.1c-0.2-0.8-0.4-1.1-0.8-1.2c-0.3-0.1-0.7-0.1-1.1-0.1h-0.9c-0.6,0-0.6,0-0.6,0.8
	v2.3c0,0.4,0,0.4,0.3,0.4h0.8c1.2,0,1.4,0,1.5-0.6l0.1-0.5c0.1-0.1,0.4-0.1,0.4,0c0,0.4,0,0.9,0,1.4s0,1,0,1.4
	c-0.1,0.1-0.3,0.1-0.4,0l-0.1-0.5c-0.1-0.6-0.3-0.6-1.5-0.6h-0.6c-0.3,0-0.3,0-0.3,0.4v1.7c0,0.7,0,1.2,0.2,1.4
	c0.2,0.2,0.4,0.3,1.5,0.3c1.7,0,2-0.4,2.5-1.5c0.1-0.1,0.4-0.1,0.4,0.1c-0.1,0.6-0.4,1.6-0.6,2c-0.6,0-1.8,0-3.3,0h-1.5
	c-0.6,0-1.4,0-2,0c-0.1-0.1-0.1-0.3,0-0.4l0.5-0.1c0.6-0.1,0.8-0.1,0.8-1.5v-5.2H-174.6z"/>
<path class="st0" d="M-158.9,310.8c0,0.5,0.1,0.8,0.3,1c0,0.1,0,0.2,0,0.2c-0.1,0-0.4,0-0.6,0.1c-0.8,0.2-1.8,0.4-2.6,0.4
	c-1.6,0-3.1-0.4-4.2-1.5c-0.8-0.8-1.2-2-1.2-3.1c0-1.1,0.4-2.3,1.2-3.2c1-1,2.4-1.6,4.3-1.6c0.6,0,1.3,0.1,1.8,0.2
	c0.3,0.1,0.7,0.1,0.9,0.1c0,0.4,0.1,1.1,0.2,2.2c-0.1,0.1-0.4,0.2-0.4,0c-0.3-1.3-1.3-2-2.6-2c-2.4,0-3.5,1.7-3.5,4
	c0,1.1,0.2,2.3,1,3.1c0.7,0.9,1.8,1.2,2.6,1.2c0.6,0,1-0.1,1.2-0.3c0.1-0.1,0.1-0.4,0.1-0.9v-0.5c0-1,0-1-0.9-1.2l-0.5-0.1
	c-0.1-0.1-0.1-0.3,0-0.4c0.5,0,1.2,0,2.1,0c0.6,0,1.1,0,1.6,0c0.1,0.1,0.2,0.3,0,0.4h-0.2c-0.5,0.1-0.6,0.2-0.6,1
	C-158.9,309.9-158.9,310.8-158.9,310.8z"/>
<path class="st0" d="M-155.6,305.2c0-1.4-0.1-1.5-0.8-1.6h-0.2c-0.1-0.1-0.1-0.3,0-0.4c0.5,0,1.1,0,1.7,0h2.6c0.9,0,1.6,0,1.8,0
	c0.1,0.2,0.1,1.3,0.2,1.9c-0.1,0.1-0.3,0.1-0.4,0.1c-0.2-0.8-0.4-1.1-0.8-1.2c-0.3-0.1-0.7-0.1-1.1-0.1h-0.9c-0.6,0-0.6,0-0.6,0.8
	v2.3c0,0.4,0,0.4,0.3,0.4h0.6c1.2,0,1.4,0,1.5-0.6l0.1-0.5c0.1-0.1,0.4-0.1,0.4,0c0,0.4,0,0.9,0,1.4s0,1,0,1.4
	c-0.1,0.1-0.3,0.1-0.4,0l-0.1-0.5c-0.1-0.6-0.3-0.6-1.5-0.6h-0.6c-0.3,0-0.3,0-0.3,0.4v1.7c0,0.7,0,1.2,0.2,1.4s0.4,0.3,1.5,0.3
	c1.7,0,2-0.4,2.5-1.5c0.1-0.1,0.4-0.1,0.4,0.1c-0.1,0.6-0.4,1.6-0.6,2c-0.6,0-1.8,0-3.3,0h-1.5c-0.6,0-1.4,0-2,0
	c-0.1-0.1-0.1-0.3,0-0.4l0.5-0.1c0.6-0.1,0.8-0.1,0.8-1.5C-155.6,310.4-155.6,305.2-155.6,305.2z"/>
<path class="st0" d="M-143.4,311.9c-0.3,0-0.5-0.3-0.5-0.7c0-1,0.7-2.6,1.3-3.5c0.4-0.4,0.6-0.6,0.9-0.6c0.4,0,0.4,0.4,0.4,0.7
	c0,0.9-0.6,2.5-1.1,3.2C-142.8,311.6-143.1,311.9-143.4,311.9z M-145.1,310.6c0,1,0.5,1.8,1.7,1.8c0.6,0,1.3-0.2,2.1-0.9
	c0.9-0.9,1.3-2.1,1.3-3c0-1-0.5-1.8-1.7-1.8c-0.6,0-1.3,0.2-2.1,0.9C-144.6,308.3-145.1,309.6-145.1,310.6z"/>
<path class="st0" d="M-135.8,307.4c-0.5,1.4-1.1,3.8-1.5,5.2c-0.3,1.1-0.7,1.9-1,2.3c-0.3,0.4-1,0.9-1.8,0.9c-0.6,0-1.1-0.4-1.1-0.9
	c0-0.4,0.2-0.6,0.5-0.6c0.2,0,0.3,0.1,0.4,0.3c0.3,0.4,0.6,0.7,0.8,0.7s0.4-0.2,0.7-1.2c0.5-1.6,1.1-4.3,1.8-6.7h-1.2
	c-0.1-0.2,0-0.5,0.2-0.6h1.2c0.3-1,0.6-2,1.2-2.8c0.7-1,1.5-1.6,2.6-1.6c0.8,0,1.3,0.5,1.3,1c0,0.6-0.4,0.9-0.7,0.9
	c-0.2,0-0.3-0.1-0.3-0.3c-0.1-0.9-0.5-1.2-0.8-1.2s-0.6,0.3-0.9,0.9c-0.4,0.9-0.7,1.9-1,3h1.6c0.1,0.2,0.1,0.5-0.2,0.6L-135.8,307.4
	L-135.8,307.4z"/>
<path class="st0" d="M-204.8,319.4c-0.1,0.1-0.3,0.1-0.4,0c-0.2-0.9-0.8-2-2.6-2c-1.7,0-3.4,1.2-3.4,4c0,2.9,1.8,4.3,3.5,4.3
	c1.7,0,2.4-1.1,2.8-2c0.1-0.1,0.3-0.1,0.4,0.1c-0.1,0.9-0.5,1.8-0.6,2.1c-0.2,0-0.3,0.1-0.5,0.1c-0.3,0.1-1.2,0.3-2.1,0.3
	c-1.3,0-2.5-0.3-3.5-0.9c-1.1-0.7-1.9-2-1.9-3.7c0-1.6,0.7-2.8,1.7-3.6c1-0.8,2.4-1.2,3.7-1.2c0.8,0,1.7,0.1,2.3,0.3
	c0.2,0,0.3,0.1,0.4,0.1C-204.9,317.6-204.9,318.4-204.8,319.4z"/>
<path class="st0" d="M-200.6,322.1c-0.3,0-0.4,0-0.2-0.4l0.6-1.6c0.2-0.6,0.4-1,0.4-1.1l0,0c0.1,0.1,0.1,0.4,0.4,1.1l0.6,1.6
	c0.1,0.3,0.1,0.4-0.3,0.4H-200.6z M-199,322.8c0.4,0,0.4,0,0.6,0.4l0.6,1.8c0.2,0.6,0.1,0.7-0.4,0.7h-0.3c-0.1,0.1-0.1,0.3,0,0.4
	c0.5,0,1.1,0,1.6,0c0.7,0,1.2,0,1.8,0c0.1-0.1,0.1-0.3,0-0.4h-0.2c-0.7-0.1-0.8-0.2-1.1-1.1l-1.9-5.7c-0.2-0.6-0.4-1.3-0.6-1.9
	c-0.1-0.1-0.1-0.1-0.2-0.1c0,0-0.5,0.6-0.9,0.7c0,0.2-0.1,0.6-0.3,1l-1.8,4.8c-0.3,0.7-0.5,1.3-0.7,1.7s-0.4,0.6-0.7,0.6h-0.5
	c-0.1,0.1-0.1,0.3,0,0.4c0.5,0,0.9,0,1.3,0c0.6,0,1,0,1.4,0c0.1-0.1,0.1-0.3,0-0.4l-0.4-0.1c-0.5-0.1-0.6-0.1-0.3-0.9l0.6-1.6
	c0.1-0.4,0.1-0.4,0.5-0.4h1.9V322.8z"/>
<path class="st0" d="M-191.3,318.3c0-0.6,0-0.7,0.7-0.7c1.2,0,1.9,0.9,1.9,2c0,1.3-0.6,1.9-1.9,1.9c-0.6,0-0.6,0-0.6-0.5
	L-191.3,318.3L-191.3,318.3z M-192.9,324.1c0,1.4-0.1,1.5-0.8,1.6h-0.3c-0.1,0.1-0.1,0.3,0,0.4c0.6,0,1.2,0,1.8,0s1.2,0,1.8,0
	c0.1-0.1,0.1-0.3,0-0.4h-0.3c-0.6-0.1-0.8-0.1-0.8-1.6v-1.7c0-0.3,0-0.3,0.4-0.3s0.6,0.1,0.8,0.5c0.3,0.5,0.7,1.3,1.1,1.8
	c0.8,1.3,1.5,1.8,2.8,1.8c0.5,0,0.7,0,0.9-0.1c0-0.1,0-0.2,0-0.3c-0.2,0-0.6-0.1-0.9-0.4c-0.6-0.5-1.3-1.7-2.4-3.5
	c-0.1-0.1-0.1-0.2,0-0.2c0.7-0.3,1.6-0.9,1.6-2.1c0-1-0.5-1.6-1.2-2c-0.6-0.3-1.5-0.5-2.6-0.5s-2.3,0-3.1,0.1
	c-0.1,0.1-0.1,0.3,0,0.4h0.4c0.6,0.1,0.6,0.2,0.6,1.5v5H-192.9z"/>
<path class="st0" d="M-181.8,318.8c0-0.6,0-0.9,0.1-1c0.1-0.1,0.5-0.2,1.1-0.2c2.3,0,3.8,1.3,3.8,4c0,2.3-1.1,4-3.5,4
	c-1.4,0-1.5-0.7-1.5-2V318.8z M-183.4,324.1c0,1.4-0.1,1.5-0.8,1.6h-0.3c-0.1,0.1-0.1,0.3,0,0.4c0.6,0,1.2,0,1.7,0s1.1,0.1,2,0.1
	c1.2,0,2.4-0.2,3.3-0.7c1.7-0.9,2.4-2.4,2.4-3.9c0-2-1.1-3.5-2.8-4.1c-1-0.4-1.9-0.5-3.2-0.5c-1.3,0-2.4,0-3.4,0.1
	c-0.1,0.1-0.1,0.3,0,0.4h0.3c0.6,0.1,0.6,0.2,0.6,1.5v5.1H-183.4z"/>
<path class="st0" d="M-170.5,324.1c0,1.4,0.1,1.5,0.8,1.6h0.3c0.1,0.1,0.1,0.3,0,0.4c-0.6,0-1.2,0-1.8,0c-0.6,0-1.2,0-1.8,0
	c-0.1-0.1-0.1-0.3,0-0.4h0.3c0.6-0.1,0.8-0.1,0.8-1.6v-5c0-1.4-0.1-1.5-0.8-1.6h-0.3c-0.1-0.1-0.1-0.3,0-0.4c0.6,0,1.2,0,1.8,0
	c0.6,0,1.2,0,1.8,0c0.1,0.1,0.1,0.3,0,0.4h-0.3c-0.6,0.1-0.8,0.1-0.8,1.6V324.1z"/>
<path class="st0" d="M-163,317.4c2.1,0,3.1,2.4,3.1,4.4c0,2.7-1.2,3.9-2.8,3.9c-2.3,0-3.1-2.6-3.1-4.4
	C-165.9,318.4-164.4,317.4-163,317.4z M-162.9,316.9c-2.8,0-4.8,2-4.8,4.8c0,2.4,1.8,4.6,4.8,4.6c2.7,0,4.8-2,4.8-4.7
	C-158.1,319.2-159.7,316.9-162.9,316.9z"/>
<path class="st0" d="M-153.7,323.8c0,0.7,0,1.2,0.2,1.4s0.4,0.3,1.5,0.3c1.5,0,1.7-0.1,2.3-1.5c0.1-0.1,0.4,0,0.4,0.1
	c-0.1,0.6-0.4,1.6-0.6,2c-0.6,0-1.7,0-3.2,0h-1.4c-0.7,0-1.4,0-1.9,0c-0.1-0.1-0.1-0.3,0-0.4l0.4-0.1c0.6-0.1,0.8-0.1,0.8-1.5v-5
	c0-1.4-0.1-1.5-0.8-1.5l-0.4-0.1c-0.1-0.1-0.1-0.3,0-0.4c0.7,0,1.3,0,1.9,0c0.6,0,1.2,0,1.8,0c0.1,0.1,0.1,0.3,0,0.4l-0.3,0.1
	c-0.6,0.1-0.8,0.1-0.8,1.5L-153.7,323.8L-153.7,323.8z"/>
<path class="st0" d="M-143.7,317.4c2.1,0,3.1,2.4,3.1,4.4c0,2.7-1.2,3.9-2.8,3.9c-2.3,0-3.1-2.6-3.1-4.4
	C-146.5,318.4-145,317.4-143.7,317.4z M-143.5,316.9c-2.8,0-4.8,2-4.8,4.8c0,2.4,1.8,4.6,4.8,4.6c2.7,0,4.8-2,4.8-4.7
	C-138.8,319.2-140.4,316.9-143.5,316.9z"/>
<path class="st0" d="M-128.7,324.7c0,0.5,0.1,0.8,0.3,1c0,0.1,0,0.2,0,0.2c-0.1,0-0.4,0-0.6,0.1c-0.8,0.2-1.9,0.4-2.6,0.4
	c-1.6,0-3.1-0.4-4.2-1.5c-0.8-0.8-1.2-2-1.2-3.1c0-1.1,0.4-2.3,1.2-3.2c1-1,2.4-1.6,4.3-1.6c0.6,0,1.3,0.1,1.8,0.2
	c0.3,0.1,0.7,0.1,0.9,0.1c0,0.4,0.1,1.1,0.2,2.2c-0.1,0.1-0.4,0.1-0.4,0c-0.3-1.3-1.3-2-2.6-2c-2.4,0-3.5,1.7-3.5,4
	c0,1.1,0.2,2.3,1,3.1c0.7,0.9,1.8,1.2,2.6,1.2c0.6,0,1-0.1,1.2-0.3c0.1-0.1,0.1-0.4,0.1-0.9v-0.5c0-1,0-1-0.9-1.2l-0.5-0.1
	c-0.1-0.1-0.1-0.3,0-0.4c0.5,0,1.2,0,2.1,0c0.6,0,1.1,0,1.6,0c0.1,0.1,0.1,0.3,0,0.4h-0.2c-0.5,0.1-0.6,0.2-0.6,1L-128.7,324.7
	L-128.7,324.7z"/>
<path class="st0" d="M-123.8,323.3c0-0.8-0.1-1-0.4-1.7l-1.6-3.2c-0.3-0.6-0.4-0.7-1-0.9l-0.4-0.1c-0.1-0.1-0.1-0.4,0.1-0.4
	c0.6,0,1.1,0,1.7,0c0.6,0,1.4,0,1.7,0c0.1,0.1,0.1,0.3,0,0.4l-0.4,0.1c-0.2,0-0.3,0.1-0.3,0.2c0,0.1,0.1,0.3,0.2,0.7
	c0.5,1.2,1,2.3,1.6,3.3c0.6-1,1.1-2,1.6-3c0.2-0.5,0.4-0.8,0.4-0.9c0-0.1-0.1-0.2-0.3-0.2l-0.4-0.1c-0.1-0.1-0.1-0.3,0-0.4
	c0.6,0,1,0,1.4,0s0.8,0,1.3,0c0.1,0.1,0.1,0.3,0,0.4l-0.4,0.1c-0.6,0.1-0.8,0.4-1.5,1.6c-0.5,0.8-0.9,1.5-1.3,2.3
	c-0.4,0.7-0.5,1-0.5,1.9v0.7c0,1.4,0.1,1.5,0.8,1.5l0.5,0.1c0.1,0.1,0.1,0.3,0,0.4c-0.8,0-1.4,0-2,0s-1.2,0-2,0
	c-0.1-0.1-0.1-0.3,0-0.4l0.4-0.1c0.6-0.1,0.8-0.1,0.8-1.5L-123.8,323.3L-123.8,323.3z"/>
<path class="st1" d="M-220.2,307.7c0,12.5-10.1,22.6-22.5,22.6c-12.4,0-22.5-10.1-22.5-22.6s10.1-22.6,22.5-22.6
	C-230.3,285-220.2,295.2-220.2,307.7z"/>
<path class="st2" d="M-219.9,307.7c0,12.7-10.2,22.9-22.8,22.9c-12.6,0-22.8-10.3-22.8-22.9c0-12.7,10.2-22.9,22.8-22.9
	C-230.2,284.7-219.9,295-219.9,307.7z"/>
<path class="st0" d="M-241.8,308.2c-0.3-0.1-2.2-0.9-2.2-0.9c-0.1-0.1,0-0.4,0.3-0.2c0.1,0,1.9,0.8,2.1,0.8
	C-241.5,308-241.4,308.3-241.8,308.2z"/>
<path class="st1" d="M-222.9,307.7c0,11-8.9,20-19.9,20s-19.9-8.9-19.9-20c0-11,8.9-20,19.9-20S-222.9,296.6-222.9,307.7z"/>
<g>
	<g>
		<path id="SVGID_1_" class="st0" d="M-224.8,307.7c0,10-8.1,18.1-18,18.1c-9.9,0-18-8.1-18-18.1s8.1-18.1,18-18.1
			C-232.9,289.6-224.8,297.7-224.8,307.7z"/>
	</g>
	<g>
		<defs>
			<path id="SVGID_3_" d="M-224.8,307.7c0,10-8.1,18.1-18,18.1c-9.9,0-18-8.1-18-18.1s8.1-18.1,18-18.1
				C-232.9,289.6-224.8,297.7-224.8,307.7z"/>
		</defs>
		<clipPath id="SVGID_4_">
			<use xlink:href="#SVGID_3_"  style="overflow:visible;"/>
		</clipPath>
		<path class="st3" d="M-248.1,287.2c0.1,0,0.4-0.1,0.3-0.1c0-0.1-0.1-0.1-0.2,0C-248.2,287-248.2,287.2-248.1,287.2z"/>
	</g>
	<g>
		<defs>
			<path id="SVGID_5_" d="M-224.8,307.7c0,10-8.1,18.1-18,18.1c-9.9,0-18-8.1-18-18.1s8.1-18.1,18-18.1
				C-232.9,289.6-224.8,297.7-224.8,307.7z"/>
		</defs>
		<clipPath id="SVGID_6_">
			<use xlink:href="#SVGID_5_"  style="overflow:visible;"/>
		</clipPath>
		<path class="st4" d="M-247.1,289.6c0.1,0.1,0.8,0.2,1,0.2c0.2,0,0.2-0.2,0.1-0.1c-0.1,0-1.2-0.2-1.3-0.2c-0.1,0-0.3-0.1-0.4-0.1
			c-0.1,0-0.3-0.1-0.2,0v0.1C-247.9,289.4-247.2,289.5-247.1,289.6z"/>
	</g>
	<g>
		<defs>
			<path id="SVGID_7_" d="M-224.8,307.7c0,10-8.1,18.1-18,18.1c-9.9,0-18-8.1-18-18.1s8.1-18.1,18-18.1
				C-232.9,289.6-224.8,297.7-224.8,307.7z"/>
		</defs>
		<clipPath id="SVGID_8_">
			<use xlink:href="#SVGID_7_"  style="overflow:visible;"/>
		</clipPath>
		<path class="st5" d="M-246.9,288.4c0,0-0.1-0.2-0.2-0.2c-0.1,0-0.2,0.1-0.3,0.1C-247.6,288.3-246.9,288.4-246.9,288.4z"/>
	</g>
	<g>
		<defs>
			<path id="SVGID_9_" d="M-224.8,307.7c0,10-8.1,18.1-18,18.1c-9.9,0-18-8.1-18-18.1s8.1-18.1,18-18.1
				C-232.9,289.6-224.8,297.7-224.8,307.7z"/>
		</defs>
		<clipPath id="SVGID_10_">
			<use xlink:href="#SVGID_9_"  style="overflow:visible;"/>
		</clipPath>
		<path class="st6" d="M-247.8,287.7c-0.2,0.1,0.3,0,0.3,0C-247.6,287.6-247.7,287.6-247.8,287.7z"/>
	</g>
	<g>
		<defs>
			<path id="SVGID_11_" d="M-224.8,307.7c0,10-8.1,18.1-18,18.1c-9.9,0-18-8.1-18-18.1s8.1-18.1,18-18.1
				C-232.9,289.6-224.8,297.7-224.8,307.7z"/>
		</defs>
		<clipPath id="SVGID_12_">
			<use xlink:href="#SVGID_11_"  style="overflow:visible;"/>
		</clipPath>
		<path class="st7" d="M-247.6,288.1c0-0.1-0.1-0.1-0.2-0.1l0,0c0,0.2,0.2,0.2,0.2,0.2S-247.6,288.2-247.6,288.1z"/>
	</g>
	<g>
		<defs>
			<path id="SVGID_13_" d="M-224.8,307.7c0,10-8.1,18.1-18,18.1c-9.9,0-18-8.1-18-18.1s8.1-18.1,18-18.1
				C-232.9,289.6-224.8,297.7-224.8,307.7z"/>
		</defs>
		<clipPath id="SVGID_14_">
			<use xlink:href="#SVGID_13_"  style="overflow:visible;"/>
		</clipPath>
		<path class="st8" d="M-233.5,320.3c0.2-0.1,0.2-0.3,0.1-0.2c-0.2,0-1,0.3-1.2,0.3c-0.1-0.1-0.4,0.1-0.2,0.2
			C-234.6,320.5-233.7,320.4-233.5,320.3z"/>
	</g>
	<g>
		<defs>
			<path id="SVGID_15_" d="M-224.8,307.7c0,10-8.1,18.1-18,18.1c-9.9,0-18-8.1-18-18.1s8.1-18.1,18-18.1
				C-232.9,289.6-224.8,297.7-224.8,307.7z"/>
		</defs>
		<clipPath id="SVGID_16_">
			<use xlink:href="#SVGID_15_"  style="overflow:visible;"/>
		</clipPath>
		<path class="st9" d="M-247.6,288.6c0.1,0.1,0.5,0.2,0.6,0.3c0.1,0,0.5-0.1,0.2-0.1c-0.2,0-0.6-0.2-0.7-0.2
			C-247.6,288.5-247.7,288.5-247.6,288.6z"/>
	</g>
	<g>
		<defs>
			<path id="SVGID_17_" d="M-224.8,307.7c0,10-8.1,18.1-18,18.1c-9.9,0-18-8.1-18-18.1s8.1-18.1,18-18.1
				C-232.9,289.6-224.8,297.7-224.8,307.7z"/>
		</defs>
		<clipPath id="SVGID_18_">
			<use xlink:href="#SVGID_17_"  style="overflow:visible;"/>
		</clipPath>
		<path class="st10" d="M-244.9,288.7c0.1,0,0.3-0.1,0.3-0.1s-0.2,0.1-0.2,0C-244.8,288.4-245,288.7-244.9,288.7z"/>
	</g>
	<g>
		<defs>
			<path id="SVGID_19_" d="M-224.8,307.7c0,10-8.1,18.1-18,18.1c-9.9,0-18-8.1-18-18.1s8.1-18.1,18-18.1
				C-232.9,289.6-224.8,297.7-224.8,307.7z"/>
		</defs>
		<clipPath id="SVGID_20_">
			<use xlink:href="#SVGID_19_"  style="overflow:visible;"/>
		</clipPath>
		<path class="st11" d="M-246.9,289.2c0.1,0,0.3,0.1,0.4,0.1s0.3-0.1,0.2-0.1c-0.1,0-0.3,0-0.5-0.1S-247,289.1-246.9,289.2z"/>
	</g>
	<g>
		<defs>
			<path id="SVGID_21_" d="M-224.8,307.7c0,10-8.1,18.1-18,18.1c-9.9,0-18-8.1-18-18.1s8.1-18.1,18-18.1
				C-232.9,289.6-224.8,297.7-224.8,307.7z"/>
		</defs>
		<clipPath id="SVGID_22_">
			<use xlink:href="#SVGID_21_"  style="overflow:visible;"/>
		</clipPath>
		<path class="st12" d="M-231.5,319.9c0.1-0.2-0.1,0.1-0.3,0.2c-3,2.1-6.8,1.8-7,1.8c-0.2-0.1-1.5,0-1.6,0c-0.1,0-0.2,0.1-0.3,0.1
			c-0.1,0-0.3,0.1,0,0.1s1.6-0.1,1.7,0c2.4,0.1,4.2-0.4,4.6-0.5C-233.8,321.4-231.8,320.5-231.5,319.9z"/>
	</g>
	<g>
		<defs>
			<path id="SVGID_23_" d="M-224.8,307.7c0,10-8.1,18.1-18,18.1c-9.9,0-18-8.1-18-18.1s8.1-18.1,18-18.1
				C-232.9,289.6-224.8,297.7-224.8,307.7z"/>
		</defs>
		<clipPath id="SVGID_24_">
			<use xlink:href="#SVGID_23_"  style="overflow:visible;"/>
		</clipPath>
		<path class="st13" d="M-244.5,300.7c0-0.1,0.1-0.1,0.3-0.2s0.8,0.3,1,0.3c0.3-0.1,0.8,0,1.1,0.2c0.3,0.2,1,0.5,1.2,0.5
			c0.2,0,0.3,0.2,0.2,0.3c-0.1,0.1,0.5,0.8,0.6,0.9c0,0.2,0.3,0.5,0.6,1c0.2,0.5,1.2,0.7,1.3,0.8c0.1,0,0.2,0.2,0.4,0.2
			c0.2,0,0-0.2,0-0.2c0-0.1,0.1,0,0.2,0c0.1,0,0.2,0.2,0.2,0.1s0-0.1,0.2,0c0.1,0.1,0.1,0.1,0.2,0.2c0.1,0,0.1,0,0-0.1
			c-0.1-0.1,0-0.2,0.1-0.1s0.3,0.3,0.5,0.3c0.1,0,0-0.2-0.1-0.3c0-0.1,0.1-0.1,0.2,0c0.1,0.1,0.4,0.4,0.6,0.4s0-0.2,0-0.3
			c0-0.1,0.1,0,0.2,0.1c0.1,0.1,0.6,0.8,0.7,0.8c0.1-0.1,0.7,1,0.8,1.5c0.1,0.5,0.3,0.4,0.3,0.3c-0.7-2.6-1.5-2.7-1.8-2.9
			c-0.3-0.2-3.9-1-3.9-1.2c0-0.2-0.8-1-0.8-1s-0.5-0.7-0.6-0.8c-0.2-0.4-1.4-1.2-1.8-1.4c-0.3-0.2-0.6-0.2-1.2-0.3
			c-0.6-0.2-0.6-0.2-0.9-0.3s-0.7,0.4-0.7,0.5c0.3,0.3,0.7,0.7,1,1.1c0.2,0.1,0.4,0.1,0.4,0.1C-243.9,301.2-244.4,300.8-244.5,300.7
			z"/>
	</g>
	<g>
		<defs>
			<path id="SVGID_25_" d="M-224.8,307.7c0,10-8.1,18.1-18,18.1c-9.9,0-18-8.1-18-18.1s8.1-18.1,18-18.1
				C-232.9,289.6-224.8,297.7-224.8,307.7z"/>
		</defs>
		<clipPath id="SVGID_26_">
			<use xlink:href="#SVGID_25_"  style="overflow:visible;"/>
		</clipPath>
		<path class="st14" d="M-239.9,318.5c-0.2,0-0.3,0-0.5,0c-0.2,0-0.3,0.1-0.1,0.2c0.1,0.1,0.4,0.1,0.5,0.1
			C-239.8,318.7-239.7,318.5-239.9,318.5z"/>
	</g>
	<g>
		<defs>
			<path id="SVGID_27_" d="M-224.8,307.7c0,10-8.1,18.1-18,18.1c-9.9,0-18-8.1-18-18.1s8.1-18.1,18-18.1
				C-232.9,289.6-224.8,297.7-224.8,307.7z"/>
		</defs>
		<clipPath id="SVGID_28_">
			<use xlink:href="#SVGID_27_"  style="overflow:visible;"/>
		</clipPath>
		<path class="st15" d="M-240.9,317.3c0.2-0.1,0.1-0.2,0.1-0.2s-0.5-0.1-0.6-0.2c-0.2-0.1-0.3,0.2-0.1,0.2
			C-241.3,317.2-241.1,317.4-240.9,317.3z"/>
	</g>
	<g>
		<defs>
			<path id="SVGID_29_" d="M-224.8,307.7c0,10-8.1,18.1-18,18.1c-9.9,0-18-8.1-18-18.1s8.1-18.1,18-18.1
				C-232.9,289.6-224.8,297.7-224.8,307.7z"/>
		</defs>
		<clipPath id="SVGID_30_">
			<use xlink:href="#SVGID_29_"  style="overflow:visible;"/>
		</clipPath>
		<path class="st16" d="M-240.6,317.9c-0.2,0-0.4-0.1-0.6-0.1s-0.3,0.2-0.1,0.2c0.1,0,0.5,0.1,0.6,0.1
			C-240.6,318.1-240.5,317.9-240.6,317.9z"/>
	</g>
	<g>
		<defs>
			<path id="SVGID_31_" d="M-224.8,307.7c0,10-8.1,18.1-18,18.1c-9.9,0-18-8.1-18-18.1s8.1-18.1,18-18.1
				C-232.9,289.6-224.8,297.7-224.8,307.7z"/>
		</defs>
		<clipPath id="SVGID_32_">
			<use xlink:href="#SVGID_31_"  style="overflow:visible;"/>
		</clipPath>
		<path class="st17" d="M-240.1,319.3c0.1,0.1,1,0.2,1.1,0.1c0.1,0,0.2-0.1,0.2-0.2c0,0-0.1-0.1-0.3,0c-0.1,0.1-0.7,0-0.8,0
			C-240,319.1-240.2,319.2-240.1,319.3z"/>
	</g>
	<g>
		<defs>
			<path id="SVGID_33_" d="M-224.8,307.7c0,10-8.1,18.1-18,18.1c-9.9,0-18-8.1-18-18.1s8.1-18.1,18-18.1
				C-232.9,289.6-224.8,297.7-224.8,307.7z"/>
		</defs>
		<clipPath id="SVGID_34_">
			<use xlink:href="#SVGID_33_"  style="overflow:visible;"/>
		</clipPath>
		<path class="st18" d="M-240,320c0.1,0.1,1,0.2,1.1,0.1c0.1,0,0.2-0.1,0.2-0.2c0,0-0.1-0.1-0.3,0c-0.1,0.1-0.7,0-0.8,0
			C-239.9,319.8-240,319.9-240,320z"/>
	</g>
	<g>
		<defs>
			<path id="SVGID_35_" d="M-224.8,307.7c0,10-8.1,18.1-18,18.1c-9.9,0-18-8.1-18-18.1s8.1-18.1,18-18.1
				C-232.9,289.6-224.8,297.7-224.8,307.7z"/>
		</defs>
		<clipPath id="SVGID_36_">
			<use xlink:href="#SVGID_35_"  style="overflow:visible;"/>
		</clipPath>
		<path class="st19" d="M-239.6,320.5c0.1,0.1,1,0.2,1.1,0.1c0.1,0,0.2-0.1,0.2-0.2c0,0-0.1-0.1-0.3,0c-0.1,0.1-0.7,0-0.8,0
			C-239.5,320.4-239.7,320.5-239.6,320.5z"/>
	</g>
	<g>
		<defs>
			<path id="SVGID_37_" d="M-224.8,307.7c0,10-8.1,18.1-18,18.1c-9.9,0-18-8.1-18-18.1s8.1-18.1,18-18.1
				C-232.9,289.6-224.8,297.7-224.8,307.7z"/>
		</defs>
		<clipPath id="SVGID_38_">
			<use xlink:href="#SVGID_37_"  style="overflow:visible;"/>
		</clipPath>
		<path class="st20" d="M-232,300.3L-232,300.3c-2.4-2.1-5.1-2.9-7.6-2.9c0.1-0.4,0.2-1,0.2-1.5c0.3,0,0.9,0,1.3,0
			c0.2,0,0.4-0.1,0.4-0.2c-0.1-0.1-0.3-0.6-0.6-0.6c-0.2,0-0.7-0.3-1-0.4c0.1-1.2,0.2-2.5,0.2-3.6c0-2.5-1.4-4.5-3.5-4.6
			c-0.4,0-0.6-0.3-0.5-0.7c0.1-0.8,0.5-1.7,0.7-2.5c0.1-0.4-0.1-0.8-0.5-0.7c-0.3,0-0.5,0.1-0.7,0c-0.2,0-0.5,0.1-0.5,0.1
			c-0.3,0.1-0.4,0.4-0.5,0.6c-0.1,0.2-0.6,1.4-0.6,1.6c-0.1,0.2-0.1,1-0.3,0.8c-0.1-0.2-0.2-0.2-0.3-0.3c-0.1-0.8-0.2-1.6-0.2-2
			c-0.1-0.5-0.6-0.6-0.9-0.2c-0.1,0.2-0.3,0.4-0.4,0.5c-0.2,0.2-0.4,0.2-0.6,0.2c-0.2-0.1-0.5,0-0.7,0.2c-0.2,0.2-0.5,0.3-0.7,0.1
			c-0.4-0.1-0.5-0.2-0.7-0.2s-0.3,0.1-0.3,0.2c0.1,0.8,0.2,1.7,0.3,2.4v1.4c0,0.6,0,1.2-0.1,1.7c-0.1,0.6-0.1,1.1,0,1.5
			c0,0.3,0,0.5-0.1,0.7c-0.2,0.6-0.3,1.2-0.3,1.9c0,0.8,0,2,0,3c0,1.1-0.2,2.9-0.1,4.5l0,0c-0.2,0.1-0.5,0.3-0.7,0.5c0,0,0,0,0.1,0
			l0,0c-0.1-1.6,0.1-3.5-0.3-5.3c-0.1-0.9-1-0.8-1.2,0c-0.1,0.3-0.1,0.4-0.2,0.7c-0.1,0.3-0.3,0.5-0.7,0.5c-0.4,0.1-1,0.2-1.3,0.4
			c-0.2,0.1-0.3,0.3-0.2,0.5c0.1,0.6,0.2,2.2,0.3,4.2c-0.2,0.1-0.4,0.2-0.6,0.4c-0.4,0.5-0.5,1.1-0.3,1.9c0.4,1.2,0.3,1.8,0,2.6
			c-0.6,1.5-0.3,3.6,0.9,5.1c0,0,0,0.1,0.1,0.1c0.1,0.1,0.2,0.2,0.3,0.2l0,0c0.2,4.5,0.3,8.7,0.4,10.4c0,0.2,0.1,0.5,0.4,0.7
			c0.4,0.3,0.9,0.1,1.1-0.2s0.5-0.1,0.5,0.3c0,0.3,0.3,0.5,0.5,0.7c0.2,0.1,0.4,0.3,0.6,0.5c0.3,0.3,0.7,0.2,0.7-0.1l0,0
			c0-1.8-0.1-4.8-0.2-6.7l-0.1-0.1c1.4,1.7,3.1,3,5.3,3.8l0,0l0,0c0.4,1.7,1,4.9,1,5c0.1,0.4,0.4,0.7,1.1,0.7c0.4,0,0.8-0.2,1.1-0.2
			c0.3-0.1,0.7,0.1,0.9,0.2c0.5,0.3,1.2,0.3,1.7,0.1c0.3-0.2,0.4-0.4,0.3-0.6l0,0l-0.9-4.4h0.2c0.5,0.1,1,0.1,1.5-0.1
			c1.8,0,3.5-0.3,4.9-0.9c1.3-0.6,2.3-1.4,2.9-2.4c0.4-0.8,0.6-1.6,0.4-2.5c-0.1-0.5-0.3-1-0.6-1.5v-0.1c-1-1.5-1.9-3-2.2-4.6
			c-0.1-0.7,0-1.4,0.1-2.2c0.1-0.6,0.1-1.2,0-1.8c-0.1-0.8-0.4-1.6-0.8-2.2c0,0,1,0.5,1.8,0.9l0,0c0.3,0.2,0.5-0.1,0.4-0.3
			c-0.1-0.1-0.2-0.3-0.3-0.6c-0.1-0.2-0.3-0.4-0.2-0.7c0.1-0.4,0-0.9-0.3-1.6c-0.4-1-0.2-1.5,0.3-1.7
			C-231.9,300.7-231.9,300.4-232,300.3z M-239.3,327.4L-239.3,327.4L-239.3,327.4z M-240,297.3c-0.5,0-2,0.2-2.5,0.3
			c0-0.2,0.1-1.2,0.3-1.2s1.4-0.2,1.6-0.2c0.4,0,0.5-0.1,0.8-0.1C-239.9,296.6-239.9,297-240,297.3z M-248.9,294.8
			c0.1,0,0.2,0,0.5,0c0.3,0.1,0.1-0.1,0-0.2c-0.1,0-0.3-0.1-0.6-0.1c-0.7-0.1-0.5-0.5-0.3-0.5s0.9,0.1,1.1,0.1s0.1-0.1,0-0.2
			c-0.2-0.1-0.7-0.1-0.9-0.2c-0.7-0.2-0.5-0.6-0.4-0.5c0.2,0,0.8,0.1,1,0.1c0.2,0.1,0.2-0.2,0-0.2s-0.9-0.2-1-0.2s-0.3-0.4,0.2-0.4
			c0.2,0,1.1,0.1,1.3,0.2c0.2,0,0.2-0.1,0-0.2s-1-0.2-1.3-0.3c-0.3-0.1-0.5-0.3-0.1-0.3c0.4,0,0.8,0.1,1.1,0.2c0.3,0,0.2-0.2,0-0.2
			c-0.2,0-0.9-0.2-1.2-0.3s-0.3-0.3-0.1-0.3c0.2,0,1.2,0.3,1.4,0.3c0.3,0,0.3-0.1,0-0.2c-0.3-0.1-1.2-0.3-1.5-0.4s-0.2-0.2,0-0.2
			s1.3,0.2,1.6,0.3c0.3,0.1,0.1-0.2-0.1-0.3c-0.2-0.1-1.2-0.2-1.4-0.3c-0.2-0.1-0.2-0.3,0-0.2c0.2,0.1,0.7,0,0.6,0
			c-0.1-0.1-0.2-0.2-0.1-0.2c0.2,0,0.4,0.1,0.6,0.2c0.2,0,0.2,0,0-0.1s-0.6-0.2-0.8-0.2c-0.2-0.1-0.3-0.3-0.1-0.3s0.7,0.2,1,0.3
			c0.3,0.1,0.2-0.1,0-0.1c-0.2,0-0.7-0.3-1.1-0.4c-0.4-0.2-0.2-0.3,0-0.2c0.2,0,0.6,0.2,0.7,0.3c0.1,0,0.3,0,0-0.1
			c-0.3-0.1-0.6-0.3-0.8-0.3c-0.2-0.1-0.2-0.2,0-0.2c0.3,0,0.8,0.2,1.1,0.3c0.3,0.1,0.4-0.1,0.1-0.2s-1-0.3-1.1-0.4
			c-0.1,0-0.2-0.2,0-0.2c0.2,0,0.6,0.2,0.7,0.2c0.1,0,0.3-0.1-0.1-0.1c-0.3,0-0.4-0.2-0.7-0.3c-0.3-0.1-0.1-0.2,0.1-0.2
			c0.2,0,0.5,0.1,0.8,0.2c0.2,0.1,0.1-0.1-0.1-0.2c-0.2,0-0.7-0.3-0.9-0.4s-0.2-0.2,0-0.1c0.2,0,0.6,0.2,0.8,0.2
			c0.3,0.1,0.4-0.1,0.2-0.1c-0.2-0.1-0.9-0.4-1-0.4s-0.2-0.2-0.1-0.1c0.2,0,0.5,0.1,0.7,0.2c0.2,0.1,0.4-0.1,0.2-0.2s-0.7-0.2-1-0.3
			c-0.2-0.1-0.1-0.2,0-0.2c0.2,0,0.7,0.2,1,0.2c0.2,0,0.2-0.1,0-0.1s-0.8-0.3-1-0.4c-0.2-0.1-0.1-0.1,0.1-0.1c0.2,0,0.4,0.1,0.5,0.1
			c0.1,0,0.3-0.1,0-0.1c-0.3,0-0.4-0.2-0.6-0.2c-0.2-0.1-0.2-0.2-0.1-0.2c0.1,0,0.2,0,0.3,0.1c0.1,0,0.6,0,0.2-0.1
			c-0.3-0.1-0.3-0.2-0.5-0.2c0.2-0.6,0-0.6,0.2-0.6c0.1,0,0.2,0,0.5,0.1c0.3,0,0.5,0.1,0.4,0c0-0.1-0.2,0-0.8-0.2
			c-0.6-0.2-0.4-0.2-0.3-0.3s0.2,0,0.3-0.1c0.3,0.2,0.7,0.1,0.9-0.2c0.1-0.1,0.2-0.2,0.5-0.2c0.3,0.1,0.6,0,0.8-0.2
			c0.1-0.1,0.2-0.3,0.3-0.4l0.2-0.2c0.1-0.1,0.2-0.2,0.3-0.2c0.1,0,0.2,0.1,0.2,0.3c0,0.2,0.1,0.6,0.1,1c0,0.5,0.1,1,0.2,1.6
			c0.1,0.4,0.3,0.5,0.4,0.5c0.2,0,0.4-0.1,0.4-0.4l0,0c0.1,0,0.1-0.1,0.1-0.1c0-0.1,0.1-0.2,0.1-0.3c0.1,0,0.1-0.2,0.1-0.3
			s0.1-0.3,0.2-0.5c0.1-0.1,0-0.3,0-0.4s0.1-0.3,0.1-0.4c0,0,0.1,0,0.2,0.1c0.1,0.1,0.3-0.2,0.3-0.3s0.2-0.5,0.3-0.7
			c0-0.1,0.1-0.3,0.1-0.5c0.3,0.1,0.6,0,0.8,0c0.1,0,0.2,0,0.2,0.1c0,0,0.1,0.1,0.1,0.2s0,0.2,0,0.2l-0.1,0.3
			c-0.2,0.7-0.5,1.6-0.6,2.3c0,0.2,0,0.3,0,0.4c0,0.1,0.1,0.2,0.1,0.3c0.1,0.1,0.3,0.2,0.5,0.2c1.7,0.1,2.9,1.3,3.2,3.2
			c0.1,0.4,0.1,0.7,0.1,1.1c0,1.1-0.1,2.4-0.2,3.6c-0.1,0-0.3,0-0.5,0c-0.3,0-0.5,0-0.7-0.1c-0.7-0.2-1.2-0.2-1.6,0l0,0
			c0-0.5,0-0.9,0-1.3h0.1c0.1,0,0.1,0.1,0.1,0.2s0,0.7,0,0.8c0,0.1,0.1,0,0.1-0.1s0-0.2,0-0.5c0-0.2,0-0.9,0-1.1s0-0.4,0-0.6
			c-0.1-0.2-0.2-0.1-0.1,0.1c0,0.1,0,0.3,0,0.5s-0.1,0.1-0.2,0.1c0-0.1,0-0.3,0-0.4c0-0.2-0.1-0.5-0.1-0.7c-0.1-0.7-0.3-1.3-0.6-1.7
			c-0.1-0.2-0.3-0.3-0.4-0.3c0-0.2-0.2-0.1-0.2-0.2c-0.1,0-0.2-0.2-0.2-0.2c0-0.1,0.2-0.2-0.1-0.2c-0.2-0.1-0.2,0-0.3,0
			c-0.1,0.1-0.4,0.1-0.2,0.2s0.4,0.2,0.4,0.3s-0.1,0.1-0.2,0.1s-0.4-0.1-0.5-0.1s-0.2,0.1-0.1,0.1c0.1,0,0.5,0,0.5,0.1
			c0,0,0.2,0,0.1,0.6c-0.1,0.1-1,1.7-1,1.7c-0.1,0.1-1.3,1.4-1.3,1.5c-0.1,0.1-0.3,0.3-0.4,0.4c-0.2,0.2-1.5,1.6-1.7,1.9
			c-0.1,0-0.2-0.1-0.4-0.1C-249.7,295.3-249.5,294.8-248.9,294.8z M-248.8,296.7c0.5-1,1.3-1.8,2.1-2.6c1.6-1.4,2.3-2.5,2.9-4
			c0-0.1,0.1-0.1,0.1-0.1s0.3,0.3,0.3,0.4c0,0,0.2,0.5,0.1,0.5c-0.1,0.1-0.2,0-0.3-0.1c-0.1-0.1-0.2,0.1,0,0.2
			c0.1,0.1,0.4,0.3,0.4,0.3c0.1,0.1,0.1,0.3,0,0.3c-0.1,0-0.4-0.3-0.6-0.4s-0.3,0.2-0.2,0.3s0.5,0.5,0.7,0.6c0.1,0.1,0,0.2,0.1,0.4
			c-0.6,0.6-1,1.4-1.2,2.2c0,0.1,0,0.1,0,0.2c0,0.1,0.1,0.2,0.1,0.2c0.1,0.1,0.3,0.1,0.4,0c0.3-0.2,0.8-0.3,1-0.2
			c0.2,0.1,0.4,0,0.6,0l0,0c0.3-0.1,0.8-0.1,1.4,0c0.3,0.1,0.6,0.1,0.9,0.1c0.2,0,0.3,0,0.4,0l0.5,0.2c0.1,0.1,0.3,0.1,0.4,0.2
			c0,0.1-0.1,0.1-0.1,0.1c-0.2,0-1.2,0.2-1.2,0.2c-0.1,0-0.1,0-0.2,0c-0.2-0.2-0.6-0.5-0.7-0.6c-0.1-0.1-0.2,0-0.1,0.1
			s0.4,0.3,0.5,0.5c-0.1,0-0.2,0-0.3,0l0,0c-0.1-0.1-0.4-0.3-0.5-0.5c-0.1-0.1-0.2,0-0.1,0.1c0.1,0.1,0.3,0.3,0.3,0.4l0,0h-0.1
			c-0.1,0-0.1,0-0.1-0.1c-0.1-0.1-0.4-0.3-0.5-0.4s-0.3,0-0.2,0c0.1,0.1,0.4,0.3,0.5,0.4v0.1c0,0,0,0-0.1,0s-0.1,0-0.2-0.1
			c-0.1-0.1-0.4-0.4-0.5-0.4c-0.1-0.1-0.2,0.1-0.1,0.2c0.1,0.1,0.3,0.2,0.3,0.3v0.1l0,0c-0.1,0-0.1,0-0.2,0.1h-0.1
			c-0.1-0.1-0.2-0.3-0.4-0.4c-0.1-0.1-0.3,0-0.2,0.1c0.1,0.1,0.4,0.3,0.4,0.4v0.1l0,0h-0.1c-0.2,0-0.2,0-0.3-0.1s-0.1,0.2,0,0.3l0,0
			c-0.1,0.1-0.1,0.1-0.2,0.2c-0.2-0.1-0.5-0.4-0.5-0.4s-0.3-0.1-0.1,0c0.1,0.1,0.4,0.3,0.3,0.4s-0.4-0.1-0.5-0.2
			c-0.1-0.1-0.2,0-0.1,0.1c0.1,0.1,0.5,0.2,0.5,0.3c0.1,0.1,0,0.2-0.2,0.2c-0.2-0.1-0.4-0.1-0.6-0.2c-0.2-0.1-0.1,0.1,0,0.2
			c0.1,0.1,0.5,0.4,0.4,0.5c-0.1,0.1-0.6-0.1-0.7-0.2c-0.1-0.1-0.3,0-0.1,0.1c0.1,0.1,0.6,0.4,0.5,0.5c-0.1,0.1-0.6-0.2-0.7-0.3
			c-0.1-0.1-0.2,0-0.1,0.1s0.6,0.4,0.5,0.5s-0.7-0.3-0.9-0.3c-0.2-0.1-0.2,0.1-0.1,0.2c0.2,0.1,1,0.5,0.8,0.6
			c-0.2,0.2-0.8-0.3-1-0.4s-0.3,0-0.2,0.1c0.2,0.1,0.5,0.3,0.7,0.4c0.1,0.1,0.1,0.2-0.1,0.1s-1-0.6-1.2-0.5c-0.2,0-0.2,0.1,0,0.2
			c0.2,0.1,0.8,0.3,0.9,0.4c0.1,0.1-0.1,0.1-0.3,0.1c-0.2-0.1-0.6-0.4-0.8-0.4c-0.1,0-0.3,0-0.1,0.1s0.7,0.2,0.5,0.3
			c-0.2,0.1-0.5,0-0.8,0c-0.2,0-1.5,0.9-2.2,1.5c-0.7,0.2-1.1-0.9-0.3-2.6C-249.5,297.9-248.8,296.7-248.8,296.7z M-250.4,302.3
			c0,0,0.1-0.1,0.2,0c0.1,0.1,0.9,0.5,1,0.6c0.1,0,0.1,0.1,0.1,0.2s-0.1,0.1-0.3,0.1c-0.1,0-0.4-0.2-0.6-0.3
			c-0.2-0.1-0.3-0.2-0.4-0.2c-0.1,0-0.1-0.1-0.1-0.1C-250.5,302.4-250.5,302.4-250.4,302.3z M-251.1,303
			C-251.1,302.9-251.1,302.9-251.1,303c0.1-0.1,0.2-0.1,0.2,0l0,0c0.1,0.1,1.3,0.6,1.5,0.7c0.2,0,0.2,0.1,0.2,0.1s-0.1,0.1-0.3,0.1
			c-0.3,0-1-0.4-1.4-0.6l-0.2-0.2C-251.2,303.1-251.1,303-251.1,303z M-247.8,308.6c0.1,0,0.1,0.1,0.1,0.1c0,0.1-0.2,0.1-0.3,0.1
			c-0.2,0-0.5-0.2-0.7-0.3c-0.1-0.1-0.3-0.1-0.3-0.1c-0.1,0-0.1-0.1-0.1-0.1v-0.1c0,0,0.1,0,0.2,0
			C-248.8,308.2-248,308.5-247.8,308.6z M-249.8,315.3L-249.8,315.3c0-0.1,0.2,0,1.1,0.3c0.3,0.1,0.5,0.2,0.6,0.2
			c0.1,0,0.9,0.3,0.9,0.4c0,0,0,0.1,0,0.2l-0.1,0.2c-0.1,0-0.7-0.2-0.7-0.2c-0.4-0.2-1.3-0.5-1.4-0.5c-0.2,0-0.3-0.3-0.3-0.4
			C-249.8,315.4-249.8,315.4-249.8,315.3z M-246.8,316.2l-0.2-0.1c-0.1,0-0.1-0.1-0.1-0.1s0-0.1,0.1-0.1c0,0,0.1,0,0.2,0
			c0,0,0.1,0.1,0.2,0.1c0.2,0.1,0.8,0.3,0.8,0.3v0.1l-0.1,0.1C-246,316.5-246.7,316.3-246.8,316.2z M-246,314.9c0,0,0,0.1-0.1,0.1
			c-0.1,0-1.3-0.4-1.5-0.4h-0.1h-0.1c-0.1,0-0.2,0-0.2-0.2v-0.2c0.1,0,1.3,0.4,1.4,0.4c0.2,0,0.3,0,0.4,0.1
			C-246.1,314.7-246,314.9-246,314.9z M-246.5,314c-0.2,0-1.5-0.4-1.6-0.5c-0.1,0-0.2-0.1-0.5-0.2c-0.5-0.2-1-0.4-1.1-0.4
			c-0.5-0.2-1.2-0.3-1.2-0.7c0-0.1,0.1-0.2,0.1-0.3h0.1c0,0,0.2,0.1,0.3,0.1c0.2,0.1,0.9,0.4,1.2,0.5c0.2,0.1,2.1,0.8,2.2,0.8
			s0.3,0.1,0.4,0.1v0.1v0.1C-246.5,313.8-246.3,314-246.5,314z M-253,309.1c0-0.1,0-0.2,0.2-0.1c0.1,0,2.7,1,2.8,1l0.1,0.2
			c0,0.1-0.2,0.1-0.2,0.1l-1.8-0.6c-0.5-0.1-1-0.3-1-0.4C-253,309.2-253,309.1-253,309.1z M-253.1,311.7c0.1,0,1.1,0.5,1.1,0.5
			c0.2,0.2,0.3,0.7,0.3,0.8c0.1,0.1-0.7-0.2-0.8-0.3c-0.3-0.1-0.7-0.3-0.8-0.3c0-0.1-0.1-0.2,0-0.3
			C-253.1,312.1-253.2,311.7-253.1,311.7z M-253.1,313.5c0-0.1,0-0.3,0.1-0.3c0,0,1.4,0.4,1.5,0.4c0.3,0.1,0.3,0.7,0.3,0.7l-0.1,0.1
			c-0.1,0-1.2-0.4-1.3-0.4c-0.1,0-0.3-0.1-0.4-0.1C-253,313.8-253.1,313.5-253.1,313.5z M-252.2,310.2c0,0,0-0.2,0.1-0.2
			c0.1,0,0.9,0.3,1.1,0.4c0.2,0.1,0.3,0.1,0.4,0.2c0,0,0.1,0.1,0,0.2c0,0,0,0.2-0.1,0.2h-0.1C-250.8,310.7-252.2,310.3-252.2,310.2z
			 M-246.7,312.8c0,0.1,0,0.2-0.1,0.2c-0.1,0-2.4-0.8-2.5-0.9c0,0-1.1-0.5-1.2-0.6l0.1-0.2c0-0.1,0.1-0.1,0.2,0
			c0.1,0.1,1.2,0.4,1.4,0.5l0.3,0.1c0.2,0.1,1,0.4,1.1,0.4h0.1c0.1,0,0.2,0,0.4,0.1C-246.7,312.5-246.7,312.8-246.7,312.8z
			 M-246.9,312c0,0.1-0.2,0.1-0.2,0.1s-2.1-0.8-2.3-0.9c-0.3-0.1-0.6-0.2-0.7-0.3c0-0.1,0.1-0.6,0.9-0.2c0.2,0.1,2,0.7,2,0.7
			c0.2,0.1,0.1,0.2,0.2,0.4C-246.9,311.8-246.9,311.8-246.9,312z M-252.9,305.4c0.1-0.1,0.3-0.1,0.4,0c0.1,0.1,2.7,1.1,3,1.2
			c0.1,0,0.1,0.1,0.1,0.1s0,0.5,0,0.6c-0.1,0.1-0.2,0.1-0.3,0.1c-0.2-0.1-3-1.3-3.2-1.4l-0.1-0.1
			C-252.9,305.7-252.9,305.4-252.9,305.4z M-252.9,306.5c0.1,0,0.2,0.1,0.4,0.1c0.1,0,0.2,0.1,0.2,0.1c0.1,0,1.4,0.5,1.8,0.7
			l0.3,0.1c0.1,0,0.1,0.1,0.1,0.1v0.2c0,0,0,0.2-0.5,0.1c-0.7-0.2-2.7-0.7-2.6-1.3C-253.1,306.6-252.9,306.5-252.9,306.5z
			 M-248,309.3l-0.3-0.1c-0.3-0.1-0.8-0.2-1-0.3c-0.1-0.1-0.1-0.1-0.1-0.2s0.1-0.1,0.2,0c0.2,0,0.6,0.2,0.9,0.3
			c0.2,0,0.3,0.1,0.4,0.2c0.1,0,0.1,0.1,0.1,0.1v0.1C-247.8,309.3-247.9,309.3-248,309.3z M-249.6,305.8c-0.1,0.1-1.2-0.4-1.4-0.5
			c-0.2-0.1-1-0.4-1.1-0.5c-0.1,0-0.1-0.1-0.1-0.2s0.1-0.3,0.2-0.4h0.2c0.1,0.1,0.9,0.4,1.1,0.5c0.1,0,0.4,0.1,0.7,0.3
			c0.2,0.1,0.4,0.2,0.5,0.2s0.1,0.1,0.1,0.1C-249.5,305.5-249.6,305.8-249.6,305.8z M-251.7,303.6c0.1,0,0.2,0,0.2,0.1
			c0.1,0.1,1.1,0.5,1.7,0.8c0.1,0,0.3,0.1,0.3,0.2c0,0.2-0.1,0.3-0.3,0.3c-0.3,0-1.9-0.8-2-0.9c0,0-0.1-0.1-0.1-0.2
			C-251.8,303.7-251.7,303.6-251.7,303.6z M-254.5,298.3c0.1,0.1,1,0.4,1.1,0.5c0.1,0,0.1-0.1,0-0.1c-0.1,0-0.6-0.4-0.8-0.5
			s0.1-0.1,0.2-0.1s0.5,0.2,0.6,0.2c0.1,0,0.2-0.1,0.2-0.1c-0.1-0.1-0.1-0.2-0.3-0.3l0,0c0.4-0.1,0.6-0.3,0.7-0.6
			c0.1-0.2,0.1-0.4,0.2-0.7l0,0c0.1-0.3,0.3-0.5,0.5-0.5s0.3,0.2,0.4,0.5c0.2,1.1,0.2,2.2,0.2,3.3c0,0.7,0,1.4,0.1,2
			c-0.3,0.3-0.6,0.5-0.9,0.8l0,0c0,0-0.1,0-0.3,0s-0.3-0.2-0.2-0.2c0.1,0,0.2-0.2,0.1-0.2c-0.1,0-0.2,0-0.4-0.1
			c-0.2,0-0.2-0.2-0.1-0.2c0.1,0,0.3,0.1,0.4,0.1c0.1,0.1,0.4-0.1,0.1-0.2c-0.2,0-0.6-0.3-0.8-0.3c-0.3,0-0.4-0.2-0.1-0.2
			c0.2,0.1,0.5,0.1,0.8,0.1c0.3,0,0.2-0.2,0-0.2c-0.1,0-0.6-0.1-0.8-0.2s-0.2-0.2,0-0.2s0.8,0.2,1,0.3c0.2,0.1,0.3-0.1-0.1-0.2
			c-0.3-0.1-0.9-0.3-1-0.4c-0.1,0-0.1-0.2,0.1-0.1c0.2,0,0.8,0.2,0.9,0.2c0.1,0,0.2-0.1-0.1-0.1c-0.2,0-0.7-0.3-0.9-0.4
			c-0.2-0.1-0.2-0.2,0-0.2s0.8,0.2,0.9,0.3c0.2,0,0.2-0.1-0.1-0.2s-0.9-0.4-1.1-0.4c-0.2-0.1-0.2-0.2,0-0.2c0.2,0,0.6,0.3,0.8,0.3
			s0.1-0.1,0-0.1c-0.1,0-0.6-0.3-0.7-0.4s-0.1-0.1,0-0.1s0.3,0.1,0.4,0.2c0.1,0,0.2-0.1,0-0.1c-0.2,0-0.5-0.2-0.6-0.2
			c-0.2,0-0.1-0.2,0-0.1c0.1,0,0.5,0.2,0.7,0.2s0.2,0,0-0.1c-0.2,0-0.8-0.3-1-0.5C-254.7,298.4-254.6,298.2-254.5,298.3z
			 M-252.7,307.8c1.1,0.3,2.1,0.8,2.7,1c0.5,0.2,0.2,0.3,0.3,0.4c0.2,0.1,0.5,0.2,1,0.4s0.9,0.3,1,0.4c0.1,0.1,0.1,0.3,0.1,0.3
			s0,0.1-0.1,0.1c0,0-0.1,0-0.2-0.1c-0.1-0.1-0.7-0.3-1.3-0.5c-0.6-0.2-1.2-0.4-1.3-0.5c-0.2-0.1-0.5-0.2-0.8-0.3
			c-0.2-0.1-0.5-0.1-0.6-0.2c-0.4-0.2-0.9-0.3-1.3-0.5C-253,308.3-252.9,307.7-252.7,307.8z M-254.9,311.8c0.1,0,0-0.2-0.2-0.3
			c-0.1-0.1-0.3-0.4-0.2-0.3c0.1,0.1,0.5,0.3,0.6,0.4c0.2,0.1,0.3,0,0-0.1c-0.2-0.1-0.6-0.5-0.7-0.6c-0.1-0.1-0.2-0.4-0.1-0.3
			s0.6,0.4,0.7,0.5c0.1,0.1,0.2,0,0.1-0.1c-0.1-0.1-0.5-0.4-0.7-0.6c-0.4-0.3-0.3-0.9-0.1-0.9c0.1,0,1,0.8,1.1,0.9
			c0.1,0.1,0.2,0,0-0.2c-0.1-0.2-0.9-0.8-1-0.9c-0.3-0.2-0.2-0.6-0.2-0.7s0.1-0.2,0.2-0.1c0.1,0.1,0.8,0.7,0.8,0.8
			c0.1,0.1,0.2,0,0.1-0.1s-0.6-0.5-0.7-0.7c-0.2-0.2,0-0.3,0.1-0.2c0.1,0.1,0.6,0.6,0.8,0.7c0.1,0.1,0.1-0.1,0-0.1
			c-0.1-0.1-0.9-0.8-1-0.9c-0.1,0-0.1-0.1-0.1-0.2c0.1-0.2,0.1-0.3,0.4-0.2c0.1,0,0.3,0.2,0.3,0.3c0.1,0.1,0.2,0,0.1-0.1
			c-0.1-0.1-0.4-0.4-0.5-0.5c-0.1-0.1,0-0.3,0.1-0.2c0.2,0.1,0.6,0.5,0.7,0.6c0.1,0.1,0.3,0,0.1-0.1s-0.9-0.8-0.9-0.9
			c0-0.2-0.1-1,0-0.9c0.1,0.1,0.4,0.3,0.6,0.4c0.2,0.2,0.1-0.1,0-0.2s-0.7-0.5-0.9-1c0-0.1-0.1-0.1-0.1-0.2c-0.3-0.7,0-1.4,0.6-1.7
			c0.2-0.1,0.5-0.1,0.7,0s0.2,0.2,0.2,0.2c0,0.1-0.1,0.1-0.2,0.1c-0.4,0-0.6,0.2-0.8,0.5c-0.1,0.2-0.1,0.5,0,0.7
			c0.1,0.2,0.3,0.4,0.4,0.6l0.4,0.6c0.6,0.8,0.6,2.1,0.5,3c-0.1,0.4-0.1,1.1,0,1.9c0.1,0.8,0,1.4-0.3,1.9c-0.1,0.2-0.3,0.3-0.4,0.3
			s-0.3-0.1-0.4-0.2C-254.8,312.4-255.1,311.9-254.9,311.8z M-252.5,323.5c-0.1,0-0.1,0.1-0.2,0.2c-0.1,0.1-0.4,0.3-0.7,0.2v-0.1
			c0-0.1,0.1-0.3,0.2-0.3c0.1,0,0.4-0.1,0.5-0.2c0-0.1,0.2-0.1,0.2,0C-252.5,323.4-252.5,323.5-252.5,323.5z M-250.5,325.2
			c0,0-0.2,0-0.4-0.1l0,0c0-0.1,0.1-0.2,0.2-0.2c0.1,0.1,0.2,0.2,0.2,0.2C-250.5,325.2-250.5,325.2-250.5,325.2z M-250.7,322.9
			c0,0.5,0.2,1.1,0.2,1.7c-0.1,0-0.1-0.1-0.2-0.1l-0.2-0.1c-0.1-0.1-2.8-2.3-2.9-2.1l-0.1,0.1c0,0,0.1-0.3,0-0.3
			c-0.1-0.1,0-0.4,0-0.5c0.1-0.1,0.1,0,0.3,0.1c0.2,0.1,0.1-0.1,0-0.2c-0.1-0.1-0.2-0.1-0.3-0.2c-0.1-0.1-0.1-0.2,0-0.2
			c0.1,0.1,0.2,0.1,0.3,0.1c0.1,0.1,0.1-0.1,0-0.1c-0.1-0.1-0.2-0.1-0.4-0.2c-0.1-0.1,0-0.3,0.1-0.2c0.1,0.1,0.3,0.2,0.5,0.3
			c0.2,0.1,0.1-0.1,0-0.2c-0.1,0-0.4-0.2-0.5-0.3c-0.2-0.1-0.3-0.5,0-0.5c0.2,0,0.3,0.2,0.5,0.2c0.2,0.1,0.2-0.1,0.1-0.2
			c-0.1-0.1-0.5-0.3-0.6-0.4c-0.2-0.1-0.1-0.4,0.1-0.4c0.1,0,0.2,0.1,0.4,0.1c0.1,0.1,0.2-0.1,0.1-0.1c-0.1-0.1-0.3-0.2-0.4-0.2
			c-0.1-0.1-0.1-0.4,0.1-0.3c0.2,0.1,0.2,0.1,0.4,0.2s0.1-0.1,0-0.2c-0.1-0.1-0.4-0.2-0.5-0.2c-0.1-0.1-0.1-0.3,0.1-0.2
			c0.1,0.1,0.3,0.2,0.4,0.2c0.1,0.1,0.3,0,0.2-0.1s-0.2-0.2-0.3-0.2c-0.6-0.2-0.3-2.2,0.7-1.4c0.2,0.2,1.1,1.3,1.4,1.2
			C-250.7,317.9-250.7,322.8-250.7,322.9z M-252.4,315.4c-0.1,0-0.4-0.7-0.3-0.7c0.1,0,1.3,0.4,1.6,0.5c0.5,0.1,0.4,0.8,0.2,0.8
			C-251.2,315.8-252.2,315.4-252.4,315.4z M-246.1,320.6c-0.1,0-1.7-0.7-1.9-0.8c-0.1-0.1-0.1-0.5,0.2-0.4c0.1,0,1.6,0.7,1.8,0.7
			C-245.2,320.4-245.3,320.9-246.1,320.6z M-249.1,317c-0.2,0-0.4-0.2-0.4-0.3s0.1-0.3,0.6-0.1c0.2,0.1,0.8,0.3,1.1,0.4l0.2,0.1h0.2
			c0.1,0,1.1,0.4,1.2,0.4c0.2,0.1,1,0.4,1.2,0.4c0.1,0,0.1,0.2,0.1,0.3C-245.1,318.6-249,317.1-249.1,317z M-242.1,327.5
			c-0.3,0-1.1,0.2-1.4,0.3c-0.3,0.1-0.3-0.1-0.3-0.3c0-0.1,0.3-0.4,0.5-0.5c0.2-0.1,0.6-0.3,0.7-0.2c0.3,0.3,0.5,0.3,0.8,0.5
			C-241.4,327.5-241.8,327.5-242.1,327.5z M-239.9,327.7c0,0.2-0.5,0.3-0.7,0.3c-0.2,0-0.7-0.2-0.9-0.3c-0.2-0.1,0.1-0.4,0.2-0.5
			c0.2-0.1,0.4,0,0.5,0c0.1,0,0.5-0.1,0.6,0C-240,327.4-239.9,327.5-239.9,327.7z M-241,326.7c-0.2,0.1-0.3,0.1-0.5,0.1
			c0-0.1,0.1-0.2,0-0.2c-0.2,0-0.5-0.3-0.6-0.4c-0.1-0.1,0,0-0.2,0c-0.1,0-0.3,0-0.5,0c-0.3,0-0.3-1.2-0.3-1.4
			c0-0.2,0.3-0.6,0.8-0.5c0.3,0,0.5-0.1,0.5-0.2s0-0.5,0-0.5c0.4,0,0.2-0.4,0.3-0.5c0.3,0,0.7,0,1-0.1h0.1c0,0.2,0.6,2.8,0.8,3.8
			C-240.1,326.5-240.6,326.6-241,326.7z M-233.4,308.8v-0.1V308.8z M-233.4,308.6L-233.4,308.6L-233.4,308.6z M-233.4,308.5
			C-233.4,308.5-233.4,308.4-233.4,308.5C-233.4,308.4-233.4,308.5-233.4,308.5z M-233.4,308.4
			C-233.3,308.3-233.3,308.3-233.4,308.4C-233.3,308.3-233.3,308.3-233.4,308.4z M-233.4,307.2c0-0.1,0-0.1,0-0.1V307.2z
			 M-233.3,308.2L-233.3,308.2L-233.3,308.2z M-233.3,308.1C-233.3,308.1-233.3,308-233.3,308.1C-233.3,308-233.3,308.1-233.3,308.1
			z M-233.3,307.9L-233.3,307.9L-233.3,307.9z M-233.4,307.8C-233.4,307.8-233.4,307.7-233.4,307.8
			C-233.4,307.7-233.4,307.8-233.4,307.8z M-233.4,307.6L-233.4,307.6L-233.4,307.6z M-233.4,307.5
			C-233.4,307.5-233.4,307.4-233.4,307.5C-233.4,307.4-233.4,307.5-233.4,307.5z M-233.4,307.4L-233.4,307.4
			C-233.4,307.3-233.4,307.3-233.4,307.4z M-234,305.4c0,0,0-0.1-0.1-0.1C-234,305.3-234,305.3-234,305.4z M-233.4,307v-0.1
			C-233.5,306.9-233.4,307-233.4,307z M-233.5,306.8L-233.5,306.8L-233.5,306.8z M-233.5,306.7
			C-233.5,306.7-233.5,306.6-233.5,306.7C-233.5,306.6-233.5,306.7-233.5,306.7z M-233.5,306.5
			C-233.5,306.5-233.6,306.5-233.5,306.5C-233.6,306.5-233.5,306.5-233.5,306.5z M-233.6,306.4
			C-233.6,306.4-233.6,306.3-233.6,306.4C-233.6,306.3-233.6,306.4-233.6,306.4z M-233.6,306.2L-233.6,306.2L-233.6,306.2z
			 M-233.7,306.1C-233.7,306.1-233.7,306-233.7,306.1C-233.7,306-233.7,306.1-233.7,306.1z M-233.7,306
			C-233.7,305.9-233.7,305.9-233.7,306C-233.7,305.9-233.7,305.9-233.7,306z M-233.8,305.8C-233.8,305.8-233.8,305.7-233.8,305.8
			C-233.8,305.7-233.8,305.8-233.8,305.8z M-233.8,305.7v-0.1C-233.9,305.6-233.8,305.6-233.8,305.7z M-233.9,305.5
			c0,0,0-0.1-0.1-0.1C-233.9,305.4-233.9,305.5-233.9,305.5z M-234.3,304.7C-234.3,304.7-234.4,304.6-234.3,304.7
			C-234.4,304.6-234.3,304.7-234.3,304.7z M-234,305.2C-234.1,305.2-234.1,305.1-234,305.2C-234.1,305.1-234.1,305.2-234,305.2z
			 M-234.1,305.1C-234.1,305-234.1,305-234.1,305.1C-234.1,305-234.1,305-234.1,305.1z M-234.2,304.9L-234.2,304.9L-234.2,304.9z
			 M-234.3,304.8L-234.3,304.8L-234.3,304.8z M-233.7,308.7c-0.5,2.8,0.9,5,2.2,7.1v0.1c0.2,0.4,0.5,1.1,0.6,1.3
			c0.1,0.2,0.1,0.9,0.1,1.1c0,0.3-0.5,1.2-0.6,1.4c-0.1,0.2-0.4,0.5-0.6,0.6c0,0-1.8,3-10,2.2c-0.7-0.2-0.8-0.7-0.9-0.9
			c-0.1-0.2-1-0.6-1.3-0.6c-0.2,0-0.2-0.2,0-0.3c0.2-0.1-0.2-0.2-0.4-0.3c-0.8-0.3-0.4-0.9-0.2-0.8s1.1,0.4,1.4,0.4
			c0.3,0,0.1-0.2,0-0.2c-0.1,0-0.8-0.2-1-0.3c-0.8-0.4,0-0.9,0.3-0.8c0.1,0,0.9,0.2,1.2,0.3c0.3,0.1,0.1-0.1-0.1-0.2
			c-0.3-0.1-0.4-0.1-0.7-0.2s0-0.1,0.1-0.1c0.1,0,0.6,0.1,0.6,0.1c-0.1-0.1-0.5-0.3-0.9-0.4c-0.4-0.2-2-1.9,0.4-1.3
			c0.2,0.1,0.3-0.2,0.2-0.3c-0.1,0-1.3-0.6-1.6-0.6c-0.6-0.2-0.6-0.8-0.5-0.8c0.1,0,1.2,0.5,1.4,0.5s0.2-0.2,0-0.3
			c-0.1-0.1-1.1-0.4-1.2-0.4c-0.2,0-0.4-0.2-0.3-0.3c0-0.1-0.1-0.1-0.3-0.2c-0.2-0.2,0-0.3,0.3-0.2c0.3,0.1,0.2-0.1,0.1-0.2
			c-0.1-0.1-0.4-0.2-0.5-0.4c-0.2-0.2-0.2-0.6-0.3-0.8c-0.1-0.2,0.1-0.1,0.3,0c0.2,0,0-0.1-0.2-0.2c-0.2-0.1-0.3-0.2-0.3-0.3
			c-0.1-0.1,0.3,0,0.5,0c0.2,0,0.1-0.1-0.1-0.2s-0.4-0.2-0.4-0.3c0-0.1,0.2,0,0.5,0c0.2,0,0.1-0.2-0.1-0.2c-0.2-0.1-0.3,0-0.5-0.1
			s-0.1-0.2-0.1-0.3c0-0.1,0.1-0.1,0.3-0.1s0.3,0,0.3-0.1c-0.1-0.1-0.4-0.1-0.5-0.1s-0.3-0.2-0.2-0.3c0.1-0.1-0.1-0.3-0.1-0.3
			c-0.1,0,0.1-0.1,0.2-0.1c0.1,0,0.1-0.3-0.2-0.2c-0.4,0.1-0.1-0.3-0.2-0.6c0-0.3,0.1-0.3,0-0.4c-0.1-0.1-0.5,0.3-0.5,0
			c0.1-0.3-0.1-0.4-0.2-0.4c0,0,0-0.2-0.1-0.3c-0.1-0.1-1.1-0.3-1.3-0.4c-0.3-0.1,0-0.6,0.6-0.4c0.2,0.1,0.5,0.1,0.5-0.1
			c0-0.1-0.2-0.1-0.6-0.3s-0.3-0.6,0.2-0.5c0.2,0,0.3-0.1,0.2-0.2c-0.1-0.1-0.3-0.1-0.4-0.1c-0.3-0.1-0.6-1,0.2-0.9
			c0.1,0,0.2-0.1,0-0.2c-0.2,0-0.2-0.1-0.4-0.1c-0.1,0,0-0.7,0.2-0.7c0.2,0,0.3,0.1,0.5,0.1c0.2,0.1,0.2-0.1,0-0.2
			c-0.1-0.1-0.3-0.2-0.4-0.2c-0.1-0.1,0-0.1,0.1-0.2c0.1-0.1,0.4,0.1,0.6,0.2s0.2-0.2,0-0.3c-0.1-0.1-0.5-0.2-0.5-0.3s0-0.4,0.1-0.4
			c0.1,0,0.6,0.1,0.6,0.1s0.2-0.2,0-0.3c-0.1,0-0.1,0-0.5-0.2c-0.3-0.1,0-0.5,0.2-0.4c0.1,0,0.6,0.2,0.9,0.1c0.3-0.1,0.2-0.3,0-0.3
			c-0.2-0.1-0.8-0.2-1-0.3c-0.2-0.1,0.2-0.7,0.4-0.8c0.3-0.1,1-0.6,1.6,0.2c0.1,0.2,0.5,0.3,0.6,0.4c0.1,0.1,0.6,0.4,0.7,0.5
			c0.1,0.2,0.3,0.1,0.6,0c0.1-0.1-0.1-0.4-0.5-0.8c-0.2-0.1-0.4-0.1-0.5-0.2c-0.1-0.1-0.6-0.8-0.5-0.9l0,0c-0.2-0.2-0.3-0.3-0.3-0.3
			l-0.4-0.3c1.2-0.2,2.5-0.1,4.1,0.5c0,0,2.4,2.7,2.4,2.8c0,0.1,0.4,0.2,0.5,0.1c0.1-0.1,0-0.5-0.2-0.5c-0.2,0-0.4-0.7-0.5-0.8
			c-0.1-0.1-1-1.2-1.2-1.3c-0.1-0.2,0.1-0.2,0.2-0.1c0.1,0.1,0.4,0.4,0.5,0.3c0.1-0.1,0-0.1-0.2-0.3c-0.2-0.2,0.1,0,0.2-0.1l0,0
			c0.8,0.1,1.6,0.4,2.4,1c1.2,0.8,2.2,1.9,2.6,3.1l0,0l0,0C-234.1,304.9-233.5,307.2-233.7,308.7z M-233.3,304.7v0.1
			c-0.1-0.1-0.2-0.1-0.3-0.2c-0.1-0.3-0.5-0.8-0.6-0.9s0.1-0.3,0.4,0C-233.6,303.9-233.3,304.5-233.3,304.7z M-234.2,300.2
			c-0.2,0-0.4,0.2-0.4,0.4c0.1,0.2,0,0.6,0,0.7c0,0.2,0.2,0.5,0.3,0.5c0.1,0.1,0.2,0.4,0.1,0.5c-0.1,0.1-0.3,0.1-0.2,0.2
			c0.1,0.2-0.1,0.4-0.1,0.3c-0.1-0.1-0.1-0.2-0.2-0.4c-0.1-0.2-0.2-0.3-0.1-0.1c0.1,0.2,0.1,0.3,0.1,0.5c0.1,0.2-0.1,0.3-0.2,0
			c-0.1-0.2-0.3-0.5-0.3-0.6c0-0.2-0.2-0.1-0.1,0.1c0,0.2-0.1,0.3-0.2,0c-0.1-0.2-0.3-0.9-0.4-1.1c0.1-0.2-0.1-0.2-0.1-0.1
			s0.1,0.3,0.1,0.4s-0.1,0.2-0.2,0c0-0.2-0.2-0.4-0.2-0.6c0-0.1-0.3-0.3-0.2-0.1c0.1,0.2,0,0.3,0.1,0.5c0,0.2-0.1,0.1-0.2,0
			c0-0.1-0.1-0.3-0.1-0.4c0-0.1-0.2-0.3-0.2-0.1c0,0.1,0,0.2-0.1,0.2c-0.1,0-0.1-0.2-0.1-0.3s-0.2-0.4-0.2-0.6
			c-0.1-0.2-0.2-0.2-0.2-0.1c0.1,0.1,0.1,0.4,0.1,0.5s-0.2,0.1-0.2,0s-0.3-0.6-0.3-0.7c-0.1-0.1-0.2,0-0.1,0.1
			c0.1,0.1,0.1,0.3,0.2,0.5c0,0.1-0.2-0.1-0.2-0.2c-0.1-0.1-0.2-0.4-0.3-0.5s-0.2-0.1-0.2,0c0.1,0.1,0.1,0.2,0.1,0.3
			c0.1,0.2-0.2,0-0.3-0.1c0-0.1-0.3-0.5-0.3-0.6c0-0.1-0.2,0-0.1,0.1s0.1,0.2,0.1,0.4c0,0.1-0.3-0.1-0.3-0.2s-0.3-0.4-0.4-0.7
			c-0.1-0.2-0.1,0-0.1,0.1s0.1,0.3,0.2,0.4c0,0.1-0.1,0.1-0.2,0c0-0.1-0.2-0.4-0.2-0.5s-0.3-0.2-0.1,0.2c0.2,0.3,0.1,0.3-0.1,0.3
			c-0.1,0-0.2-0.1-0.2-0.1s-0.1-0.2-0.1-0.4c0-0.2-0.2-0.1-0.1,0c0,0.1,0,0.2,0,0.3c0,0.1-0.2,0-0.2,0c0-0.1-0.1-0.3-0.2-0.4
			c0-0.1-0.2-0.1-0.1,0c0.1,0.1,0.1,0.2,0.1,0.3s0,0.1-0.1,0.1c-0.1-0.1-0.2-0.2-0.3-0.3c-0.1-0.1-0.3,0.1-0.4,0.1
			c-0.1,0-0.3-0.3-0.4-0.3c-0.1,0-0.1,0-0.1,0.1s0.2,0.2,0.2,0.3s0,0.3-0.1,0.3c-0.2,0-0.3-0.3-0.5-0.3s-0.4,0-0.5,0.1l0,0
			c-0.2,0-0.4-0.1-0.5-0.1c-0.2-0.1-0.3-0.1-0.4-0.1c-0.1,0-0.1-0.1-0.1-0.2c3.2-1.6,7.6-1.7,11.3,1.3h-0.1c-0.1,0-0.3,0-0.4,0
			C-233.6,300.1-234,300.2-234.2,300.2z M-232.7,300.8c-0.1,0.1-0.2,0.2-0.3,0.3c-0.1,0.2-0.1,0.5-0.1,0.8c0,0.2,0.1,0.4,0.2,0.6
			c0.1,0.3,0.2,0.7,0.3,0.9c0,0.2,0,0.4,0,0.6c0,0.1,0,0.2,0,0.3c0,0.2,0.1,0.4,0.3,0.5c0.1,0.2,0.3,0.4,0.3,0.5l0,0l0,0
			c0,0-0.1,0-0.2-0.1c-0.2-0.1-0.4-0.4-0.6-0.7c-0.1-0.1-0.1-0.3-0.1-0.4s0-0.3,0-0.3c0.1-0.4-0.3-1.3-0.4-1.5
			c-0.1-0.1-0.2-0.3-0.3-0.5c0-0.1-0.2-0.7,0.1-1c0.1-0.1,0.4-0.3,0.6-0.4C-232.8,300.7-232.7,300.7-232.7,300.8z"/>
	</g>
	<g>
		<defs>
			<path id="SVGID_39_" d="M-224.8,307.7c0,10-8.1,18.1-18,18.1c-9.9,0-18-8.1-18-18.1s8.1-18.1,18-18.1
				C-232.9,289.6-224.8,297.7-224.8,307.7z"/>
		</defs>
		<clipPath id="SVGID_40_">
			<use xlink:href="#SVGID_39_"  style="overflow:visible;"/>
		</clipPath>
		<path class="st21" d="M-241.7,299.8L-241.7,299.8c0,0-0.1-0.1-0.3-0.2c-0.4-0.2-0.8-0.4-1.3-0.5c-0.2,0-0.3,0-0.4,0
			c-0.1,0-0.2,0-0.4,0c-0.2,0-0.4,0-0.5,0c-0.4,0-0.8,0-1,0c-0.1,0-0.2,0-0.4,0.1c-0.7,0.1-1.3,0.3-1.8,0.6l0,0
			c-0.3,0.2-0.6,0.4-0.9,0.7c-0.2,0.2-0.5,0.4-0.8,0.4c-1.5,0.5-2.9,1.5-3.6,3.3c0,0.1,0.1,0.2,0.1,0.1c0.9-1.5,2.4-2.4,3.6-2.8
			c0.4-0.1,0.5,0.2,0.6,0.4c0.1,0.6,0.1,1.1,0,1.4c-0.1,0.3-0.2,0.6-0.4,1c-0.1,0.3-0.2,0.8-0.2,1.2c0.1,0.9,0.3,2-0.3,3
			c-0.1,0.1,0,0.2,0.2,0.1c0.7-0.7,0.8-1.8,0.7-2.9c0-0.4,0.1-0.8,0.2-1.1c0.4-0.8,0.6-1.3,0.6-1.9c0-0.4,0-0.8-0.1-1.1
			c0-0.3,0.1-0.6,0.2-0.7c0.2-0.2,0.8-0.6,1.2-0.6c0.3-0.1,0.5,0.1,0.6,0.3c0.6,1,1.4,1.5,2.6,2c0.5,0.2,0.6,0.5,0.5,0.9
			c0,0.1,0,0.6-0.5,1c-0.8,0.7-1.2,1.4-1.5,2.2c-0.1,0.3-0.3,0.6-0.7,0.7c-1.4,0.4-2.3,1.4-1.8,2.6c0.4,1,0.5,1.4,0.7,2.2
			s0.5,2,0.8,2.8c0.4,1.2,1,2.3,1.4,2.9c0.1,0.2,0.2,0.1,0.1-0.1c-0.6-1.1-1.2-2.8-1.4-3.7c0-0.1,0-0.3,0.2-0.3
			c0.5,0.1,1.7,0.4,2.5,0.8c0.1,0.1,0.2-0.1,0.1-0.2c-0.8-0.5-2.1-1-2.7-1.1c-0.2,0-0.3-0.2-0.3-0.5c-0.2-0.8-0.4-1.9-0.8-2.9
			c-0.3-0.6,0-1,0.4-1.4c0.3-0.2,0.8-0.4,1.1-0.4c0.1,0,0.1,0,0.2,0l0.1,0.1c0,0.1,0.1,0.1,0.1,0.2c0.1,0.6,0.5,1.3,0.9,1.7
			c0.4,0.5,0.6,0.8,0.7,1.3c0.1,0.2,0.2,0.2,0.2,0c0-0.4-0.2-1-0.6-1.4c-0.4-0.5-0.7-1.1-0.8-1.6c-0.1-0.5,0-0.9,0.1-1.3
			c0.2-0.8,0.8-1.6,1.4-2c0.5-0.4,0.9-1.1,0.8-2c0-0.2,0.3-0.4,0.4-0.1c0.4,0.9,1,1.6,1.7,2c1.6,1,1.7,2.6,0.3,3.4
			c-1.8,1.1-1.7,2.7-0.9,4.1c0.4,0.6,0.6,1,0.8,1.3c0.2,0.3,0.3,0.7,0.1,1c-0.5,1-0.5,2.1,0.1,2.8c0.4,0.6,0.6,1,0.8,1.3
			c0.1,0.3,0.3,0.2,0.2,0c-0.1-0.5-0.5-1.1-0.7-1.4c-0.3-0.6-0.2-1.6,0-2c0.1-0.4,0.3-0.6,0.4-0.8c0.1-0.2,0.3-0.3,0.4-0.1
			c0.4,0.4,0.7,1.1,0.9,1.5c0.2,0.4,0.5,0.6,0.8,0.7c0.6,0.3,1.3,0.8,1.5,1.3c0.1,0.2,0.2,0.1,0.2,0c-0.2-0.7-0.7-1.1-1.4-1.6
			c-0.4-0.3-0.6-0.4-0.7-0.8c-0.3-0.8-0.5-1.5-1.1-1.9c-0.4-0.2-0.7-0.3-0.9-0.6c-0.7-0.9-1-1.7-1-2.5c0.1-0.7,0.6-1.4,1.3-1.8
			c0.8-0.5,1.2-1.3,1.2-2.1c0-0.2,0.2-0.3,0.4-0.3c0.8,0.2,1.7,0.7,2,2.1c0,0.2,0.2,0.2,0.2,0c-0.1-0.7-0.3-1.9-1.6-2.5
			c-0.1-0.1-0.3-0.1-0.3-0.1h-0.1c-0.1,0-0.2,0-0.3-0.1c-0.2,0-0.5,0-0.7-0.3c-0.4-0.7-0.9-1-1.4-1.3c-0.5-0.3-0.9-0.9-1.2-1.5
			s-0.7-1.1-1.4-1.1c-1.2-0.1-2.2-0.5-2.8-1.5c-0.1-0.2,0-0.4,0.2-0.4c1.7,0.1,2.7,0.4,3.6,1.3c0.7,0.6,1.1,1.2,1.5,1.8
			c0.7,1,1.7,1.2,2.9,1.2c1.2,0,2,0.5,2.7,2.1c0.4,1.2,0.5,2.3-0.1,3.1c-0.5,0.8-0.7,1.8-0.5,2.6c0.1,0.5,0.1,0.9,0.2,1.4
			c0.1,0.5,0.5,1.1,1,1.7c0.4,0.4,0.5,0.7,0.6,1.2s0.3,0.9,0.6,1.3c0.1,0.1,0.2,0,0.1-0.1c-0.1-0.1-0.3-0.6-0.4-1.2
			c-0.1-0.6-0.3-1.1-0.6-1.3c-0.2-0.2-0.4-0.5-0.5-0.9c-0.1-0.3,0.1-0.4,0.4-0.2c0.9,0.6,1.9,1.7,2.3,3.1c0.1,0.2,0.2,0.2,0.2,0
			c-0.1-1.2-1-2.6-2-3.5c-0.4-0.4-1-0.8-1.2-1.7c-0.2-0.8,0.1-1.4,0.5-2.2c0.4-0.8,0.5-2-0.1-3.6c-0.4-1.2-1-1.9-1.6-2.2l0,0
			c0,0-0.1,0-0.1-0.1c-0.5-0.2-1.1-0.3-1.5-0.3c-0.9-0.1-1.7-0.1-2.3-0.9c-0.2-0.3-0.8-1.1-1.6-2"/>
	</g>
	<g>
		<defs>
			<path id="SVGID_41_" d="M-224.8,307.7c0,10-8.1,18.1-18,18.1c-9.9,0-18-8.1-18-18.1s8.1-18.1,18-18.1
				C-232.9,289.6-224.8,297.7-224.8,307.7z"/>
		</defs>
		<clipPath id="SVGID_42_">
			<use xlink:href="#SVGID_41_"  style="overflow:visible;"/>
		</clipPath>
		<path class="st22" d="M-245.6,298.9l-0.4,0.1c-0.7,0.1-1.3,0.3-1.9,0.6l0,0l0,0l0,0c-0.3,0.2-0.6,0.4-0.9,0.7
			c-0.2,0.2-0.5,0.3-0.7,0.4c-1.3,0.5-2.9,1.4-3.7,3.3c0,0.1,0,0.2,0.1,0.2c0.1,0,0.2,0,0.2-0.1c0.8-1.3,2.1-2.3,3.6-2.8
			c0.1,0,0.2,0,0.3,0c0.1,0.1,0.1,0.2,0.2,0.3c0.1,0.6,0.1,1,0,1.4c-0.1,0.2-0.2,0.5-0.2,0.7l-0.2,0.4c-0.1,0.3-0.2,0.8-0.2,1.2v0.2
			c0.1,0.8,0.2,1.8-0.3,2.8c-0.1,0.1,0,0.2,0,0.3c0.1,0,0.2,0.1,0.3-0.1c0.8-0.7,0.8-1.9,0.7-3c0-0.4,0-0.8,0.2-1
			c0.4-0.8,0.6-1.3,0.6-2v-0.4v-0.7c0-0.3,0-0.5,0.2-0.7c0.2-0.2,0.8-0.5,1.2-0.6c0.3,0,0.4,0.1,0.5,0.3c0.7,1.1,1.4,1.6,2.5,2.1
			c0.4,0.2,0.5,0.3,0.5,0.8l0,0c-0.1,0.4-0.1,0.8-0.5,1.2c-0.8,0.7-1.3,1.4-1.5,2.2c-0.1,0.2-0.2,0.5-0.6,0.6
			c-0.9,0.2-1.5,0.7-1.8,1.3c-0.2,0.4-0.2,0.9-0.1,1.4l0.1,0.4c0.3,0.8,0.4,1.1,0.6,1.8c0.2,0.8,0.5,2,0.8,2.8
			c0.4,1.2,1,2.3,1.4,2.9c0.1,0.1,0.2,0.1,0.3,0.1c0.1,0,0.1-0.2,0-0.3c-0.6-1.1-1.2-2.7-1.4-3.7v-0.1c0,0,0,0,0.1,0
			c0.5,0,1.7,0.4,2.5,0.7c0.1,0.1,0.2,0,0.3-0.1c0-0.1,0-0.2-0.1-0.3c-0.9-0.5-2.1-1-2.8-1.1c-0.1,0-0.2-0.2-0.2-0.4l-0.1-0.4
			c-0.2-0.8-0.3-1.6-0.7-2.5c-0.2-0.5-0.1-0.9,0.4-1.3c0.2-0.2,0.8-0.4,1-0.4c0.1,0,0.1,0,0.1,0l0.1,0.1c0,0,0,0.1,0.1,0.2
			c0.2,0.6,0.5,1.3,0.9,1.8c0.4,0.4,0.6,0.8,0.7,1.2c0.1,0.2,0.2,0.2,0.2,0.2s0.2,0,0.1-0.3c0-0.4-0.3-1-0.6-1.5
			c-0.4-0.5-0.7-1.1-0.7-1.6c-0.1-0.4,0-0.8,0.1-1.3c0.2-0.8,0.8-1.6,1.3-2c0.6-0.5,0.9-1.2,0.9-2.1c0-0.1,0-0.1,0.1-0.1
			s0.1,0,0.1,0.1c0.4,0.9,0.9,1.7,1.6,2.1c0.8,0.5,1.3,1.1,1.3,1.8c0,0.6-0.2,1.1-0.8,1.5c-2,1.3-1.6,3-1,4.2c0.3,0.6,0.6,1,0.8,1.3
			l0,0c0.2,0.3,0.2,0.6,0.1,0.9c-0.5,1-0.5,2.1,0.1,2.9c0.3,0.5,0.6,1,0.8,1.3c0.1,0.2,0.2,0.2,0.3,0.2c0.1,0,0.1-0.1,0.1-0.3
			c-0.1-0.5-0.4-1-0.6-1.3l-0.1-0.1c-0.3-0.5-0.2-1.5,0-1.9l0.3-0.6l0.1-0.2c0-0.1,0.1-0.2,0.2-0.2c0,0,0.1,0,0.1,0.1
			c0.3,0.4,0.6,1,0.8,1.4v0.1c0.2,0.4,0.5,0.6,0.8,0.8c0.5,0.3,1.2,0.7,1.4,1.3c0.1,0.2,0.2,0.2,0.2,0.2c0.1,0,0.1-0.1,0.1-0.2
			c-0.2-0.8-0.7-1.1-1.3-1.6l-0.1-0.1c-0.4-0.3-0.6-0.4-0.7-0.8l-0.2-0.4c-0.2-0.6-0.4-1.2-1-1.5l-0.3-0.2c-0.2-0.1-0.4-0.2-0.6-0.4
			c-0.7-0.9-1-1.7-1-2.4c0-0.6,0.5-1.3,1.2-1.7c0.8-0.5,1.3-1.3,1.2-2.2c0-0.1,0-0.1,0.1-0.2c0.1-0.1,0.2-0.1,0.3,0
			c1.1,0.2,1.7,0.9,1.9,2c0,0.2,0.1,0.2,0.2,0.2s0.2-0.1,0.2-0.3c-0.1-0.6-0.2-1.9-1.6-2.5c-0.2-0.1-0.3-0.2-0.4-0.1h-0.1l-0.3-0.1
			h-0.1c-0.2,0-0.4-0.1-0.5-0.3c-0.4-0.7-0.9-1.1-1.4-1.4c-0.5-0.3-0.9-0.9-1.2-1.5s-0.7-1.1-1.4-1.2c-1.2-0.1-2.1-0.6-2.8-1.4v-0.1
			c0,0,0,0,0-0.1s0.1-0.1,0.2-0.1c1.7,0.1,2.7,0.4,3.6,1.2c0.7,0.6,1.1,1.2,1.5,1.8c0.8,1.1,1.9,1.3,3,1.3c1.1,0,1.9,0.3,2.6,2
			c0.5,1.3,0.5,2.3,0,3c-0.5,0.8-0.7,1.8-0.5,2.7c0.1,0.3,0.1,0.5,0.1,0.7c0,0.2,0,0.4,0.1,0.7c0.1,0.6,0.5,1.2,1,1.7
			c0.4,0.4,0.5,0.7,0.6,1.1c0.1,0.4,0.2,0.9,0.6,1.3c0.1,0.1,0.2,0.1,0.3,0c0.1-0.1,0.1-0.2,0-0.3c0,0-0.3-0.4-0.4-1.2
			c-0.1-0.6-0.3-1.1-0.6-1.4c-0.2-0.2-0.4-0.4-0.5-0.9c0-0.1,0-0.2,0-0.2s0.1,0,0.2,0.1c0.5,0.4,1.8,1.5,2.2,3.1
			c0,0.2,0.1,0.2,0.2,0.2c0.1,0,0.1-0.1,0.1-0.2c-0.1-1.2-0.9-2.7-2.1-3.6l0,0l0,0c-0.4-0.4-1-0.8-1.1-1.6c0-0.2-0.1-0.3-0.1-0.5
			c0-0.5,0.2-1,0.6-1.6c0.2-0.4,0.3-0.9,0.3-1.5s-0.1-1.4-0.4-2.1c-0.4-1.1-0.9-1.8-1.6-2.2l-0.1-0.2c-0.5-0.2-1.1-0.3-1.5-0.4h-0.1
			c-0.9-0.1-1.7,0-2.2-0.7l-0.2-0.2c-0.3-0.4-0.8-1.1-1.5-1.7c-0.3-0.2-0.6-0.5-0.9-0.7c0,0-0.1-0.1-0.3-0.2
			c-0.4-0.2-0.8-0.4-1.3-0.5c-0.1,0-0.3-0.1-0.4-0.1l0,0h-0.4h-0.5C-245.1,298.9-245.4,298.9-245.6,298.9z M-247.8,299.8
			c0.5-0.3,1.1-0.5,1.8-0.6l0.4-0.1c0.2,0,0.5,0,1,0h0.5h0.4c0.1,0,0.2,0,0.4,0.1c0.5,0.1,0.9,0.3,1.2,0.5c0.1,0,0.2,0.1,0.3,0.1
			l0,0l0,0l0,0l0,0l0,0c0.3,0.2,0.6,0.4,0.9,0.7c0.7,0.6,1.2,1.3,1.4,1.7l0.2,0.2c0.6,0.8,1.3,0.9,2.3,0.9l0,0h0.1
			c0.4,0,0.9,0.1,1.4,0.3h0.1l0,0c0.7,0.4,1.2,1.1,1.6,2.1c0.2,0.8,0.4,1.5,0.4,2.1s-0.1,1-0.3,1.4c-0.4,0.6-0.6,1.2-0.6,1.7
			c0,0.2,0,0.3,0.1,0.5c0.2,0.8,0.7,1.3,1.2,1.7h0.1c1.1,0.9,1.9,2.3,2,3.5l0,0l0,0c0,0,0,0,0-0.1c-0.4-1.7-1.7-2.8-2.3-3.2
			c-0.2-0.1-0.3-0.1-0.4,0c0,0-0.1,0.1-0.1,0.2c0,0,0,0.1,0,0.2c0.2,0.5,0.4,0.7,0.6,0.9c0.2,0.2,0.5,0.7,0.5,1.3
			c0.1,0.6,0.3,1.1,0.4,1.3l0,0l0,0c-0.3-0.4-0.5-0.8-0.6-1.2c-0.1-0.5-0.2-0.8-0.6-1.2c-0.5-0.6-0.8-1.1-1-1.7
			c-0.1-0.3-0.1-0.5-0.1-0.7c0-0.2,0-0.4-0.1-0.7c-0.1-0.3-0.1-0.5-0.1-0.8c0-0.6,0.2-1.3,0.6-1.8c0.3-0.4,0.4-0.9,0.4-1.5
			c0-0.5-0.1-1.1-0.4-1.7c-0.6-1.5-1.4-2.1-2.7-2.1c-1,0-2.1-0.1-2.8-1.2c-0.4-0.6-0.9-1.2-1.5-1.8c-0.9-0.8-2-1.2-3.7-1.3
			c-0.2,0-0.3,0-0.3,0.2v0.1c0,0.1,0,0.1,0.1,0.2c0.7,0.9,1.7,1.4,2.9,1.5c0.7,0.1,1,0.5,1.3,1.1c0.3,0.6,0.7,1.2,1.3,1.5
			c0.5,0.3,1,0.6,1.3,1.3c0.2,0.3,0.4,0.3,0.6,0.4h0.1l0.3,0.1l0,0h0.1c0,0,0.1,0,0.3,0.1c1.2,0.5,1.5,1.5,1.6,2.4l0,0v0.1
			c0,0,0,0,0-0.1c-0.3-1.5-1.2-2-2-2.2c-0.2,0-0.3,0-0.4,0.1s-0.1,0.2-0.1,0.3l0,0v0.1c0,0.7-0.4,1.4-1.2,1.9s-1.2,1.2-1.3,1.9v0.1
			c0,0.7,0.4,1.6,1,2.4c0.2,0.2,0.4,0.3,0.6,0.4l0.3,0.2c0.5,0.3,0.7,0.8,0.9,1.4l0.2,0.4c0.2,0.4,0.3,0.6,0.8,0.9h0.1
			c0.6,0.5,1.1,0.8,1.3,1.5l0,0l0,0c-0.2-0.7-0.9-1.1-1.5-1.4c-0.3-0.1-0.6-0.3-0.7-0.7v-0.1c-0.2-0.4-0.5-1-0.8-1.4
			c-0.1-0.1-0.2-0.1-0.3-0.1c-0.1,0-0.2,0.1-0.3,0.3l-0.1,0.2l-0.3,0.6c-0.1,0.3-0.2,0.6-0.2,1.1c0,0.4,0.1,0.8,0.2,1l0.1,0.1
			c0.2,0.4,0.5,0.8,0.6,1.3c0,0,0,0,0,0.1c0,0,0,0-0.1-0.1c-0.1-0.3-0.4-0.8-0.8-1.3c-0.3-0.4-0.4-0.8-0.4-1.3s0.1-0.9,0.4-1.4
			c0.1-0.2,0.1-0.3,0.1-0.5s-0.1-0.4-0.2-0.6l0,0c-0.2-0.3-0.4-0.6-0.8-1.2c-0.6-1.2-1-2.8,0.9-4c0.6-0.4,1-1,1-1.6
			c0-0.7-0.5-1.4-1.3-2c-0.6-0.4-1.2-1.1-1.6-2c-0.1-0.2-0.2-0.2-0.3-0.2c-0.1,0-0.2,0.2-0.2,0.3l0,0c0,0.1,0,0.1,0,0.2
			c0,0.7-0.3,1.3-0.8,1.7s-1.2,1.2-1.4,2.1c-0.1,0.3-0.1,0.6-0.1,0.9c0,0.1,0,0.3,0,0.4c0.1,0.5,0.4,1.1,0.8,1.6
			c0.3,0.4,0.5,1,0.6,1.4l0,0l0,0c0,0,0,0,0-0.1c-0.1-0.4-0.4-0.8-0.8-1.3c-0.4-0.4-0.7-1.1-0.9-1.7c0-0.1-0.1-0.2-0.1-0.2l0,0l0,0
			l-0.1-0.1l0,0c-0.1,0-0.1-0.1-0.2-0.1c-0.3,0-0.9,0.2-1.1,0.4c-0.4,0.3-0.5,0.6-0.5,0.9c0,0.2,0,0.3,0.1,0.5
			c0.3,0.9,0.5,1.7,0.7,2.5l0.1,0.4c0.1,0.3,0.2,0.5,0.4,0.5c0.6,0.1,1.9,0.6,2.7,1.1l0,0l0,0c-0.9-0.4-2.1-0.7-2.6-0.8
			c-0.1,0-0.2,0-0.2,0.1s-0.1,0.1-0.1,0.2v0.1c0.2,1,0.8,2.7,1.4,3.8l0,0l0,0c-0.4-0.6-1-1.7-1.4-2.9c-0.3-0.8-0.6-2-0.8-2.8
			c-0.2-0.7-0.3-1.1-0.6-1.8l-0.1-0.4c-0.1-0.2-0.1-0.4-0.1-0.6c0-0.2,0.1-0.5,0.2-0.7c0.3-0.5,0.9-1,1.7-1.2
			c0.4-0.1,0.7-0.5,0.8-0.8c0.2-0.8,0.7-1.4,1.4-2.1c0.4-0.4,0.5-0.9,0.6-1.3l0,0c0-0.1,0-0.1,0-0.2c0-0.4-0.2-0.6-0.6-0.8
			c-1.1-0.4-1.9-0.9-2.5-1.9c-0.1-0.2-0.3-0.4-0.7-0.4c-0.4,0.1-1,0.4-1.3,0.7c-0.2,0.2-0.3,0.4-0.3,0.7v0.1v0.7v0.4v0.1
			c0,0.6-0.2,1-0.6,1.8c-0.1,0.3-0.2,0.6-0.2,1c0,0.1,0,0.1,0,0.2c0,0.3,0,0.5,0,0.8c0,0.8-0.1,1.6-0.7,2.1l0,0l0,0
			c0.3-0.6,0.4-1.2,0.4-1.8c0-0.4,0-0.8-0.1-1.1V305c0-0.1,0-0.2,0-0.2c0-0.3,0.1-0.6,0.2-0.9l0.1-0.3c0.1-0.2,0.2-0.5,0.3-0.7
			c0-0.2,0.1-0.3,0.1-0.5c0-0.3,0-0.5-0.1-0.9c0-0.2-0.1-0.4-0.2-0.4c-0.1-0.1-0.2-0.1-0.4,0c-1.4,0.4-2.7,1.4-3.5,2.6
			c0.8-1.7,2.3-2.6,3.5-3c0.2-0.1,0.5-0.2,0.8-0.5C-248.4,300.2-248.2,300-247.8,299.8L-247.8,299.8L-247.8,299.8z M-235.2,303.6
			L-235.2,303.6L-235.2,303.6L-235.2,303.6z"/>
	</g>
	<g>
		<defs>
			<path id="SVGID_43_" d="M-224.8,307.7c0,10-8.1,18.1-18,18.1c-9.9,0-18-8.1-18-18.1s8.1-18.1,18-18.1
				C-232.9,289.6-224.8,297.7-224.8,307.7z"/>
		</defs>
		<clipPath id="SVGID_44_">
			<use xlink:href="#SVGID_43_"  style="overflow:visible;"/>
		</clipPath>
		<path class="st23" d="M-247.4,315.3c-0.3-0.1-0.5-0.3-0.9-0.8c0,0-0.1-0.1-0.3-0.2c-0.2-0.1-0.6-0.6-0.7-0.7
			c-0.1-0.1-0.9-0.6-1-0.6c-0.8-0.3-1-1-1.2-1.3l0,0l0,0c-0.2-0.3-0.4-0.6-0.6-1l0,0c0,0.1-0.3-0.5-0.4-0.6l0,0
			c-0.1-0.1-0.4-0.3-0.4-0.2c0,0.1,0.2,0.5,0.2,0.6c0.1,0.1,0.4,0.6,0.4,0.8c0,0.1,0.4,0.6,0.5,0.8l0,0c0.3,0.4,0.5,0.8,0.6,1.1
			c0.2,0.5,0.3,0.6,0.4,1.1c0.1,0.6,0.4,1.4,0.6,1.8c0,0.1,0.1,0.1,0.1,0.1s0-0.1,0-0.2c-0.2-0.7-0.5-1.8-0.5-2.1
			c0-0.2,0-0.2,0.1-0.3s0.2,0,0.4,0.1c0.4,0.3,0.9,0.7,1.3,1.2c0.2,0.3,0.6,0.6,1.1,0.7c0.1,0,0.1,0,0.1,0l0,0
			C-247.3,315.5-247.3,315.4-247.4,315.3z"/>
	</g>
	<g>
		<path id="SVGID_2_" class="st24" d="M-224.8,307.7c0,10-8.1,18.1-18,18.1c-9.9,0-18-8.1-18-18.1s8.1-18.1,18-18.1
			C-232.9,289.6-224.8,297.7-224.8,307.7z"/>
	</g>
</g>
<path class="st0" d="M-90.4,297.9c-0.1-0.4-0.2-0.5-0.8-0.5h-2.9c-0.5,0-0.6,0.1-0.7,0.5l-0.7,2c-0.3,0.9-0.4,1.4-0.4,1.6
	c0,0.2,0.1,0.3,0.6,0.4l0.6,0.1c0.1,0.1,0.1,0.4,0,0.5c-0.5,0-1.1,0-2-0.1c-0.6,0-1.3,0-1.9,0.1c-0.1-0.1-0.2-0.4,0-0.5l0.6-0.1
	c0.5,0,0.9-0.3,1.2-1c0.3-0.9,0.9-2.2,1.7-4.3l2-5.2c0.3-0.7,0.4-1.1,0.3-1.4c0.5-0.1,0.8-0.5,1-0.7c0.1,0,0.3,0,0.3,0.2
	c0.3,0.9,0.6,1.7,0.9,2.6l2.7,7.8c0.6,1.7,0.8,2,1.6,2.1l0.5,0.1c0.1,0.1,0.1,0.4,0,0.5c-0.8,0-1.5-0.1-2.3-0.1
	c-0.9,0-1.7,0-2.2,0.1c-0.2-0.1-0.2-0.4,0-0.5l0.6-0.1c0.4,0,0.7-0.2,0.7-0.3c0-0.2-0.1-0.6-0.3-1L-90.4,297.9z M-94.2,296.2
	c-0.2,0.4-0.1,0.5,0.4,0.5h2.4c0.6,0,0.6-0.1,0.4-0.6l-1-3.2c-0.2-0.5-0.3-1-0.4-1.2l0,0c-0.1,0.1-0.3,0.6-0.5,1.1L-94.2,296.2z"/>
<path class="st0" d="M-82.1,299.5c0,2,0,2.3,1.3,2.4l0.5,0.1c0.1,0.1,0.1,0.4,0,0.5c-1.1,0-1.7-0.1-2.5-0.1s-1.5,0-2.4,0.1
	c-0.1-0.1-0.2-0.4,0-0.5l0.4-0.1c1.1-0.2,1.2-0.4,1.2-2.4v-7.2c0-1.6,0-2-0.9-2.1l-0.7-0.1c-0.1-0.1-0.1-0.4,0-0.5
	c1-0.1,2.2-0.2,3.8-0.2s2.8,0.2,3.7,0.8s1.6,1.6,1.6,2.9c0,1.8-1.1,2.7-1.9,3.1c-0.9,0.4-1.9,0.6-2.7,0.6c-0.1-0.1-0.1-0.3,0-0.4
	c2.1-0.4,2.9-1.6,2.9-3.3c0-1.9-1.1-3.1-3.1-3.1c-1,0-1,0.1-1,0.7v8.8H-82.1z"/>
<path class="st0" d="M-71.4,299.5c0,2,0,2.3,1.3,2.4l0.5,0.1c0.1,0.1,0.1,0.4,0,0.5c-1.1,0-1.7-0.1-2.5-0.1s-1.5,0-2.4,0.1
	c-0.1-0.1-0.2-0.4,0-0.5l0.4-0.1c1.1-0.2,1.2-0.4,1.2-2.4v-7.2c0-1.6,0-2-0.9-2.1l-0.7-0.1c-0.1-0.1-0.1-0.4,0-0.5
	c1-0.1,2.2-0.2,3.8-0.2s2.8,0.2,3.7,0.8s1.6,1.6,1.6,2.9c0,1.8-1.1,2.7-1.9,3.1c-0.9,0.4-1.9,0.6-2.7,0.6c-0.1-0.1-0.1-0.3,0-0.4
	c2.1-0.4,2.9-1.6,2.9-3.3c0-1.9-1.1-3.1-3.1-3.1c-1,0-1,0.1-1,0.7v8.8H-71.4z"/>
<path class="st0" d="M-94.2,318c0,0.5,0.1,0.5,0.6,0.5h1.3c0.8,0,1.4,0,1.6-0.1c0.2-0.1,0.4-0.2,0.5-0.7l0.2-0.8
	c0.1-0.1,0.4-0.1,0.5,0c0,0.5-0.1,1.2-0.1,2c0,0.7,0.1,1.4,0.1,1.9c-0.1,0.1-0.4,0.1-0.5,0l-0.2-0.8c-0.1-0.3-0.3-0.6-0.6-0.7
	s-0.8-0.1-1.5-0.1h-1.3c-0.6,0-0.6,0-0.6,0.5v2.7c0,2,0,2.3,1.2,2.4l0.7,0.1c0.1,0.1,0.1,0.4,0,0.5c-1.1,0-1.8-0.1-2.6-0.1
	c-0.9,0-1.5,0-2.4,0.1c-0.1-0.1-0.2-0.4,0-0.5l0.5-0.1c1.1-0.1,1.2-0.4,1.2-2.4v-7c0-2,0-2.3-1.2-2.4h-0.3c-0.1-0.1-0.1-0.4,0-0.5
	c0.8,0,1.5,0.1,2.3,0.1h3.6c1.2,0,2.4,0,2.6-0.1c0,0.9,0,1.8,0.1,2.6c-0.1,0.1-0.3,0.2-0.5,0.1c-0.2-0.9-0.4-1.6-1.4-1.8
	c-0.4-0.1-1.1-0.1-1.9-0.1h-1.2c-0.6,0-0.6,0-0.6,0.8v3.9H-94.2z"/>
<path class="st0" d="M-85.2,322.5c0,1.3,0.3,2.2,1.8,2.2c0.5,0,1.1-0.2,1.6-0.6c0.3-0.2,0.4-0.5,0.4-1.1v-3.2c0-1.3-0.1-1.3-0.7-1.5
	l-0.3-0.1c-0.1-0.1-0.1-0.3,0-0.4c0.8,0,1.8-0.2,2.3-0.3c0.1,0,0.2,0.1,0.2,0.1c0,0.4-0.1,1-0.1,1.7v3.3c0,1.5,0.1,2.1,0.6,2.1
	c0.2,0,0.5,0,0.8-0.1c0.1,0.1,0.1,0.5,0,0.6c-0.8,0.2-1.9,0.3-2.5,0.7c-0.1,0-0.2-0.1-0.2-0.1V325c0-0.2-0.1-0.3-0.2-0.3
	c-0.6,0.4-1.5,1-2.7,1c-1.7,0-2.3-0.9-2.3-2.4v-3.2c0-1.2,0-1.4-0.6-1.6l-0.2-0.1c-0.1-0.1-0.1-0.4,0-0.4c0.9,0,1.6-0.2,2.1-0.3
	c0.1,0,0.2,0.1,0.2,0.1c0,0.3-0.1,0.7-0.1,1.7v3H-85.2z"/>
<path class="st0" d="M-75.2,323.2c0,1.4,0,1.6,0.7,1.7l0.5,0.1c0.1,0.1,0.1,0.4,0,0.5c-0.6,0-1.2-0.1-1.9-0.1s-1.3,0-1.9,0.1
	c-0.1-0.1-0.2-0.4,0-0.5l0.4-0.1c0.7-0.1,0.7-0.3,0.7-1.7v-8.8c0-1.1,0-1.3-0.6-1.6l-0.2-0.1c-0.1-0.1-0.1-0.3,0-0.4
	c0.5-0.2,1.4-0.4,2.1-0.8c0.1,0,0.2,0,0.2,0.1c0,0.6-0.1,1.6-0.1,2.4v9.2H-75.2z"/>
<path class="st0" d="M-70.4,323.2c0,1.4,0,1.6,0.7,1.7l0.5,0.1c0.1,0.1,0.1,0.4,0,0.5c-0.6,0-1.2-0.1-1.9-0.1s-1.3,0-1.9,0.1
	c-0.1-0.1-0.2-0.4,0-0.5l0.4-0.1c0.7-0.1,0.7-0.3,0.7-1.7v-8.8c0-1.1,0-1.3-0.6-1.6l-0.2-0.1c-0.1-0.1-0.1-0.3,0-0.4
	c0.5-0.2,1.4-0.4,2.1-0.8c0.1,0,0.2,0,0.2,0.1c0,0.6-0.1,1.6-0.1,2.4v9.2H-70.4z"/>
<path class="st0" d="M-57.6,322.5c0,2,0,2.3,1.2,2.4l0.6,0.1c0.1,0.1,0.1,0.4,0,0.5c-1.1,0-1.8-0.1-2.5-0.1c-0.8,0-1.5,0-2.7,0.1
	c-0.1-0.1-0.2-0.4,0-0.5l0.7-0.1c1.1-0.1,1.2-0.4,1.2-2.4v-8.7c0-0.6,0-0.6-0.6-0.6h-1.1c-0.8,0-1.9,0-2.4,0.5
	c-0.5,0.4-0.7,0.9-0.9,1.3c-0.2,0.1-0.4,0-0.5-0.1c0.3-0.9,0.6-2.1,0.7-2.9c0.1,0,0.3-0.1,0.4,0c0.1,0.6,0.8,0.6,1.6,0.6h7.9
	c1,0,1.2,0,1.5-0.5c0.1,0,0.3,0,0.3,0.1c-0.2,0.8-0.3,2.4-0.3,3c-0.1,0.2-0.4,0.2-0.5,0c-0.1-0.5-0.2-1.2-0.5-1.4
	c-0.4-0.3-1.2-0.5-2.3-0.5h-1.4c-0.6,0-0.6,0-0.6,0.7v8.5H-57.6z"/>
<path class="st0" d="M-50.8,319.8c0-0.8,0-0.9-0.5-1.2l-0.2-0.1c-0.1-0.1-0.1-0.3,0-0.3c0.4-0.2,1.6-0.7,2-1c0.1,0,0.2,0,0.2,0.1
	c0,0.7-0.1,1.6-0.1,2.4v3.5c0,1.4,0,1.6,0.7,1.7l0.4,0.1c0.1,0.1,0.1,0.4,0,0.5c-0.6,0-1.1-0.1-1.8-0.1s-1.3,0-1.8,0.1
	c-0.1-0.1-0.2-0.4,0-0.5l0.4-0.1c0.7-0.1,0.7-0.3,0.7-1.7L-50.8,319.8L-50.8,319.8z M-49.2,314.3c0,0.7-0.5,1-1,1c-0.6,0-1-0.4-1-1
	c0-0.6,0.5-1,1-1C-49.6,313.3-49.2,313.7-49.2,314.3z"/>
<path class="st0" d="M-44.3,318.5c-0.3,0-0.3,0.1-0.3,0.5v3.6c0,1.1,0.1,2.2,1.4,2.2c0.2,0,0.4,0,0.5-0.1c0.2-0.1,0.4-0.3,0.5-0.3
	c0.2,0,0.2,0.2,0.2,0.3c-0.3,0.4-1,0.9-2,0.9c-1.7,0-2-0.9-2-2.1v-4.4c0-0.5,0-0.6-0.4-0.6H-47c-0.1-0.1-0.1-0.3-0.1-0.4
	c0.6-0.2,1-0.4,1.2-0.6c0.3-0.2,0.6-0.8,0.8-1.1c0.1,0,0.3,0,0.4,0.1v0.9c0,0.3,0,0.4,0.3,0.4h2.2c0.2,0.2,0.2,0.7,0,0.8h-2.1V318.5
	z"/>
<path class="st0" d="M-38.6,323.2c0,1.4,0,1.6,0.7,1.7l0.5,0.1c0.1,0.1,0.1,0.4,0,0.5c-0.6,0-1.2-0.1-1.9-0.1s-1.3,0-1.9,0.1
	c-0.1-0.1-0.2-0.4,0-0.5l0.4-0.1c0.7-0.1,0.7-0.3,0.7-1.7v-8.8c0-1.1,0-1.3-0.6-1.6l-0.2-0.1c-0.1-0.1-0.1-0.3,0-0.4
	c0.5-0.2,1.4-0.4,2.1-0.8c0.1,0,0.2,0,0.2,0.1c0,0.6-0.1,1.6-0.1,2.4v9.2H-38.6z"/>
<path class="st0" d="M-34.5,320.4c-0.5,0-0.5,0-0.5,0.5c0,2,1.1,3.6,3.2,3.6c0.6,0,1.2-0.2,1.8-1c0.2-0.1,0.3,0.1,0.3,0.2
	c-0.6,1.3-2,1.8-3,1.8c-1.3,0-2.3-0.5-2.8-1.3c-0.6-0.8-0.8-1.7-0.8-2.5c0-2.4,1.6-4.4,3.9-4.4c1.7,0,2.8,1.1,2.8,2.3
	c0,0.3,0,0.4-0.1,0.5s-0.3,0.1-1.1,0.1h-3.7V320.4z M-33.3,319.8c1.4,0,1.9-0.1,2-0.2c0.1,0,0.1-0.1,0.1-0.4c0-0.5-0.4-1.2-1.5-1.2
	s-2.1,1-2.2,1.7c0,0,0,0.1,0.1,0.1C-34.8,319.8-33.3,319.8-33.3,319.8z"/>
</svg>
