<svg xmlns="http://www.w3.org/2000/svg" xmlns:xlink="http://www.w3.org/1999/xlink" viewBox="0 0 326.21 55.9"><defs><style>.a,.g,.h{fill:none;}.b,.d{fill:#fff;}.c{fill:#174177;}.d,.g,.h{stroke:#002d5b;}.d,.g{stroke-width:0.61px;}.e{fill:#002d5b;}.f{clip-path:url(#a);}.h{stroke-miterlimit:10;}</style><clipPath id="a"><path class="a" d="M46.2,28.6a18,18,0,1,1-18-18.1A18.07,18.07,0,0,1,46.2,28.6Z"/></clipPath></defs><title>UMTS_Artboard 1</title><path class="b" d="M51.9,28.6a23.6,23.6,0,1,1-47.2,0A23.75,23.75,0,0,1,28.3,4.8,23.75,23.75,0,0,1,51.9,28.6Z"/><path class="c" d="M61.1,15.2c-.3,0-.4,0-.2-.4l.6-1.6c.2-.6.4-1,.4-1.1h0c.1.1.1.4.4,1.1l.6,1.6c.1.3.1.4-.3.4Zm1.5.6c.4,0,.4,0,.6.4l.6,1.8c.2.6.1.7-.4.7h-.3a.3.3,0,0,0,0,.4h3.4a.3.3,0,0,0,0-.4h-.2c-.7-.1-.8-.2-1.1-1.1l-1.9-5.7c-.2-.6-.4-1.3-.6-1.9-.1-.1-.1-.1-.2-.1a2.48,2.48,0,0,1-.9.7,2.65,2.65,0,0,1-.3,1l-1.8,4.8c-.3.7-.5,1.3-.7,1.7s-.4.6-.7.6l-.4.1a.3.3,0,0,0,0,.4h2.7a.3.3,0,0,0,0-.4l-.4-.1c-.5-.1-.6-.1-.3-.9l.6-1.6c.1-.4.1-.4.5-.4Z"/><path class="c" d="M79,18.8a.3.3,0,0,1,0,.4H75.6c-.1-.1-.2-.3,0-.4l.4-.1c.5-.1.6-.2.6-1.1V12h0a12.16,12.16,0,0,0-.8,1.7l-1.2,2.4c-.5,1-1.1,2.5-1.4,3.1a.3.3,0,0,1-.4,0,21.76,21.76,0,0,0-1.1-2.7l-1.2-2.6c-.3-.6-.6-1.4-.8-1.8h0c0,.7-.1,1.7-.1,2.3,0,.8-.1,2-.1,3.2,0,.9,0,1.1.6,1.2l.4.1a.3.3,0,0,1,0,.4H67.7a.3.3,0,0,1,0-.4h.2c.6-.1.8-.3.8-1.1s.1-1.7.2-3.2c.1-.9.1-2.1.1-2.9,0-.6-.2-.9-.7-1l-.5-.1c-.1-.1-.1-.4.1-.4h2.7a10.1,10.1,0,0,0,.7,2.3l1.5,3.1a13.39,13.39,0,0,1,.6,1.2l.7-1.4,1.3-2.6a14.45,14.45,0,0,0,1.1-2.6H79c.1.1.2.3,0,.4l-.4.1c-.6.1-.7.3-.7,1,0,2,0,4,.1,6,0,.9.2,1,.6,1.1H79Z"/><path class="c" d="M81.9,12.1c0-1.4-.1-1.5-.8-1.6h-.2a.3.3,0,0,1,0-.4H87c.1.2.1,1.3.2,1.9a.6.6,0,0,1-.4.1c-.2-.8-.4-1.1-.8-1.2a3.75,3.75,0,0,0-1.1-.1H84c-.6,0-.6,0-.6.8v2.3c0,.4,0,.4.3.4h.6c1.2,0,1.4,0,1.5-.6l.1-.5c.1-.1.4-.1.4,0V16a.3.3,0,0,1-.4,0l-.1-.5c-.1-.6-.3-.6-1.5-.6h-.6c-.3,0-.3,0-.3.4V17c0,.7,0,1.2.2,1.4s.4.3,1.5.3c1.7,0,2-.4,2.5-1.5.1-.1.4-.1.4.1a9.48,9.48,0,0,1-.6,2H80.6a.3.3,0,0,1,0-.4l.5-.1c.6-.1.8-.1.8-1.5V12.1Z"/><path class="c" d="M92,11.3c0-.6,0-.7.7-.7a1.86,1.86,0,0,1,1.9,2,1.65,1.65,0,0,1-1.9,1.9c-.6,0-.6,0-.6-.5V11.3H92Zm-1.6,5.9c0,1.4-.1,1.5-.8,1.6h-.3a.3.3,0,0,0,0,.4h3.6a.3.3,0,0,0,0-.4h-.3c-.6-.1-.8-.1-.8-1.6V15.5c0-.3,0-.3.4-.3a.75.75,0,0,1,.8.5,17.39,17.39,0,0,0,1.1,1.8c.8,1.3,1.5,1.8,2.8,1.8a2,2,0,0,0,.9-.1v-.3a1.39,1.39,0,0,1-.9-.4A17.6,17.6,0,0,1,94.5,15c-.1-.1-.1-.2,0-.2a2.3,2.3,0,0,0,1.6-2.1,2.16,2.16,0,0,0-1.2-2,6,6,0,0,0-2.6-.5,29.12,29.12,0,0,0-3.1.1.3.3,0,0,0,0,.4h.4c.6.1.6.2.6,1.5v5h.2Z"/><path class="c" d="M101.5,17.2c0,1.4.1,1.5.8,1.6h.3a.3.3,0,0,1,0,.4H99a.3.3,0,0,1,0-.4h.3c.6-.1.8-.1.8-1.6V12.1c0-1.4-.1-1.5-.8-1.6H99a.3.3,0,0,1,0-.4h3.6a.3.3,0,0,1,0,.4h-.3c-.6.1-.8.1-.8,1.6Z"/><path class="c" d="M112.7,12.4a.3.3,0,0,1-.4,0,2.4,2.4,0,0,0-2.6-2c-1.7,0-3.4,1.2-3.4,4s1.8,4.3,3.5,4.3a2.9,2.9,0,0,0,2.8-2,.25.25,0,0,1,.4.1,9.3,9.3,0,0,1-.6,2.1c-.2,0-.3.1-.5.1a7.85,7.85,0,0,1-2.1.3,6.76,6.76,0,0,1-3.5-.9,4.27,4.27,0,0,1-1.9-3.7,4.46,4.46,0,0,1,1.7-3.6,6.07,6.07,0,0,1,3.7-1.2,8,8,0,0,1,2.3.3c.2,0,.3.1.4.1A10.48,10.48,0,0,0,112.7,12.4Z"/><path class="c" d="M116.8,15.2c-.3,0-.4,0-.2-.4l.6-1.6c.2-.6.4-1,.4-1.1h0c.1.1.1.4.4,1.1l.6,1.6c.1.3.1.4-.3.4Zm1.6.6c.4,0,.4,0,.6.4l.6,1.8c.2.6.1.7-.4.7h-.3a.3.3,0,0,0,0,.4h3.4a.3.3,0,0,0,0-.4h-.2c-.7-.1-.8-.2-1.1-1.1l-1.9-5.7c-.2-.6-.4-1.3-.6-1.9-.1-.1-.1-.1-.2-.1a2.48,2.48,0,0,1-.9.7,2.65,2.65,0,0,1-.3,1l-1.9,4.8c-.3.7-.5,1.3-.7,1.7s-.3.6-.7.6l-.4.1a.3.3,0,0,0,0,.4h2.7a.3.3,0,0,0,0-.4l-.4-.1c-.5-.1-.6-.1-.3-.9l.6-1.6c.1-.4.1-.4.5-.4Z"/><path class="c" d="M132,16.8v2.4a.76.76,0,0,1-.5.2c-.2-.3-.6-.7-1.6-1.9l-3.2-3.6c-.9-1-1.3-1.5-1.5-1.7v3.6a9.81,9.81,0,0,0,.2,2.7.78.78,0,0,0,.7.3h.3c.1.1.1.4,0,.4h-2.9a.3.3,0,0,1,0-.4l.3-.1a.6.6,0,0,0,.6-.3,9.43,9.43,0,0,0,.2-2.7V12.5c0-1.1,0-1.3-.4-1.7a4.87,4.87,0,0,0-.7-.3h-.2c-.1-.1-.1-.4.1-.4a8.48,8.48,0,0,0,1.6,0h.9a14.25,14.25,0,0,0,2.2,2.8l1.3,1.5a21.85,21.85,0,0,0,2,2.1v-3a6.66,6.66,0,0,0-.3-2.7c-.1-.2-.3-.3-.7-.3h-.3c-.1-.1-.1-.4,0-.4h3a.3.3,0,0,1,0,.4l-.3.1a.6.6,0,0,0-.6.3,9.43,9.43,0,0,0-.2,2.7v3.2Z"/><path class="c" d="M66.3,26.4a.3.3,0,0,1-.4,0,2.4,2.4,0,0,0-2.6-2c-1.7,0-3.4,1.2-3.4,4s1.8,4.3,3.5,4.3a2.9,2.9,0,0,0,2.8-2,.25.25,0,0,1,.4.1,9.3,9.3,0,0,1-.6,2.1c-.2,0-.3.1-.5.1a7.85,7.85,0,0,1-2.1.3,6.76,6.76,0,0,1-3.5-.9A4.27,4.27,0,0,1,58,28.7a4.46,4.46,0,0,1,1.7-3.6,6.07,6.07,0,0,1,3.7-1.2,8,8,0,0,1,2.3.3c.2,0,.3.1.4.1A21,21,0,0,1,66.3,26.4Z"/><path class="c" d="M72.6,24.4c2.1,0,3.1,2.4,3.1,4.4,0,2.7-1.2,3.9-2.8,3.9-2.3,0-3.1-2.6-3.1-4.4C69.7,25.4,71.2,24.4,72.6,24.4Zm.1-.5a4.68,4.68,0,0,0-4.8,4.8,4.57,4.57,0,0,0,4.8,4.6,4.66,4.66,0,0,0,4.8-4.7A4.48,4.48,0,0,0,72.7,23.9Z"/><path class="c" d="M81.8,30.8c0,.7,0,1.2.2,1.4s.4.3,1.5.3c1.5,0,1.7-.1,2.3-1.5.1-.1.4,0,.4.1a9.48,9.48,0,0,1-.6,2H79.1a.3.3,0,0,1,0-.4l.4-.1c.6-.1.8-.1.8-1.5V26c0-1.4-.1-1.5-.8-1.5l-.4-.1a.3.3,0,0,1,0-.4h3.7a.3.3,0,0,1,0,.4l-.3.1c-.6.1-.8.1-.8,1.5v4.8h.1Z"/><path class="c" d="M89.9,30.8c0,.7,0,1.2.2,1.4s.4.3,1.5.3c1.5,0,1.7-.1,2.3-1.5.1-.1.4,0,.4.1a9.48,9.48,0,0,1-.6,2H87.2a.3.3,0,0,1,0-.4l.4-.1c.6-.1.8-.1.8-1.5V26c0-1.4-.1-1.5-.8-1.5l-.4-.1a.3.3,0,0,1,0-.4h3.7a.3.3,0,0,1,0,.4l-.3.1c-.6.1-.8.1-.8,1.5l.1,4.8Z"/><path class="c" d="M96.4,26.1c0-1.4-.1-1.5-.8-1.6h-.2a.3.3,0,0,1,0-.4h6.1c.1.2.1,1.3.2,1.9a.6.6,0,0,1-.4.1c-.2-.8-.4-1.1-.8-1.2a3.75,3.75,0,0,0-1.1-.1h-.9c-.6,0-.6,0-.6.8v2.3c0,.4,0,.4.3.4H99c1.2,0,1.4,0,1.5-.6l.1-.5c.1-.1.4-.1.4,0V30a.3.3,0,0,1-.4,0l-.1-.5c-.1-.6-.3-.6-1.5-.6h-.6c-.3,0-.3,0-.3.4V31c0,.7,0,1.2.2,1.4s.4.3,1.5.3c1.7,0,2-.4,2.5-1.5.1-.1.4-.1.4.1a9.48,9.48,0,0,1-.6,2H95.3a.3.3,0,0,1,0-.4l.5-.1c.6-.1.8-.1.8-1.5V26.1h-.2Z"/><path class="c" d="M112.1,31.7a1.33,1.33,0,0,0,.3,1v.2a1.49,1.49,0,0,0-.6.1,11.7,11.7,0,0,1-2.6.4,5.73,5.73,0,0,1-4.2-1.5,4.47,4.47,0,0,1-1.2-3.1,4.9,4.9,0,0,1,1.2-3.2,5.81,5.81,0,0,1,4.3-1.6,9.91,9.91,0,0,1,1.8.2,3.08,3.08,0,0,0,.9.1c0,.4.1,1.1.2,2.2-.1.1-.4.2-.4,0a2.49,2.49,0,0,0-2.6-2c-2.4,0-3.5,1.7-3.5,4a4.3,4.3,0,0,0,1,3.1,3.33,3.33,0,0,0,2.6,1.2,1.74,1.74,0,0,0,1.2-.3c.1-.1.1-.4.1-.9v-.5c0-1,0-1-.9-1.2l-.5-.1a.3.3,0,0,1,0-.4h3.7c.1.1.2.3,0,.4h-.2c-.5.1-.6.2-.6,1Z"/><path class="c" d="M115.4,26.1c0-1.4-.1-1.5-.8-1.6h-.2a.3.3,0,0,1,0-.4h6.1c.1.2.1,1.3.2,1.9a.6.6,0,0,1-.4.1c-.2-.8-.4-1.1-.8-1.2a3.75,3.75,0,0,0-1.1-.1h-.9c-.6,0-.6,0-.6.8v2.3c0,.4,0,.4.3.4h.6c1.2,0,1.4,0,1.5-.6l.1-.5c.1-.1.4-.1.4,0V30a.3.3,0,0,1-.4,0l-.1-.5c-.1-.6-.3-.6-1.5-.6h-.6c-.3,0-.3,0-.3.4V31c0,.7,0,1.2.2,1.4s.4.3,1.5.3c1.7,0,2-.4,2.5-1.5.1-.1.4-.1.4.1a9.48,9.48,0,0,1-.6,2h-6.8a.3.3,0,0,1,0-.4l.5-.1c.6-.1.8-.1.8-1.5Z"/><path class="c" d="M127.6,32.8c-.3,0-.5-.3-.5-.7a7.89,7.89,0,0,1,1.3-3.5c.4-.4.6-.6.9-.6s.4.4.4.7a7.2,7.2,0,0,1-1.1,3.2C128.2,32.5,127.9,32.8,127.6,32.8Zm-1.7-1.3a1.6,1.6,0,0,0,1.7,1.8,3.12,3.12,0,0,0,2.1-.9,4.44,4.44,0,0,0,1.3-3,1.6,1.6,0,0,0-1.7-1.8,3.12,3.12,0,0,0-2.1.9A4.34,4.34,0,0,0,125.9,31.5Z"/><path class="c" d="M135.2,28.3c-.5,1.4-1.1,3.8-1.5,5.2a7.29,7.29,0,0,1-1,2.3,2.41,2.41,0,0,1-1.8.9,1,1,0,0,1-1.1-.9c0-.4.2-.6.5-.6s.3.1.4.3c.3.4.6.7.8.7s.4-.2.7-1.2c.5-1.6,1.1-4.3,1.8-6.7h-1.2a.48.48,0,0,1,.2-.6h1.2a8.79,8.79,0,0,1,1.2-2.8,3.12,3.12,0,0,1,2.6-1.6c.8,0,1.3.5,1.3,1a.81.81,0,0,1-.7.9.27.27,0,0,1-.3-.3c-.1-.9-.5-1.2-.8-1.2s-.6.3-.9.9a21.08,21.08,0,0,0-1,3h1.6a.4.4,0,0,1-.2.6l-1.8.1Z"/><path class="c" d="M66.2,40.3a.3.3,0,0,1-.4,0,2.4,2.4,0,0,0-2.6-2c-1.7,0-3.4,1.2-3.4,4s1.8,4.3,3.5,4.3a2.9,2.9,0,0,0,2.8-2,.25.25,0,0,1,.4.1,9.3,9.3,0,0,1-.6,2.1c-.2,0-.3.1-.5.1a7.85,7.85,0,0,1-2.1.3,6.76,6.76,0,0,1-3.5-.9,4.27,4.27,0,0,1-1.9-3.7A4.46,4.46,0,0,1,59.6,39a6.07,6.07,0,0,1,3.7-1.2,8,8,0,0,1,2.3.3c.2,0,.3.1.4.1A21,21,0,0,1,66.2,40.3Z"/><path class="c" d="M70.4,43c-.3,0-.4,0-.2-.4l.6-1.6c.2-.6.4-1,.4-1.1h0c.1.1.1.4.4,1.1l.6,1.6c.1.3.1.4-.3.4Zm1.6.7c.4,0,.4,0,.6.4l.6,1.8c.2.6.1.7-.4.7h-.3a.3.3,0,0,0,0,.4h3.4a.3.3,0,0,0,0-.4h-.2c-.7-.1-.8-.2-1.1-1.1l-1.9-5.7c-.2-.6-.4-1.3-.6-1.9-.1-.1-.1-.1-.2-.1a2.48,2.48,0,0,1-.9.7,2.65,2.65,0,0,1-.3,1l-1.8,4.8c-.3.7-.5,1.3-.7,1.7s-.4.6-.7.6H67a.3.3,0,0,0,0,.4h2.7a.3.3,0,0,0,0-.4l-.4-.1c-.5-.1-.6-.1-.3-.9l.6-1.6c.1-.4.1-.4.5-.4H72v.1Z"/><path class="c" d="M79.7,39.2c0-.6,0-.7.7-.7a1.86,1.86,0,0,1,1.9,2,1.65,1.65,0,0,1-1.9,1.9c-.6,0-.6,0-.6-.5l-.1-2.7ZM78.1,45c0,1.4-.1,1.5-.8,1.6H77a.3.3,0,0,0,0,.4h3.6a.3.3,0,0,0,0-.4h-.3c-.6-.1-.8-.1-.8-1.6V43.3c0-.3,0-.3.4-.3a.75.75,0,0,1,.8.5,17.39,17.39,0,0,0,1.1,1.8c.8,1.3,1.5,1.8,2.8,1.8a2,2,0,0,0,.9-.1v-.3a1.39,1.39,0,0,1-.9-.4,17.6,17.6,0,0,1-2.4-3.5c-.1-.1-.1-.2,0-.2a2.3,2.3,0,0,0,1.6-2.1,2.16,2.16,0,0,0-1.2-2A6,6,0,0,0,80,38a29.12,29.12,0,0,0-3.1.1.3.3,0,0,0,0,.4h.4c.6.1.6.2.6,1.5v5h.2Z"/><path class="c" d="M89.2,39.7c0-.6,0-.9.1-1a2,2,0,0,1,1.1-.2c2.3,0,3.8,1.3,3.8,4,0,2.3-1.1,4-3.5,4-1.4,0-1.5-.7-1.5-2V39.7ZM87.6,45c0,1.4-.1,1.5-.8,1.6h-.3a.3.3,0,0,0,0,.4h1.7c.5,0,1.1.1,2,.1a7,7,0,0,0,3.3-.7,4.28,4.28,0,0,0,2.4-3.9,4.15,4.15,0,0,0-2.8-4.1,8,8,0,0,0-3.2-.5c-1.3,0-2.4,0-3.4.1a.3.3,0,0,0,0,.4h.3c.6.1.6.2.6,1.5V45Z"/><path class="c" d="M100.5,45c0,1.4.1,1.5.8,1.6h.3a.3.3,0,0,1,0,.4H98a.3.3,0,0,1,0-.4h.3c.6-.1.8-.1.8-1.6V40c0-1.4-.1-1.5-.8-1.6H98a.3.3,0,0,1,0-.4h3.6a.3.3,0,0,1,0,.4h-.3c-.6.1-.8.1-.8,1.6Z"/><path class="c" d="M108,38.3c2.1,0,3.1,2.4,3.1,4.4,0,2.7-1.2,3.9-2.8,3.9-2.3,0-3.1-2.6-3.1-4.4C105.1,39.3,106.6,38.3,108,38.3Zm.1-.5a4.62,4.62,0,0,0-4.8,4.8,4.57,4.57,0,0,0,4.8,4.6,4.66,4.66,0,0,0,4.8-4.7A4.53,4.53,0,0,0,108.1,37.8Z"/><path class="c" d="M117.3,44.7c0,.7,0,1.2.2,1.4s.4.3,1.5.3c1.5,0,1.7-.1,2.3-1.5.1-.1.4,0,.4.1a9.48,9.48,0,0,1-.6,2h-6.5a.3.3,0,0,1,0-.4l.4-.1c.6-.1.8-.1.8-1.5V40c0-1.4-.1-1.5-.8-1.5l-.4-.1a.3.3,0,0,1,0-.4h3.7a.3.3,0,0,1,0,.4l-.3.1c-.6.1-.8.1-.8,1.5l.1,4.7Z"/><path class="c" d="M127.3,38.3c2.1,0,3.1,2.4,3.1,4.4,0,2.7-1.2,3.9-2.8,3.9-2.3,0-3.1-2.6-3.1-4.4C124.5,39.3,126,38.3,127.3,38.3Zm.2-.5a4.62,4.62,0,0,0-4.8,4.8,4.57,4.57,0,0,0,4.8,4.6,4.7,4.7,0,1,0,0-9.4Z"/><path class="c" d="M142.3,45.6a1.33,1.33,0,0,0,.3,1v.2a1.49,1.49,0,0,0-.6.1,12.66,12.66,0,0,1-2.6.4,5.73,5.73,0,0,1-4.2-1.5,4.47,4.47,0,0,1-1.2-3.1,4.9,4.9,0,0,1,1.2-3.2,5.81,5.81,0,0,1,4.3-1.6,9.91,9.91,0,0,1,1.8.2,3.08,3.08,0,0,0,.9.1c0,.4.1,1.1.2,2.2-.1.1-.4.1-.4,0a2.49,2.49,0,0,0-2.6-2c-2.4,0-3.5,1.7-3.5,4a4.3,4.3,0,0,0,1,3.1,3.33,3.33,0,0,0,2.6,1.2,1.74,1.74,0,0,0,1.2-.3c.1-.1.1-.4.1-.9V45c0-1,0-1-.9-1.2l-.5-.1a.3.3,0,0,1,0-.4h3.7a.3.3,0,0,1,0,.4h-.2c-.5.1-.6.2-.6,1v.9Z"/><path class="c" d="M147.2,44.2a3.29,3.29,0,0,0-.4-1.7l-1.6-3.2c-.3-.6-.4-.7-1-.9l-.4-.1c-.1-.1-.1-.4.1-.4h3.4a.3.3,0,0,1,0,.4l-.4.1c-.2,0-.3.1-.3.2s.1.3.2.7a25.31,25.31,0,0,0,1.6,3.3c.6-1,1.1-2,1.6-3,.2-.5.4-.8.4-.9s-.1-.2-.3-.2l-.4-.1a.3.3,0,0,1,0-.4h2.7a.3.3,0,0,1,0,.4l-.4.1c-.6.1-.8.4-1.5,1.6-.5.8-.9,1.5-1.3,2.3a3,3,0,0,0-.5,1.9V45c0,1.4.1,1.5.8,1.5l.5.1a.3.3,0,0,1,0,.4h-4a.3.3,0,0,1,0-.4l.4-.1c.6-.1.8-.1.8-1.5v-.8Z"/><path class="d" d="M50.8,28.6A22.5,22.5,0,1,1,28.3,6,22.56,22.56,0,0,1,50.8,28.6Z"/><path class="e" d="M51.1,28.6A22.8,22.8,0,1,1,28.3,5.7,22.81,22.81,0,0,1,51.1,28.6Z"/><path class="b" d="M29.2,29.1c-.3-.1-2.2-.9-2.2-.9s0-.4.3-.2c.1,0,1.9.8,2.1.8S29.6,29.2,29.2,29.1Z"/><path class="d" d="M48.1,28.6a19.9,19.9,0,1,1-19.9-20A20,20,0,0,1,48.1,28.6Z"/><path class="b" d="M46.2,28.6a18,18,0,1,1-18-18.1A18.07,18.07,0,0,1,46.2,28.6Z"/><g class="f"><path class="e" d="M22.9,8.1c.1,0,.4-.1.3-.1s-.1-.1-.2,0C22.8,7.9,22.8,8.1,22.9,8.1Z"/></g><g class="f"><path class="e" d="M23.9,10.5a3,3,0,0,0,1,.2c.2,0,.2-.2.1-.1s-1.2-.2-1.3-.2-.3-.1-.4-.1-.3-.1-.2,0v.1C23.1,10.3,23.8,10.4,23.9,10.5Z"/></g><g class="f"><path class="e" d="M24.1,9.3s-.1-.2-.2-.2-.2.1-.3.1S24.1,9.3,24.1,9.3Z"/></g><g class="f"><path class="e" d="M23.2,8.6c-.2.1.3,0,.3,0A.19.19,0,0,0,23.2,8.6Z"/></g><g class="f"><path class="e" d="M23.4,9c0-.1-.1-.1-.2-.1h0a.2.2,0,0,0,.2.2Z"/></g><g class="f"><path class="e" d="M37.5,41.2c.2-.1.2-.3.1-.2s-1,.3-1.2.3-.4.1-.2.2C36.4,41.4,37.3,41.3,37.5,41.2Z"/></g><g class="f"><path class="e" d="M23.4,9.5c.1.1.5.2.6.3s.5-.1.2-.1a6.37,6.37,0,0,1-.7-.2C23.4,9.4,23.3,9.4,23.4,9.5Z"/></g><g class="f"><path class="e" d="M26.1,9.6a1,1,0,0,0,.3-.1s-.2.1-.2,0S26,9.6,26.1,9.6Z"/></g><g class="f"><path class="e" d="M24.1,10.1c.1,0,.3.1.4.1s.3-.1.2-.1a1.09,1.09,0,0,1-.5-.1C24,9.9,24,10,24.1,10.1Z"/></g><g class="f"><path class="e" d="M39.5,40.8c.1-.2-.1.1-.3.2a11.87,11.87,0,0,1-7,1.8,8.53,8.53,0,0,0-1.6,0c-.1,0-.2.1-.3.1s-.3.1,0,.1A9.58,9.58,0,0,1,32,43a15.55,15.55,0,0,0,4.6-.5C37.2,42.3,39.2,41.4,39.5,40.8Z"/></g><g class="f"><path class="e" d="M26.5,21.6c0-.1.1-.1.3-.2s.8.3,1,.3a1.47,1.47,0,0,1,1.1.2,3.85,3.85,0,0,0,1.2.5c.2,0,.3.2.2.3s.5.8.6.9.3.5.6,1,1.2.7,1.3.8.2.2.4.2,0-.2,0-.2.1,0,.2,0,.2.2.2.1,0-.1.2,0l.2.2c.1,0,.1,0,0-.1s0-.2.1-.1a.85.85,0,0,0,.5.3c.1,0,0-.2-.1-.3s.1-.1.2,0,.4.4.6.4,0-.2,0-.3.1,0,.2.1.6.8.7.8.7,1,.8,1.5.3.4.3.3c-.7-2.6-1.5-2.7-1.8-2.9s-3.9-1-3.9-1.2-.8-1-.8-1-.5-.7-.6-.8A6.23,6.23,0,0,0,28.4,21a3,3,0,0,0-1.2-.3l-.9-.3c-.3-.1-.7.4-.7.5a11,11,0,0,1,1,1.1,1,1,0,0,0,.4.1C27.1,22.1,26.6,21.7,26.5,21.6Z"/></g><g class="f"><path class="e" d="M31.1,39.4h-.5c-.2,0-.3.1-.1.2s.4.1.5.1S31.3,39.4,31.1,39.4Z"/></g><g class="f"><path class="e" d="M30.1,38.2c.2-.1.1-.2.1-.2a2.07,2.07,0,0,1-.6-.2c-.2-.1-.3.2-.1.2S29.9,38.3,30.1,38.2Z"/></g><g class="f"><path class="e" d="M30.4,38.8c-.2,0-.4-.1-.6-.1s-.3.2-.1.2.5.1.6.1S30.5,38.8,30.4,38.8Z"/></g><g class="f"><path class="e" d="M30.9,40.2a2.08,2.08,0,0,0,1.1.1.22.22,0,0,0,.2-.2s-.1-.1-.3,0-.7,0-.8,0S30.8,40.1,30.9,40.2Z"/></g><g class="f"><path class="e" d="M31,40.9a2.08,2.08,0,0,0,1.1.1.22.22,0,0,0,.2-.2s-.1-.1-.3,0-.7,0-.8,0S31,40.8,31,40.9Z"/></g><g class="f"><path class="e" d="M31.4,41.4a2.08,2.08,0,0,0,1.1.1.22.22,0,0,0,.2-.2s-.1-.1-.3,0-.7,0-.8,0S31.3,41.4,31.4,41.4Z"/></g><g class="f"><path class="e" d="M39,21.2h0a11.38,11.38,0,0,0-7.6-2.9,6.8,6.8,0,0,0,.2-1.5h1.3c.2,0,.4-.1.4-.2s-.3-.6-.6-.6a6.89,6.89,0,0,1-1-.4c.1-1.2.2-2.5.2-3.6,0-2.5-1.4-4.5-3.5-4.6a.51.51,0,0,1-.5-.7,23.35,23.35,0,0,1,.7-2.5c.1-.4-.1-.8-.5-.7s-.5.1-.7,0a2,2,0,0,0-.5.1c-.3.1-.4.4-.5.6a10.41,10.41,0,0,0-.6,1.6c-.1.2-.1,1-.3.8s-.2-.2-.3-.3c-.1-.8-.2-1.6-.2-2a.48.48,0,0,0-.9-.2,2.18,2.18,0,0,1-.4.5.73.73,0,0,1-.6.2.66.66,0,0,0-.7.2.49.49,0,0,1-.7.1,4.08,4.08,0,0,0-.7-.2c-.2,0-.3.1-.3.2.1.8.2,1.7.3,2.4V8.9a9.15,9.15,0,0,1-.1,1.7,3.75,3.75,0,0,0,0,1.5,1.48,1.48,0,0,1-.1.7,5.82,5.82,0,0,0-.3,1.9v3c0,1.1-.2,2.9-.1,4.5h0a3,3,0,0,0-.7.5h.1a32.61,32.61,0,0,0-.3-5.3c-.1-.9-1-.8-1.2,0-.1.3-.1.4-.2.7a.67.67,0,0,1-.7.5,5,5,0,0,0-1.3.4.37.37,0,0,0-.2.5c.1.6.2,2.2.3,4.2a2.09,2.09,0,0,0-.6.4,2,2,0,0,0-.3,1.9,3.31,3.31,0,0,1,0,2.6,5.37,5.37,0,0,0,.9,5.1.1.1,0,0,0,.1.1c.1.1.2.2.3.2h0c.2,4.5.3,8.7.4,10.4a.87.87,0,0,0,.4.7.78.78,0,0,0,1.1-.2c.2-.3.5-.1.5.3s.3.5.5.7a2.65,2.65,0,0,1,.6.5c.3.3.7.2.7-.1h0c0-1.8-.1-4.8-.2-6.7l-.1-.1a12.06,12.06,0,0,0,5.3,3.8h0c.4,1.7,1,4.9,1,5,.1.4.4.7,1.1.7.4,0,.8-.2,1.1-.2a1.34,1.34,0,0,1,.9.2,2,2,0,0,0,1.7.1q.45-.3.3-.6h0L31,44.1h.2a2.57,2.57,0,0,0,1.5-.1,12.59,12.59,0,0,0,4.9-.9,6.38,6.38,0,0,0,2.9-2.4,3.63,3.63,0,0,0,.4-2.5,4.71,4.71,0,0,0-.6-1.5v-.1A13,13,0,0,1,38.1,32a8.3,8.3,0,0,1,.1-2.2,5.44,5.44,0,0,0,0-1.8,5.28,5.28,0,0,0-.8-2.2l1.8.9h0c.3.2.5-.1.4-.3a1.63,1.63,0,0,1-.3-.6c-.1-.2-.3-.4-.2-.7a2.61,2.61,0,0,0-.3-1.6c-.4-1-.2-1.5.3-1.7C39.1,21.6,39.1,21.3,39,21.2ZM31.7,48.3ZM31,18.2a21.31,21.31,0,0,0-2.5.3c0-.2.1-1.2.3-1.2s1.4-.2,1.6-.2c.4,0,.5-.1.8-.1C31.1,17.5,31.1,17.9,31,18.2Zm-8.9-2.5h.5c.3.1.1-.1,0-.2a3.54,3.54,0,0,0-.6-.1c-.7-.1-.5-.5-.3-.5s.9.1,1.1.1.1-.1,0-.2-.7-.1-.9-.2c-.7-.2-.5-.6-.4-.5s.8.1,1,.1.2-.2,0-.2-.9-.2-1-.2-.3-.4.2-.4a5.85,5.85,0,0,1,1.3.2c.2,0,.2-.1,0-.2s-1-.2-1.3-.3-.5-.3-.1-.3a3.59,3.59,0,0,1,1.1.2c.3,0,.2-.2,0-.2a7,7,0,0,1-1.2-.3c-.3-.1-.3-.3-.1-.3s1.2.3,1.4.3.3-.1,0-.2-1.2-.3-1.5-.4-.2-.2,0-.2a11,11,0,0,1,1.6.3c.3.1.1-.2-.1-.3s-1.2-.2-1.4-.3-.2-.3,0-.2a1.06,1.06,0,0,0,.6,0c-.1-.1-.2-.2-.1-.2a1.42,1.42,0,0,1,.6.2c.2,0,.2,0,0-.1a2.35,2.35,0,0,0-.8-.2c-.2-.1-.3-.3-.1-.3a5.39,5.39,0,0,1,1,.3c.3.1.2-.1,0-.1s-.7-.3-1.1-.4-.2-.3,0-.2a1.49,1.49,0,0,1,.7.3c.1,0,.3,0,0-.1a4.12,4.12,0,0,0-.8-.3c-.2-.1-.2-.2,0-.2a4.51,4.51,0,0,1,1.1.3c.3.1.4-.1.1-.2a6.6,6.6,0,0,1-1.1-.4c-.1,0-.2-.2,0-.2a6.37,6.37,0,0,1,.7.2c.1,0,.3-.1-.1-.1s-.4-.2-.7-.3-.1-.2.1-.2a3.09,3.09,0,0,1,.8.2c.2.1.1-.1-.1-.2a3.55,3.55,0,0,1-.9-.4c-.2-.1-.2-.2,0-.1s.6.2.8.2.4-.1.2-.1a6.89,6.89,0,0,0-1-.4c-.1,0-.2-.2-.1-.1a1.85,1.85,0,0,1,.7.2c.2.1.4-.1.2-.2s-.7-.2-1-.3-.1-.2,0-.2.7.2,1,.2.2-.1,0-.1a4.18,4.18,0,0,1-1-.4c-.2-.1-.1-.1.1-.1a4.33,4.33,0,0,1,.5.1c.1,0,.3-.1,0-.1s-.4-.2-.6-.2-.2-.2-.1-.2a.37.37,0,0,1,.3.1c.1,0,.6,0,.2-.1s-.3-.2-.5-.2c.2-.6,0-.6.2-.6a1.34,1.34,0,0,1,.5.1c.3,0,.5.1.4,0s-.2,0-.8-.2-.4-.2-.3-.3.2,0,.3-.1a.65.65,0,0,0,.9-.2.59.59,0,0,1,.5-.2.78.78,0,0,0,.8-.2c.1-.1.2-.3.3-.4l.2-.2c.1-.1.2-.2.3-.2s.2.1.2.3.1.6.1,1A10,10,0,0,0,24.8,7c.1.4.3.5.4.5a.37.37,0,0,0,.4-.4h0a.1.1,0,0,0,.1-.1c0-.1.1-.2.1-.3s.1-.2.1-.3a1.69,1.69,0,0,1,.2-.5c.1-.1,0-.3,0-.4s.1-.3.1-.4a.31.31,0,0,1,.2.1c.1.1.3-.2.3-.3a3.63,3.63,0,0,1,.3-.7,4.33,4.33,0,0,0,.1-.5,2.13,2.13,0,0,0,.8,0c.1,0,.2,0,.2.1a.35.35,0,0,1,.1.2v.2l-.1.3a19.48,19.48,0,0,0-.6,2.3v.4c0,.1.1.2.1.3a.76.76,0,0,0,.5.2,3.44,3.44,0,0,1,3.2,3.2,4.1,4.1,0,0,1,.1,1.1c0,1.1-.1,2.4-.2,3.6h-.5a1.48,1.48,0,0,1-.7-.1,2.17,2.17,0,0,0-1.6,0h0V14.2h.1c.1,0,.1.1.1.2v.8c0,.1.1,0,.1-.1V12.9c-.1-.2-.2-.1-.1.1v.5c0,.2-.1.1-.2.1v-.4c0-.2-.1-.5-.1-.7a3.78,3.78,0,0,0-.6-1.7.54.54,0,0,0-.4-.3c0-.2-.2-.1-.2-.2s-.2-.2-.2-.2.2-.2-.1-.2-.2,0-.3,0-.4.1-.2.2.4.2.4.3-.1.1-.2.1-.4-.1-.5-.1-.2.1-.1.1.5,0,.5.1.2,0,.1.6c-.1.1-1,1.7-1,1.7a17.38,17.38,0,0,0-1.3,1.5l-.4.4c-.2.2-1.5,1.6-1.7,1.9-.1,0-.2-.1-.4-.1C21.3,16.2,21.5,15.7,22.1,15.7Zm.1,1.9A10.44,10.44,0,0,1,24.3,15a9.48,9.48,0,0,0,2.9-4,.1.1,0,0,1,.1-.1s.3.3.3.4.2.5.1.5-.2,0-.3-.1-.2.1,0,.2a4,4,0,0,0,.4.3c.1.1.1.3,0,.3s-.4-.3-.6-.4-.3.2-.2.3a4.35,4.35,0,0,0,.7.6c.1.1,0,.2.1.4a4.77,4.77,0,0,0-1.2,2.2v.2a.35.35,0,0,0,.1.2.3.3,0,0,0,.4,0,1.3,1.3,0,0,1,1-.2c.2.1.4,0,.6,0h0a3.22,3.22,0,0,1,1.4,0,2.77,2.77,0,0,0,.9.1h.4l.5.2c.1.1.3.1.4.2a.1.1,0,0,1-.1.1c-.2,0-1.2.2-1.2.2h-.2c-.2-.2-.6-.5-.7-.6s-.2,0-.1.1.4.3.5.5h-.3c-.1-.1-.4-.3-.5-.5s-.2,0-.1.1.3.3.3.4h-.1c-.1,0-.1,0-.1-.1s-.4-.3-.5-.4-.3,0-.2,0,.4.3.5.4v.1h-.1c-.1,0-.1,0-.2-.1s-.4-.4-.5-.4-.2.1-.1.2.3.2.3.3v.1h0c-.1,0-.1,0-.2.1h-.1c-.1-.1-.2-.3-.4-.4s-.3,0-.2.1.4.3.4.4V17h-.1c-.2,0-.2,0-.3-.1s-.1.2,0,.3h0l-.2.2a2.74,2.74,0,0,1-.5-.4s-.3-.1-.1,0,.4.3.3.4-.4-.1-.5-.2-.2,0-.1.1.5.2.5.3,0,.2-.2.2-.4-.1-.6-.2-.1.1,0,.2.5.4.4.5-.6-.1-.7-.2-.3,0-.1.1.6.4.5.5-.6-.2-.7-.3-.2,0-.1.1.6.4.5.5-.7-.3-.9-.3-.2.1-.1.2,1,.5.8.6-.8-.3-1-.4-.3,0-.2.1.5.3.7.4.1.2-.1.1-1-.6-1.2-.5-.2.1,0,.2a7.93,7.93,0,0,1,.9.4c.1.1-.1.1-.3.1s-.6-.4-.8-.4-.3,0-.1.1.7.2.5.3-.5,0-.8,0a10.59,10.59,0,0,0-2.2,1.5c-.7.2-1.1-.9-.3-2.6C21.5,18.8,22.2,17.6,22.2,17.6Zm-1.6,5.6a.14.14,0,0,1,.2,0c.1.1.9.5,1,.6s.1.1.1.2-.1.1-.3.1a3.29,3.29,0,0,1-.6-.3c-.2-.1-.3-.2-.4-.2a.1.1,0,0,1-.1-.1C20.5,23.3,20.5,23.3,20.6,23.2Zm-.7.7h0c.1-.1.2-.1.2,0h0c.1.1,1.3.6,1.5.7s.2.1.2.1a.44.44,0,0,1-.3.1,5.34,5.34,0,0,1-1.4-.6l-.2-.2C19.8,24,19.9,23.9,19.9,23.9Zm3.3,5.6a.1.1,0,0,1,.1.1c0,.1-.2.1-.3.1a2.12,2.12,0,0,1-.7-.3.49.49,0,0,0-.3-.1.1.1,0,0,1-.1-.1v-.1h.2A7.59,7.59,0,0,1,23.2,29.5Zm-2,6.7h0c0-.1.2,0,1.1.3a3.93,3.93,0,0,0,.6.2c.1,0,.9.3.9.4v.2l-.1.2a6.37,6.37,0,0,1-.7-.2,8.18,8.18,0,0,0-1.4-.5c-.2,0-.3-.3-.3-.4S21.2,36.3,21.2,36.2Zm3,.9L24,37a.1.1,0,0,1,0-.2h.2a.35.35,0,0,0,.2.1c.2.1.8.3.8.3v.1l-.1.1A3.18,3.18,0,0,1,24.2,37.1Zm.8-1.3a.1.1,0,0,1-.1.1c-.1,0-1.3-.4-1.5-.4h-.2c-.1,0-.2,0-.2-.2v-.2c.1,0,1.3.4,1.4.4s.3,0,.4.1S25,35.8,25,35.8Zm-.5-.9a7.49,7.49,0,0,1-1.6-.5c-.1,0-.2-.1-.5-.2a8.2,8.2,0,0,0-1.1-.4c-.5-.2-1.2-.3-1.2-.7,0-.1.1-.2.1-.3h.1a1,1,0,0,0,.3.1c.2.1.9.4,1.2.5s2.1.8,2.2.8.3.1.4.1v.2C24.5,34.7,24.7,34.9,24.5,34.9ZM18,30c0-.1,0-.2.2-.1s2.7,1,2.8,1l.1.2c0,.1-.2.1-.2.1l-1.8-.6c-.5-.1-1-.3-1-.4A.31.31,0,0,1,18,30Zm-.1,2.6a11.73,11.73,0,0,1,1.1.5,1.6,1.6,0,0,1,.3.8c.1.1-.7-.2-.8-.3-.3-.1-.7-.3-.8-.3s-.1-.2,0-.3S17.8,32.6,17.9,32.6Zm0,1.8c0-.1,0-.3.1-.3s1.4.4,1.5.4c.3.1.3.7.3.7l-.1.1c-.1,0-1.2-.4-1.3-.4s-.3-.1-.4-.1A2.27,2.27,0,0,0,17.9,34.4Zm.9-3.3s0-.2.1-.2a7.6,7.6,0,0,1,1.1.4c.2.1.3.1.4.2a.14.14,0,0,1,0,.2s0,.2-.1.2h-.1C20.2,31.6,18.8,31.2,18.8,31.1Zm5.5,2.6c0,.1,0,.2-.1.2a25,25,0,0,1-2.5-.9,13.35,13.35,0,0,1-1.2-.6l.1-.2c0-.1.1-.1.2,0s1.2.4,1.4.5l.3.1a7.59,7.59,0,0,0,1.1.4h.1a.76.76,0,0,1,.4.1C24.3,33.4,24.3,33.7,24.3,33.7Zm-.2-.8c0,.1-.2.1-.2.1s-2.1-.8-2.3-.9a2.39,2.39,0,0,1-.7-.3c0-.1.1-.6.9-.2.2.1,2,.7,2,.7.2.1.1.2.2.4C24.1,32.7,24.1,32.7,24.1,32.9Zm-6-6.6a.3.3,0,0,1,.4,0c.1.1,2.7,1.1,3,1.2a.1.1,0,0,1,.1.1v.6a.37.37,0,0,1-.3.1c-.2-.1-3-1.3-3.2-1.4l-.1-.1A1.34,1.34,0,0,0,18.1,26.3Zm0,1.1c.1,0,.2.1.4.1a.35.35,0,0,1,.2.1,15.72,15.72,0,0,1,1.8.7l.3.1a.1.1,0,0,1,.1.1v.2s0,.2-.5.1c-.7-.2-2.7-.7-2.6-1.3A1,1,0,0,0,18.1,27.4ZM23,30.2l-.3-.1c-.3-.1-.8-.2-1-.3s-.1-.1-.1-.2.1-.1.2,0a4.71,4.71,0,0,1,.9.3.52.52,0,0,1,.4.2.1.1,0,0,1,.1.1v.1C23.2,30.2,23.1,30.2,23,30.2Zm-1.6-3.5c-.1.1-1.2-.4-1.4-.5a11.73,11.73,0,0,1-1.1-.5c-.1,0-.1-.1-.1-.2a.76.76,0,0,1,.2-.4h.2a11.73,11.73,0,0,0,1.1.5,1.74,1.74,0,0,1,.7.3,1.69,1.69,0,0,0,.5.2.1.1,0,0,1,.1.1A4.71,4.71,0,0,0,21.4,26.7Zm-2.1-2.2c.1,0,.2,0,.2.1s1.1.5,1.7.8c.1,0,.3.1.3.2a.27.27,0,0,1-.3.3,9.26,9.26,0,0,1-2-.9.35.35,0,0,1-.1-.2A1.24,1.24,0,0,1,19.3,24.5Zm-2.8-5.3c.1.1,1,.4,1.1.5s.1-.1,0-.1a9.22,9.22,0,0,1-.8-.5c-.2-.1.1-.1.2-.1s.5.2.6.2a.35.35,0,0,0,.2-.1c-.1-.1-.1-.2-.3-.3h0a.88.88,0,0,0,.7-.6,6.37,6.37,0,0,0,.2-.7h0c.1-.3.3-.5.5-.5s.3.2.4.5a18.29,18.29,0,0,1,.2,3.3,12.75,12.75,0,0,0,.1,2c-.3.3-.6.5-.9.8h-.3c-.2,0-.3-.2-.2-.2s.2-.2.1-.2a.76.76,0,0,1-.4-.1c-.2,0-.2-.2-.1-.2s.3.1.4.1.4-.1.1-.2-.6-.3-.8-.3-.4-.2-.1-.2a2,2,0,0,0,.8.1c.3,0,.2-.2,0-.2a3.09,3.09,0,0,1-.8-.2c-.2-.1-.2-.2,0-.2a3.81,3.81,0,0,1,1,.3c.2.1.3-.1-.1-.2a5.13,5.13,0,0,1-1-.4c-.1,0-.1-.2.1-.1s.8.2.9.2.2-.1-.1-.1a3.55,3.55,0,0,1-.9-.4c-.2-.1-.2-.2,0-.2a2.39,2.39,0,0,1,.9.3c.2,0,.2-.1-.1-.2a7.59,7.59,0,0,0-1.1-.4c-.2-.1-.2-.2,0-.2s.6.3.8.3.1-.1,0-.1a2.51,2.51,0,0,1-.7-.4c-.1-.1-.1-.1,0-.1a.76.76,0,0,1,.4.2c.1,0,.2-.1,0-.1s-.5-.2-.6-.2-.1-.2,0-.1a6.37,6.37,0,0,0,.7.2c.2,0,.2,0,0-.1a2.35,2.35,0,0,1-1-.5C16.3,19.3,16.4,19.1,16.5,19.2Zm1.8,9.5c1.1.3,2.1.8,2.7,1s.2.3.3.4.5.2,1,.4a6.39,6.39,0,0,1,1,.4.49.49,0,0,1,.1.3.1.1,0,0,1-.1.1.31.31,0,0,1-.2-.1,7,7,0,0,0-1.3-.5,7,7,0,0,1-1.3-.5,6.88,6.88,0,0,0-.8-.3c-.2-.1-.5-.1-.6-.2-.4-.2-.9-.3-1.3-.5C18,29.2,18.1,28.6,18.3,28.7Zm-2.2,4c.1,0,0-.2-.2-.3s-.3-.4-.2-.3.5.3.6.4.3,0,0-.1a4.35,4.35,0,0,1-.7-.6c-.1-.1-.2-.4-.1-.3s.6.4.7.5.2,0,.1-.1-.5-.4-.7-.6c-.4-.3-.3-.9-.1-.9a8.7,8.7,0,0,1,1.1.9c.1.1.2,0,0-.2a8.12,8.12,0,0,0-1-.9c-.3-.2-.2-.6-.2-.7s.1-.2.2-.1.8.7.8.8.2,0,.1-.1a4.62,4.62,0,0,1-.7-.7c-.2-.2,0-.3.1-.2a5.72,5.72,0,0,0,.8.7c.1.1.1-.1,0-.1s-.9-.8-1-.9-.1-.1-.1-.2.1-.3.4-.2a.45.45,0,0,1,.3.3c.1.1.2,0,.1-.1l-.5-.5c-.1-.1,0-.3.1-.2a4.35,4.35,0,0,1,.7.6c.1.1.3,0,.1-.1a3.82,3.82,0,0,1-.9-.9c0-.2-.1-1,0-.9a3.11,3.11,0,0,0,.6.4c.2.2.1-.1,0-.2a3,3,0,0,1-.9-1c0-.1-.1-.1-.1-.2a1.29,1.29,0,0,1,.6-1.7.85.85,0,0,1,.7,0c.2.1.2.2.2.2s-.1.1-.2.1a.89.89,0,0,0-.8.5.85.85,0,0,0,0,.7c.1.2.3.4.4.6l.4.6a4.49,4.49,0,0,1,.5,3,5.91,5.91,0,0,0,0,1.9,2.85,2.85,0,0,1-.3,1.9.54.54,0,0,1-.4.3.76.76,0,0,1-.4-.2C16.2,33.3,15.9,32.8,16.1,32.7Zm2.4,11.7c-.1,0-.1.1-.2.2a.75.75,0,0,1-.7.2v-.1c0-.1.1-.3.2-.3a1.06,1.06,0,0,0,.5-.2c0-.1.2-.1.2,0Zm2,1.7a1,1,0,0,1-.4-.1h0a.22.22,0,0,1,.2-.2l.2.2Zm-.2-2.3c0,.5.2,1.1.2,1.7-.1,0-.1-.1-.2-.1l-.2-.1c-.1-.1-2.8-2.3-2.9-2.1l-.1.1s.1-.3,0-.3,0-.4,0-.5.1,0,.3.1.1-.1,0-.2-.2-.1-.3-.2-.1-.2,0-.2a.37.37,0,0,0,.3.1c.1.1.1-.1,0-.1s-.2-.1-.4-.2,0-.3.1-.2a2.19,2.19,0,0,0,.5.3c.2.1.1-.1,0-.2a1.33,1.33,0,0,1-.5-.3c-.2-.1-.3-.5,0-.5s.3.2.5.2.2-.1.1-.2-.5-.3-.6-.4a.21.21,0,0,1,.1-.4c.1,0,.2.1.4.1s.2-.1.1-.1a.76.76,0,0,0-.4-.2c-.1-.1-.1-.4.1-.3l.4.2c.2.1.1-.1,0-.2a1.06,1.06,0,0,0-.5-.2c-.1-.1-.1-.3.1-.2a.76.76,0,0,0,.4.2c.1.1.3,0,.2-.1s-.2-.2-.3-.2c-.6-.2-.3-2.2.7-1.4.2.2,1.1,1.3,1.4,1.2C20.3,38.8,20.3,43.7,20.3,43.8Zm-1.7-7.5c-.1,0-.4-.7-.3-.7s1.3.4,1.6.5c.5.1.4.8.2.8A5.85,5.85,0,0,0,18.6,36.3Zm6.3,5.2c-.1,0-1.7-.7-1.9-.8s-.1-.5.2-.4c.1,0,1.6.7,1.8.7C25.8,41.3,25.7,41.8,24.9,41.5Zm-3-3.6a.45.45,0,0,1-.4-.3c0-.1.1-.3.6-.1.2.1.8.3,1.1.4l.2.1h.2c.1,0,1.1.4,1.2.4a5.64,5.64,0,0,0,1.2.4c.1,0,.1.2.1.3C25.9,39.5,22,38,21.9,37.9Zm7,10.5a7,7,0,0,0-1.4.3c-.3.1-.3-.1-.3-.3s.3-.4.5-.5.6-.3.7-.2a3.51,3.51,0,0,0,.8.5C29.6,48.4,29.2,48.4,28.9,48.4Zm2.2.2c0,.2-.5.3-.7.3a3.18,3.18,0,0,1-.9-.3c-.2-.1.1-.4.2-.5s.4,0,.5,0,.5-.1.6,0S31.1,48.4,31.1,48.6Zm-1.1-1a.9.9,0,0,1-.5.1c0-.1.1-.2,0-.2s-.5-.3-.6-.4,0,0-.2,0h-.5c-.3,0-.3-1.2-.3-1.4a.65.65,0,0,1,.8-.5c.3,0,.5-.1.5-.2v-.5c.4,0,.2-.4.3-.5a3.4,3.4,0,0,0,1-.1h.1c0,.2.6,2.8.8,3.8A1.74,1.74,0,0,0,30,47.6Zm7.6-17.9v0Zm0-.2Zm0-.1Zm0-.1Zm0-1.2v0Zm.1,1Zm0-.1Zm0-.2Zm-.1-.1Zm0-.2Zm0-.1Zm0-.1Zm-.6-2a.1.1,0,0,0-.1-.1C37,26.2,37,26.2,37,26.3Zm.6,1.6v-.1C37.5,27.8,37.6,27.9,37.6,27.9Zm-.1-.2Zm0-.1Zm0-.2Zm-.1-.1Zm0-.2Zm-.1-.1Zm0-.1Zm-.1-.2Zm0-.1v-.1C37.1,26.5,37.2,26.5,37.2,26.6Zm-.1-.2a.1.1,0,0,0-.1-.1A.1.1,0,0,1,37.1,26.4Zm-.4-.8Zm.3.5c-.1,0-.1-.1,0,0C36.9,26,36.9,26.1,37,26.1Zm-.1-.1Zm-.1-.2Zm-.1-.1Zm.6,3.9c-.5,2.8.9,5,2.2,7.1v.1c.2.4.5,1.1.6,1.3a4.1,4.1,0,0,1,.1,1.1,5.91,5.91,0,0,1-.6,1.4,1.72,1.72,0,0,1-.6.6s-1.8,3-10,2.2a1.28,1.28,0,0,1-.9-.9,2.62,2.62,0,0,0-1.3-.6c-.2,0-.2-.2,0-.3s-.2-.2-.4-.3c-.8-.3-.4-.9-.2-.8a5.73,5.73,0,0,0,1.4.4c.3,0,.1-.2,0-.2a5.39,5.39,0,0,1-1-.3c-.8-.4,0-.9.3-.8a10.34,10.34,0,0,1,1.2.3c.3.1.1-.1-.1-.2s-.4-.1-.7-.2,0-.1.1-.1.6.1.6.1a2.56,2.56,0,0,0-.9-.4c-.4-.2-2-1.9.4-1.3.2.1.3-.2.2-.3a13.78,13.78,0,0,0-1.6-.6c-.6-.2-.6-.8-.5-.8s1.2.5,1.4.5.2-.2,0-.3a5.64,5.64,0,0,0-1.2-.4c-.2,0-.4-.2-.3-.3s-.1-.1-.3-.2,0-.3.3-.2.2-.1.1-.2-.4-.2-.5-.4-.2-.6-.3-.8.1-.1.3,0,0-.1-.2-.2-.3-.2-.3-.3.3,0,.5,0,.1-.1-.1-.2-.4-.2-.4-.3.2,0,.5,0,.1-.2-.1-.2-.3,0-.5-.1-.1-.2-.1-.3.1-.1.3-.1.3,0,.3-.1-.4-.1-.5-.1-.3-.2-.2-.3-.1-.3-.1-.3.1-.1.2-.1.1-.3-.2-.2-.1-.3-.2-.6.1-.3,0-.4-.5.3-.5,0-.1-.4-.2-.4a.49.49,0,0,0-.1-.3c-.1-.1-1.1-.3-1.3-.4s0-.6.6-.4c.2.1.5.1.5-.1s-.2-.1-.6-.3-.3-.6.2-.5c.2,0,.3-.1.2-.2a.6.6,0,0,0-.4-.1c-.3-.1-.6-1,.2-.9.1,0,.2-.1,0-.2s-.2-.1-.4-.1,0-.7.2-.7.3.1.5.1.2-.1,0-.2a.76.76,0,0,0-.4-.2c-.1-.1,0-.1.1-.2s.4.1.6.2.2-.2,0-.3-.5-.2-.5-.3,0-.4.1-.4.6.1.6.1.2-.2,0-.3-.1,0-.5-.2,0-.5.2-.4.6.2.9.1.2-.3,0-.3-.8-.2-1-.3.2-.7.4-.8,1-.6,1.6.2c.1.2.5.3.6.4s.6.4.7.5.3.1.6,0c.1-.1-.1-.4-.5-.8-.2-.1-.4-.1-.5-.2s-.6-.8-.5-.9h0l-.3-.3-.4-.3a7.71,7.71,0,0,1,4.1.5s2.4,2.7,2.4,2.8.4.2.5.1,0-.5-.2-.5-.4-.7-.5-.8a14.2,14.2,0,0,0-1.2-1.3c-.1-.2.1-.2.2-.1s.4.4.5.3,0-.1-.2-.3.1,0,.2-.1h0a5,5,0,0,1,2.4,1,6.43,6.43,0,0,1,2.6,3.1h0C36.9,25.8,37.5,28.1,37.3,29.6Zm.4-4v.1c-.1-.1-.2-.1-.3-.2a3.49,3.49,0,0,0-.6-.9c-.1-.1.1-.3.4,0A2.35,2.35,0,0,1,37.7,25.6Zm-.9-4.5a.43.43,0,0,0-.4.4,1.63,1.63,0,0,1,0,.7c0,.2.2.5.3.5s.2.4.1.5-.3.1-.2.2-.1.4-.1.3-.1-.2-.2-.4-.2-.3-.1-.1a.9.9,0,0,1,.1.5c.1.2-.1.3-.2,0a3.29,3.29,0,0,1-.3-.6c0-.2-.2-.1-.1.1s-.1.3-.2,0-.3-.9-.4-1.1c.1-.2-.1-.2-.1-.1s.1.3.1.4-.1.2-.2,0-.2-.4-.2-.6-.3-.3-.2-.1,0,.3.1.5-.1.1-.2,0-.1-.3-.1-.4-.2-.3-.2-.1,0,.2-.1.2-.1-.2-.1-.3-.2-.4-.2-.6-.2-.2-.2-.1.1.4.1.5-.2.1-.2,0-.3-.6-.3-.7-.2,0-.1.1.1.3.2.5-.2-.1-.2-.2-.2-.4-.3-.5-.2-.1-.2,0a.37.37,0,0,1,.1.3c.1.2-.2,0-.3-.1s-.3-.5-.3-.6-.2,0-.1.1.1.2.1.4-.3-.1-.3-.2-.3-.4-.4-.7-.1,0-.1.1a.76.76,0,0,0,.2.4c0,.1-.1.1-.2,0s-.2-.4-.2-.5-.3-.2-.1.2.1.3-.1.3a.35.35,0,0,1-.2-.1,1,1,0,0,1-.1-.4c0-.2-.2-.1-.1,0v.3c0,.1-.2,0-.2,0a.76.76,0,0,0-.2-.4c0-.1-.2-.1-.1,0a.37.37,0,0,1,.1.3c0,.1,0,.1-.1.1l-.3-.3c-.1-.1-.3.1-.4.1s-.3-.3-.4-.3-.1,0-.1.1.2.2.2.3,0,.3-.1.3-.3-.3-.5-.3a.75.75,0,0,0-.5.1h0a4.33,4.33,0,0,1-.5-.1.76.76,0,0,0-.4-.1c-.1,0-.1-.1-.1-.2A10.37,10.37,0,0,1,38.1,21h-.5C37.4,21,37,21.1,36.8,21.1Zm1.5.6L38,22a2,2,0,0,0-.1.8,1.42,1.42,0,0,0,.2.6,9.44,9.44,0,0,0,.3.9v.9a.55.55,0,0,0,.3.5c.1.2.3.4.3.5h0a.31.31,0,0,1-.2-.1,2.17,2.17,0,0,1-.6-.7.6.6,0,0,1-.1-.4v-.3a3.31,3.31,0,0,0-.4-1.5,2.19,2.19,0,0,1-.3-.5c0-.1-.2-.7.1-1a3.11,3.11,0,0,1,.6-.4C38.2,21.6,38.3,21.6,38.3,21.7Z"/></g><g class="f"><path class="b" d="M29.3,20.7h0a1.24,1.24,0,0,0-.3-.2,5,5,0,0,0-1.3-.5H25.4a.76.76,0,0,0-.4.1,4.78,4.78,0,0,0-1.8.6h0a5.49,5.49,0,0,0-.9.7,1.23,1.23,0,0,1-.8.4,5.58,5.58,0,0,0-3.6,3.3c0,.1.1.2.1.1a6.75,6.75,0,0,1,3.6-2.8c.4-.1.5.2.6.4a3.22,3.22,0,0,1,0,1.4,6.9,6.9,0,0,1-.4,1,4.3,4.3,0,0,0-.2,1.2,4.53,4.53,0,0,1-.3,3c-.1.1,0,.2.2.1a3.56,3.56,0,0,0,.7-2.9,3.6,3.6,0,0,1,.2-1.1,4.13,4.13,0,0,0,.6-1.9,3.75,3.75,0,0,0-.1-1.1,1.17,1.17,0,0,1,.2-.7,2.28,2.28,0,0,1,1.2-.6.49.49,0,0,1,.6.3,4.84,4.84,0,0,0,2.6,2,.68.68,0,0,1,.5.9,1.26,1.26,0,0,1-.5,1A5.11,5.11,0,0,0,26,27.6a1,1,0,0,1-.7.7c-1.4.4-2.3,1.4-1.8,2.6a13.61,13.61,0,0,1,.7,2.2c.2.8.5,2,.8,2.8a13.09,13.09,0,0,0,1.4,2.9c.1.2.2.1.1-.1A17.19,17.19,0,0,1,25.1,35c0-.1,0-.3.2-.3a11.72,11.72,0,0,1,2.5.8c.1.1.2-.1.1-.2a9.59,9.59,0,0,0-2.7-1.1c-.2,0-.3-.2-.3-.5a21.55,21.55,0,0,0-.8-2.9c-.3-.6,0-1,.4-1.4a2.46,2.46,0,0,1,1.1-.4h.2l.1.1c0,.1.1.1.1.2a3.51,3.51,0,0,0,.9,1.7,2.79,2.79,0,0,1,.7,1.3c.1.2.2.2.2,0a2.16,2.16,0,0,0-.6-1.4,4,4,0,0,1-.8-1.6,2.77,2.77,0,0,1,.1-1.3,3.67,3.67,0,0,1,1.4-2,2.21,2.21,0,0,0,.8-2c0-.2.3-.4.4-.1a4.25,4.25,0,0,0,1.7,2c1.6,1,1.7,2.6.3,3.4-1.8,1.1-1.7,2.7-.9,4.1.4.6.6,1,.8,1.3a.92.92,0,0,1,.1,1,2.56,2.56,0,0,0,.1,2.8c.4.6.6,1,.8,1.3s.3.2.2,0a4.58,4.58,0,0,0-.7-1.4,2.75,2.75,0,0,1,0-2,2.93,2.93,0,0,1,.4-.8c.1-.2.3-.3.4-.1a6,6,0,0,1,.9,1.5,1.34,1.34,0,0,0,.8.7A3.24,3.24,0,0,1,35.5,39c.1.2.2.1.2,0a3.05,3.05,0,0,0-1.4-1.6c-.4-.3-.6-.4-.7-.8a3.56,3.56,0,0,0-1.1-1.9,2,2,0,0,1-.9-.6,4,4,0,0,1-1-2.5,2.6,2.6,0,0,1,1.3-1.8,2.47,2.47,0,0,0,1.2-2.1c0-.2.2-.3.4-.3a2.54,2.54,0,0,1,2,2.1c0,.2.2.2.2,0A2.91,2.91,0,0,0,34.1,27a.49.49,0,0,0-.3-.1h-.1a.37.37,0,0,1-.3-.1.74.74,0,0,1-.7-.3,3.42,3.42,0,0,0-1.4-1.3,3.64,3.64,0,0,1-1.2-1.5c-.3-.6-.7-1.1-1.4-1.1a3.32,3.32,0,0,1-2.8-1.5c-.1-.2,0-.4.2-.4A4.92,4.92,0,0,1,29.7,22a8,8,0,0,1,1.5,1.8A3.15,3.15,0,0,0,34.1,25c1.2,0,2,.5,2.7,2.1a3.34,3.34,0,0,1-.1,3.1,3.52,3.52,0,0,0-.5,2.6c.1.5.1.9.2,1.4a4.41,4.41,0,0,0,1,1.7,2,2,0,0,1,.6,1.2,3.1,3.1,0,0,0,.6,1.3c.1.1.2,0,.1-.1a3.14,3.14,0,0,1-.4-1.2,2,2,0,0,0-.6-1.3,1.93,1.93,0,0,1-.5-.9c-.1-.3.1-.4.4-.2a5.8,5.8,0,0,1,2.3,3.1c.1.2.2.2.2,0a6,6,0,0,0-2-3.5,3.25,3.25,0,0,1-1.2-1.7,3,3,0,0,1,.5-2.2,4.49,4.49,0,0,0-.1-3.6,3.61,3.61,0,0,0-1.6-2.2h0a.1.1,0,0,1-.1-.1,4.43,4.43,0,0,0-1.5-.3c-.9-.1-1.7-.1-2.3-.9a21.93,21.93,0,0,0-1.6-2"/></g><g class="f"><path class="e" d="M25.4,19.8l-.4.1a6,6,0,0,0-1.9.6h0a5.49,5.49,0,0,0-.9.7,2.51,2.51,0,0,1-.7.4,6.17,6.17,0,0,0-3.7,3.3c0,.1,0,.2.1.2s.2,0,.2-.1a6.73,6.73,0,0,1,3.6-2.8H22c.1.1.1.2.2.3a3.27,3.27,0,0,1,0,1.4,1.85,1.85,0,0,0-.2.7l-.2.4a4.3,4.3,0,0,0-.2,1.2v.2a4.68,4.68,0,0,1-.3,2.8c-.1.1,0,.2,0,.3s.2.1.3-.1c.8-.7.8-1.9.7-3a1.5,1.5,0,0,1,.2-1,4.14,4.14,0,0,0,.6-2V22.3a.84.84,0,0,1,.2-.7,3.37,3.37,0,0,1,1.2-.6.46.46,0,0,1,.5.3,5.09,5.09,0,0,0,2.5,2.1c.4.2.5.3.5.8h0a2.08,2.08,0,0,1-.5,1.2A4.36,4.36,0,0,0,26,27.6a.89.89,0,0,1-.6.6,2.54,2.54,0,0,0-1.8,1.3,2.2,2.2,0,0,0-.1,1.4l.1.4a18.94,18.94,0,0,1,.6,1.8c.2.8.5,2,.8,2.8a13.09,13.09,0,0,0,1.4,2.9.37.37,0,0,0,.3.1c.1,0,.1-.2,0-.3a15.43,15.43,0,0,1-1.4-3.7v-.1h.1a10.72,10.72,0,0,1,2.5.7c.1.1.2,0,.3-.1a.37.37,0,0,0-.1-.3A10.07,10.07,0,0,0,25.3,34c-.1,0-.2-.2-.2-.4l-.1-.4a13.57,13.57,0,0,0-.7-2.5,1,1,0,0,1,.4-1.3,2.11,2.11,0,0,1,1-.4h.1l.1.1a.31.31,0,0,0,.1.2,6.08,6.08,0,0,0,.9,1.8,2.52,2.52,0,0,1,.7,1.2c.1.2.2.2.2.2s.2,0,.1-.3a3.62,3.62,0,0,0-.6-1.5,2.83,2.83,0,0,1-.7-1.6,3,3,0,0,1,.1-1.3,4.12,4.12,0,0,1,1.3-2,2.58,2.58,0,0,0,.9-2.1c0-.1,0-.1.1-.1s.1,0,.1.1a4.38,4.38,0,0,0,1.6,2.1A2.27,2.27,0,0,1,32,27.6a1.66,1.66,0,0,1-.8,1.5c-2,1.3-1.6,3-1,4.2a10.54,10.54,0,0,0,.8,1.3h0a1,1,0,0,1,.1.9,2.74,2.74,0,0,0,.1,2.9c.3.5.6,1,.8,1.3s.2.2.3.2.1-.1.1-.3a3.93,3.93,0,0,0-.6-1.3l-.1-.1a2.5,2.5,0,0,1,0-1.9l.3-.6.1-.2a.22.22,0,0,1,.2-.2.1.1,0,0,1,.1.1,10,10,0,0,1,.8,1.4v.1a2,2,0,0,0,.8.8c.5.3,1.2.7,1.4,1.3.1.2.2.2.2.2s.1-.1.1-.2c-.2-.8-.7-1.1-1.3-1.6l-.1-.1c-.4-.3-.6-.4-.7-.8l-.2-.4a2.26,2.26,0,0,0-1-1.5l-.3-.2a2.09,2.09,0,0,1-.6-.4,4,4,0,0,1-1-2.4,2.22,2.22,0,0,1,1.2-1.7,2.32,2.32,0,0,0,1.2-2.2c0-.1,0-.1.1-.2a.19.19,0,0,1,.3,0,2.23,2.23,0,0,1,1.9,2c0,.2.1.2.2.2s.2-.1.2-.3A2.82,2.82,0,0,0,34,26.9c-.2-.1-.3-.2-.4-.1h-.1l-.3-.1h-.1a.55.55,0,0,1-.5-.3A3.74,3.74,0,0,0,31.2,25,3.64,3.64,0,0,1,30,23.5a1.89,1.89,0,0,0-1.4-1.2,4,4,0,0,1-2.8-1.4v-.2c0-.1.1-.1.2-.1a5.35,5.35,0,0,1,3.6,1.2,8,8,0,0,1,1.5,1.8,3.37,3.37,0,0,0,3,1.3c1.1,0,1.9.3,2.6,2a3.13,3.13,0,0,1,0,3,3.69,3.69,0,0,0-.5,2.7,2,2,0,0,1,.1.7,2,2,0,0,0,.1.7,3.35,3.35,0,0,0,1,1.7,2,2,0,0,1,.6,1.1,2.55,2.55,0,0,0,.6,1.3.21.21,0,0,0,.3-.3,2.68,2.68,0,0,1-.4-1.2,2.59,2.59,0,0,0-.6-1.4,1.52,1.52,0,0,1-.5-.9v-.2a.31.31,0,0,1,.2.1,6.16,6.16,0,0,1,2.2,3.1c0,.2.1.2.2.2s.1-.1.1-.2A5.45,5.45,0,0,0,38,33.7h0a2.73,2.73,0,0,1-1.1-1.6c0-.2-.1-.3-.1-.5a2.9,2.9,0,0,1,.6-1.6,3.34,3.34,0,0,0,.3-1.5,5.56,5.56,0,0,0-.4-2.1,3.85,3.85,0,0,0-1.6-2.2l-.1-.2a11.31,11.31,0,0,0-1.5-.4H34c-.9-.1-1.7,0-2.2-.7l-.2-.2A10.06,10.06,0,0,0,30.1,21c-.3-.2-.6-.5-.9-.7a1.24,1.24,0,0,0-.3-.2,5,5,0,0,0-1.3-.5c-.1,0-.3-.1-.4-.1h-.9A1.33,1.33,0,0,1,25.4,19.8Zm-2.2.9a4.78,4.78,0,0,1,1.8-.6l.4-.1h1.9a.76.76,0,0,1,.4.1,3.34,3.34,0,0,1,1.2.5c.1,0,.2.1.3.1h0a5.49,5.49,0,0,1,.9.7,6.14,6.14,0,0,1,1.4,1.7l.2.2a2.45,2.45,0,0,0,2.3.9h.1a3.93,3.93,0,0,1,1.4.3h.1a4,4,0,0,1,1.6,2.1,9.54,9.54,0,0,1,.4,2.1,2.9,2.9,0,0,1-.3,1.4,3.19,3.19,0,0,0-.6,1.7.9.9,0,0,0,.1.5A3.11,3.11,0,0,0,38,34h.1a5.51,5.51,0,0,1,2,3.5h0v-.1a5.62,5.62,0,0,0-2.3-3.2c-.2-.1-.3-.1-.4,0a.35.35,0,0,0-.1.2v.2a2.31,2.31,0,0,0,.6.9,2,2,0,0,1,.5,1.3,5,5,0,0,0,.4,1.3h0a3.38,3.38,0,0,1-.6-1.2,2,2,0,0,0-.6-1.2,5,5,0,0,1-1-1.7,2,2,0,0,1-.1-.7,2,2,0,0,0-.1-.7,2.2,2.2,0,0,1-.1-.8,3,3,0,0,1,.6-1.8,2.41,2.41,0,0,0,.4-1.5,3.81,3.81,0,0,0-.4-1.7c-.6-1.5-1.4-2.1-2.7-2.1a3,3,0,0,1-2.8-1.2,11.92,11.92,0,0,0-1.5-1.8,5.66,5.66,0,0,0-3.7-1.3c-.2,0-.3,0-.3.2v.1c0,.1,0,.1.1.2a4,4,0,0,0,2.9,1.5,1.63,1.63,0,0,1,1.3,1.1A3.18,3.18,0,0,0,31.5,25a2.73,2.73,0,0,1,1.3,1.3c.2.3.4.3.6.4h.1l.3.1h.1a.77.77,0,0,1,.3.1,2.64,2.64,0,0,1,1.6,2.4h0v0a2.55,2.55,0,0,0-2-2.2c-.2,0-.3,0-.4.1a.37.37,0,0,0-.1.3h0v.1a2.28,2.28,0,0,1-1.2,1.9,2.67,2.67,0,0,0-1.3,1.9v.1a4.43,4.43,0,0,0,1,2.4,2.09,2.09,0,0,0,.6.4l.3.2a2.3,2.3,0,0,1,.9,1.4l.2.4a1.71,1.71,0,0,0,.8.9h.1c.6.5,1.1.8,1.3,1.5h0a2.59,2.59,0,0,0-1.5-1.4,1,1,0,0,1-.7-.7v-.1a10,10,0,0,0-.8-1.4.37.37,0,0,0-.3-.1q-.15,0-.3.3l-.1.2-.3.6a3.09,3.09,0,0,0-.2,1.1,2.51,2.51,0,0,0,.2,1l.1.1a5.17,5.17,0,0,1,.6,1.3v.1l-.1-.1a5.05,5.05,0,0,0-.8-1.3,2,2,0,0,1-.4-1.3,2.5,2.5,0,0,1,.4-1.4.9.9,0,0,0,.1-.5,1.42,1.42,0,0,0-.2-.6h0l-.8-1.2c-.6-1.2-1-2.8.9-4a2,2,0,0,0,1-1.6,2.72,2.72,0,0,0-1.3-2,4.73,4.73,0,0,1-1.6-2c-.1-.2-.2-.2-.3-.2s-.2.2-.2.3h0V24a2.14,2.14,0,0,1-.8,1.7,4.11,4.11,0,0,0-1.4,2.1,2.77,2.77,0,0,0-.1.9v.4a4,4,0,0,0,.8,1.6,4.24,4.24,0,0,1,.6,1.4h0V32a3.81,3.81,0,0,0-.8-1.3,4.61,4.61,0,0,1-.9-1.7.35.35,0,0,0-.1-.2h0l-.1-.1h0c-.1,0-.1-.1-.2-.1a2.1,2.1,0,0,0-1.1.4,1.06,1.06,0,0,0-.5.9.9.9,0,0,0,.1.5c.3.9.5,1.7.7,2.5l.1.4c.1.3.2.5.4.5a9.59,9.59,0,0,1,2.7,1.1h0a14.37,14.37,0,0,0-2.6-.8c-.1,0-.2,0-.2.1s-.1.1-.1.2v.1a16.08,16.08,0,0,0,1.4,3.8h0a13.09,13.09,0,0,1-1.4-2.9c-.3-.8-.6-2-.8-2.8a12.66,12.66,0,0,0-.6-1.8l-.1-.4a1.27,1.27,0,0,1-.1-.6,1.85,1.85,0,0,1,.2-.7,2.79,2.79,0,0,1,1.7-1.2,1.27,1.27,0,0,0,.8-.8A4.58,4.58,0,0,1,28.4,25a2.55,2.55,0,0,0,.6-1.3h0v-.2c0-.4-.2-.6-.6-.8a4.36,4.36,0,0,1-2.5-1.9.72.72,0,0,0-.7-.4,3.29,3.29,0,0,0-1.3.7.91.91,0,0,0-.3.7v1.3a3.8,3.8,0,0,1-.6,1.8,3,3,0,0,0-.2,1v1a2.58,2.58,0,0,1-.7,2.1h0a3.92,3.92,0,0,0,.4-1.8,3.75,3.75,0,0,0-.1-1.1v-.4a2.92,2.92,0,0,1,.2-.9l.1-.3c.1-.2.2-.5.3-.7s.1-.3.1-.5a3.08,3.08,0,0,0-.1-.9c0-.2-.1-.4-.2-.4s-.2-.1-.4,0a6.52,6.52,0,0,0-3.5,2.6,5.87,5.87,0,0,1,3.5-3,2.51,2.51,0,0,0,.8-.5c-.6,0-.4-.2,0-.4Zm12.6,3.8Z"/></g><g class="f"><path class="b" d="M23.6,36.2c-.3-.1-.5-.3-.9-.8a1.24,1.24,0,0,0-.3-.2,4.62,4.62,0,0,1-.7-.7,5.3,5.3,0,0,0-1-.6,2.38,2.38,0,0,1-1.2-1.3h0a8.8,8.8,0,0,1-.6-1h0c0,.1-.3-.5-.4-.6h0c-.1-.1-.4-.3-.4-.2s.2.5.2.6a2,2,0,0,1,.4.8,9.22,9.22,0,0,0,.5.8h0a4.07,4.07,0,0,1,.6,1.1,4.87,4.87,0,0,1,.4,1.1,7.59,7.59,0,0,0,.6,1.8.1.1,0,0,0,.1.1v-.2a14.91,14.91,0,0,1-.5-2.1c0-.2,0-.2.1-.3s.2,0,.4.1a7.1,7.1,0,0,1,1.3,1.2,1.77,1.77,0,0,0,1.1.7h.1C23.7,36.4,23.7,36.3,23.6,36.2Z"/></g><path class="g" d="M46.2,28.6a18,18,0,1,1-18-18.1A18.07,18.07,0,0,1,46.2,28.6Z"/><line class="h" x1="160.96" y1="8.9" x2="160.96" y2="48.92"/><path class="e" d="M174.2,12.53a9.53,9.53,0,0,1,6-1.88,17.05,17.05,0,0,1,3.91.53,1.68,1.68,0,0,0,.62.09c0,.51.13,1.9.31,3.25a.47.47,0,0,1-.6,0c-.33-1.5-1.33-3.23-4.53-3.23-3.38,0-6.26,2.14-6.26,6.72s2.94,7.21,6.57,7.21a4.71,4.71,0,0,0,4.62-3.16.46.46,0,0,1,.58.09,8.29,8.29,0,0,1-1.06,3,4.49,4.49,0,0,0-.77.22,13,13,0,0,1-3.49.51,9.69,9.69,0,0,1-5.51-1.48,7.13,7.13,0,0,1-3.14-6.08A7.34,7.34,0,0,1,174.2,12.53Z"/><path class="e" d="M186.84,18.46a7.64,7.64,0,0,1,7.87-7.8,7.28,7.28,0,0,1,7.67,7.58A7.55,7.55,0,0,1,194.71,26C189.8,26,186.84,22.44,186.84,18.46Zm13.33.46c0-3.65-1.61-7.58-5.84-7.58-2.3,0-5.28,1.57-5.28,6.41,0,3.27,1.59,7.52,5.95,7.52C197.65,25.27,200.17,23.28,200.17,18.92Z"/><path class="e" d="M212,19.7c.51,1,1,2.06,1.53,3h0c.6-1,1.15-2.19,1.7-3.32l2.08-4.22c1-2,1.64-3.23,1.68-4.25.75.07,1.22.07,1.66.07s1.28,0,2-.07a.47.47,0,0,1,0,.55l-.46,0c-1.39.13-1.57.55-1.55,2.1,0,2.34.07,6.43.24,9.62C221,24.36,221,25,222,25l.71.07a.41.41,0,0,1,0,.55c-.91,0-1.81-.07-2.61-.07s-1.77,0-2.67.07a.41.41,0,0,1,0-.55L218,25c1.08-.11,1.08-.46,1.08-1.88L219,13.95h0c-.15.24-1,2-1.44,2.87l-2,3.87c-1,1.95-2,4-2.39,5a.26.26,0,0,1-.22.09.27.27,0,0,1-.2-.09c-.38-1.17-1.44-3.34-1.95-4.42l-2-4.27c-.46-1-.93-2.17-1.42-3.18h0c-.09,1.37-.15,2.65-.22,3.94S207,21.11,207,23c0,1.64.13,2,1,2.06l.84.07c.16.13.13.49,0,.55-.75,0-1.61-.07-2.45-.07s-1.5,0-2.26.07a.44.44,0,0,1,0-.55l.49-.07c.93-.13,1.24-.27,1.37-1.81s.24-2.68.38-4.86c.11-1.83.2-3.71.24-4.93,0-1.39-.13-1.72-1.48-1.9l-.35,0a.41.41,0,0,1,.09-.55c.66,0,1.19.07,1.75.07s1.11,0,1.83-.07a8.44,8.44,0,0,0,1.15,3.65Z"/><path class="e" d="M232.16,19.7c.51,1,1,2.06,1.53,3h0c.6-1,1.15-2.19,1.7-3.32l2.08-4.22c1-2,1.64-3.23,1.68-4.25.75.07,1.22.07,1.66.07s1.28,0,2-.07a.47.47,0,0,1,0,.55l-.46,0c-1.39.13-1.57.55-1.55,2.1,0,2.34.07,6.43.24,9.62.07,1.11,0,1.7,1.08,1.79l.71.07a.41.41,0,0,1,0,.55c-.91,0-1.81-.07-2.61-.07s-1.77,0-2.67.07a.41.41,0,0,1,0-.55l.64-.07c1.08-.11,1.08-.46,1.08-1.88l-.07-9.22h0c-.15.24-1,2-1.44,2.87l-2,3.87c-1,1.95-2,4-2.39,5a.26.26,0,0,1-.22.09.27.27,0,0,1-.2-.09c-.38-1.17-1.44-3.34-1.95-4.42l-2-4.27c-.46-1-.93-2.17-1.42-3.18h0c-.09,1.37-.15,2.65-.22,3.94s-.16,3.32-.16,5.2c0,1.64.13,2,1,2.06l.84.07c.16.13.13.49,0,.55-.75,0-1.61-.07-2.45-.07s-1.5,0-2.26.07a.44.44,0,0,1,0-.55l.49-.07c.93-.13,1.24-.27,1.37-1.81s.24-2.68.38-4.86c.11-1.83.2-3.71.24-4.93,0-1.39-.13-1.72-1.48-1.9l-.35,0a.41.41,0,0,1,.09-.55c.66,0,1.19.07,1.75.07s1.11,0,1.83-.07a8.44,8.44,0,0,0,1.15,3.65Z"/><path class="e" d="M246.54,14.37c0-2.34,0-2.72-1.35-2.83l-.55,0c-.13-.09-.09-.49,0-.55,1.11,0,1.86.07,2.79.07s1.64,0,2.74-.07c.13.07.18.46,0,.55l-.55,0c-1.3.11-1.35.49-1.35,2.83v7.87c0,2.34,0,2.65,1.35,2.81l.55.07c.13.09.09.49,0,.55-1.11,0-1.86-.07-2.74-.07s-1.68,0-2.79.07a.43.43,0,0,1,0-.55l.55-.07c1.3-.15,1.35-.46,1.35-2.81Z"/><path class="e" d="M259.32,22.28c0,2.32,0,2.65,1.33,2.76l.71.07c.13.09.09.49,0,.55-1.26,0-2-.07-2.9-.07s-1.66,0-3.07.07a.39.39,0,0,1,0-.55l.8-.07c1.26-.11,1.37-.44,1.37-2.76V12.4c0-.69,0-.71-.66-.71h-1.22a4.53,4.53,0,0,0-2.72.55,4,4,0,0,0-1,1.53.43.43,0,0,1-.58-.15,23.27,23.27,0,0,0,.84-3.29.55.55,0,0,1,.42,0c.13.71.86.69,1.88.69h9c1.19,0,1.39,0,1.72-.62.11,0,.35,0,.4.07a13.38,13.38,0,0,0-.33,3.36.42.42,0,0,1-.58,0c-.07-.55-.22-1.37-.55-1.61a4.41,4.41,0,0,0-2.56-.55H260c-.66,0-.64,0-.64.75Z"/><path class="e" d="M274.18,22.28c0,2.32,0,2.65,1.33,2.76l.71.07c.13.09.09.49,0,.55-1.26,0-2-.07-2.9-.07s-1.66,0-3.07.07a.39.39,0,0,1,0-.55L271,25c1.26-.11,1.37-.44,1.37-2.76V12.4c0-.69,0-.71-.66-.71h-1.22a4.53,4.53,0,0,0-2.72.55,4,4,0,0,0-1,1.53.43.43,0,0,1-.58-.15,23.27,23.27,0,0,0,.84-3.29.55.55,0,0,1,.42,0c.13.71.86.69,1.88.69h9c1.19,0,1.39,0,1.72-.62.11,0,.35,0,.4.07a13.38,13.38,0,0,0-.33,3.36.42.42,0,0,1-.58,0c-.07-.55-.22-1.37-.55-1.61a4.41,4.41,0,0,0-2.56-.55h-1.57c-.66,0-.64,0-.64.75Z"/><path class="e" d="M283.46,14.32c0-2.3,0-2.63-1.35-2.79l-.35,0c-.13-.09-.09-.49,0-.55,1,0,1.7.07,2.61.07h4.16a29.84,29.84,0,0,0,3-.07,24.86,24.86,0,0,1,.35,2.94.43.43,0,0,1-.55,0c-.33-1-.53-1.81-1.68-2.1a10.53,10.53,0,0,0-2.14-.13h-1.59c-.66,0-.66,0-.66.88V17c0,.62.07.62.73.62h1.28a8.2,8.2,0,0,0,1.88-.13c.27-.09.42-.22.53-.77l.18-.91a.44.44,0,0,1,.57,0c0,.53-.09,1.39-.09,2.23s.09,1.64.09,2.12a.44.44,0,0,1-.57,0l-.2-.86a1,1,0,0,0-.69-.84,7.39,7.39,0,0,0-1.7-.11H286c-.66,0-.73,0-.73.6v3.12c0,1.17.07,1.92.42,2.3s.73.51,2.67.51a6.47,6.47,0,0,0,2.83-.33,5.55,5.55,0,0,0,1.57-2.14.41.41,0,0,1,.55.15,19.35,19.35,0,0,1-1,3.07c-2,0-4-.07-5.93-.07h-2c-1,0-1.7,0-3,.07a.43.43,0,0,1,0-.55l.73-.07c1.26-.11,1.37-.44,1.37-2.76Z"/><path class="e" d="M296.37,14.32c0-2.3,0-2.63-1.35-2.79l-.35,0c-.13-.09-.09-.49,0-.55,1,0,1.7.07,2.61.07h4.16a29.84,29.84,0,0,0,3-.07,24.86,24.86,0,0,1,.35,2.94.43.43,0,0,1-.55,0c-.33-1-.53-1.81-1.68-2.1a10.53,10.53,0,0,0-2.14-.13h-1.59c-.66,0-.66,0-.66.88V17c0,.62.07.62.73.62h1.28a8.2,8.2,0,0,0,1.88-.13c.27-.09.42-.22.53-.77l.18-.91a.44.44,0,0,1,.57,0c0,.53-.09,1.39-.09,2.23s.09,1.64.09,2.12a.44.44,0,0,1-.57,0l-.2-.86a1,1,0,0,0-.69-.84,7.39,7.39,0,0,0-1.7-.11h-1.28c-.66,0-.73,0-.73.6v3.12c0,1.17.07,1.92.42,2.3s.73.51,2.67.51a6.47,6.47,0,0,0,2.83-.33,5.55,5.55,0,0,0,1.57-2.14.41.41,0,0,1,.55.15,19.35,19.35,0,0,1-1,3.07c-2,0-4-.07-5.93-.07h-2c-1,0-1.7,0-3,.07a.43.43,0,0,1,0-.55L295,25c1.26-.11,1.37-.44,1.37-2.76Z"/><path class="e" d="M185.16,43.46c0,.66,0,3.29.07,3.87a.4.4,0,0,1-.42.24c-.26-.38-.91-1.15-2.83-3.34l-5.13-5.84c-.6-.68-2.1-2.5-2.57-3h0a5.65,5.65,0,0,0-.11,1.44v4.82c0,1,0,3.91.4,4.58.13.24.57.38,1.13.42l.69.07a.41.41,0,0,1,0,.55c-1,0-1.77-.07-2.59-.07s-1.53,0-2.3.07a.41.41,0,0,1,0-.55l.6-.07c.51-.07.86-.2,1-.44a21.34,21.34,0,0,0,.29-4.55V35.28a2,2,0,0,0-.49-1.59,2.39,2.39,0,0,0-1.37-.53l-.38,0a.39.39,0,0,1,0-.55c.93.07,2.1.07,2.5.07a7,7,0,0,0,1-.07c.44,1.13,3.05,4,3.78,4.86l2.14,2.41c1.53,1.7,2.61,2.94,3.65,4h0a2.24,2.24,0,0,0,.09-.93V38.17c0-1,0-3.91-.44-4.58-.13-.2-.49-.33-1.37-.44l-.38,0c-.16-.13-.13-.49,0-.55,1,0,1.77.07,2.61.07s1.53,0,2.28-.07a.39.39,0,0,1,0,.55l-.31,0c-.71.11-1.15.29-1.24.46-.38.8-.33,3.54-.33,4.55Z"/><path class="e" d="M188.76,40.08a7.64,7.64,0,0,1,7.87-7.8,7.28,7.28,0,0,1,7.67,7.58,7.55,7.55,0,0,1-7.67,7.72C191.72,47.57,188.76,44.05,188.76,40.08Zm13.33.46c0-3.65-1.61-7.58-5.84-7.58C194,33,191,34.53,191,39.37c0,3.27,1.59,7.52,5.95,7.52C199.57,46.88,202.09,44.9,202.09,40.54Z"/><path class="e" d="M213.92,41.31c.51,1,1,2.06,1.53,3h0c.6-1,1.15-2.19,1.7-3.32l2.08-4.22c1-2,1.64-3.23,1.68-4.25.75.07,1.22.07,1.66.07s1.28,0,2-.07a.47.47,0,0,1,0,.55l-.46,0c-1.39.13-1.57.55-1.55,2.1,0,2.34.07,6.43.24,9.62.07,1.11,0,1.7,1.08,1.79l.71.07a.41.41,0,0,1,0,.55c-.91,0-1.81-.07-2.61-.07s-1.77,0-2.67.07a.41.41,0,0,1,0-.55l.64-.07c1.08-.11,1.08-.46,1.08-1.88l-.07-9.22h0c-.15.24-1,2-1.44,2.88l-2,3.87c-1,1.95-2,4-2.39,5a.26.26,0,0,1-.22.09.27.27,0,0,1-.2-.09c-.38-1.17-1.44-3.34-1.95-4.42l-2-4.27c-.46-1-.93-2.17-1.42-3.18h0c-.09,1.37-.15,2.65-.22,3.94s-.16,3.32-.16,5.2c0,1.64.13,2,1,2.06l.84.07c.16.13.13.49,0,.55-.75,0-1.61-.07-2.45-.07s-1.5,0-2.26.07a.44.44,0,0,1,0-.55l.49-.07c.93-.13,1.24-.27,1.37-1.81s.24-2.67.38-4.86c.11-1.84.2-3.71.24-4.93,0-1.39-.13-1.72-1.48-1.9l-.35,0a.41.41,0,0,1,.09-.55c.66,0,1.19.07,1.75.07s1.11,0,1.83-.07a8.44,8.44,0,0,0,1.15,3.65Z"/><path class="e" d="M228.31,36c0-2.34,0-2.72-1.35-2.83l-.55,0c-.13-.09-.09-.49,0-.55,1.11,0,1.86.07,2.79.07s1.64,0,2.74-.07c.13.07.18.46,0,.55l-.55,0c-1.3.11-1.35.49-1.35,2.83v7.87c0,2.34,0,2.65,1.35,2.81l.55.07c.13.09.09.49,0,.55-1.11,0-1.86-.07-2.74-.07s-1.68,0-2.79.07a.43.43,0,0,1,0-.55l.55-.07c1.3-.15,1.35-.46,1.35-2.81Z"/><path class="e" d="M247.67,43.46c0,.66,0,3.29.07,3.87a.4.4,0,0,1-.42.24c-.26-.38-.91-1.15-2.83-3.34l-5.13-5.84c-.6-.68-2.1-2.5-2.57-3h0a5.65,5.65,0,0,0-.11,1.44v4.82c0,1,0,3.91.4,4.58.13.24.57.38,1.13.42l.69.07a.41.41,0,0,1,0,.55c-1,0-1.77-.07-2.59-.07s-1.53,0-2.3.07a.41.41,0,0,1,0-.55l.6-.07c.51-.07.86-.2,1-.44a21.34,21.34,0,0,0,.29-4.55V35.28a2,2,0,0,0-.49-1.59,2.39,2.39,0,0,0-1.37-.53l-.38,0a.39.39,0,0,1,0-.55c.93.07,2.1.07,2.5.07a7,7,0,0,0,1-.07c.44,1.13,3.05,4,3.78,4.86L243,39.83c1.53,1.7,2.61,2.94,3.65,4h0a2.24,2.24,0,0,0,.09-.93V38.17c0-1,0-3.91-.44-4.58-.13-.2-.49-.33-1.37-.44l-.38,0c-.16-.13-.13-.49,0-.55,1,0,1.77.07,2.61.07s1.53,0,2.28-.07a.39.39,0,0,1,0,.55l-.31,0c-.71.11-1.15.29-1.24.46-.38.8-.33,3.54-.33,4.55Z"/><path class="e" d="M259.26,42.09c-.16-.49-.24-.55-.91-.55H255c-.55,0-.69.07-.84.53l-.77,2.32a8.43,8.43,0,0,0-.49,1.83c0,.27.11.4.64.44l.73.07a.36.36,0,0,1,0,.55c-.57,0-1.26,0-2.3-.07-.73,0-1.53,0-2.12.07a.43.43,0,0,1,0-.55l.73-.07a1.47,1.47,0,0,0,1.33-1.08c.4-1,1-2.46,1.95-4.93l2.25-6a3.17,3.17,0,0,0,.38-1.57,2.48,2.48,0,0,0,1.15-.84.31.31,0,0,1,.33.2c.29,1,.64,2,1,3l3,8.89c.64,1.9.93,2.23,1.88,2.34l.6.07a.43.43,0,0,1,0,.55c-.91,0-1.68-.07-2.68-.07s-1.9,0-2.54.07a.37.37,0,0,1,0-.55l.64-.07c.46,0,.77-.18.77-.4a4.54,4.54,0,0,0-.29-1.17Zm-4.38-2c-.18.51-.16.53.46.53h2.72c.64,0,.69-.09.49-.69l-1.19-3.6a14.54,14.54,0,0,0-.51-1.39h0a13.39,13.39,0,0,0-.53,1.3Z"/><path class="e" d="M270.62,43.9c0,2.32,0,2.65,1.33,2.76l.71.07c.13.09.09.49,0,.55-1.26,0-2-.07-2.9-.07s-1.66,0-3.07.07a.39.39,0,0,1,0-.55l.8-.07c1.26-.11,1.37-.44,1.37-2.76V34c0-.69,0-.71-.66-.71h-1.22a4.52,4.52,0,0,0-2.72.55,4,4,0,0,0-1,1.53.43.43,0,0,1-.58-.15,23.26,23.26,0,0,0,.84-3.29.55.55,0,0,1,.42,0c.13.71.86.69,1.88.69h9c1.19,0,1.39,0,1.72-.62.11,0,.35,0,.4.07a13.38,13.38,0,0,0-.33,3.36.42.42,0,0,1-.58,0c-.07-.55-.22-1.37-.55-1.61a4.41,4.41,0,0,0-2.56-.55h-1.57c-.66,0-.64,0-.64.75Z"/><path class="e" d="M279.9,36c0-2.34,0-2.72-1.35-2.83l-.55,0c-.13-.09-.09-.49,0-.55,1.11,0,1.86.07,2.79.07s1.64,0,2.74-.07c.13.07.18.46,0,.55l-.55,0c-1.3.11-1.35.49-1.35,2.83v7.87c0,2.34,0,2.65,1.35,2.81l.55.07c.13.09.09.49,0,.55-1.11,0-1.86-.07-2.74-.07s-1.68,0-2.79.07a.43.43,0,0,1,0-.55l.55-.07c1.3-.15,1.35-.46,1.35-2.81Z"/><path class="e" d="M285.56,40.08a7.64,7.64,0,0,1,7.87-7.8,7.28,7.28,0,0,1,7.67,7.58,7.55,7.55,0,0,1-7.67,7.72C288.52,47.57,285.56,44.05,285.56,40.08Zm13.33.46c0-3.65-1.61-7.58-5.84-7.58-2.3,0-5.28,1.57-5.28,6.41,0,3.27,1.59,7.52,5.95,7.52C296.37,46.88,298.89,44.9,298.89,40.54Z"/><path class="e" d="M316.84,43.46c0,.66,0,3.29.07,3.87a.4.4,0,0,1-.42.24c-.26-.38-.91-1.15-2.83-3.34l-5.13-5.84c-.6-.68-2.1-2.5-2.57-3h0a5.65,5.65,0,0,0-.11,1.44v4.82c0,1,0,3.91.4,4.58.13.24.57.38,1.13.42l.69.07a.41.41,0,0,1,0,.55c-1,0-1.77-.07-2.59-.07s-1.53,0-2.3.07a.41.41,0,0,1,0-.55l.6-.07c.51-.07.86-.2,1-.44a21.34,21.34,0,0,0,.29-4.55V35.28a2,2,0,0,0-.49-1.59,2.39,2.39,0,0,0-1.37-.53l-.38,0a.39.39,0,0,1,0-.55c.93.07,2.1.07,2.5.07a7,7,0,0,0,1-.07c.44,1.13,3.05,4,3.78,4.86l2.14,2.41c1.53,1.7,2.61,2.94,3.65,4h0a2.24,2.24,0,0,0,.09-.93V38.17c0-1,0-3.91-.44-4.58-.13-.2-.49-.33-1.37-.44l-.38,0c-.16-.13-.13-.49,0-.55,1,0,1.77.07,2.61.07s1.53,0,2.28-.07a.39.39,0,0,1,0,.55l-.31,0c-.71.11-1.15.29-1.24.46-.38.8-.33,3.54-.33,4.55Z"/></svg>