<?xml version="1.0" encoding="utf-8"?>
<!-- Generator: Adobe Illustrator 18.0.0, SVG Export Plug-In . SVG Version: 6.00 Build 0)  -->
<!DOCTYPE svg PUBLIC "-//W3C//DTD SVG 1.1//EN" "http://www.w3.org/Graphics/SVG/1.1/DTD/svg11.dtd">
<svg version="1.1" id="Layer_1" xmlns="http://www.w3.org/2000/svg" xmlns:xlink="http://www.w3.org/1999/xlink" x="0px" y="0px"
	 viewBox="0 0 191.1 50.6" enable-background="new 0 0 191.1 50.6" xml:space="preserve">
<g>
	<path fill="#174177" d="M0,8.6C0,7.7,0.1,7,0.3,6.4c0.2-0.6,0.5-1.3,1-2.1c0.5-0.7,1-1.4,1.7-1.9c0.7-0.5,1.6-0.9,2.7-1.3
		c0.8-0.3,1.9-0.4,3.1-0.4c0.8,0,1.7,0.1,2.5,0.3c0.8,0.2,1.5,0.5,2.2,0.9c0.7,0.4,1.3,1,2,1.9c0.5,0.6,0.8,1.2,1,1.9
		C16.8,6.6,17,7.5,17,8.4c0,1.1-0.1,1.9-0.3,2.6c-0.2,0.7-0.5,1.4-1,2.1c-0.4,0.5-1,1.1-1.9,1.8c-0.6,0.5-1.4,0.8-2.3,1.1
		c-0.9,0.3-1.9,0.4-2.9,0.4c-1.1,0-2-0.1-2.9-0.4c-0.8-0.2-1.5-0.6-2.1-0.9c-0.6-0.4-1.1-0.9-1.7-1.6c-0.6-0.7-1-1.5-1.3-2.3
		C0.2,10.5,0,9.6,0,8.6z M8.4,16.1c0.7,0,1.4-0.1,2.1-0.3c0.7-0.2,1.4-0.5,1.9-0.9c0.6-0.4,1-0.9,1.3-1.5c0.3-0.6,0.6-1.3,0.8-2.2
		c0.2-0.9,0.3-1.8,0.3-2.6c0-1.1-0.2-2.2-0.5-3.2c-0.2-0.8-0.7-1.5-1.2-2.2c-0.6-0.6-1.2-1.1-2-1.5c-0.8-0.4-1.6-0.5-2.5-0.5
		c-0.7,0-1.4,0.1-2.1,0.4C5.7,1.7,5.1,2,4.6,2.4C4.2,2.8,3.8,3.3,3.4,4S2.7,5.5,2.5,6.3C2.3,7.1,2.2,7.8,2.2,8.5
		c0,0.7,0.1,1.4,0.3,2.3c0.2,0.8,0.5,1.6,0.8,2.2c0.3,0.6,0.8,1.2,1.3,1.6c0.5,0.5,1.1,0.8,1.7,1.1C7,15.9,7.6,16.1,8.4,16.1z"/>
	<path fill="#174177" d="M18.6,15.9c0.2-0.1,0.4-0.1,0.7-0.1c0.5-0.1,0.8-0.2,0.9-0.3c0.1-0.1,0.2-0.3,0.2-0.7l0-0.4
		c0-0.2,0-0.4,0-0.6l0-3.7c0-0.5-0.1-0.8-0.2-1C20,8.9,19.6,8.7,19,8.6V8.2c0.6-0.2,1-0.4,1.4-0.6c0.5-0.4,0.8-0.9,1.2-1.5l0.4,0
		c0,0.4,0,0.6,0,0.8v0.8l0,0.2c0.1-0.1,0.2-0.1,0.3-0.2c0.5-0.4,1-0.7,1.5-0.9c0.5-0.2,1-0.4,1.4-0.5c0.2-0.1,0.5-0.1,0.8-0.1
		c0.7,0,1.2,0.2,1.7,0.5c0.5,0.4,0.8,0.8,0.9,1.2c0.1,0.5,0.2,1.4,0.2,2.9v1.8c0,0,0,0.2,0,0.5c0,0.3,0,0.6,0,0.9
		c0,0.6,0,0.9,0.1,1.1c0,0.1,0.1,0.2,0.3,0.3c0.8,0.1,1.2,0.2,1.4,0.4V16c0,0.1,0,0.2-0.1,0.3h-0.2l-1.6,0l-1.6,0
		c-0.6,0-1.1,0-1.6,0L25.4,16c0,0,0-0.1,0.1-0.2c0.2-0.1,0.5-0.2,0.9-0.2c0.2,0,0.4,0,0.5-0.1c0.1,0,0.2-0.1,0.3-0.2
		c0.1-0.2,0.1-0.4,0.1-0.5c0-0.1,0-0.2,0-0.3c0-0.4,0-1.3,0-2.8v-0.6l0-1c0-1-0.2-1.8-0.6-2.1c-0.4-0.4-1-0.6-1.7-0.6
		c-0.5,0-1.1,0.1-1.6,0.4c-0.5,0.2-1,0.6-1.5,1.1c0,0.4,0,0.7,0,1l0,2.7c0,1.4,0,2.2,0.1,2.6c0,0.1,0,0.2,0.1,0.3
		c0.1,0.1,0.2,0.1,0.4,0.2c0.2,0,0.4,0.1,0.7,0.2c0.3,0.1,0.4,0.1,0.5,0.1c0.2,0,0.3,0.1,0.3,0.2l0,0.2h-1.3l-2.6,0
		c-0.6,0-1,0-1.1,0h-0.3l0-0.2C18.6,16.1,18.6,16,18.6,15.9z"/>
	<path fill="#174177" d="M31.4,1.3V1.1c0.2-0.1,0.5-0.1,0.7-0.2c0.4-0.1,1-0.3,1.8-0.6h0.6c0,0.4,0,0.6,0,0.7c0,6.6,0,10.5-0.1,11.8
		c0,0.7,0,1.1,0,1.2c0,0.9,0,1.4,0.1,1.5c0.1,0.1,0.4,0.2,0.9,0.3c0.5,0.1,0.8,0.1,0.9,0.2c0.1,0,0.1,0.1,0.1,0.2
		c0,0.1,0,0.2-0.1,0.2c0,0-0.1,0.1-0.2,0.1c-0.1,0-0.5,0-1.3,0l-1.6-0.1l-2,0.1c-0.1,0-0.2,0-0.3-0.1c0,0-0.1-0.1-0.1-0.2
		c0-0.1,0-0.1,0.1-0.2c0.1,0,0.3-0.1,0.9-0.2c0.5-0.1,0.8-0.2,0.9-0.2c0.1-0.1,0.1-0.2,0.2-0.4c0-0.3,0-1.1,0-2.4l0-2.8L33,7l0-2.9
		l0-1.4c0-0.3,0-0.5-0.1-0.6c-0.1-0.1-0.3-0.2-0.6-0.4C31.8,1.5,31.5,1.4,31.4,1.3z"/>
	<path fill="#174177" d="M37.1,7.7l0-0.4c0.5-0.2,0.8-0.2,0.8-0.3c0.3-0.1,0.6-0.3,0.9-0.6c0.3-0.3,0.6-0.6,0.8-0.9
		c0.1,0,0.2,0,0.2,0l0.1,0c0,0.4,0,0.7,0,0.8c0,0,0,0.2,0,0.5v0.6l0,3.5l0,3.7c0,0.3,0,0.5,0.1,0.6c0.1,0.1,0.4,0.2,0.9,0.4
		c0.3,0.1,0.6,0.2,0.7,0.2c0,0.1,0,0.1,0,0.1c0,0,0,0.1-0.1,0.2c-0.3,0-0.7,0-1.2-0.1c-0.7-0.1-1.1-0.1-1.3-0.1
		c-0.1,0-0.7,0-1.9,0.1c-0.2,0-0.5,0-0.7,0.1c0,0-0.1,0-0.2,0c0-0.1-0.1-0.1-0.1-0.1c0-0.1,0.1-0.2,0.2-0.3c0,0,0.4-0.1,1.2-0.3
		c0.3,0,0.4-0.1,0.5-0.2c0.1-0.2,0.2-0.4,0.2-0.8c0-0.6,0-2.3,0-5.1c0-0.6,0-0.9-0.1-1c0-0.1-0.1-0.2-0.3-0.3
		C38,8,37.7,7.8,37.1,7.7z M38.1,1.4c0-0.3,0.1-0.5,0.3-0.7c0.2-0.2,0.5-0.3,0.7-0.3c0.3,0,0.6,0.1,0.8,0.3c0.2,0.2,0.3,0.5,0.3,0.7
		c0,0.2-0.1,0.5-0.3,0.7c-0.2,0.2-0.5,0.3-0.8,0.3c-0.3,0-0.5-0.1-0.7-0.3C38.2,2,38.1,1.8,38.1,1.4z"/>
	<path fill="#174177" d="M42.5,15.9c0.2-0.1,0.4-0.1,0.7-0.1c0.5-0.1,0.8-0.2,0.9-0.3c0.1-0.1,0.2-0.3,0.2-0.7l0-0.4
		c0-0.2,0-0.4,0-0.6l0-3.7c0-0.5-0.1-0.8-0.2-1c-0.2-0.2-0.6-0.4-1.2-0.5V8.2c0.6-0.2,1-0.4,1.4-0.6c0.5-0.4,0.8-0.9,1.2-1.5l0.4,0
		c0,0.4,0,0.6,0,0.8v0.8l0,0.2c0.1-0.1,0.2-0.1,0.3-0.2c0.5-0.4,1-0.7,1.5-0.9c0.5-0.2,1-0.4,1.4-0.5c0.2-0.1,0.5-0.1,0.8-0.1
		c0.7,0,1.2,0.2,1.7,0.5c0.5,0.4,0.8,0.8,0.9,1.2c0.1,0.5,0.2,1.4,0.2,2.9v1.8c0,0,0,0.2,0,0.5c0,0.3,0,0.6,0,0.9
		c0,0.6,0,0.9,0.1,1.1c0,0.1,0.1,0.2,0.3,0.3c0.8,0.1,1.2,0.2,1.4,0.4V16c0,0.1,0,0.2-0.1,0.3h-0.2l-1.6,0l-1.6,0
		c-0.6,0-1.1,0-1.6,0L49.3,16c0,0,0-0.1,0.1-0.2c0.2-0.1,0.5-0.2,0.9-0.2c0.2,0,0.4,0,0.5-0.1c0.1,0,0.2-0.1,0.3-0.2
		c0.1-0.2,0.1-0.4,0.1-0.5c0-0.1,0-0.2,0-0.3c0-0.4,0-1.3,0-2.8v-0.6l0-1c0-1-0.2-1.8-0.6-2.1c-0.4-0.4-1-0.6-1.7-0.6
		c-0.5,0-1.1,0.1-1.6,0.4c-0.5,0.2-1,0.6-1.5,1.1c0,0.4,0,0.7,0,1l0,2.7c0,1.4,0,2.2,0.1,2.6c0,0.1,0,0.2,0.1,0.3
		c0.1,0.1,0.2,0.1,0.4,0.2c0.2,0,0.4,0.1,0.7,0.2c0.3,0.1,0.4,0.1,0.5,0.1c0.2,0,0.3,0.1,0.3,0.2l0,0.2h-1.3l-2.6,0
		c-0.6,0-1,0-1.1,0h-0.3l0-0.2C42.5,16.1,42.5,16,42.5,15.9z"/>
	<path fill="#174177" d="M64.2,9.9l-4.8,0l-0.9,0c-0.4,0-0.7,0-1.1,0.1c-0.1,0.2-0.1,0.4-0.1,0.5l0,0.1v0.1l0,0.6
		c0,0.5,0.2,1.1,0.5,1.8c0.3,0.7,0.8,1.3,1.3,1.6c0.6,0.4,1.3,0.6,2.2,0.6c0.5,0,0.8-0.1,1.1-0.2c0.3-0.1,0.7-0.3,1.2-0.6l0.9-0.7
		l0.1,0.5c0,0.1,0,0.1,0,0.2C64,15,63.5,15.4,63,15.7c-0.6,0.3-1.1,0.6-1.7,0.8c-0.3,0.1-0.7,0.1-1.4,0.1c-0.6,0-1.1-0.1-1.7-0.3
		c-0.8-0.4-1.5-0.9-1.9-1.7c-0.5-0.8-0.7-1.7-0.7-2.9c0-0.4,0.1-0.8,0.2-1.4c0.1-0.6,0.4-1.1,0.7-1.8c0.2-0.4,0.5-0.8,0.9-1
		c0.5-0.4,0.9-0.7,1.3-0.8c0.5-0.2,1.1-0.3,1.8-0.3c0.7,0,1.4,0.1,1.8,0.4c0.6,0.4,1.1,0.8,1.4,1.4c0.3,0.6,0.5,1.1,0.5,1.6V9.9z
		 M57.5,9.5h0.6c0.4,0,1.6-0.1,3.7-0.2c0.3,0,0.5,0,0.6-0.1c0.1-0.2,0.2-0.3,0.2-0.4c0-0.2-0.1-0.5-0.2-0.8
		c-0.2-0.3-0.4-0.6-0.7-0.7c-0.3-0.2-0.7-0.3-1.2-0.3c-0.9,0-1.7,0.3-2.2,1C57.7,8.5,57.5,9,57.5,9.5z"/>
	<path fill="#174177" d="M71.3,16c0.2-0.2,0.7-0.3,1.4-0.4c0.5,0,0.8-0.1,0.9-0.1c0.1,0,0.1-0.1,0.1-0.2c0.1-0.3,0.2-1.1,0.3-2.4
		c0.1-1.7,0.2-4,0.4-6.8c0.1-2.2,0.2-3.5,0.2-4.1V1.7c-0.6-0.1-1.5-0.2-2.8-0.4c-0.1-0.1-0.1-0.2-0.1-0.3c0,0,0-0.1,0.1-0.2
		c0.1,0,0.2-0.1,0.3-0.1c0.1,0,0.2,0,0.4,0c0.4,0.1,0.9,0.1,1.6,0.1c0.2,0,0.6,0,1.2-0.1c0.4,0,0.6,0,0.6,0c0.1,0,0.3,0,0.4,0.1
		c0.1,0.1,0.1,0.2,0.2,0.2L77,2.2l3.4,7.5l1.4,3.2c1.1-2.2,2-4.2,2.6-5.9c0-0.1,0.1-0.2,0.1-0.3c0.1-0.1,0.1-0.3,0.2-0.5
		c0.1-0.2,0.3-0.8,0.8-1.9c0.2-0.5,0.3-0.8,0.4-1.2c0.5-1.3,0.7-2,0.8-2.2c0.2-0.1,0.3-0.1,0.4-0.1c0.1,0,0.3,0,0.5,0
		c0.5,0,1.2,0,2.2,0c0.6,0,1.1,0,1.5,0c0,0.1,0,0.2,0,0.2c0,0.1,0,0.1,0,0.2c-0.3,0.1-0.6,0.2-0.9,0.2c-0.7,0-1.2,0.1-1.4,0.2
		C89,1.8,88.8,1.9,88.8,2c-0.1,0.1-0.1,0.5-0.1,1.1l0,0.6l0,0.6c0,1.2,0,3.2,0.1,6.1l0,2.4l0,1.5c0,0.6,0,0.9,0.1,1.1
		c0.1,0.1,0.2,0.2,0.5,0.3c0.4,0.1,1.1,0.3,2.1,0.4c0.1,0,0.1,0.1,0.1,0.2c0,0.1,0,0.2,0,0.2H91c-0.5,0-1,0-1.5,0
		c-0.6,0-0.9,0-0.9,0c-1.7,0-2.7,0-3.3,0.1c-0.3,0-0.5,0-0.6,0c-0.1,0-0.1,0-0.2,0v-0.2c0-0.1,0-0.1,0-0.2c0.3-0.1,0.6-0.2,1.1-0.2
		c0.5-0.1,0.9-0.3,1.1-0.4c0.1-0.3,0.1-0.9,0.1-1.9l0-2.4c0-0.3,0-0.8,0-1.5c0-0.7,0-1.9,0-3.5c0-1.3,0-2.3-0.1-2.9
		c-0.1,0.3-0.4,0.9-0.8,1.8l-0.2,0.5l0,0.1l-1.8,4.2l-0.6,1.6l-0.8,2c-0.4,0.9-0.7,1.7-0.9,2.4c-0.1,0.3-0.2,0.6-0.3,0.8l-0.3,0
		c-0.9-2.7-2-5.4-3.3-8.2c-1.3-2.8-2.1-4.6-2.6-5.5C75,3,74.9,4,74.9,5.7c-0.1,2-0.2,4.3-0.2,6.7c0,0.8,0.1,1.6,0.2,2.6
		c0,0.3,0.1,0.5,0.3,0.6c0.2,0.1,0.7,0.2,1.6,0.2c0.3,0,0.6,0,0.9,0.1c0.1,0.1,0.1,0.2,0.1,0.3c0,0,0,0.1-0.1,0.2L74,16.2
		c-0.3,0-0.7,0-1.3,0.1c-0.3,0-0.8,0-1.4,0L71.3,16z"/>
	<path fill="#174177" d="M101.3,9.9l-4.8,0l-0.9,0c-0.4,0-0.7,0-1.1,0.1c-0.1,0.2-0.1,0.4-0.1,0.5l0,0.1v0.1l0,0.6
		c0,0.5,0.2,1.1,0.5,1.8c0.3,0.7,0.8,1.3,1.3,1.6c0.6,0.4,1.3,0.6,2.2,0.6c0.5,0,0.8-0.1,1.1-0.2c0.3-0.1,0.7-0.3,1.2-0.6l0.9-0.7
		l0.1,0.5c0,0.1,0,0.1,0,0.2c-0.4,0.5-0.8,0.9-1.4,1.2c-0.6,0.3-1.1,0.6-1.7,0.8c-0.3,0.1-0.7,0.1-1.4,0.1c-0.6,0-1.1-0.1-1.7-0.3
		c-0.8-0.4-1.5-0.9-1.9-1.7c-0.5-0.8-0.7-1.7-0.7-2.9c0-0.4,0.1-0.8,0.2-1.4c0.1-0.6,0.4-1.1,0.7-1.8c0.2-0.4,0.5-0.8,0.9-1
		c0.5-0.4,0.9-0.7,1.3-0.8c0.5-0.2,1.1-0.3,1.8-0.3c0.7,0,1.4,0.1,1.8,0.4c0.6,0.4,1.1,0.8,1.4,1.4c0.3,0.6,0.5,1.1,0.5,1.6V9.9z
		 M94.5,9.5h0.6c0.4,0,1.6-0.1,3.7-0.2c0.3,0,0.5,0,0.6-0.1c0.1-0.2,0.2-0.3,0.2-0.4c0-0.2-0.1-0.5-0.2-0.8
		c-0.2-0.3-0.4-0.6-0.7-0.7c-0.3-0.2-0.7-0.3-1.2-0.3c-0.9,0-1.7,0.3-2.2,1C94.7,8.5,94.5,9,94.5,9.5z"/>
	<path fill="#174177" d="M102.5,15.9c0.1-0.1,0.3-0.1,0.5-0.2c0.3,0,0.6-0.1,0.7-0.2c0.1-0.1,0.2-0.3,0.3-0.5
		c0.1-0.3,0.1-1.3,0.1-3.1c0-1.7-0.1-2.8-0.2-3.3c-0.2-0.1-0.4-0.2-0.7-0.3c-0.1,0-0.3-0.1-0.6-0.1V7.8c0.5-0.1,0.9-0.3,1.2-0.5
		s0.7-0.7,1.2-1.3h0.1c0,0,0.1,0,0.2,0c0.1,0,0.1,0,0.2,0.1l0,1.4c0,0.3,0,0.6,0,0.9c0.9-0.8,1.6-1.3,2.3-1.6c0.5-0.2,1-0.3,1.6-0.3
		c0.7,0,1.3,0.1,1.7,0.4c0.4,0.3,0.8,0.7,1.2,1.4c0.7-0.7,1.4-1.2,1.9-1.5c0.6-0.3,1.2-0.4,1.8-0.4c0.9,0,1.6,0.3,2.2,0.9
		c0.6,0.6,0.9,1.5,0.9,2.6v1l0,1.1l0,2.8c0,0.3,0.1,0.6,0.2,0.7c0.1,0,0.3,0.1,0.7,0.2c0.3,0.1,0.4,0.1,0.5,0.2c0,0,0.1,0.1,0.1,0.2
		c0,0.1,0,0.2-0.1,0.3h-0.1l-1.2-0.1c-0.1,0-0.4,0-0.7,0c-0.4,0-0.9,0-1.6,0h-0.6c-0.1,0-0.3,0-0.5,0c0-0.1,0-0.1,0-0.2
		c0-0.1,0-0.1,0.1-0.2c0.2-0.1,0.5-0.2,0.9-0.2c0.4-0.1,0.6-0.2,0.7-0.3c0.1-0.2,0.1-0.8,0.1-1.9c0-2.4,0-3.8-0.1-4.1
		c-0.1-0.6-0.4-1.1-0.8-1.4c-0.4-0.3-0.9-0.5-1.6-0.5c-0.5,0-1,0.1-1.4,0.4c-0.5,0.3-0.9,0.6-1.4,1.1l0,0.3V11l0,1.4
		c0,1.5,0,2.3,0,2.5c0,0.2,0.1,0.3,0.2,0.4c0.1,0.1,0.4,0.2,0.9,0.2c0.2,0,0.4,0.1,0.5,0.1c0.1,0.1,0.1,0.2,0.1,0.3
		c0,0.1,0,0.2-0.1,0.2h-0.2l-0.6,0h-3.5l-1,0c0-0.1,0-0.2,0-0.3l0-0.1c0.2-0.1,0.5-0.2,1-0.3c0.2,0,0.5-0.1,0.8-0.2
		c0,0,0.1-0.1,0.1-0.2c0-0.1,0.1-0.4,0.1-1l0.1-1.4l0-1.6l0-0.9c0-1-0.2-1.7-0.6-2.2c-0.4-0.5-0.9-0.7-1.5-0.7
		c-0.6,0-1.1,0.1-1.7,0.4c-0.6,0.3-1,0.7-1.4,1.1c0,0.2,0,0.4,0,0.6l0,4.1c0,0.9,0.1,1.4,0.2,1.5c0.1,0.1,0.3,0.2,0.6,0.3
		c0.5,0.1,0.8,0.2,1,0.3c0.1,0,0.1,0.1,0.1,0.2c0,0.1,0,0.1,0,0.2c-0.9-0.1-1.5-0.1-1.8-0.1c-0.3,0-0.6,0-0.9,0l-0.6,0h-0.4l-1.4,0
		c0-0.1,0-0.1,0-0.1C102.4,16.1,102.4,16,102.5,15.9z"/>
	<path fill="#174177" d="M121.4,1.1L121.4,1.1c0-0.1,0-0.3,0.1-0.4c0.9-0.2,1.8-0.4,2.8-0.7c0.1,0,0.1,0,0.3,0
		c0,0.1,0.1,0.2,0.1,0.3v3.6l0,1.1l0,1.3l0,1c0,0,0,0.2,0,0.4l1-0.4c0.1,0,0.5-0.1,1-0.3c0.7-0.1,1.2-0.2,1.3-0.2
		c0.8,0,1.5,0.1,2.2,0.4c0.4,0.2,0.8,0.4,1.2,0.8c0.4,0.4,0.7,0.8,0.9,1.2c0.3,0.8,0.5,1.4,0.5,2c0,0.9-0.1,1.5-0.2,1.8
		c-0.3,0.8-0.6,1.4-1,1.9c-0.4,0.5-0.9,0.9-1.7,1.2c-0.7,0.3-1.5,0.5-2.3,0.5c-0.7,0-1.4-0.1-2.1-0.4c-0.7-0.3-1-0.4-1.1-0.4
		c-0.2,0-0.6,0.3-1,1l-0.4,0c0-0.5,0-1.2,0-2l0-1.8l0-0.9l0-2.6l0-0.5l0-1.2V6.6l0-0.4c0-0.1,0-0.4,0-1V4.4c0-1.4,0-2.2-0.2-2.4
		C122.7,1.7,122.2,1.4,121.4,1.1z M127.2,16c1.2,0,2.2-0.3,2.8-1c0.6-0.7,1-1.7,1-3.1c0-1.2-0.4-2.3-1.1-3c-0.7-0.8-1.6-1.2-2.7-1.2
		c-0.8,0-1.4,0.1-1.9,0.4c-0.3,0.2-0.5,0.3-0.5,0.4c0,0.1-0.1,1-0.1,2.6c0,1.9,0,3,0.1,3.3c0.1,0.5,0.4,0.9,0.7,1.1
		C126.1,15.8,126.6,16,127.2,16z"/>
	<path fill="#174177" d="M143.2,9.9l-4.8,0l-0.9,0c-0.4,0-0.7,0-1.1,0.1c-0.1,0.2-0.1,0.4-0.1,0.5l0,0.1v0.1l0,0.6
		c0,0.5,0.2,1.1,0.5,1.8c0.3,0.7,0.8,1.3,1.3,1.6c0.6,0.4,1.3,0.6,2.2,0.6c0.5,0,0.8-0.1,1.1-0.2c0.3-0.1,0.7-0.3,1.2-0.6l0.9-0.7
		l0.1,0.5c0,0.1,0,0.1,0,0.2c-0.4,0.5-0.8,0.9-1.4,1.2c-0.6,0.3-1.1,0.6-1.7,0.8c-0.3,0.1-0.7,0.1-1.4,0.1c-0.6,0-1.1-0.1-1.7-0.3
		c-0.8-0.4-1.5-0.9-1.9-1.7c-0.5-0.8-0.7-1.7-0.7-2.9c0-0.4,0.1-0.8,0.2-1.4c0.1-0.6,0.4-1.1,0.7-1.8c0.2-0.4,0.5-0.8,0.9-1
		c0.5-0.4,0.9-0.7,1.3-0.8c0.5-0.2,1.1-0.3,1.8-0.3c0.7,0,1.4,0.1,1.8,0.4c0.6,0.4,1.1,0.8,1.4,1.4c0.3,0.6,0.5,1.1,0.5,1.6V9.9z
		 M136.4,9.5h0.6c0.4,0,1.6-0.1,3.7-0.2c0.3,0,0.5,0,0.6-0.1c0.1-0.2,0.2-0.3,0.2-0.4c0-0.2-0.1-0.5-0.2-0.8
		c-0.2-0.3-0.4-0.6-0.7-0.7c-0.3-0.2-0.7-0.3-1.2-0.3c-0.9,0-1.7,0.3-2.2,1C136.7,8.5,136.4,9,136.4,9.5z"/>
	<path fill="#174177" d="M144.4,16.3l0-0.2c0-0.1,0-0.1,0.1-0.3l0.7-0.1l1-0.2c0.1,0,0.1-0.1,0.2-0.2c0-0.1,0.1-0.4,0.1-0.9
		c0-2.7,0-4.3,0-4.7c0-0.4-0.1-0.7-0.2-0.8c-0.1-0.1-0.4-0.2-0.9-0.3c-0.3,0-0.5-0.1-0.7-0.2l0-0.4c0.8-0.3,1.4-0.6,1.7-0.9
		c0.4-0.4,0.7-0.8,1-1.4l0.4,0c0,0.4,0.1,1.3,0.1,2.7l0,0.2c0,0,0,0.1,0,0.2c0.3-0.6,0.7-1.1,1.1-1.5l0.3-0.3
		c0.1-0.1,0.2-0.2,0.3-0.3c0.6-0.3,1-0.5,1.3-0.5c0.4,0,0.6,0.1,0.9,0.4c0.2,0.2,0.3,0.5,0.3,0.9c0,0.3-0.1,0.5-0.2,0.6
		c-0.2,0.2-0.5,0.3-0.7,0.3c-0.1,0-0.4-0.1-0.8-0.2c-0.4-0.1-0.6-0.2-0.7-0.2c-0.2,0-0.4,0-0.5,0.1c-0.2,0.2-0.5,0.5-0.8,1.1
		c-0.2,0.4-0.4,0.8-0.4,1.1l0.1,2l0,2.4c0,0.3,0.1,0.5,0.1,0.5c0,0.1,0.1,0.1,0.2,0.2c0.9,0.1,1.4,0.1,1.5,0.2c0.1,0,0.2,0,0.3,0
		c0.3,0,0.6,0.1,0.7,0.1c0.1,0,0.1,0.1,0.1,0.2c0,0,0,0.1-0.1,0.2l-1.3,0l-0.5,0l-0.7,0h-1.2l-0.7,0L144.4,16.3z"/>
	<path fill="#174177" d="M153.9,13.2c0.3,0.8,0.5,1.3,0.7,1.5c0.3,0.5,0.7,0.8,1.1,1.1c0.4,0.3,0.9,0.4,1.4,0.4
		c0.5,0,0.9-0.2,1.4-0.6c0.3-0.3,0.5-0.6,0.5-1c0-0.5-0.2-1-0.6-1.4c-0.4-0.4-1.1-0.8-2.2-1.2c-1.1-0.4-1.8-0.8-2.1-1.3
		c-0.4-0.5-0.5-1-0.5-1.5c0-0.5,0.1-1,0.4-1.4c0.3-0.4,0.7-0.7,1.2-0.9c0.5-0.2,1-0.3,1.4-0.3c0.6,0,1.1,0,1.5,0.1
		c0.5,0.1,0.8,0.2,1.2,0.4c0.1,0.4,0.1,1,0.2,1.8l0,0.4c-0.1,0-0.2,0-0.3,0h-0.2c-0.2-0.7-0.6-1.2-1.1-1.6c-0.5-0.4-1-0.6-1.5-0.6
		c-0.5,0-0.9,0.1-1.2,0.4c-0.3,0.3-0.4,0.7-0.4,1.2c0,0.4,0.1,0.7,0.4,1c0.2,0.3,0.8,0.6,1.7,1c0.9,0.4,1.5,0.7,1.9,1
		c0.4,0.3,0.7,0.7,0.9,1.1c0.2,0.4,0.3,0.9,0.3,1.3c0,0.6-0.2,1.1-0.5,1.6c-0.4,0.5-0.8,0.8-1.4,1c-0.6,0.2-1,0.3-1.5,0.3
		c-1,0-2-0.2-2.8-0.6c-0.1-0.1-0.1-0.2-0.1-0.4c0-0.1,0-0.2,0-0.3c-0.1-1.1-0.2-1.7-0.2-1.9c0-0.1,0-0.2,0.1-0.2
		C153.6,13.2,153.7,13.2,153.9,13.2z"/>
	<path fill="#174177" d="M161.6,16c0.9-0.2,1.5-0.3,1.6-0.4c0.1-0.1,0.1-0.2,0.1-0.4l0-0.8l0-1.4l0-3.6l0-1.3v-1l0-1.2
		c0-1.8,0-2.9-0.1-3.3c0-0.4-0.1-0.6-0.2-0.7c-0.2-0.2-0.7-0.4-1.6-0.6V1.4c0-0.1,0-0.1,0-0.2c0.1,0,0.2,0,0.3-0.1
		c0.1,0,0.2,0,0.3,0c1-0.3,1.7-0.5,2.1-0.8h0.6c0,0.2,0,0.9,0,2.1l0,1.5l0,2l0,2.4c0,0.1,0,0.3,0,0.5c0.5-0.6,0.9-1,1.1-1.2
		c0.4-0.3,0.9-0.6,1.3-0.8c0.5-0.2,1-0.3,1.5-0.3c1,0,1.8,0.4,2.4,1.3c0.4,0.5,0.5,1.2,0.5,2.1l0,1.2l0,0.7l0,1.2c0,1,0,1.6,0,1.8
		c0,0.2,0,0.5,0,0.8l0.7,0.2c0.5,0.1,0.8,0.2,1.1,0.3l0,0.4l-2.6-0.1c-0.1,0-0.5,0-1.2,0c-0.4,0-0.6,0-0.7,0h-0.3
		c0-0.1-0.1-0.1-0.1-0.2V16c0.1-0.1,0.3-0.2,0.6-0.3l0.7-0.2c0.1-0.1,0.2-0.2,0.2-0.3c0-0.2,0.1-1.2,0.1-3.1l0-0.9
		c0-0.9,0-1.7-0.2-2.3c-0.1-0.4-0.4-0.8-0.8-1c-0.4-0.3-0.9-0.4-1.4-0.4c-0.4,0-0.8,0.1-1.2,0.3c-0.3,0.1-0.6,0.4-1,0.7
		c-0.4,0.3-0.6,0.6-0.8,0.9c-0.1,0.2-0.1,0.4-0.1,0.8l0,0.8l0,0.9c0,0.1,0,0.6,0,1.5l0,0.8l0,0.8c0,0.1,0,0.2,0,0.3l1.7,0.4
		c0.1,0,0.2,0.1,0.4,0.1l0,0.1c0,0,0,0.1-0.1,0.2c-0.2,0-0.4,0-0.5,0l-0.9,0l-2.1,0l-1.6,0c-0.1,0-0.2,0-0.4,0l0-0.1
		C161.5,16.1,161.6,16.1,161.6,16z"/>
	<path fill="#174177" d="M174.5,7.7l0-0.4c0.5-0.2,0.8-0.2,0.8-0.3c0.3-0.1,0.6-0.3,0.9-0.6c0.3-0.3,0.6-0.6,0.8-0.9
		c0.1,0,0.2,0,0.2,0l0.1,0c0,0.4,0,0.7,0,0.8c0,0,0,0.2,0,0.5v0.6l0,3.5l0,3.7c0,0.3,0,0.5,0.1,0.6c0.1,0.1,0.4,0.2,0.9,0.4
		c0.3,0.1,0.6,0.2,0.7,0.2c0,0.1,0,0.1,0,0.1c0,0,0,0.1-0.1,0.2c-0.3,0-0.7,0-1.2-0.1c-0.7-0.1-1.1-0.1-1.3-0.1
		c-0.1,0-0.7,0-1.9,0.1c-0.2,0-0.5,0-0.7,0.1c0,0-0.1,0-0.2,0c0-0.1-0.1-0.1-0.1-0.1c0-0.1,0.1-0.2,0.2-0.3c0,0,0.4-0.1,1.2-0.3
		c0.3,0,0.4-0.1,0.5-0.2c0.1-0.2,0.2-0.4,0.2-0.8c0-0.6,0-2.3,0-5.1c0-0.6,0-0.9-0.1-1c0-0.1-0.1-0.2-0.3-0.3
		C175.4,8,175,7.8,174.5,7.7z M175.5,1.4c0-0.3,0.1-0.5,0.3-0.7c0.2-0.2,0.5-0.3,0.7-0.3c0.3,0,0.6,0.1,0.8,0.3
		c0.2,0.2,0.3,0.5,0.3,0.7c0,0.2-0.1,0.5-0.3,0.7c-0.2,0.2-0.5,0.3-0.8,0.3c-0.3,0-0.5-0.1-0.7-0.3C175.6,2,175.5,1.8,175.5,1.4z"/>
	<path fill="#174177" d="M179.7,22.6c0-0.1,0-0.2,0-0.2c0-0.1,0-0.1,0-0.2l1.2-0.2c0.2-0.1,0.4-0.2,0.5-0.3c0-0.1,0.1-0.3,0.1-0.4
		c0-1.2,0-3.6-0.1-7.1l0-4.4c0-0.7-0.1-1.1-0.1-1.3c0-0.1-0.1-0.2-0.2-0.2c-0.2-0.2-0.6-0.3-1.2-0.4l0.1-0.4
		c0.9-0.4,1.4-0.7,1.7-0.9c0.3-0.2,0.6-0.5,0.8-0.9l0.1,0c0.1,0,0.1,0,0.2,0.1c0,0.5,0,0.8,0,1l0,1.3c0.6-0.5,1.2-0.8,1.9-1
		c0.6-0.2,1.3-0.3,2-0.3c1.2,0,2.3,0.4,3.1,1.3c0.9,0.9,1.3,2,1.3,3.4c0,1-0.2,1.9-0.7,2.7c-0.5,0.8-1.1,1.4-2,1.8
		c-0.8,0.4-1.7,0.6-2.5,0.6c-0.7,0-1.6-0.2-2.5-0.6c-0.2-0.1-0.3-0.1-0.4-0.2c0,0.6,0,1.2,0,1.7c0,2.5,0.1,3.9,0.2,4.2
		c0.1,0.2,0.3,0.3,0.7,0.3c0.6,0,1.1,0.1,1.3,0.3c0.1,0.1,0.2,0.2,0.2,0.4l-1.2,0l-1.1,0l-1.8,0L179.7,22.6z M182.9,8.8
		c0,0.1,0,0.2,0,0.3c0,2.9,0,4.5,0.1,4.8c0.1,0.6,0.3,1.1,0.7,1.3c0.5,0.4,1.3,0.6,2.2,0.6c1,0,1.9-0.3,2.5-1c0.7-0.7,1-1.6,1-2.7
		c0-1.3-0.4-2.4-1.1-3.2c-0.7-0.8-1.7-1.2-2.9-1.2c-0.5,0-1,0.1-1.4,0.2C183.6,8.2,183.2,8.4,182.9,8.8z"/>
	<path fill="#174177" d="M76.9,43.9c0.1-0.1,0.2-0.1,0.3-0.1h0.3c0.1,0,0.2,0,0.3,0c0.6-0.1,1-0.1,1.1-0.2c0.3-0.2,0.5-0.4,0.7-0.8
		c0.4-0.8,0.9-2,1.4-3.5c0.2-0.7,0.4-1.1,0.5-1.3c0.2-0.5,0.4-1,0.6-1.5l1.1-3.2c0.2-0.5,0.6-1.6,1.3-3.4c0.2-0.5,0.4-1.1,0.6-1.8
		l0.4,0l0.4,0c0.3,0.7,0.7,1.4,0.9,2.2c0.1,0.4,0.4,1,0.7,1.9l1.8,5l1,2.7c0.5,1.5,0.9,2.5,1,2.8c0.2,0.4,0.3,0.6,0.4,0.7
		c0,0,0.2,0.1,0.5,0.1c0.3,0.1,0.4,0.1,0.5,0.1c0.4,0.1,0.6,0.2,0.8,0.3c0,0.1,0,0.2,0,0.2c0,0,0,0.1,0,0.2c-0.3,0-0.4,0-0.5,0
		c-0.4,0-1.1,0-2.2,0l-1.2,0l-1.5,0c-0.1,0-0.2,0-0.3,0c-0.1,0-0.2,0-0.3,0h-0.3c-0.1,0-0.2,0-0.2-0.1c0-0.1,0-0.2,0.1-0.3
		c0.1,0,0.2-0.1,0.3-0.1l1.3-0.1c0.3,0,0.6-0.1,0.7-0.1c0-0.1,0.1-0.3,0.1-0.3c0-0.1-0.1-0.5-0.3-1.1c-0.1-0.4-0.3-0.8-0.4-1.1
		c-0.1-0.4-0.5-1.6-1.3-3.6c-0.3-0.1-0.6-0.1-0.9-0.1l-2.6,0l-0.8,0c-0.3,0-0.6,0-0.9,0.1c-0.1,0.2-0.2,0.4-0.2,0.5l-1.1,3.3
		c-0.5,1.3-0.7,2-0.7,2.1c0,0.1,0,0.2,0.1,0.4c0.2,0,0.4,0.1,0.7,0.1l1.6,0.1c0.1,0.1,0.1,0.1,0.1,0.2c0,0,0,0.1,0,0.2
		c-0.4,0-0.6,0-0.8,0c-0.6,0-1.4,0-2.2-0.1c-0.4,0-0.7,0-0.8,0c-0.2,0-0.5,0-0.9,0c-0.3,0-0.5,0-0.6,0c-0.2,0-0.4,0-0.7,0v-0.1
		C76.9,44.1,76.9,44,76.9,43.9z M82.7,36.7c0.9,0,1.8,0.1,2.9,0.1c0.6,0,1.2,0,1.7-0.1c-0.1-0.3-0.2-0.6-0.3-0.9
		c-0.5-1.4-0.8-2.2-0.9-2.3l-1.1-2.8l-0.1-0.2c0,0.1-0.2,0.5-0.5,1.2c-0.5,1.3-0.9,2.2-1.1,2.9c-0.1,0.3-0.2,0.6-0.3,0.9
		c-0.1,0.3-0.2,0.5-0.2,0.7C82.7,36.4,82.7,36.5,82.7,36.7L82.7,36.7z"/>
	<path fill="#174177" d="M94.1,50.6c0-0.1,0-0.2,0-0.2c0-0.1,0-0.1,0-0.2l1.2-0.2c0.2-0.1,0.4-0.2,0.5-0.3c0-0.1,0.1-0.3,0.1-0.4
		c0-1.2,0-3.6-0.1-7.1l0-4.4c0-0.7-0.1-1.1-0.1-1.3c0-0.1-0.1-0.2-0.2-0.2c-0.2-0.2-0.6-0.3-1.2-0.4l0.1-0.4
		c0.9-0.4,1.4-0.7,1.7-0.9c0.3-0.2,0.6-0.5,0.8-0.9l0.1,0c0.1,0,0.1,0,0.2,0.1c0,0.5,0,0.8,0,1l0,1.3c0.6-0.5,1.2-0.8,1.9-1
		c0.6-0.2,1.3-0.3,2-0.3c1.2,0,2.3,0.4,3.1,1.3c0.9,0.9,1.3,2,1.3,3.4c0,1-0.2,1.9-0.7,2.7c-0.5,0.8-1.1,1.4-2,1.8
		c-0.8,0.4-1.7,0.6-2.5,0.6c-0.7,0-1.6-0.2-2.5-0.6c-0.2-0.1-0.3-0.1-0.4-0.2c0,0.6,0,1.2,0,1.7c0,2.5,0.1,3.9,0.2,4.2
		c0.1,0.2,0.3,0.3,0.7,0.3c0.6,0,1.1,0.1,1.3,0.3c0.1,0.1,0.2,0.2,0.2,0.4l-1.2,0l-1.1,0l-1.8,0L94.1,50.6z M97.3,36.8
		c0,0.1,0,0.2,0,0.3c0,2.9,0,4.5,0.1,4.8c0.1,0.6,0.3,1.1,0.7,1.3c0.5,0.4,1.3,0.6,2.2,0.6c1,0,1.9-0.3,2.5-1c0.7-0.7,1-1.6,1-2.7
		c0-1.3-0.4-2.4-1.1-3.2c-0.7-0.8-1.7-1.2-2.9-1.2c-0.5,0-1,0.1-1.4,0.2C98,36.2,97.6,36.4,97.3,36.8z"/>
	<path fill="#174177" d="M106.7,50.6c0-0.1,0-0.2,0-0.2c0-0.1,0-0.1,0-0.2l1.2-0.2c0.2-0.1,0.4-0.2,0.5-0.3c0-0.1,0.1-0.3,0.1-0.4
		c0-1.2,0-3.6-0.1-7.1l0-4.4c0-0.7-0.1-1.1-0.1-1.3c0-0.1-0.1-0.2-0.2-0.2c-0.2-0.2-0.6-0.3-1.2-0.4l0.1-0.4
		c0.9-0.4,1.4-0.7,1.7-0.9c0.3-0.2,0.6-0.5,0.8-0.9l0.1,0c0.1,0,0.1,0,0.2,0.1c0,0.5,0,0.8,0,1l0,1.3c0.6-0.5,1.2-0.8,1.9-1
		c0.6-0.2,1.3-0.3,2-0.3c1.2,0,2.3,0.4,3.1,1.3c0.9,0.9,1.3,2,1.3,3.4c0,1-0.2,1.9-0.7,2.7c-0.5,0.8-1.1,1.4-2,1.8
		c-0.8,0.4-1.7,0.6-2.5,0.6c-0.7,0-1.6-0.2-2.5-0.6c-0.2-0.1-0.3-0.1-0.4-0.2c0,0.6,0,1.2,0,1.7c0,2.5,0.1,3.9,0.2,4.2
		c0.1,0.2,0.3,0.3,0.7,0.3c0.6,0,1.1,0.1,1.3,0.3c0.1,0.1,0.2,0.2,0.2,0.4l-1.2,0l-1.1,0l-1.8,0L106.7,50.6z M109.9,36.8
		c0,0.1,0,0.2,0,0.3c0,2.9,0,4.5,0.1,4.8c0.1,0.6,0.3,1.1,0.7,1.3c0.5,0.4,1.3,0.6,2.2,0.6c1,0,1.9-0.3,2.5-1c0.7-0.7,1-1.6,1-2.7
		c0-1.3-0.4-2.4-1.1-3.2c-0.7-0.8-1.7-1.2-2.9-1.2c-0.5,0-1,0.1-1.4,0.2C110.6,36.2,110.2,36.4,109.9,36.8z"/>
	<path fill="#174177" d="M119.6,29.3v-0.3c0.2-0.1,0.5-0.1,0.7-0.2c0.4-0.1,1-0.3,1.8-0.6h0.6c0,0.4,0,0.6,0,0.7
		c0,6.6,0,10.5-0.1,11.8c0,0.7,0,1.1,0,1.2c0,0.9,0,1.4,0.1,1.5c0.1,0.1,0.4,0.2,0.9,0.3c0.5,0.1,0.8,0.1,0.9,0.2
		c0.1,0,0.1,0.1,0.1,0.2c0,0.1,0,0.2-0.1,0.2c0,0-0.1,0.1-0.2,0.1c-0.1,0-0.5,0-1.3,0l-1.6-0.1l-2,0.1c-0.1,0-0.2,0-0.3-0.1
		c0,0-0.1-0.1-0.1-0.2c0-0.1,0-0.1,0.1-0.2c0.1,0,0.3-0.1,0.9-0.2c0.5-0.1,0.8-0.2,0.9-0.2c0.1-0.1,0.1-0.2,0.2-0.4
		c0-0.3,0-1.1,0-2.4l0-2.8l0-2.9l0-2.9l0-1.4c0-0.3,0-0.5-0.1-0.6c-0.1-0.1-0.3-0.2-0.6-0.4C120.1,29.6,119.8,29.4,119.6,29.3z"/>
	<path fill="#174177" d="M125.4,35.7l0-0.4c0.5-0.2,0.8-0.2,0.8-0.3c0.3-0.1,0.6-0.3,0.9-0.6c0.3-0.3,0.6-0.6,0.8-0.9
		c0.1,0,0.2,0,0.2,0l0.1,0c0,0.4,0,0.7,0,0.8c0,0,0,0.2,0,0.5v0.6l0,3.5l0,3.7c0,0.3,0,0.5,0.1,0.6c0.1,0.1,0.4,0.2,0.9,0.4
		c0.3,0.1,0.6,0.2,0.7,0.2c0,0.1,0,0.1,0,0.1c0,0,0,0.1-0.1,0.2c-0.3,0-0.7,0-1.2-0.1c-0.7-0.1-1.1-0.1-1.3-0.1
		c-0.1,0-0.7,0-1.9,0.1c-0.2,0-0.5,0-0.7,0.1c0,0-0.1,0-0.2,0c0-0.1-0.1-0.1-0.1-0.1c0-0.1,0.1-0.2,0.2-0.3c0,0,0.4-0.1,1.2-0.3
		c0.3,0,0.4-0.1,0.5-0.2c0.1-0.2,0.2-0.4,0.2-0.8c0-0.6,0-2.3,0-5.1c0-0.6,0-0.9-0.1-1c0-0.1-0.1-0.2-0.3-0.3
		C126.3,36,125.9,35.8,125.4,35.7z M126.4,29.5c0-0.3,0.1-0.5,0.3-0.7c0.2-0.2,0.5-0.3,0.7-0.3c0.3,0,0.6,0.1,0.8,0.3
		c0.2,0.2,0.3,0.5,0.3,0.7c0,0.2-0.1,0.5-0.3,0.7c-0.2,0.2-0.5,0.3-0.8,0.3s-0.5-0.1-0.7-0.3C126.5,30,126.4,29.8,126.4,29.5z"/>
	<path fill="#174177" d="M139.9,42.1l0,0.8c-0.6,0.7-1.2,1.1-1.9,1.4c-0.6,0.3-1.3,0.4-2.2,0.4c-0.9,0-1.7-0.2-2.4-0.7
		c-0.7-0.5-1.3-1.1-1.7-2c-0.4-0.9-0.6-1.7-0.6-2.5c0-0.9,0.2-1.8,0.7-2.6c0.5-0.8,1.1-1.4,1.9-1.8c0.8-0.4,1.8-0.6,2.9-0.6
		c1.1,0,2,0.2,2.6,0.6c0.3,0.2,0.5,0.5,0.5,0.9c0,0.3-0.1,0.5-0.3,0.6c-0.2,0.2-0.4,0.3-0.7,0.3c-0.4,0-0.8-0.2-1.3-0.7
		c-0.3-0.3-0.6-0.5-0.8-0.6c-0.2-0.1-0.5-0.2-0.8-0.2c-0.7,0-1.3,0.3-1.8,0.9c-0.7,0.8-1,1.9-1,3.1c0,1.3,0.3,2.3,1,3.1
		c0.7,0.8,1.5,1.2,2.4,1.2c0.6,0,1.2-0.1,1.7-0.3C138.7,43,139.3,42.6,139.9,42.1z"/>
	<path fill="#174177" d="M150.4,42.6c0,0.1,0.1,0.2,0.1,0.2c0,0.1-0.1,0.3-0.3,0.6c-0.2,0.4-0.5,0.7-0.8,0.9
		c-0.2,0.1-0.5,0.2-0.8,0.2c-0.6,0-1-0.2-1.3-0.5c-0.2-0.2-0.3-0.6-0.4-1.1l-1.4,0.9c-0.5,0.3-0.8,0.4-1.1,0.5
		c-0.4,0.1-0.9,0.2-1.4,0.2c-0.4,0-0.7-0.1-1-0.4c-0.2-0.2-0.4-0.6-0.4-0.9c0-0.6,0.3-1.2,1-2c0.7-0.8,1.6-1.4,2.8-1.9
		c0.8-0.3,1.3-0.6,1.5-0.7c0-0.3,0-0.6,0-0.9c0-1-0.1-1.7-0.4-2.1c-0.3-0.4-0.7-0.5-1.2-0.5c-0.6,0-1.1,0.2-1.6,0.7
		c-0.3,0.3-0.5,0.8-0.7,1.5c0,0.2-0.1,0.4-0.3,0.7c-0.3,0.2-0.6,0.3-0.8,0.3c-0.2,0-0.3-0.1-0.5-0.2c-0.1-0.1-0.1-0.1-0.1-0.2
		c0-0.2,0.2-0.7,0.7-1.4c0.4-0.7,1-1.3,1.7-1.7c0.7-0.4,1.3-0.5,1.8-0.5c0.7,0,1.2,0.1,1.5,0.2c0.3,0.1,0.6,0.3,0.9,0.7
		c0.3,0.3,0.4,0.7,0.5,1c0,0.2,0,0.8,0,1.9l0,1.9l0,1.4c0,0.2,0,0.3,0,0.5c0,0.2,0,0.4,0,0.5c0,0.3,0.1,0.5,0.2,0.6
		c0.2,0.2,0.3,0.2,0.5,0.2c0.3,0,0.6-0.2,0.8-0.5l0.1-0.2C150.2,42.7,150.3,42.7,150.4,42.6z M146.9,42.3c0.1-1,0.1-1.7,0.1-2.2
		c0-0.2,0-0.5,0-0.9c-0.5,0.2-1.1,0.5-1.7,0.9c-0.6,0.4-1.1,0.8-1.4,1.4c-0.3,0.4-0.4,0.7-0.4,1c0,0.3,0.1,0.6,0.3,0.8
		c0.2,0.2,0.5,0.3,0.8,0.3c0.3,0,0.6-0.1,0.9-0.3C145.9,43.1,146.4,42.8,146.9,42.3z"/>
	<path fill="#174177" d="M154.1,32.4l0.4,0l0,1.1l0,1.5c0.2,0,0.2,0,0.3,0c0.2,0,0.6,0,1.2,0c0.4,0,0.7,0,1.1,0c0.2,0,0.4,0,0.7,0
		c0,0.2,0,0.3,0,0.4c0,0.1,0,0.3-0.1,0.5h-0.2l-1.9,0.1l-0.9,0l-0.2,0c-0.1,0.2-0.1,0.4-0.1,0.7l0,1.8l0,3.2c0,0.8,0.1,1.4,0.3,1.7
		c0.2,0.3,0.5,0.4,0.9,0.4c0.2,0,0.6-0.1,1.2-0.2c0.2,0,0.4-0.2,0.7-0.4h0.1c0.1,0,0.1,0,0.2,0.1c0,0,0.1,0.1,0.1,0.2l0,0.1
		c-0.3,0.4-0.7,0.7-1.2,0.8c-0.4,0.2-1,0.3-1.8,0.3c-0.5,0-1-0.1-1.3-0.4c-0.3-0.2-0.6-0.5-0.7-0.9c-0.1-0.3-0.1-1-0.1-2.2l0-2.7
		l0-1.3v-0.5c0-0.2,0-0.5,0-0.7l-0.2,0l-1,0l-0.1,0c-0.1,0-0.2,0-0.2-0.1c0,0-0.1-0.1-0.1-0.1c0-0.1,0-0.2,0.1-0.2
		c0.1-0.1,0.2-0.2,0.5-0.3c0.2-0.1,0.5-0.3,0.7-0.5c0.3-0.2,0.5-0.5,0.7-0.8c0.1-0.2,0.2-0.5,0.4-0.9
		C153.9,32.7,154,32.5,154.1,32.4z"/>
	<path fill="#174177" d="M158.5,35.7l0-0.4c0.5-0.2,0.8-0.2,0.8-0.3c0.3-0.1,0.6-0.3,0.9-0.6c0.3-0.3,0.6-0.6,0.8-0.9
		c0.1,0,0.2,0,0.2,0l0.1,0c0,0.4,0,0.7,0,0.8c0,0,0,0.2,0,0.5v0.6l0,3.5l0,3.7c0,0.3,0,0.5,0.1,0.6c0.1,0.1,0.4,0.2,0.9,0.4
		c0.3,0.1,0.6,0.2,0.7,0.2c0,0.1,0,0.1,0,0.1c0,0,0,0.1-0.1,0.2c-0.3,0-0.7,0-1.2-0.1c-0.7-0.1-1.1-0.1-1.3-0.1
		c-0.1,0-0.7,0-1.9,0.1c-0.2,0-0.5,0-0.7,0.1c0,0-0.1,0-0.2,0c0-0.1-0.1-0.1-0.1-0.1c0-0.1,0.1-0.2,0.2-0.3c0,0,0.4-0.1,1.2-0.3
		c0.3,0,0.4-0.1,0.5-0.2c0.1-0.2,0.2-0.4,0.2-0.8c0-0.6,0-2.3,0-5.1c0-0.6,0-0.9-0.1-1c0-0.1-0.1-0.2-0.3-0.3
		C159.5,36,159.1,35.8,158.5,35.7z M159.5,29.5c0-0.3,0.1-0.5,0.3-0.7c0.2-0.2,0.5-0.3,0.7-0.3c0.3,0,0.6,0.1,0.8,0.3
		c0.2,0.2,0.3,0.5,0.3,0.7c0,0.2-0.1,0.5-0.3,0.7c-0.2,0.2-0.5,0.3-0.8,0.3c-0.3,0-0.5-0.1-0.7-0.3C159.6,30,159.5,29.8,159.5,29.5z
		"/>
	<path fill="#174177" d="M164.4,39.4c0-0.5,0.1-1.1,0.3-1.8c0.2-0.6,0.6-1.2,1-1.7c0.5-0.5,1-0.9,1.5-1.1c0.7-0.3,1.6-0.5,2.7-0.5
		c1.5,0,2.8,0.5,3.8,1.5c1,1,1.5,2.3,1.5,3.7c0,1.3-0.5,2.4-1.6,3.4c-1.1,1-2.4,1.5-4,1.5c-1,0-1.9-0.3-2.8-0.8
		c-0.7-0.4-1.2-1-1.7-1.7C164.6,41.3,164.4,40.4,164.4,39.4z M169.7,44.1c0.6,0,1.2-0.2,1.8-0.5c0.6-0.3,1-0.9,1.4-1.6
		c0.3-0.7,0.5-1.6,0.5-2.5c0-0.6-0.1-1.4-0.4-2.2c-0.3-0.8-0.7-1.4-1.2-1.9c-0.5-0.4-1.2-0.6-1.9-0.6c-0.5,0-1.1,0.1-1.6,0.4
		c-0.6,0.2-1,0.7-1.4,1.4c-0.4,0.7-0.6,1.7-0.6,3c0,1.5,0.3,2.6,1,3.3C167.9,43.8,168.7,44.1,169.7,44.1z"/>
	<path fill="#174177" d="M176.5,43.9c0.2-0.1,0.4-0.1,0.7-0.1c0.5-0.1,0.8-0.2,0.9-0.3c0.1-0.1,0.2-0.3,0.2-0.7l0-0.4
		c0-0.2,0-0.4,0-0.6l0-3.7c0-0.5-0.1-0.8-0.2-1c-0.2-0.2-0.6-0.4-1.2-0.5v-0.4c0.6-0.2,1-0.4,1.4-0.6c0.5-0.4,0.8-0.9,1.2-1.5l0.4,0
		c0,0.4,0,0.6,0,0.8v0.8l0,0.2c0.1-0.1,0.2-0.1,0.3-0.2c0.5-0.4,1-0.7,1.5-0.9c0.5-0.2,1-0.4,1.4-0.5c0.2-0.1,0.5-0.1,0.8-0.1
		c0.7,0,1.2,0.2,1.7,0.5c0.5,0.4,0.8,0.8,0.9,1.2c0.1,0.5,0.2,1.4,0.2,2.9v1.8c0,0,0,0.2,0,0.5c0,0.3,0,0.6,0,0.9
		c0,0.6,0,0.9,0.1,1.1c0,0.1,0.1,0.2,0.3,0.3c0.8,0.1,1.2,0.2,1.4,0.4V44c0,0.1,0,0.2-0.1,0.3h-0.2l-1.6,0l-1.6,0
		c-0.6,0-1.1,0-1.6,0l-0.1-0.3c0,0,0-0.1,0.1-0.2c0.2-0.1,0.5-0.2,0.9-0.2c0.2,0,0.4,0,0.5-0.1c0.1,0,0.2-0.1,0.3-0.2
		c0.1-0.2,0.1-0.4,0.1-0.5c0-0.1,0-0.2,0-0.3c0-0.4,0-1.3,0-2.8v-0.6l0-1c0-1-0.2-1.8-0.6-2.1c-0.4-0.4-1-0.6-1.7-0.6
		c-0.5,0-1.1,0.1-1.6,0.4c-0.5,0.2-1,0.6-1.5,1.1c0,0.4,0,0.7,0,1l0,2.7c0,1.4,0,2.2,0.1,2.6c0,0.1,0,0.2,0.1,0.3
		c0.1,0.1,0.2,0.1,0.4,0.2c0.2,0,0.4,0.1,0.7,0.2c0.3,0.1,0.4,0.1,0.5,0.1c0.2,0,0.3,0.1,0.3,0.2l0,0.2h-1.3l-2.6,0
		c-0.6,0-1,0-1.1,0h-0.3l0-0.2C176.5,44.1,176.5,44,176.5,43.9z"/>
</g>
</svg>
