<?xml version="1.0" encoding="utf-8"?>
<!-- Generator: Adobe Illustrator 19.1.0, SVG Export Plug-In . SVG Version: 6.00 Build 0)  -->
<!DOCTYPE svg PUBLIC "-//W3C//DTD SVG 1.1//EN" "http://www.w3.org/Graphics/SVG/1.1/DTD/svg11.dtd">
<svg version="1.1" id="Layer_1" xmlns="http://www.w3.org/2000/svg" xmlns:xlink="http://www.w3.org/1999/xlink" x="0px" y="0px"
	 viewBox="0 0 248 55.9" enable-background="new 0 0 248 55.9" xml:space="preserve">
<g>
	<path fill="#FFFFFF" d="M51.9,28.6c0,13.1-10.6,23.8-23.6,23.8c-13,0-23.6-10.6-23.6-23.8c0-13.1,10.6-23.8,23.6-23.8
		C41.3,4.8,51.9,15.5,51.9,28.6z"/>
	<g>
		<path fill="#174177" d="M61.1,15.2c-0.3,0-0.4,0-0.2-0.4l0.6-1.6c0.2-0.6,0.4-1,0.4-1.1h0c0.1,0.1,0.1,0.4,0.4,1.1l0.6,1.6
			c0.1,0.3,0.1,0.4-0.3,0.4H61.1z M62.6,15.8c0.4,0,0.4,0,0.6,0.4l0.6,1.8c0.2,0.6,0.1,0.7-0.4,0.7l-0.3,0c-0.1,0.1-0.1,0.3,0,0.4
			c0.5,0,1.1,0,1.6,0c0.7,0,1.2,0,1.8,0c0.1-0.1,0.1-0.3,0-0.4l-0.2,0c-0.7-0.1-0.8-0.2-1.1-1.1l-1.9-5.7c-0.2-0.6-0.4-1.3-0.6-1.9
			c-0.1-0.1-0.1-0.1-0.2-0.1c0,0-0.5,0.6-0.9,0.7c0,0.2-0.1,0.6-0.3,1l-1.8,4.8c-0.3,0.7-0.5,1.3-0.7,1.7c-0.2,0.5-0.4,0.6-0.7,0.6
			l-0.4,0.1c-0.1,0.1-0.1,0.3,0,0.4c0.5,0,0.9,0,1.3,0c0.6,0,1,0,1.4,0c0.1-0.1,0.1-0.3,0-0.4l-0.4-0.1c-0.5-0.1-0.6-0.1-0.3-0.9
			l0.6-1.6c0.1-0.4,0.1-0.4,0.5-0.4H62.6z"/>
		<path fill="#174177" d="M79,18.8c0.1,0.1,0.1,0.3,0,0.4c-0.6,0-1.1,0-1.6,0c-0.6,0-1.2,0-1.8,0c-0.1-0.1-0.2-0.3,0-0.4l0.4-0.1
			c0.5-0.1,0.6-0.2,0.6-1.1v-4.3V12h0c-0.4,0.7-0.6,1.2-0.8,1.7l-1.2,2.4c-0.5,1-1.1,2.5-1.4,3.1c-0.1,0.1-0.3,0.1-0.4,0
			c-0.2-0.7-0.8-2.1-1.1-2.7l-1.2-2.6c-0.3-0.6-0.6-1.4-0.8-1.8h0c0,0.7-0.1,1.7-0.1,2.3c0,0.8-0.1,2-0.1,3.2c0,0.9,0,1.1,0.6,1.2
			l0.4,0.1c0.1,0.1,0.1,0.3,0,0.4c-0.5,0-0.9,0-1.4,0c-0.4,0-0.9,0-1.4,0c-0.1-0.1-0.1-0.3,0-0.4l0.2,0c0.6-0.1,0.8-0.3,0.8-1.1
			c0.1-0.9,0.1-1.7,0.2-3.2c0.1-0.9,0.1-2.1,0.1-2.9c0-0.6-0.2-0.9-0.7-1l-0.5-0.1c-0.1-0.1-0.1-0.4,0.1-0.4c0.4,0,0.8,0,1.3,0
			c0.5,0,0.9,0,1.4,0c0.1,0.8,0.4,1.5,0.7,2.3l1.5,3.1c0.1,0.2,0.5,0.9,0.6,1.2c0.2-0.4,0.4-0.8,0.7-1.4l1.3-2.6
			c0.4-0.9,0.9-1.7,1.1-2.6c0.4,0,0.8,0,1.1,0c0.6,0,1,0,1.4,0c0.1,0.1,0.2,0.3,0,0.4l-0.4,0.1c-0.6,0.1-0.7,0.3-0.7,1
			c0,2,0,4,0.1,6c0,0.9,0.2,1,0.6,1.1L79,18.8z"/>
		<path fill="#174177" d="M81.9,12.1c0-1.4-0.1-1.5-0.8-1.6l-0.2,0c-0.1-0.1-0.1-0.3,0-0.4c0.5,0,1.1,0,1.7,0h2.6c0.9,0,1.6,0,1.8,0
			c0.1,0.2,0.1,1.3,0.2,1.9c-0.1,0.1-0.3,0.1-0.4,0.1c-0.2-0.8-0.4-1.1-0.8-1.2c-0.3-0.1-0.7-0.1-1.1-0.1H84c-0.6,0-0.6,0-0.6,0.8
			v2.3c0,0.4,0,0.4,0.3,0.4h0.6c1.2,0,1.4,0,1.5-0.6l0.1-0.5c0.1-0.1,0.4-0.1,0.4,0c0,0.4,0,0.9,0,1.4c0,0.5,0,1,0,1.4
			c-0.1,0.1-0.3,0.1-0.4,0l-0.1-0.5c-0.1-0.6-0.3-0.6-1.5-0.6h-0.6c-0.3,0-0.3,0-0.3,0.4v1.7c0,0.7,0,1.2,0.2,1.4
			c0.2,0.2,0.4,0.3,1.5,0.3c1.7,0,2-0.4,2.5-1.5c0.1-0.1,0.4-0.1,0.4,0.1c-0.1,0.6-0.4,1.6-0.6,2c-0.6,0-1.8,0-3.3,0h-1.5
			c-0.6,0-1.4,0-2,0c-0.1-0.1-0.1-0.3,0-0.4l0.5-0.1c0.6-0.1,0.8-0.1,0.8-1.5V12.1z"/>
		<path fill="#174177" d="M92,11.3c0-0.6,0-0.7,0.7-0.7c1.2,0,1.9,0.9,1.9,2c0,1.3-0.6,1.9-1.9,1.9c-0.6,0-0.6,0-0.6-0.5V11.3z
			 M90.4,17.2c0,1.4-0.1,1.5-0.8,1.6l-0.3,0c-0.1,0.1-0.1,0.3,0,0.4c0.6,0,1.2,0,1.8,0c0.6,0,1.2,0,1.8,0c0.1-0.1,0.1-0.3,0-0.4
			l-0.3,0c-0.6-0.1-0.8-0.1-0.8-1.6v-1.7c0-0.3,0-0.3,0.4-0.3c0.4,0,0.6,0.1,0.8,0.5c0.3,0.5,0.7,1.3,1.1,1.8
			c0.8,1.3,1.5,1.8,2.8,1.8c0.5,0,0.7,0,0.9-0.1c0-0.1,0-0.2,0-0.3c-0.2,0-0.6-0.1-0.9-0.4c-0.6-0.5-1.3-1.7-2.4-3.5
			c-0.1-0.1-0.1-0.2,0-0.2c0.7-0.3,1.6-0.9,1.6-2.1c0-1-0.5-1.6-1.2-2c-0.6-0.3-1.5-0.5-2.6-0.5c-1.1,0-2.3,0-3.1,0.1
			c-0.1,0.1-0.1,0.3,0,0.4l0.4,0c0.6,0.1,0.6,0.2,0.6,1.5V17.2z"/>
		<path fill="#174177" d="M101.5,17.2c0,1.4,0.1,1.5,0.8,1.6l0.3,0c0.1,0.1,0.1,0.3,0,0.4c-0.6,0-1.2,0-1.8,0s-1.2,0-1.8,0
			c-0.1-0.1-0.1-0.3,0-0.4l0.3,0c0.6-0.1,0.8-0.1,0.8-1.6v-5.1c0-1.4-0.1-1.5-0.8-1.6l-0.3,0c-0.1-0.1-0.1-0.3,0-0.4
			c0.6,0,1.2,0,1.8,0c0.6,0,1.2,0,1.8,0c0.1,0.1,0.1,0.3,0,0.4l-0.3,0c-0.6,0.1-0.8,0.1-0.8,1.6V17.2z"/>
		<path fill="#174177" d="M112.7,12.4c-0.1,0.1-0.3,0.1-0.4,0c-0.2-0.9-0.8-2-2.6-2c-1.7,0-3.4,1.2-3.4,4c0,2.9,1.8,4.3,3.5,4.3
			c1.7,0,2.4-1.1,2.8-2c0.1-0.1,0.3-0.1,0.4,0.1c-0.1,0.9-0.5,1.8-0.6,2.1c-0.2,0-0.3,0.1-0.5,0.1c-0.3,0.1-1.2,0.3-2.1,0.3
			c-1.3,0-2.5-0.3-3.5-0.9c-1.1-0.7-1.9-2-1.9-3.7c0-1.6,0.7-2.8,1.7-3.6c1-0.8,2.4-1.2,3.7-1.2c0.8,0,1.7,0.1,2.3,0.3
			c0.2,0,0.3,0.1,0.4,0.1C112.5,10.6,112.5,11.4,112.7,12.4z"/>
		<path fill="#174177" d="M116.8,15.2c-0.3,0-0.4,0-0.2-0.4l0.6-1.6c0.2-0.6,0.4-1,0.4-1.1h0c0.1,0.1,0.1,0.4,0.4,1.1l0.6,1.6
			c0.1,0.3,0.1,0.4-0.3,0.4H116.8z M118.4,15.8c0.4,0,0.4,0,0.6,0.4l0.6,1.8c0.2,0.6,0.1,0.7-0.4,0.7l-0.3,0c-0.1,0.1-0.1,0.3,0,0.4
			c0.5,0,1.1,0,1.6,0c0.7,0,1.2,0,1.8,0c0.1-0.1,0.1-0.3,0-0.4l-0.2,0c-0.7-0.1-0.8-0.2-1.1-1.1l-1.9-5.7c-0.2-0.6-0.4-1.3-0.6-1.9
			c-0.1-0.1-0.1-0.1-0.2-0.1c0,0-0.5,0.6-0.9,0.7c0,0.2-0.1,0.6-0.3,1l-1.9,4.8c-0.3,0.7-0.5,1.3-0.7,1.7c-0.2,0.5-0.3,0.6-0.7,0.6
			l-0.4,0.1c-0.1,0.1-0.1,0.3,0,0.4c0.5,0,0.9,0,1.3,0c0.6,0,1,0,1.4,0c0.1-0.1,0.1-0.3,0-0.4l-0.4-0.1c-0.5-0.1-0.6-0.1-0.3-0.9
			l0.6-1.6c0.1-0.4,0.1-0.4,0.5-0.4H118.4z"/>
		<path fill="#174177" d="M132,16.8c0,0.4,0,2.1,0,2.4c-0.1,0.1-0.3,0.2-0.5,0.2c-0.2-0.3-0.6-0.7-1.6-1.9l-3.2-3.6
			c-0.9-1-1.3-1.5-1.5-1.7c0,0,0,0.1,0,0.9v2.7c0,1,0,2.3,0.2,2.7c0.1,0.2,0.4,0.3,0.7,0.3l0.3,0c0.1,0.1,0.1,0.4,0,0.4
			c-0.5,0-1,0-1.5,0c-0.6,0-0.9,0-1.4,0c-0.1-0.1-0.1-0.3,0-0.4l0.3-0.1c0.3,0,0.5-0.1,0.6-0.3c0.2-0.4,0.2-1.6,0.2-2.7v-3.2
			c0-1.1,0-1.3-0.4-1.7c-0.1-0.1-0.5-0.2-0.7-0.3l-0.2,0c-0.1-0.1-0.1-0.4,0.1-0.4c0.5,0.1,1.3,0,1.6,0c0.3,0,0.6,0,0.9,0
			c0.2,0.6,1.7,2.3,2.2,2.8l1.3,1.5c0.6,0.6,1.8,2.1,2,2.1c0,0,0-0.1,0-0.3v-2.7c0-1,0-2.3-0.3-2.7c-0.1-0.2-0.3-0.3-0.7-0.3l-0.3,0
			c-0.1-0.1-0.1-0.4,0-0.4c0.5,0,1,0,1.6,0c0.6,0,0.9,0,1.4,0c0.1,0.1,0.1,0.3,0,0.4l-0.3,0.1c-0.3,0-0.5,0.1-0.6,0.3
			c-0.2,0.4-0.2,1.6-0.2,2.7V16.8z"/>
		<path fill="#174177" d="M66.3,26.4c-0.1,0.1-0.3,0.1-0.4,0c-0.2-0.9-0.8-2-2.6-2c-1.7,0-3.4,1.2-3.4,4c0,2.9,1.8,4.3,3.5,4.3
			c1.7,0,2.4-1.1,2.8-2c0.1-0.1,0.3-0.1,0.4,0.1c-0.1,0.9-0.5,1.8-0.6,2.1c-0.2,0-0.3,0.1-0.5,0.1c-0.3,0.1-1.2,0.3-2.1,0.3
			c-1.3,0-2.5-0.3-3.5-0.9c-1.1-0.7-1.9-2-1.9-3.7c0-1.6,0.7-2.8,1.7-3.6c1-0.8,2.4-1.2,3.7-1.2c0.8,0,1.7,0.1,2.3,0.3
			c0.2,0,0.3,0.1,0.4,0.1C66.2,24.6,66.2,25.4,66.3,26.4z"/>
		<path fill="#174177" d="M72.6,24.4c2.1,0,3.1,2.4,3.1,4.4c0,2.7-1.2,3.9-2.8,3.9c-2.3,0-3.1-2.6-3.1-4.4
			C69.7,25.4,71.2,24.4,72.6,24.4z M72.7,23.9c-2.8,0-4.8,2.1-4.8,4.8c0,2.4,1.8,4.6,4.8,4.6c2.7,0,4.8-2,4.8-4.7
			C77.5,26.1,75.9,23.9,72.7,23.9z"/>
		<path fill="#174177" d="M81.8,30.8c0,0.7,0,1.2,0.2,1.4c0.2,0.2,0.4,0.3,1.5,0.3c1.5,0,1.7-0.1,2.3-1.5c0.1-0.1,0.4,0,0.4,0.1
			c-0.1,0.6-0.4,1.6-0.6,2c-0.6,0-1.7,0-3.2,0H81c-0.7,0-1.4,0-1.9,0c-0.1-0.1-0.1-0.3,0-0.4l0.4-0.1c0.6-0.1,0.8-0.1,0.8-1.5v-5.1
			c0-1.4-0.1-1.5-0.8-1.5l-0.4-0.1c-0.1-0.1-0.1-0.3,0-0.4c0.7,0,1.3,0,1.9,0c0.6,0,1.2,0,1.8,0c0.1,0.1,0.1,0.3,0,0.4l-0.3,0.1
			c-0.6,0.1-0.8,0.1-0.8,1.5V30.8z"/>
		<path fill="#174177" d="M89.9,30.8c0,0.7,0,1.2,0.2,1.4c0.2,0.2,0.4,0.3,1.5,0.3c1.5,0,1.7-0.1,2.3-1.5c0.1-0.1,0.4,0,0.4,0.1
			c-0.1,0.6-0.4,1.6-0.6,2c-0.6,0-1.7,0-3.2,0h-1.4c-0.7,0-1.4,0-1.9,0c-0.1-0.1-0.1-0.3,0-0.4l0.4-0.1c0.6-0.1,0.8-0.1,0.8-1.5
			v-5.1c0-1.4-0.1-1.5-0.8-1.5l-0.4-0.1c-0.1-0.1-0.1-0.3,0-0.4c0.7,0,1.3,0,1.9,0c0.6,0,1.2,0,1.8,0c0.1,0.1,0.1,0.3,0,0.4
			l-0.3,0.1c-0.6,0.1-0.8,0.1-0.8,1.5V30.8z"/>
		<path fill="#174177" d="M96.4,26.1c0-1.4-0.1-1.5-0.8-1.6l-0.2,0c-0.1-0.1-0.1-0.3,0-0.4c0.5,0,1.1,0,1.7,0h2.6c0.9,0,1.6,0,1.8,0
			c0.1,0.2,0.1,1.3,0.2,1.9c-0.1,0.1-0.3,0.1-0.4,0.1c-0.2-0.8-0.4-1.1-0.8-1.2c-0.3-0.1-0.7-0.1-1.1-0.1h-0.9c-0.6,0-0.6,0-0.6,0.8
			v2.3c0,0.4,0,0.4,0.3,0.4H99c1.2,0,1.4,0,1.5-0.6l0.1-0.5c0.1-0.1,0.4-0.1,0.4,0c0,0.4,0,0.9,0,1.4c0,0.5,0,1,0,1.4
			c-0.1,0.1-0.3,0.1-0.4,0l-0.1-0.5c-0.1-0.6-0.3-0.6-1.5-0.6h-0.6c-0.3,0-0.3,0-0.3,0.4v1.7c0,0.7,0,1.2,0.2,1.4
			c0.2,0.2,0.4,0.3,1.5,0.3c1.7,0,2-0.4,2.5-1.5c0.1-0.1,0.4-0.1,0.4,0.1c-0.1,0.6-0.4,1.6-0.6,2c-0.6,0-1.8,0-3.3,0h-1.5
			c-0.6,0-1.4,0-2,0c-0.1-0.1-0.1-0.3,0-0.4l0.5-0.1c0.6-0.1,0.8-0.1,0.8-1.5V26.1z"/>
		<path fill="#174177" d="M112.1,31.7c0,0.5,0.1,0.8,0.3,1c0,0.1,0,0.2,0,0.2c-0.1,0-0.4,0-0.6,0.1c-0.8,0.2-1.8,0.4-2.6,0.4
			c-1.6,0-3.1-0.4-4.2-1.5c-0.8-0.8-1.2-2-1.2-3.1c0-1.1,0.4-2.3,1.2-3.2c1-1,2.4-1.6,4.3-1.6c0.6,0,1.3,0.1,1.8,0.2
			c0.3,0.1,0.7,0.1,0.9,0.1c0,0.4,0.1,1.1,0.2,2.2c-0.1,0.1-0.4,0.2-0.4,0c-0.3-1.3-1.3-2-2.6-2c-2.4,0-3.5,1.7-3.5,4
			c0,1.1,0.2,2.3,1,3.1c0.7,0.9,1.8,1.2,2.6,1.2c0.6,0,1-0.1,1.2-0.3c0.1-0.1,0.1-0.4,0.1-0.9v-0.5c0-1,0-1-0.9-1.2l-0.5-0.1
			c-0.1-0.1-0.1-0.3,0-0.4c0.5,0,1.2,0,2.1,0c0.6,0,1.1,0,1.6,0c0.1,0.1,0.2,0.3,0,0.4l-0.2,0c-0.5,0.1-0.6,0.2-0.6,1V31.7z"/>
		<path fill="#174177" d="M115.4,26.1c0-1.4-0.1-1.5-0.8-1.6l-0.2,0c-0.1-0.1-0.1-0.3,0-0.4c0.5,0,1.1,0,1.7,0h2.6
			c0.9,0,1.6,0,1.8,0c0.1,0.2,0.1,1.3,0.2,1.9c-0.1,0.1-0.3,0.1-0.4,0.1c-0.2-0.8-0.4-1.1-0.8-1.2c-0.3-0.1-0.7-0.1-1.1-0.1h-0.9
			c-0.6,0-0.6,0-0.6,0.8v2.3c0,0.4,0,0.4,0.3,0.4h0.6c1.2,0,1.4,0,1.5-0.6l0.1-0.5c0.1-0.1,0.4-0.1,0.4,0c0,0.4,0,0.9,0,1.4
			c0,0.5,0,1,0,1.4c-0.1,0.1-0.3,0.1-0.4,0l-0.1-0.5c-0.1-0.6-0.3-0.6-1.5-0.6h-0.6c-0.3,0-0.3,0-0.3,0.4v1.7c0,0.7,0,1.2,0.2,1.4
			c0.2,0.2,0.4,0.3,1.5,0.3c1.7,0,2-0.4,2.5-1.5c0.1-0.1,0.4-0.1,0.4,0.1c-0.1,0.6-0.4,1.6-0.6,2c-0.6,0-1.8,0-3.3,0h-1.5
			c-0.6,0-1.4,0-2,0c-0.1-0.1-0.1-0.3,0-0.4l0.5-0.1c0.6-0.1,0.8-0.1,0.8-1.5V26.1z"/>
		<path fill="#174177" d="M127.6,32.8c-0.3,0-0.5-0.3-0.5-0.7c0-1,0.7-2.6,1.3-3.5c0.4-0.4,0.6-0.6,0.9-0.6c0.4,0,0.4,0.4,0.4,0.7
			c0,0.9-0.6,2.5-1.1,3.2C128.2,32.5,127.9,32.8,127.6,32.8z M125.9,31.5c0,1,0.5,1.8,1.7,1.8c0.6,0,1.3-0.2,2.1-0.9
			c0.9-0.9,1.3-2.1,1.3-3c0-1-0.5-1.8-1.7-1.8c-0.6,0-1.3,0.2-2.1,0.9C126.4,29.2,125.9,30.5,125.9,31.5z"/>
		<path fill="#174177" d="M135.2,28.3c-0.5,1.4-1.1,3.8-1.5,5.2c-0.3,1.1-0.7,1.9-1,2.3c-0.3,0.4-1,0.9-1.8,0.9
			c-0.6,0-1.1-0.4-1.1-0.9c0-0.4,0.2-0.6,0.5-0.6c0.2,0,0.3,0.1,0.4,0.3c0.3,0.4,0.6,0.7,0.8,0.7c0.2,0,0.4-0.2,0.7-1.2
			c0.5-1.6,1.1-4.3,1.8-6.7h-1.2c-0.1-0.2,0-0.5,0.2-0.6h1.2c0.3-1,0.6-2,1.2-2.8c0.7-1,1.5-1.6,2.6-1.6c0.8,0,1.3,0.5,1.3,1
			c0,0.6-0.4,0.9-0.7,0.9c-0.2,0-0.3-0.1-0.3-0.3c-0.1-0.9-0.5-1.2-0.8-1.2c-0.3,0-0.6,0.3-0.9,0.9c-0.4,0.9-0.7,1.9-1,3h1.6
			c0.1,0.2,0.1,0.5-0.2,0.6H135.2z"/>
		<path fill="#174177" d="M66.2,40.3c-0.1,0.1-0.3,0.1-0.4,0c-0.2-0.9-0.8-2-2.6-2c-1.7,0-3.4,1.2-3.4,4c0,2.9,1.8,4.3,3.5,4.3
			c1.7,0,2.4-1.1,2.8-2c0.1-0.1,0.3-0.1,0.4,0.1c-0.1,0.9-0.5,1.8-0.6,2.1c-0.2,0-0.3,0.1-0.5,0.1c-0.3,0.1-1.2,0.3-2.1,0.3
			c-1.3,0-2.5-0.3-3.5-0.9c-1.1-0.7-1.9-2-1.9-3.7c0-1.6,0.7-2.8,1.7-3.6c1-0.8,2.4-1.2,3.7-1.2c0.8,0,1.7,0.1,2.3,0.3
			c0.2,0,0.3,0.1,0.4,0.1C66.1,38.5,66.1,39.3,66.2,40.3z"/>
		<path fill="#174177" d="M70.4,43c-0.3,0-0.4,0-0.2-0.4l0.6-1.6c0.2-0.6,0.4-1,0.4-1.1h0c0.1,0.1,0.1,0.4,0.4,1.1l0.6,1.6
			c0.1,0.3,0.1,0.4-0.3,0.4H70.4z M72,43.7c0.4,0,0.4,0,0.6,0.4l0.6,1.8c0.2,0.6,0.1,0.7-0.4,0.7l-0.3,0c-0.1,0.1-0.1,0.3,0,0.4
			c0.5,0,1.1,0,1.6,0c0.7,0,1.2,0,1.8,0c0.1-0.1,0.1-0.3,0-0.4l-0.2,0c-0.7-0.1-0.8-0.2-1.1-1.1l-1.9-5.7c-0.2-0.6-0.4-1.3-0.6-1.9
			c-0.1-0.1-0.1-0.1-0.2-0.1c0,0-0.5,0.6-0.9,0.7c0,0.2-0.1,0.6-0.3,1l-1.8,4.8c-0.3,0.7-0.5,1.3-0.7,1.7c-0.2,0.4-0.4,0.6-0.7,0.6
			L67,46.6c-0.1,0.1-0.1,0.3,0,0.4c0.5,0,0.9,0,1.3,0c0.6,0,1,0,1.4,0c0.1-0.1,0.1-0.3,0-0.4l-0.4-0.1c-0.5-0.1-0.6-0.1-0.3-0.9
			l0.6-1.6c0.1-0.4,0.1-0.4,0.5-0.4H72z"/>
		<path fill="#174177" d="M79.7,39.2c0-0.6,0-0.7,0.7-0.7c1.2,0,1.9,0.9,1.9,2c0,1.3-0.6,1.9-1.9,1.9c-0.6,0-0.6,0-0.6-0.5V39.2z
			 M78.1,45c0,1.4-0.1,1.5-0.8,1.6l-0.3,0c-0.1,0.1-0.1,0.3,0,0.4c0.6,0,1.2,0,1.8,0c0.6,0,1.2,0,1.8,0c0.1-0.1,0.1-0.3,0-0.4
			l-0.3,0c-0.6-0.1-0.8-0.1-0.8-1.6v-1.7c0-0.3,0-0.3,0.4-0.3c0.4,0,0.6,0.1,0.8,0.5c0.3,0.5,0.7,1.3,1.1,1.8
			c0.8,1.3,1.5,1.8,2.8,1.8c0.5,0,0.7,0,0.9-0.1c0-0.1,0-0.2,0-0.3c-0.2,0-0.6-0.1-0.9-0.4c-0.6-0.5-1.3-1.7-2.4-3.5
			c-0.1-0.1-0.1-0.2,0-0.2c0.7-0.3,1.6-0.9,1.6-2.1c0-1-0.5-1.6-1.2-2c-0.6-0.3-1.5-0.5-2.6-0.5c-1.1,0-2.3,0-3.1,0.1
			c-0.1,0.1-0.1,0.3,0,0.4l0.4,0c0.6,0.1,0.6,0.2,0.6,1.5V45z"/>
		<path fill="#174177" d="M89.2,39.7c0-0.6,0-0.9,0.1-1c0.1-0.1,0.5-0.2,1.1-0.2c2.3,0,3.8,1.3,3.8,4c0,2.3-1.1,4-3.5,4
			c-1.4,0-1.5-0.7-1.5-2V39.7z M87.6,45c0,1.4-0.1,1.5-0.8,1.6l-0.3,0c-0.1,0.1-0.1,0.3,0,0.4c0.6,0,1.2,0,1.7,0
			c0.5,0,1.1,0.1,2,0.1c1.2,0,2.4-0.2,3.3-0.7c1.7-0.9,2.4-2.4,2.4-3.9c0-2-1.1-3.5-2.8-4.1c-1-0.4-1.9-0.5-3.2-0.5
			c-1.3,0-2.4,0-3.4,0.1c-0.1,0.1-0.1,0.3,0,0.4l0.3,0c0.6,0.1,0.6,0.2,0.6,1.5V45z"/>
		<path fill="#174177" d="M100.5,45c0,1.4,0.1,1.5,0.8,1.6l0.3,0c0.1,0.1,0.1,0.3,0,0.4c-0.6,0-1.2,0-1.8,0c-0.6,0-1.2,0-1.8,0
			c-0.1-0.1-0.1-0.3,0-0.4l0.3,0c0.6-0.1,0.8-0.1,0.8-1.6V40c0-1.4-0.1-1.5-0.8-1.6l-0.3,0c-0.1-0.1-0.1-0.3,0-0.4
			c0.6,0,1.2,0,1.8,0c0.6,0,1.2,0,1.8,0c0.1,0.1,0.1,0.3,0,0.4l-0.3,0c-0.6,0.1-0.8,0.1-0.8,1.6V45z"/>
		<path fill="#174177" d="M108,38.3c2.1,0,3.1,2.4,3.1,4.4c0,2.7-1.2,3.9-2.8,3.9c-2.3,0-3.1-2.6-3.1-4.4
			C105.1,39.3,106.6,38.3,108,38.3z M108.1,37.8c-2.8,0-4.8,2-4.8,4.8c0,2.4,1.8,4.6,4.8,4.6c2.7,0,4.8-2,4.8-4.7
			C112.9,40.1,111.3,37.8,108.1,37.8z"/>
		<path fill="#174177" d="M117.3,44.7c0,0.7,0,1.2,0.2,1.4c0.2,0.2,0.4,0.3,1.5,0.3c1.5,0,1.7-0.1,2.3-1.5c0.1-0.1,0.4,0,0.4,0.1
			c-0.1,0.6-0.4,1.6-0.6,2c-0.6,0-1.7,0-3.2,0h-1.4c-0.7,0-1.4,0-1.9,0c-0.1-0.1-0.1-0.3,0-0.4l0.4-0.1c0.6-0.1,0.8-0.1,0.8-1.5V40
			c0-1.4-0.1-1.5-0.8-1.5l-0.4-0.1c-0.1-0.1-0.1-0.3,0-0.4c0.7,0,1.3,0,1.9,0c0.6,0,1.2,0,1.8,0c0.1,0.1,0.1,0.3,0,0.4l-0.3,0.1
			c-0.6,0.1-0.8,0.1-0.8,1.5V44.7z"/>
		<path fill="#174177" d="M127.3,38.3c2.1,0,3.1,2.4,3.1,4.4c0,2.7-1.2,3.9-2.8,3.9c-2.3,0-3.1-2.6-3.1-4.4
			C124.5,39.3,126,38.3,127.3,38.3z M127.5,37.8c-2.8,0-4.8,2-4.8,4.8c0,2.4,1.8,4.6,4.8,4.6c2.7,0,4.8-2,4.8-4.7
			C132.2,40.1,130.6,37.8,127.5,37.8z"/>
		<path fill="#174177" d="M142.3,45.6c0,0.5,0.1,0.8,0.3,1c0,0.1,0,0.2,0,0.2c-0.1,0-0.4,0-0.6,0.1c-0.8,0.2-1.9,0.4-2.6,0.4
			c-1.6,0-3.1-0.4-4.2-1.5c-0.8-0.8-1.2-2-1.2-3.1c0-1.1,0.4-2.3,1.2-3.2c1-1,2.4-1.6,4.3-1.6c0.6,0,1.3,0.1,1.8,0.2
			c0.3,0.1,0.7,0.1,0.9,0.1c0,0.4,0.1,1.1,0.2,2.2c-0.1,0.1-0.4,0.1-0.4,0c-0.3-1.3-1.3-2-2.6-2c-2.4,0-3.5,1.7-3.5,4
			c0,1.1,0.2,2.3,1,3.1c0.7,0.9,1.8,1.2,2.6,1.2c0.6,0,1-0.1,1.2-0.3c0.1-0.1,0.1-0.4,0.1-0.9V45c0-1,0-1-0.9-1.2l-0.5-0.1
			c-0.1-0.1-0.1-0.3,0-0.4c0.5,0,1.2,0,2.1,0c0.6,0,1.1,0,1.6,0c0.1,0.1,0.1,0.3,0,0.4l-0.2,0c-0.5,0.1-0.6,0.2-0.6,1V45.6z"/>
		<path fill="#174177" d="M147.2,44.2c0-0.8-0.1-1-0.4-1.7l-1.6-3.2c-0.3-0.6-0.4-0.7-1-0.9l-0.4-0.1c-0.1-0.1-0.1-0.4,0.1-0.4
			c0.6,0,1.1,0,1.7,0c0.6,0,1.4,0,1.7,0c0.1,0.1,0.1,0.3,0,0.4l-0.4,0.1c-0.2,0-0.3,0.1-0.3,0.2c0,0.1,0.1,0.3,0.2,0.7
			c0.5,1.2,1,2.3,1.6,3.3c0.6-1,1.1-2,1.6-3c0.2-0.5,0.4-0.8,0.4-0.9c0-0.1-0.1-0.2-0.3-0.2l-0.4-0.1c-0.1-0.1-0.1-0.3,0-0.4
			c0.6,0,1,0,1.4,0c0.4,0,0.8,0,1.3,0c0.1,0.1,0.1,0.3,0,0.4l-0.4,0.1c-0.6,0.1-0.8,0.4-1.5,1.6c-0.5,0.8-0.9,1.5-1.3,2.3
			c-0.4,0.7-0.5,1-0.5,1.9V45c0,1.4,0.1,1.5,0.8,1.5l0.5,0.1c0.1,0.1,0.1,0.3,0,0.4c-0.8,0-1.4,0-2,0c-0.6,0-1.2,0-2,0
			c-0.1-0.1-0.1-0.3,0-0.4l0.4-0.1c0.6-0.1,0.8-0.1,0.8-1.5V44.2z"/>
	</g>
	<path fill="#FFFFFF" stroke="#002D5B" stroke-width="0.6143" d="M50.8,28.6c0,12.5-10.1,22.6-22.5,22.6
		c-12.4,0-22.5-10.1-22.5-22.6c0-12.5,10.1-22.6,22.5-22.6C40.7,5.9,50.8,16.1,50.8,28.6z"/>
	<path fill="#002D5B" d="M51.1,28.6c0,12.7-10.2,22.9-22.8,22.9c-12.6,0-22.8-10.3-22.8-22.9c0-12.7,10.2-22.9,22.8-22.9
		C40.8,5.6,51.1,15.9,51.1,28.6z"/>
	<path fill="#FFFFFF" d="M29.2,29.1c-0.3-0.1-2.2-0.9-2.2-0.9c-0.1-0.1,0-0.4,0.3-0.2c0.1,0,1.9,0.8,2.1,0.8
		C29.5,28.9,29.6,29.2,29.2,29.1z"/>
	<path fill="#FFFFFF" stroke="#002D5B" stroke-width="0.6143" d="M48.1,28.6c0,11-8.9,20-19.9,20c-11,0-19.9-8.9-19.9-20
		c0-11,8.9-20,19.9-20C39.2,8.6,48.1,17.5,48.1,28.6z"/>
	<g>
		<defs>
			<path id="SVGID_1_" d="M46.2,28.6c0,10-8.1,18.1-18,18.1c-9.9,0-18-8.1-18-18.1c0-10,8.1-18.1,18-18.1
				C38.1,10.5,46.2,18.6,46.2,28.6z"/>
		</defs>
		<use xlink:href="#SVGID_1_"  overflow="visible" fill="#FFFFFF"/>
		<clipPath id="SVGID_2_">
			<use xlink:href="#SVGID_1_"  overflow="visible"/>
		</clipPath>
		<path clip-path="url(#SVGID_2_)" fill="#002D5B" d="M22.9,8.1C23,8.1,23.3,8,23.2,8c0-0.1-0.1-0.1-0.2,0
			C22.8,7.9,22.8,8.1,22.9,8.1z"/>
		<path clip-path="url(#SVGID_2_)" fill="#002D5B" d="M23.9,10.5c0.1,0.1,0.8,0.2,1,0.2c0.2,0,0.2-0.2,0.1-0.1
			c-0.1,0-1.2-0.2-1.3-0.2c-0.1,0-0.3-0.1-0.4-0.1c-0.1,0-0.3-0.1-0.2,0l0,0.1C23.1,10.3,23.8,10.4,23.9,10.5z"/>
		<path clip-path="url(#SVGID_2_)" fill="#002D5B" d="M24.1,9.3c0,0-0.1-0.2-0.2-0.2c-0.1,0-0.2,0.1-0.3,0.1
			C23.4,9.2,24.1,9.3,24.1,9.3z"/>
		<path clip-path="url(#SVGID_2_)" fill="#002D5B" d="M23.2,8.6c-0.2,0.1,0.3,0,0.3,0C23.4,8.5,23.3,8.5,23.2,8.6z"/>
		<path clip-path="url(#SVGID_2_)" fill="#002D5B" d="M23.4,9c0-0.1-0.1-0.1-0.2-0.1l0,0c0,0.2,0.2,0.2,0.2,0.2S23.4,9.1,23.4,9z"/>
		<path clip-path="url(#SVGID_2_)" fill="#002D5B" d="M37.5,41.2c0.2-0.1,0.2-0.3,0.1-0.2c-0.2,0-1,0.3-1.2,0.3
			c-0.1-0.1-0.4,0.1-0.2,0.2C36.4,41.4,37.3,41.3,37.5,41.2z"/>
		<path clip-path="url(#SVGID_2_)" fill="#002D5B" d="M23.4,9.5c0.1,0.1,0.5,0.2,0.6,0.3c0.1,0,0.5-0.1,0.2-0.1
			c-0.2,0-0.6-0.2-0.7-0.2C23.4,9.4,23.3,9.4,23.4,9.5z"/>
		<path clip-path="url(#SVGID_2_)" fill="#002D5B" d="M26.1,9.6c0.1,0,0.3-0.1,0.3-0.1s-0.2,0.1-0.2,0C26.2,9.3,26,9.6,26.1,9.6z"/>
		<path clip-path="url(#SVGID_2_)" fill="#002D5B" d="M24.1,10.1c0.1,0,0.3,0.1,0.4,0.1c0.1,0,0.3-0.1,0.2-0.1c-0.1,0-0.3,0-0.5-0.1
			C24,9.9,24,10,24.1,10.1z"/>
		<path clip-path="url(#SVGID_2_)" fill="#002D5B" d="M39.5,40.8c0.1-0.2-0.1,0.1-0.3,0.2c-3,2.1-6.8,1.8-7,1.8
			c-0.2-0.1-1.5,0-1.6,0c-0.1,0-0.2,0.1-0.3,0.1c-0.1,0-0.3,0.1,0,0.1c0.3,0,1.6-0.1,1.7,0c2.4,0.1,4.2-0.4,4.6-0.5
			C37.2,42.3,39.2,41.4,39.5,40.8z"/>
		<path clip-path="url(#SVGID_2_)" fill="#002D5B" d="M26.5,21.6c0-0.1,0.1-0.1,0.3-0.2c0.2-0.1,0.8,0.3,1,0.3
			c0.3-0.1,0.8,0,1.1,0.2c0.3,0.2,1,0.5,1.2,0.5c0.2,0,0.3,0.2,0.2,0.3c-0.1,0.1,0.5,0.8,0.6,0.9c0,0.2,0.3,0.5,0.6,1
			c0.2,0.5,1.2,0.7,1.3,0.8c0.1,0,0.2,0.2,0.4,0.2c0.2,0,0-0.2,0-0.2c0-0.1,0.1,0,0.2,0c0.1,0,0.2,0.2,0.2,0.1c0-0.1,0-0.1,0.2,0
			c0.1,0.1,0.1,0.1,0.2,0.2c0.1,0,0.1,0,0-0.1c-0.1-0.1,0-0.2,0.1-0.1c0.1,0.1,0.3,0.3,0.5,0.3c0.1,0,0-0.2-0.1-0.3
			c0-0.1,0.1-0.1,0.2,0c0.1,0.1,0.4,0.4,0.6,0.4c0.2,0,0-0.2,0-0.3c0-0.1,0.1,0,0.2,0.1c0.1,0.1,0.6,0.8,0.7,0.8
			c0.1-0.1,0.7,1,0.8,1.5c0.1,0.5,0.3,0.4,0.3,0.3c-0.7-2.6-1.5-2.7-1.8-2.9c-0.3-0.2-3.9-1-3.9-1.2c0-0.2-0.8-1-0.8-1
			s-0.5-0.7-0.6-0.8C30,22,28.8,21.2,28.4,21c-0.3-0.2-0.6-0.2-1.2-0.3c-0.6-0.2-0.6-0.2-0.9-0.3c-0.3-0.1-0.7,0.4-0.7,0.5
			c0.3,0.3,0.7,0.7,1,1.1c0.2,0.1,0.4,0.1,0.4,0.1C27.1,22.1,26.6,21.7,26.5,21.6z"/>
		<path clip-path="url(#SVGID_2_)" fill="#002D5B" d="M31.1,39.4c-0.2,0-0.3,0-0.5,0c-0.2,0-0.3,0.1-0.1,0.2
			c0.1,0.1,0.4,0.1,0.5,0.1C31.2,39.6,31.3,39.4,31.1,39.4z"/>
		<path clip-path="url(#SVGID_2_)" fill="#002D5B" d="M30.1,38.2c0.2-0.1,0.1-0.2,0.1-0.2c0,0-0.5-0.1-0.6-0.2
			c-0.2-0.1-0.3,0.2-0.1,0.2C29.7,38.1,29.9,38.3,30.1,38.2z"/>
		<path clip-path="url(#SVGID_2_)" fill="#002D5B" d="M30.4,38.8c-0.2,0-0.4-0.1-0.6-0.1c-0.2,0-0.3,0.2-0.1,0.2
			c0.1,0,0.5,0.1,0.6,0.1C30.4,39,30.5,38.8,30.4,38.8z"/>
		<path clip-path="url(#SVGID_2_)" fill="#002D5B" d="M30.9,40.2c0.1,0.1,1,0.2,1.1,0.1c0.1,0,0.2-0.1,0.2-0.2c0,0-0.1-0.1-0.3,0
			c-0.1,0.1-0.7,0-0.8,0C31,40,30.8,40.1,30.9,40.2z"/>
		<path clip-path="url(#SVGID_2_)" fill="#002D5B" d="M31,40.9c0.1,0.1,1,0.2,1.1,0.1c0.1,0,0.2-0.1,0.2-0.2c0,0-0.1-0.1-0.3,0
			c-0.1,0.1-0.7,0-0.8,0C31.1,40.7,31,40.8,31,40.9z"/>
		<path clip-path="url(#SVGID_2_)" fill="#002D5B" d="M31.4,41.4c0.1,0.1,1,0.2,1.1,0.1c0.1,0,0.2-0.1,0.2-0.2c0,0-0.1-0.1-0.3,0
			c-0.1,0.1-0.7,0-0.8,0C31.5,41.3,31.3,41.4,31.4,41.4z"/>
		<path clip-path="url(#SVGID_2_)" fill="#002D5B" d="M39,21.2L39,21.2c-2.4-2.1-5.1-2.9-7.6-2.9c0.1-0.4,0.2-1,0.2-1.5
			c0.3,0,0.9,0,1.3,0c0.2,0,0.4-0.1,0.4-0.2C33.2,16.5,33,16,32.7,16c-0.2,0-0.7-0.3-1-0.4c0.1-1.2,0.2-2.5,0.2-3.6
			c0-2.5-1.4-4.5-3.5-4.6c-0.4,0-0.6-0.3-0.5-0.7c0.1-0.8,0.5-1.7,0.7-2.5c0.1-0.4-0.1-0.8-0.5-0.7c-0.3,0-0.5,0.1-0.7,0
			c-0.2,0-0.5,0.1-0.5,0.1c-0.3,0.1-0.4,0.4-0.5,0.6c-0.1,0.2-0.6,1.4-0.6,1.6c-0.1,0.2-0.1,1-0.3,0.8c-0.1-0.2-0.2-0.2-0.3-0.3
			c-0.1-0.8-0.2-1.6-0.2-2c-0.1-0.5-0.6-0.6-0.9-0.2c-0.1,0.2-0.3,0.4-0.4,0.5c-0.2,0.2-0.4,0.2-0.6,0.2c-0.2-0.1-0.5,0-0.7,0.2
			c-0.2,0.2-0.5,0.3-0.7,0.1C21.3,5,21.2,4.9,21,4.9c-0.2,0-0.3,0.1-0.3,0.2c0.1,0.8,0.2,1.7,0.3,2.4L21,8.9c0,0.6,0,1.2-0.1,1.7
			c-0.1,0.6-0.1,1.1,0,1.5c0,0.3,0,0.5-0.1,0.7c-0.2,0.6-0.3,1.2-0.3,1.9c0,0.8,0,2,0,3c0,1.1-0.2,2.9-0.1,4.5c0,0,0,0,0,0
			c-0.2,0.1-0.5,0.3-0.7,0.5c0,0,0,0,0.1,0v0c-0.1-1.6,0.1-3.5-0.3-5.3c-0.1-0.9-1-0.8-1.2,0c-0.1,0.3-0.1,0.4-0.2,0.7
			c-0.1,0.3-0.3,0.5-0.7,0.5c-0.4,0.1-1,0.2-1.3,0.4c-0.2,0.1-0.3,0.3-0.2,0.5c0.1,0.6,0.2,2.2,0.3,4.2c-0.2,0.1-0.4,0.2-0.6,0.4
			c-0.4,0.5-0.5,1.1-0.3,1.9c0.4,1.2,0.3,1.8,0,2.6c-0.6,1.5-0.3,3.6,0.9,5.1c0,0,0,0.1,0.1,0.1c0.1,0.1,0.2,0.2,0.3,0.2
			c0,0,0,0,0,0c0.2,4.5,0.3,8.7,0.4,10.4c0,0.2,0.1,0.5,0.4,0.7c0.4,0.3,0.9,0.1,1.1-0.2c0.2-0.3,0.5-0.1,0.5,0.3
			c0,0.3,0.3,0.5,0.5,0.7c0.2,0.1,0.4,0.3,0.6,0.5c0.3,0.3,0.7,0.2,0.7-0.1l0,0c0-1.8-0.1-4.8-0.2-6.7c0,0-0.1-0.1-0.1-0.1
			c1.4,1.7,3.1,3,5.3,3.8h0l0,0c0.4,1.7,1,4.9,1,5c0.1,0.4,0.4,0.7,1.1,0.7c0.4,0,0.8-0.2,1.1-0.2c0.3-0.1,0.7,0.1,0.9,0.2
			c0.5,0.3,1.2,0.3,1.7,0.1c0.3-0.2,0.4-0.4,0.3-0.6c0,0,0,0,0,0l-0.9-4.4l0.2,0c0.5,0.1,1,0.1,1.5-0.1c1.8,0,3.5-0.3,4.9-0.9
			c1.3-0.6,2.3-1.4,2.9-2.4c0.4-0.8,0.6-1.6,0.4-2.5c-0.1-0.5-0.3-1-0.6-1.5l0-0.1c-1-1.5-1.9-3-2.2-4.6c-0.1-0.7,0-1.4,0.1-2.2
			c0.1-0.6,0.1-1.2,0-1.8c-0.1-0.8-0.4-1.6-0.8-2.2c0,0,1,0.5,1.8,0.9v0c0.3,0.2,0.5-0.1,0.4-0.3c-0.1-0.1-0.2-0.3-0.3-0.6
			c-0.1-0.2-0.3-0.4-0.2-0.7c0.1-0.4,0-0.9-0.3-1.6c-0.4-1-0.2-1.5,0.3-1.7C39.1,21.6,39.1,21.3,39,21.2z M31.7,48.3
			C31.7,48.3,31.7,48.3,31.7,48.3C31.7,48.3,31.7,48.3,31.7,48.3z M31,18.2c-0.5,0-2,0.2-2.5,0.3c0-0.2,0.1-1.2,0.3-1.2
			c0.2,0,1.4-0.2,1.6-0.2c0.4,0,0.5-0.1,0.8-0.1C31.1,17.5,31.1,17.9,31,18.2z M22.1,15.7c0.1,0,0.2,0,0.5,0c0.3,0.1,0.1-0.1,0-0.2
			c-0.1,0-0.3-0.1-0.6-0.1c-0.7-0.1-0.5-0.5-0.3-0.5c0.2,0,0.9,0.1,1.1,0.1c0.2,0,0.1-0.1,0-0.2c-0.2-0.1-0.7-0.1-0.9-0.2
			c-0.7-0.2-0.5-0.6-0.4-0.5c0.2,0,0.8,0.1,1,0.1c0.2,0.1,0.2-0.2,0-0.2c-0.2,0-0.9-0.2-1-0.2c-0.1,0-0.3-0.4,0.2-0.4
			c0.2,0,1.1,0.1,1.3,0.2c0.2,0,0.2-0.1,0-0.2c-0.2-0.1-1-0.2-1.3-0.3c-0.3-0.1-0.5-0.3-0.1-0.3c0.4,0,0.8,0.1,1.1,0.2
			c0.3,0,0.2-0.2,0-0.2c-0.2,0-0.9-0.2-1.2-0.3c-0.3-0.1-0.3-0.3-0.1-0.3c0.2,0,1.2,0.3,1.4,0.3c0.3,0,0.3-0.1,0-0.2
			c-0.3-0.1-1.2-0.3-1.5-0.4c-0.3-0.1-0.2-0.2,0-0.2c0.2,0,1.3,0.2,1.6,0.3c0.3,0.1,0.1-0.2-0.1-0.3c-0.2-0.1-1.2-0.2-1.4-0.3
			c-0.2-0.1-0.2-0.3,0-0.2c0.2,0.1,0.7,0,0.6,0c-0.1-0.1-0.2-0.2-0.1-0.2c0.2,0,0.4,0.1,0.6,0.2c0.2,0,0.2,0,0-0.1
			c-0.2-0.1-0.6-0.2-0.8-0.2c-0.2-0.1-0.3-0.3-0.1-0.3c0.2,0,0.7,0.2,1,0.3c0.3,0.1,0.2-0.1,0-0.1c-0.2,0-0.7-0.3-1.1-0.4
			c-0.4-0.2-0.2-0.3,0-0.2c0.2,0,0.6,0.2,0.7,0.3c0.1,0,0.3,0,0-0.1c-0.3-0.1-0.6-0.3-0.8-0.3c-0.2-0.1-0.2-0.2,0-0.2
			c0.3,0,0.8,0.2,1.1,0.3c0.3,0.1,0.4-0.1,0.1-0.2c-0.3-0.1-1-0.3-1.1-0.4c-0.1,0-0.2-0.2,0-0.2c0.2,0,0.6,0.2,0.7,0.2
			c0.1,0,0.3-0.1-0.1-0.1c-0.3,0-0.4-0.2-0.7-0.3c-0.3-0.1-0.1-0.2,0.1-0.2c0.2,0,0.5,0.1,0.8,0.2c0.2,0.1,0.1-0.1-0.1-0.2
			c-0.2,0-0.7-0.3-0.9-0.4c-0.2-0.1-0.2-0.2,0-0.1c0.2,0,0.6,0.2,0.8,0.2c0.3,0.1,0.4-0.1,0.2-0.1c-0.2-0.1-0.9-0.4-1-0.4
			c-0.1,0-0.2-0.2-0.1-0.1c0.2,0,0.5,0.1,0.7,0.2c0.2,0.1,0.4-0.1,0.2-0.2c-0.2-0.1-0.7-0.2-1-0.3c-0.2-0.1-0.1-0.2,0-0.2
			c0.2,0,0.7,0.2,1,0.2c0.2,0,0.2-0.1,0-0.1c-0.2,0-0.8-0.3-1-0.4c-0.2-0.1-0.1-0.1,0.1-0.1c0.2,0,0.4,0.1,0.5,0.1
			c0.1,0,0.3-0.1,0-0.1c-0.3,0-0.4-0.2-0.6-0.2c-0.2-0.1-0.2-0.2-0.1-0.2c0.1,0,0.2,0,0.3,0.1c0.1,0,0.6,0,0.2-0.1
			c-0.3-0.1-0.3-0.2-0.5-0.2C21.2,6,21,6,21.2,6c0.1,0,0.2,0,0.5,0.1c0.3,0,0.5,0.1,0.4,0c0-0.1-0.2,0-0.8-0.2
			c-0.6-0.2-0.4-0.2-0.3-0.3c0.1-0.1,0.2,0,0.3-0.1c0.3,0.2,0.7,0.1,0.9-0.2c0.1-0.1,0.2-0.2,0.5-0.2c0.3,0.1,0.6,0,0.8-0.2
			c0.1-0.1,0.2-0.3,0.3-0.4L24,4.3c0.1-0.1,0.2-0.2,0.3-0.2c0.1,0,0.2,0.1,0.2,0.3c0,0.2,0.1,0.6,0.1,1c0,0.5,0.1,1,0.2,1.6
			c0.1,0.4,0.3,0.5,0.4,0.5c0.2,0,0.4-0.1,0.4-0.4c0,0,0,0,0,0c0.1,0,0.1-0.1,0.1-0.1c0-0.1,0.1-0.2,0.1-0.3c0.1,0,0.1-0.2,0.1-0.3
			c0-0.1,0.1-0.3,0.2-0.5c0.1-0.1,0-0.3,0-0.4c0-0.1,0.1-0.3,0.1-0.4c0,0,0.1,0,0.2,0.1c0.1,0.1,0.3-0.2,0.3-0.3
			c0-0.1,0.2-0.5,0.3-0.7c0-0.1,0.1-0.3,0.1-0.5c0.3,0.1,0.6,0,0.8,0c0.1,0,0.2,0,0.2,0.1c0,0,0.1,0.1,0.1,0.2c0,0.1,0,0.2,0,0.2
			l-0.1,0.3c-0.2,0.7-0.5,1.6-0.6,2.3c0,0.2,0,0.3,0,0.4c0,0.1,0.1,0.2,0.1,0.3c0.1,0.1,0.3,0.2,0.5,0.2c1.7,0.1,2.9,1.3,3.2,3.2
			c0.1,0.4,0.1,0.7,0.1,1.1c0,1.1-0.1,2.4-0.2,3.6c-0.1,0-0.3,0-0.5,0c-0.3,0-0.5,0-0.7-0.1c-0.7-0.2-1.2-0.2-1.6,0c0,0,0,0,0,0
			c0-0.5,0-0.9,0-1.3c0,0,0.1,0,0.1,0c0.1,0,0.1,0.1,0.1,0.2c0,0.1,0,0.7,0,0.8c0,0.1,0.1,0,0.1-0.1c0-0.1,0-0.2,0-0.5
			c0-0.2,0-0.9,0-1.1c0-0.2,0-0.4,0-0.6c-0.1-0.2-0.2-0.1-0.1,0.1c0,0.1,0,0.3,0,0.5c0,0.2-0.1,0.1-0.2,0.1c0-0.1,0-0.3,0-0.4
			c0-0.2-0.1-0.5-0.1-0.7c-0.1-0.7-0.3-1.3-0.6-1.7c-0.1-0.2-0.3-0.3-0.4-0.3c0-0.2-0.2-0.1-0.2-0.2c-0.1,0-0.2-0.2-0.2-0.2
			c0-0.1,0.2-0.2-0.1-0.2c-0.2-0.1-0.2,0-0.3,0c-0.1,0.1-0.4,0.1-0.2,0.2c0.2,0.1,0.4,0.2,0.4,0.3c0,0.1-0.1,0.1-0.2,0.1
			c-0.1,0-0.4-0.1-0.5-0.1c-0.1,0-0.2,0.1-0.1,0.1c0.1,0,0.5,0,0.5,0.1c0,0,0.2,0,0.1,0.6c-0.1,0.1-1,1.7-1,1.7
			c-0.1,0.1-1.3,1.4-1.3,1.5c-0.1,0.1-0.3,0.3-0.4,0.4c-0.2,0.2-1.5,1.6-1.7,1.9c-0.1,0-0.2-0.1-0.4-0.1
			C21.3,16.2,21.5,15.7,22.1,15.7z M22.2,17.6c0.5-1,1.3-1.8,2.1-2.6c1.6-1.4,2.3-2.5,2.9-4c0-0.1,0.1-0.1,0.1-0.1
			c0,0,0.3,0.3,0.3,0.4c0,0,0.2,0.5,0.1,0.5c-0.1,0.1-0.2,0-0.3-0.1c-0.1-0.1-0.2,0.1,0,0.2c0.1,0.1,0.4,0.3,0.4,0.3
			c0.1,0.1,0.1,0.3,0,0.3c-0.1,0-0.4-0.3-0.6-0.4C27,12,26.9,12.3,27,12.4c0.1,0.1,0.5,0.5,0.7,0.6c0.1,0.1,0,0.2,0.1,0.4
			c-0.6,0.6-1,1.4-1.2,2.2c0,0.1,0,0.1,0,0.2c0,0.1,0.1,0.2,0.1,0.2c0.1,0.1,0.3,0.1,0.4,0c0.3-0.2,0.8-0.3,1-0.2
			c0.2,0.1,0.4,0,0.6,0l0,0c0.3-0.1,0.8-0.1,1.4,0c0.3,0.1,0.6,0.1,0.9,0.1c0.2,0,0.3,0,0.4,0l0.5,0.2c0.1,0.1,0.3,0.1,0.4,0.2
			c0,0.1-0.1,0.1-0.1,0.1c-0.2,0-1.2,0.2-1.2,0.2c-0.1,0-0.1,0-0.2,0c-0.2-0.2-0.6-0.5-0.7-0.6c-0.1-0.1-0.2,0-0.1,0.1
			c0.1,0.1,0.4,0.3,0.5,0.5c-0.1,0-0.2,0-0.3,0c0,0,0,0,0,0c-0.1-0.1-0.4-0.3-0.5-0.5c-0.1-0.1-0.2,0-0.1,0.1
			c0.1,0.1,0.3,0.3,0.3,0.4c0,0,0,0,0,0c0,0-0.1,0-0.1,0c-0.1,0-0.1,0-0.1-0.1c-0.1-0.1-0.4-0.3-0.5-0.4c-0.1-0.1-0.3,0-0.2,0
			c0.1,0.1,0.4,0.3,0.5,0.4c0,0,0,0.1,0,0.1c0,0,0,0-0.1,0c-0.1,0-0.1,0-0.2-0.1c-0.1-0.1-0.4-0.4-0.5-0.4c-0.1-0.1-0.2,0.1-0.1,0.2
			c0.1,0.1,0.3,0.2,0.3,0.3c0,0,0,0.1,0,0.1c0,0,0,0,0,0c-0.1,0-0.1,0-0.2,0.1c0,0-0.1,0-0.1,0c-0.1-0.1-0.2-0.3-0.4-0.4
			c-0.1-0.1-0.3,0-0.2,0.1c0.1,0.1,0.4,0.3,0.4,0.4c0,0,0,0.1,0,0.1c0,0,0,0,0,0c0,0-0.1,0-0.1,0C28.1,17,28.1,17,28,16.9
			c-0.1-0.1-0.1,0.2,0,0.3c0,0,0,0,0,0c-0.1,0.1-0.1,0.1-0.2,0.2c-0.2-0.1-0.5-0.4-0.5-0.4s-0.3-0.1-0.1,0c0.1,0.1,0.4,0.3,0.3,0.4
			c-0.1,0.1-0.4-0.1-0.5-0.2c-0.1-0.1-0.2,0-0.1,0.1c0.1,0.1,0.5,0.2,0.5,0.3c0.1,0.1,0,0.2-0.2,0.2c-0.2-0.1-0.4-0.1-0.6-0.2
			c-0.2-0.1-0.1,0.1,0,0.2c0.1,0.1,0.5,0.4,0.4,0.5c-0.1,0.1-0.6-0.1-0.7-0.2c-0.1-0.1-0.3,0-0.1,0.1c0.1,0.1,0.6,0.4,0.5,0.5
			c-0.1,0.1-0.6-0.2-0.7-0.3c-0.1-0.1-0.2,0-0.1,0.1c0.1,0.1,0.6,0.4,0.5,0.5c-0.1,0.1-0.7-0.3-0.9-0.3c-0.2-0.1-0.2,0.1-0.1,0.2
			c0.2,0.1,1,0.5,0.8,0.6c-0.2,0.2-0.8-0.3-1-0.4c-0.2-0.1-0.3,0-0.2,0.1c0.2,0.1,0.5,0.3,0.7,0.4c0.1,0.1,0.1,0.2-0.1,0.1
			c-0.2-0.1-1-0.6-1.2-0.5c-0.2,0-0.2,0.1,0,0.2c0.2,0.1,0.8,0.3,0.9,0.4c0.1,0.1-0.1,0.1-0.3,0.1c-0.2-0.1-0.6-0.4-0.8-0.4
			c-0.1,0-0.3,0-0.1,0.1c0.2,0.1,0.7,0.2,0.5,0.3c-0.2,0.1-0.5,0-0.8,0c-0.2,0-1.5,0.9-2.2,1.5c-0.7,0.2-1.1-0.9-0.3-2.6
			C21.5,18.8,22.2,17.6,22.2,17.6z M20.6,23.2c0,0,0.1-0.1,0.2,0c0.1,0.1,0.9,0.5,1,0.6c0.1,0,0.1,0.1,0.1,0.2
			c0,0.1-0.1,0.1-0.3,0.1c-0.1,0-0.4-0.2-0.6-0.3c-0.2-0.1-0.3-0.2-0.4-0.2c-0.1,0-0.1-0.1-0.1-0.1C20.5,23.3,20.5,23.3,20.6,23.2z
			 M19.9,23.9C19.9,23.8,19.9,23.8,19.9,23.9c0.1-0.1,0.2-0.1,0.2,0l0,0c0.1,0.1,1.3,0.6,1.5,0.7c0.2,0,0.2,0.1,0.2,0.1
			c0,0-0.1,0.1-0.3,0.1c-0.3,0-1-0.4-1.4-0.6L19.9,24C19.8,24,19.9,23.9,19.9,23.9z M23.2,29.5c0.1,0,0.1,0.1,0.1,0.1
			c0,0.1-0.2,0.1-0.3,0.1c-0.2,0-0.5-0.2-0.7-0.3c-0.1-0.1-0.3-0.1-0.3-0.1c-0.1,0-0.1-0.1-0.1-0.1c0,0,0-0.1,0-0.1c0,0,0.1,0,0.2,0
			C22.2,29.1,23,29.4,23.2,29.5z M21.2,36.2C21.2,36.2,21.2,36.2,21.2,36.2c0-0.1,0.2,0,1.1,0.3c0.3,0.1,0.5,0.2,0.6,0.2
			c0.1,0,0.9,0.3,0.9,0.4c0,0,0,0.1,0,0.2c0,0-0.1,0.2-0.1,0.2c-0.1,0-0.7-0.2-0.7-0.2c-0.4-0.2-1.3-0.5-1.4-0.5
			c-0.2,0-0.3-0.3-0.3-0.4C21.2,36.3,21.2,36.3,21.2,36.2z M24.2,37.1L24,37c-0.1,0-0.1-0.1-0.1-0.1c0,0,0-0.1,0.1-0.1
			c0,0,0.1,0,0.2,0c0,0,0.1,0.1,0.2,0.1c0.2,0.1,0.8,0.3,0.8,0.3c0,0,0,0.1,0,0.1c0,0-0.1,0.1-0.1,0.1C25,37.4,24.3,37.2,24.2,37.1z
			 M25,35.8c0,0,0,0.1-0.1,0.1c-0.1,0-1.3-0.4-1.5-0.4l-0.1,0l-0.1,0c-0.1,0-0.2,0-0.2-0.2c0,0,0-0.2,0-0.2c0.1,0,1.3,0.4,1.4,0.4
			c0.2,0,0.3,0,0.4,0.1C24.9,35.6,25,35.8,25,35.8z M24.5,34.9c-0.2,0-1.5-0.4-1.6-0.5c-0.1,0-0.2-0.1-0.5-0.2
			c-0.5-0.2-1-0.4-1.1-0.4c-0.5-0.2-1.2-0.3-1.2-0.7c0-0.1,0.1-0.2,0.1-0.3c0,0,0.1,0,0.1,0c0,0,0.2,0.1,0.3,0.1
			c0.2,0.1,0.9,0.4,1.2,0.5c0.2,0.1,2.1,0.8,2.2,0.8c0.1,0,0.3,0.1,0.4,0.1c0,0,0,0.1,0,0.1c0,0,0,0.1,0,0.1
			C24.5,34.7,24.7,34.9,24.5,34.9z M18,30c0-0.1,0-0.2,0.2-0.1c0.1,0,2.7,1,2.8,1c0,0,0.1,0.2,0.1,0.2c0,0.1-0.2,0.1-0.2,0.1
			l-1.8-0.6c-0.5-0.1-1-0.3-1-0.4C18,30.1,18,30,18,30z M17.9,32.6c0.1,0,1.1,0.5,1.1,0.5c0.2,0.2,0.3,0.7,0.3,0.8
			c0.1,0.1-0.7-0.2-0.8-0.3c-0.3-0.1-0.7-0.3-0.8-0.3c0-0.1-0.1-0.2,0-0.3C17.9,33,17.8,32.6,17.9,32.6z M17.9,34.4
			c0-0.1,0-0.3,0.1-0.3c0,0,1.4,0.4,1.5,0.4c0.3,0.1,0.3,0.7,0.3,0.7c0,0-0.1,0.1-0.1,0.1c-0.1,0-1.2-0.4-1.3-0.4
			c-0.1,0-0.3-0.1-0.4-0.1C18,34.7,17.9,34.4,17.9,34.4z M18.8,31.1c0,0,0-0.2,0.1-0.2c0.1,0,0.9,0.3,1.1,0.4
			c0.2,0.1,0.3,0.1,0.4,0.2c0,0,0.1,0.1,0,0.2c0,0,0,0.2-0.1,0.2c0,0-0.1,0-0.1,0C20.2,31.6,18.8,31.2,18.8,31.1z M24.3,33.7
			c0,0.1,0,0.2-0.1,0.2c-0.1,0-2.4-0.8-2.5-0.9c0,0-1.1-0.5-1.2-0.6c0,0,0.1-0.2,0.1-0.2c0-0.1,0.1-0.1,0.2,0
			c0.1,0.1,1.2,0.4,1.4,0.5l0.3,0.1c0.2,0.1,1,0.4,1.1,0.4l0.1,0c0.1,0,0.2,0,0.4,0.1C24.3,33.4,24.3,33.7,24.3,33.7z M24.1,32.9
			c0,0.1-0.2,0.1-0.2,0.1c0,0-2.1-0.8-2.3-0.9c-0.3-0.1-0.6-0.2-0.7-0.3c0-0.1,0.1-0.6,0.9-0.2c0.2,0.1,2,0.7,2,0.7
			c0.2,0.1,0.1,0.2,0.2,0.4C24.1,32.7,24.1,32.7,24.1,32.9z M18.1,26.3c0.1-0.1,0.3-0.1,0.4,0c0.1,0.1,2.7,1.1,3,1.2
			c0.1,0,0.1,0.1,0.1,0.1c0,0,0,0.5,0,0.6c-0.1,0.1-0.2,0.1-0.3,0.1c-0.2-0.1-3-1.3-3.2-1.4c0,0-0.1-0.1-0.1-0.1
			C18.1,26.6,18.1,26.3,18.1,26.3z M18.1,27.4c0.1,0,0.2,0.1,0.4,0.1c0.1,0,0.2,0.1,0.2,0.1c0.1,0,1.4,0.5,1.8,0.7l0.3,0.1
			c0.1,0,0.1,0.1,0.1,0.1c0,0,0,0.2,0,0.2c0,0,0,0.2-0.5,0.1c-0.7-0.2-2.7-0.7-2.6-1.3C17.9,27.5,18.1,27.4,18.1,27.4z M23,30.2
			l-0.3-0.1c-0.3-0.1-0.8-0.2-1-0.3c-0.1-0.1-0.1-0.1-0.1-0.2c0-0.1,0.1-0.1,0.2,0c0.2,0,0.6,0.2,0.9,0.3c0.2,0,0.3,0.1,0.4,0.2
			c0.1,0,0.1,0.1,0.1,0.1c0,0,0,0.1,0,0.1C23.2,30.2,23.1,30.2,23,30.2z M21.4,26.7c-0.1,0.1-1.2-0.4-1.4-0.5
			c-0.2-0.1-1-0.4-1.1-0.5c-0.1,0-0.1-0.1-0.1-0.2c0-0.1,0.1-0.3,0.2-0.4c0,0,0.2,0,0.2,0c0.1,0.1,0.9,0.4,1.1,0.5
			c0.1,0,0.4,0.1,0.7,0.3c0.2,0.1,0.4,0.2,0.5,0.2c0.1,0,0.1,0.1,0.1,0.1C21.5,26.4,21.4,26.7,21.4,26.7z M19.3,24.5
			c0.1,0,0.2,0,0.2,0.1c0.1,0.1,1.1,0.5,1.7,0.8c0.1,0,0.3,0.1,0.3,0.2c0,0.2-0.1,0.3-0.3,0.3c-0.3,0-1.9-0.8-2-0.9
			c0,0-0.1-0.1-0.1-0.2C19.2,24.6,19.3,24.5,19.3,24.5z M16.5,19.2c0.1,0.1,1,0.4,1.1,0.5c0.1,0,0.1-0.1,0-0.1
			c-0.1,0-0.6-0.4-0.8-0.5c-0.2-0.1,0.1-0.1,0.2-0.1c0.1,0,0.5,0.2,0.6,0.2c0.1,0,0.2-0.1,0.2-0.1c-0.1-0.1-0.1-0.2-0.3-0.3l0,0
			c0.4-0.1,0.6-0.3,0.7-0.6c0.1-0.2,0.1-0.4,0.2-0.7l0,0c0.1-0.3,0.3-0.5,0.5-0.5c0.2,0,0.3,0.2,0.4,0.5c0.2,1.1,0.2,2.2,0.2,3.3
			c0,0.7,0,1.4,0.1,2c-0.3,0.3-0.6,0.5-0.9,0.8l0,0c0,0-0.1,0-0.3,0c-0.2,0-0.3-0.2-0.2-0.2c0.1,0,0.2-0.2,0.1-0.2
			c-0.1,0-0.2,0-0.4-0.1c-0.2,0-0.2-0.2-0.1-0.2c0.1,0,0.3,0.1,0.4,0.1c0.1,0.1,0.4-0.1,0.1-0.2c-0.2,0-0.6-0.3-0.8-0.3
			c-0.3,0-0.4-0.2-0.1-0.2c0.2,0.1,0.5,0.1,0.8,0.1c0.3,0,0.2-0.2,0-0.2c-0.1,0-0.6-0.1-0.8-0.2c-0.2-0.1-0.2-0.2,0-0.2
			c0.2,0,0.8,0.2,1,0.3c0.2,0.1,0.3-0.1-0.1-0.2c-0.3-0.1-0.9-0.3-1-0.4c-0.1,0-0.1-0.2,0.1-0.1c0.2,0,0.8,0.2,0.9,0.2
			c0.1,0,0.2-0.1-0.1-0.1c-0.2,0-0.7-0.3-0.9-0.4c-0.2-0.1-0.2-0.2,0-0.2c0.2,0,0.8,0.2,0.9,0.3c0.2,0,0.2-0.1-0.1-0.2
			c-0.3-0.1-0.9-0.4-1.1-0.4c-0.2-0.1-0.2-0.2,0-0.2c0.2,0,0.6,0.3,0.8,0.3c0.2,0,0.1-0.1,0-0.1c-0.1,0-0.6-0.3-0.7-0.4
			c-0.1-0.1-0.1-0.1,0-0.1c0.1,0,0.3,0.1,0.4,0.2c0.1,0,0.2-0.1,0-0.1c-0.2,0-0.5-0.2-0.6-0.2c-0.2,0-0.1-0.2,0-0.1
			c0.1,0,0.5,0.2,0.7,0.2c0.2,0,0.2,0,0-0.1c-0.2,0-0.8-0.3-1-0.5C16.3,19.3,16.4,19.1,16.5,19.2z M18.3,28.7c1.1,0.3,2.1,0.8,2.7,1
			c0.5,0.2,0.2,0.3,0.3,0.4c0.2,0.1,0.5,0.2,1,0.4c0.5,0.2,0.9,0.3,1,0.4c0.1,0.1,0.1,0.3,0.1,0.3c0,0,0,0.1-0.1,0.1
			c0,0-0.1,0-0.2-0.1c-0.1-0.1-0.7-0.3-1.3-0.5c-0.6-0.2-1.2-0.4-1.3-0.5c-0.2-0.1-0.5-0.2-0.8-0.3c-0.2-0.1-0.5-0.1-0.6-0.2
			c-0.4-0.2-0.9-0.3-1.3-0.5C18,29.2,18.1,28.6,18.3,28.7z M16.1,32.7c0.1,0,0-0.2-0.2-0.3c-0.1-0.1-0.3-0.4-0.2-0.3
			c0.1,0.1,0.5,0.3,0.6,0.4c0.2,0.1,0.3,0,0-0.1c-0.2-0.1-0.6-0.5-0.7-0.6c-0.1-0.1-0.2-0.4-0.1-0.3c0.1,0.1,0.6,0.4,0.7,0.5
			c0.1,0.1,0.2,0,0.1-0.1c-0.1-0.1-0.5-0.4-0.7-0.6c-0.4-0.3-0.3-0.9-0.1-0.9c0.1,0,1,0.8,1.1,0.9c0.1,0.1,0.2,0,0-0.2
			c-0.1-0.2-0.9-0.8-1-0.9c-0.3-0.2-0.2-0.6-0.2-0.7c0-0.1,0.1-0.2,0.2-0.1c0.1,0.1,0.8,0.7,0.8,0.8c0.1,0.1,0.2,0,0.1-0.1
			c-0.1-0.1-0.6-0.5-0.7-0.7c-0.2-0.2,0-0.3,0.1-0.2c0.1,0.1,0.6,0.6,0.8,0.7c0.1,0.1,0.1-0.1,0-0.1c-0.1-0.1-0.9-0.8-1-0.9
			c-0.1,0-0.1-0.1-0.1-0.2c0.1-0.2,0.1-0.3,0.4-0.2c0.1,0,0.3,0.2,0.3,0.3c0.1,0.1,0.2,0,0.1-0.1c-0.1-0.1-0.4-0.4-0.5-0.5
			c-0.1-0.1,0-0.3,0.1-0.2c0.2,0.1,0.6,0.5,0.7,0.6c0.1,0.1,0.3,0,0.1-0.1c-0.2-0.1-0.9-0.8-0.9-0.9c0-0.2-0.1-1,0-0.9
			c0.1,0.1,0.4,0.3,0.6,0.4c0.2,0.2,0.1-0.1,0-0.2c-0.1-0.1-0.7-0.5-0.9-1c0-0.1-0.1-0.1-0.1-0.2c-0.3-0.7,0-1.4,0.6-1.7
			c0.2-0.1,0.5-0.1,0.7,0c0.2,0.1,0.2,0.2,0.2,0.2c0,0.1-0.1,0.1-0.2,0.1c-0.4,0-0.6,0.2-0.8,0.5c-0.1,0.2-0.1,0.5,0,0.7
			c0.1,0.2,0.3,0.4,0.4,0.6l0.4,0.6c0.6,0.8,0.6,2.1,0.5,3c-0.1,0.4-0.1,1.1,0,1.9c0.1,0.8,0,1.4-0.3,1.9c-0.1,0.2-0.3,0.3-0.4,0.3
			c-0.1,0-0.3-0.1-0.4-0.2C16.2,33.3,15.9,32.8,16.1,32.7z M18.5,44.4c-0.1,0-0.1,0.1-0.2,0.2c-0.1,0.1-0.4,0.3-0.7,0.2l0-0.1
			c0-0.1,0.1-0.3,0.2-0.3c0.1,0,0.4-0.1,0.5-0.2c0-0.1,0.2-0.1,0.2,0C18.5,44.3,18.5,44.4,18.5,44.4z M20.5,46.1c0,0-0.2,0-0.4-0.1
			l0,0c0-0.1,0.1-0.2,0.2-0.2c0.1,0.1,0.2,0.2,0.2,0.2C20.5,46.1,20.5,46.1,20.5,46.1z M20.3,43.8c0,0.5,0.2,1.1,0.2,1.7
			c-0.1,0-0.1-0.1-0.2-0.1l-0.2-0.1c-0.1-0.1-2.8-2.3-2.9-2.1c0,0-0.1,0.1-0.1,0.1c0,0,0.1-0.3,0-0.3c-0.1-0.1,0-0.4,0-0.5
			c0.1-0.1,0.1,0,0.3,0.1c0.2,0.1,0.1-0.1,0-0.2c-0.1-0.1-0.2-0.1-0.3-0.2c-0.1-0.1-0.1-0.2,0-0.2c0.1,0.1,0.2,0.1,0.3,0.1
			c0.1,0.1,0.1-0.1,0-0.1c-0.1-0.1-0.2-0.1-0.4-0.2c-0.1-0.1,0-0.3,0.1-0.2c0.1,0.1,0.3,0.2,0.5,0.3c0.2,0.1,0.1-0.1,0-0.2
			c-0.1,0-0.4-0.2-0.5-0.3c-0.2-0.1-0.3-0.5,0-0.5c0.2,0,0.3,0.2,0.5,0.2c0.2,0.1,0.2-0.1,0.1-0.2c-0.1-0.1-0.5-0.3-0.6-0.4
			c-0.2-0.1-0.1-0.4,0.1-0.4c0.1,0,0.2,0.1,0.4,0.1c0.1,0.1,0.2-0.1,0.1-0.1c-0.1-0.1-0.3-0.2-0.4-0.2c-0.1-0.1-0.1-0.4,0.1-0.3
			c0.2,0.1,0.2,0.1,0.4,0.2c0.2,0.1,0.1-0.1,0-0.2c-0.1-0.1-0.4-0.2-0.5-0.2c-0.1-0.1-0.1-0.3,0.1-0.2c0.1,0.1,0.3,0.2,0.4,0.2
			c0.1,0.1,0.3,0,0.2-0.1c-0.1-0.1-0.2-0.2-0.3-0.2c-0.6-0.2-0.3-2.2,0.7-1.4c0.2,0.2,1.1,1.3,1.4,1.2
			C20.3,38.8,20.3,43.7,20.3,43.8z M18.6,36.3c-0.1,0-0.4-0.7-0.3-0.7c0.1,0,1.3,0.4,1.6,0.5c0.5,0.1,0.4,0.8,0.2,0.8
			C19.8,36.7,18.8,36.3,18.6,36.3z M24.9,41.5c-0.1,0-1.7-0.7-1.9-0.8c-0.1-0.1-0.1-0.5,0.2-0.4c0.1,0,1.6,0.7,1.8,0.7
			C25.8,41.3,25.7,41.8,24.9,41.5z M21.9,37.9c-0.2,0-0.4-0.2-0.4-0.3c0-0.1,0.1-0.3,0.6-0.1c0.2,0.1,0.8,0.3,1.1,0.4l0.2,0.1l0.2,0
			c0.1,0,1.1,0.4,1.2,0.4c0.2,0.1,1,0.4,1.2,0.4c0.1,0,0.1,0.2,0.1,0.3C25.9,39.5,22,38,21.9,37.9z M28.9,48.4
			c-0.3,0-1.1,0.2-1.4,0.3c-0.3,0.1-0.3-0.1-0.3-0.3c0-0.1,0.3-0.4,0.5-0.5c0.2-0.1,0.6-0.3,0.7-0.2c0.3,0.3,0.5,0.3,0.8,0.5
			C29.6,48.4,29.2,48.4,28.9,48.4z M31.1,48.6c0,0.2-0.5,0.3-0.7,0.3c-0.2,0-0.7-0.2-0.9-0.3c-0.2-0.1,0.1-0.4,0.2-0.5
			c0.2-0.1,0.4,0,0.5,0c0.1,0,0.5-0.1,0.6,0C31,48.3,31.1,48.4,31.1,48.6z M30,47.6c-0.2,0.1-0.3,0.1-0.5,0.1c0-0.1,0.1-0.2,0-0.2
			c-0.2,0-0.5-0.3-0.6-0.4c-0.1-0.1,0,0-0.2,0c-0.1,0-0.3,0-0.5,0c-0.3,0-0.3-1.2-0.3-1.4c0-0.2,0.3-0.6,0.8-0.5
			c0.3,0,0.5-0.1,0.5-0.2c0-0.1,0-0.5,0-0.5c0.4,0,0.2-0.4,0.3-0.5c0.3,0,0.7,0,1-0.1c0,0,0.1,0,0.1,0c0,0.2,0.6,2.8,0.8,3.8
			C30.9,47.4,30.4,47.5,30,47.6z M37.6,29.7c0,0,0-0.1,0-0.1C37.6,29.6,37.6,29.7,37.6,29.7z M37.6,29.5
			C37.6,29.5,37.6,29.5,37.6,29.5C37.6,29.5,37.6,29.5,37.6,29.5z M37.6,29.4C37.6,29.4,37.6,29.3,37.6,29.4
			C37.6,29.3,37.6,29.4,37.6,29.4z M37.6,29.3C37.7,29.2,37.7,29.2,37.6,29.3C37.7,29.2,37.7,29.2,37.6,29.3z M37.6,28.1
			c0-0.1,0-0.1,0-0.1C37.6,28,37.6,28.1,37.6,28.1z M37.7,29.1C37.7,29.1,37.7,29.1,37.7,29.1C37.7,29.1,37.7,29.1,37.7,29.1z
			 M37.7,29C37.7,29,37.7,28.9,37.7,29C37.7,28.9,37.7,29,37.7,29z M37.7,28.8C37.7,28.8,37.7,28.8,37.7,28.8
			C37.7,28.8,37.7,28.8,37.7,28.8z M37.6,28.7C37.6,28.7,37.6,28.6,37.6,28.7C37.6,28.6,37.6,28.7,37.6,28.7z M37.6,28.5
			C37.6,28.5,37.6,28.5,37.6,28.5C37.6,28.5,37.6,28.5,37.6,28.5z M37.6,28.4C37.6,28.4,37.6,28.3,37.6,28.4
			C37.6,28.3,37.6,28.4,37.6,28.4z M37.6,28.3c0,0,0-0.1,0-0.1C37.6,28.2,37.6,28.2,37.6,28.3z M37,26.3c0,0,0-0.1-0.1-0.1
			C37,26.2,37,26.2,37,26.3z M37.6,27.9c0,0,0-0.1,0-0.1C37.5,27.8,37.6,27.9,37.6,27.9z M37.5,27.7C37.5,27.7,37.5,27.7,37.5,27.7
			C37.5,27.7,37.5,27.7,37.5,27.7z M37.5,27.6C37.5,27.6,37.5,27.5,37.5,27.6C37.5,27.5,37.5,27.6,37.5,27.6z M37.5,27.4
			C37.5,27.4,37.4,27.4,37.5,27.4C37.4,27.4,37.5,27.4,37.5,27.4z M37.4,27.3C37.4,27.3,37.4,27.2,37.4,27.3
			C37.4,27.2,37.4,27.3,37.4,27.3z M37.4,27.1C37.4,27.1,37.4,27.1,37.4,27.1C37.4,27.1,37.4,27.1,37.4,27.1z M37.3,27
			C37.3,27,37.3,26.9,37.3,27C37.3,26.9,37.3,27,37.3,27z M37.3,26.9C37.3,26.8,37.3,26.8,37.3,26.9C37.3,26.8,37.3,26.8,37.3,26.9z
			 M37.2,26.7C37.2,26.7,37.2,26.6,37.2,26.7C37.2,26.6,37.2,26.7,37.2,26.7z M37.2,26.6c0,0,0-0.1,0-0.1
			C37.1,26.5,37.2,26.5,37.2,26.6z M37.1,26.4c0,0,0-0.1-0.1-0.1C37.1,26.3,37.1,26.4,37.1,26.4z M36.7,25.6
			C36.7,25.6,36.6,25.5,36.7,25.6C36.6,25.5,36.7,25.6,36.7,25.6z M37,26.1C36.9,26.1,36.9,26,37,26.1C36.9,26,36.9,26.1,37,26.1z
			 M36.9,26C36.9,25.9,36.9,25.9,36.9,26C36.9,25.9,36.9,25.9,36.9,26z M36.8,25.8C36.8,25.8,36.8,25.8,36.8,25.8
			C36.8,25.8,36.8,25.8,36.8,25.8z M36.7,25.7C36.7,25.7,36.7,25.7,36.7,25.7C36.7,25.7,36.7,25.7,36.7,25.7z M37.3,29.6
			c-0.5,2.8,0.9,5,2.2,7.1l0,0.1c0.2,0.4,0.5,1.1,0.6,1.3c0.1,0.2,0.1,0.9,0.1,1.1c0,0.3-0.5,1.2-0.6,1.4c-0.1,0.2-0.4,0.5-0.6,0.6
			c0,0-1.8,3-10,2.2c-0.7-0.2-0.8-0.7-0.9-0.9c-0.1-0.2-1-0.6-1.3-0.6c-0.2,0-0.2-0.2,0-0.3c0.2-0.1-0.2-0.2-0.4-0.3
			c-0.8-0.3-0.4-0.9-0.2-0.8c0.2,0.1,1.1,0.4,1.4,0.4c0.3,0,0.1-0.2,0-0.2c-0.1,0-0.8-0.2-1-0.3c-0.8-0.4,0-0.9,0.3-0.8
			c0.1,0,0.9,0.2,1.2,0.3c0.3,0.1,0.1-0.1-0.1-0.2c-0.3-0.1-0.4-0.1-0.7-0.2c-0.3-0.1,0-0.1,0.1-0.1c0.1,0,0.6,0.1,0.6,0.1
			c-0.1-0.1-0.5-0.3-0.9-0.4c-0.4-0.2-2-1.9,0.4-1.3c0.2,0.1,0.3-0.2,0.2-0.3c-0.1,0-1.3-0.6-1.6-0.6c-0.6-0.2-0.6-0.8-0.5-0.8
			c0.1,0,1.2,0.5,1.4,0.5c0.2,0,0.2-0.2,0-0.3c-0.1-0.1-1.1-0.4-1.2-0.4c-0.2,0-0.4-0.2-0.3-0.3c0-0.1-0.1-0.1-0.3-0.2
			c-0.2-0.2,0-0.3,0.3-0.2c0.3,0.1,0.2-0.1,0.1-0.2c-0.1-0.1-0.4-0.2-0.5-0.4c-0.2-0.2-0.2-0.6-0.3-0.8c-0.1-0.2,0.1-0.1,0.3,0
			c0.2,0,0-0.1-0.2-0.2c-0.2-0.1-0.3-0.2-0.3-0.3c-0.1-0.1,0.3,0,0.5,0c0.2,0,0.1-0.1-0.1-0.2c-0.2-0.1-0.4-0.2-0.4-0.3
			c0-0.1,0.2,0,0.5,0c0.2,0,0.1-0.2-0.1-0.2c-0.2-0.1-0.3,0-0.5-0.1c-0.2-0.1-0.1-0.2-0.1-0.3c0-0.1,0.1-0.1,0.3-0.1
			c0.2,0,0.3,0,0.3-0.1c-0.1-0.1-0.4-0.1-0.5-0.1c-0.1,0-0.3-0.2-0.2-0.3c0.1-0.1-0.1-0.3-0.1-0.3c-0.1,0,0.1-0.1,0.2-0.1
			c0.1,0,0.1-0.3-0.2-0.2c-0.4,0.1-0.1-0.3-0.2-0.6c0-0.3,0.1-0.3,0-0.4c-0.1-0.1-0.5,0.3-0.5,0c0.1-0.3-0.1-0.4-0.2-0.4
			c0,0,0-0.2-0.1-0.3c-0.1-0.1-1.1-0.3-1.3-0.4c-0.3-0.1,0-0.6,0.6-0.4c0.2,0.1,0.5,0.1,0.5-0.1c0-0.1-0.2-0.1-0.6-0.3
			c-0.4-0.2-0.3-0.6,0.2-0.5c0.2,0,0.3-0.1,0.2-0.2c-0.1-0.1-0.3-0.1-0.4-0.1c-0.3-0.1-0.6-1,0.2-0.9c0.1,0,0.2-0.1,0-0.2
			c-0.2,0-0.2-0.1-0.4-0.1c-0.1,0,0-0.7,0.2-0.7c0.2,0,0.3,0.1,0.5,0.1c0.2,0.1,0.2-0.1,0-0.2c-0.1-0.1-0.3-0.2-0.4-0.2
			c-0.1-0.1,0-0.1,0.1-0.2c0.1-0.1,0.4,0.1,0.6,0.2c0.2,0.1,0.2-0.2,0-0.3c-0.1-0.1-0.5-0.2-0.5-0.3c0-0.1,0-0.4,0.1-0.4
			c0.1,0,0.6,0.1,0.6,0.1s0.2-0.2,0-0.3c-0.1,0-0.1,0-0.5-0.2c-0.3-0.1,0-0.5,0.2-0.4c0.1,0,0.6,0.2,0.9,0.1c0.3-0.1,0.2-0.3,0-0.3
			c-0.2-0.1-0.8-0.2-1-0.3c-0.2-0.1,0.2-0.7,0.4-0.8c0.3-0.1,1-0.6,1.6,0.2c0.1,0.2,0.5,0.3,0.6,0.4c0.1,0.1,0.6,0.4,0.7,0.5
			c0.1,0.2,0.3,0.1,0.6,0c0.1-0.1-0.1-0.4-0.5-0.8c-0.2-0.1-0.4-0.1-0.5-0.2c-0.1-0.1-0.6-0.8-0.5-0.9l0,0c-0.2-0.2-0.3-0.3-0.3-0.3
			l-0.4-0.3c1.2-0.2,2.5-0.1,4.1,0.5c0,0,2.4,2.7,2.4,2.8c0,0.1,0.4,0.2,0.5,0.1c0.1-0.1,0-0.5-0.2-0.5c-0.2,0-0.4-0.7-0.5-0.8
			c-0.1-0.1-1-1.2-1.2-1.3c-0.1-0.2,0.1-0.2,0.2-0.1c0.1,0.1,0.4,0.4,0.5,0.3c0.1-0.1,0-0.1-0.2-0.3c-0.2-0.2,0.1,0,0.2-0.1
			c0,0,0,0,0,0c0.8,0.1,1.6,0.4,2.4,1c1.2,0.8,2.2,1.9,2.6,3.1l0,0l0,0C36.9,25.8,37.5,28.1,37.3,29.6z M37.7,25.6c0,0,0,0.1,0,0.1
			c-0.1-0.1-0.2-0.1-0.3-0.2c-0.1-0.3-0.5-0.8-0.6-0.9c-0.1-0.1,0.1-0.3,0.4,0C37.4,24.8,37.7,25.4,37.7,25.6z M36.8,21.1
			c-0.2,0-0.4,0.2-0.4,0.4c0.1,0.2,0,0.6,0,0.7c0,0.2,0.2,0.5,0.3,0.5c0.1,0.1,0.2,0.4,0.1,0.5c-0.1,0.1-0.3,0.1-0.2,0.2
			c0.1,0.2-0.1,0.4-0.1,0.3c-0.1-0.1-0.1-0.2-0.2-0.4c-0.1-0.2-0.2-0.3-0.1-0.1c0.1,0.2,0.1,0.3,0.1,0.5c0.1,0.2-0.1,0.3-0.2,0
			c-0.1-0.2-0.3-0.5-0.3-0.6c0-0.2-0.2-0.1-0.1,0.1c0,0.2-0.1,0.3-0.2,0c-0.1-0.2-0.3-0.9-0.4-1.1C35.2,21.9,35,21.9,35,22
			c0,0.1,0.1,0.3,0.1,0.4c0,0.1-0.1,0.2-0.2,0c0-0.2-0.2-0.4-0.2-0.6c0-0.1-0.3-0.3-0.2-0.1c0.1,0.2,0,0.3,0.1,0.5
			c0,0.2-0.1,0.1-0.2,0c0-0.1-0.1-0.3-0.1-0.4c0-0.1-0.2-0.3-0.2-0.1c0,0.1,0,0.2-0.1,0.2c-0.1,0-0.1-0.2-0.1-0.3
			c0-0.1-0.2-0.4-0.2-0.6c-0.1-0.2-0.2-0.2-0.2-0.1c0.1,0.1,0.1,0.4,0.1,0.5c0,0.1-0.2,0.1-0.2,0c0-0.1-0.3-0.6-0.3-0.7
			c-0.1-0.1-0.2,0-0.1,0.1c0.1,0.1,0.1,0.3,0.2,0.5c0,0.1-0.2-0.1-0.2-0.2c-0.1-0.1-0.2-0.4-0.3-0.5c-0.1-0.1-0.2-0.1-0.2,0
			c0.1,0.1,0.1,0.2,0.1,0.3c0.1,0.2-0.2,0-0.3-0.1c0-0.1-0.3-0.5-0.3-0.6c0-0.1-0.2,0-0.1,0.1c0.1,0.1,0.1,0.2,0.1,0.4
			c0,0.1-0.3-0.1-0.3-0.2c0-0.1-0.3-0.4-0.4-0.7c-0.1-0.2-0.1,0-0.1,0.1c0,0.1,0.1,0.3,0.2,0.4c0,0.1-0.1,0.1-0.2,0
			c0-0.1-0.2-0.4-0.2-0.5c0-0.1-0.3-0.2-0.1,0.2c0.2,0.3,0.1,0.3-0.1,0.3c-0.1,0-0.2-0.1-0.2-0.1s-0.1-0.2-0.1-0.4
			c0-0.2-0.2-0.1-0.1,0c0,0.1,0,0.2,0,0.3c0,0.1-0.2,0-0.2,0c0-0.1-0.1-0.3-0.2-0.4c0-0.1-0.2-0.1-0.1,0C30,19.8,30,19.9,30,20
			c0,0.1,0,0.1-0.1,0.1c-0.1-0.1-0.2-0.2-0.3-0.3c-0.1-0.1-0.3,0.1-0.4,0.1c-0.1,0-0.3-0.3-0.4-0.3c-0.1,0-0.1,0-0.1,0.1
			c0,0.1,0.2,0.2,0.2,0.3c0,0.1,0,0.3-0.1,0.3c-0.2,0-0.3-0.3-0.5-0.3c-0.2,0-0.4,0-0.5,0.1c0,0,0,0,0,0c-0.2,0-0.4-0.1-0.5-0.1
			c-0.2-0.1-0.3-0.1-0.4-0.1c-0.1,0-0.1-0.1-0.1-0.2C30,18.1,34.4,18,38.1,21c0,0-0.1,0-0.1,0C37.9,21,37.7,21,37.6,21
			C37.4,21,37,21.1,36.8,21.1z M38.3,21.7c-0.1,0.1-0.2,0.2-0.3,0.3c-0.1,0.2-0.1,0.5-0.1,0.8c0,0.2,0.1,0.4,0.2,0.6
			c0.1,0.3,0.2,0.7,0.3,0.9c0,0.2,0,0.4,0,0.6c0,0.1,0,0.2,0,0.3c0,0.2,0.1,0.4,0.3,0.5c0.1,0.2,0.3,0.4,0.3,0.5c0,0,0,0,0,0
			c0,0,0,0,0,0c0,0-0.1,0-0.2-0.1c-0.2-0.1-0.4-0.4-0.6-0.7c-0.1-0.1-0.1-0.3-0.1-0.4c0-0.1,0-0.3,0-0.3c0.1-0.4-0.3-1.3-0.4-1.5
			c-0.1-0.1-0.2-0.3-0.3-0.5c0-0.1-0.2-0.7,0.1-1c0.1-0.1,0.4-0.3,0.6-0.4C38.2,21.6,38.3,21.6,38.3,21.7z"/>
		<path clip-path="url(#SVGID_2_)" fill="#FFFFFF" d="M29.3,20.7C29.3,20.7,29.3,20.7,29.3,20.7c0,0-0.1-0.1-0.3-0.2
			c-0.4-0.2-0.8-0.4-1.3-0.5C27.5,20,27.4,20,27.3,20c-0.1,0-0.2,0-0.4,0c-0.2,0-0.4,0-0.5,0c-0.4,0-0.8,0-1,0c-0.1,0-0.2,0-0.4,0.1
			c-0.7,0.1-1.3,0.3-1.8,0.6c0,0,0,0,0,0c-0.3,0.2-0.6,0.4-0.9,0.7c-0.2,0.2-0.5,0.4-0.8,0.4c-1.5,0.5-2.9,1.5-3.6,3.3
			c0,0.1,0.1,0.2,0.1,0.1c0.9-1.5,2.4-2.4,3.6-2.8c0.4-0.1,0.5,0.2,0.6,0.4c0.1,0.6,0.1,1.1,0,1.4c-0.1,0.3-0.2,0.6-0.4,1
			c-0.1,0.3-0.2,0.8-0.2,1.2c0.1,0.9,0.3,2-0.3,3c-0.1,0.1,0,0.2,0.2,0.1c0.7-0.7,0.8-1.8,0.7-2.9c0-0.4,0.1-0.8,0.2-1.1
			c0.4-0.8,0.6-1.3,0.6-1.9c0-0.4,0-0.8-0.1-1.1c0-0.3,0.1-0.6,0.2-0.7c0.2-0.2,0.8-0.6,1.2-0.6c0.3-0.1,0.5,0.1,0.6,0.3
			c0.6,1,1.4,1.5,2.6,2c0.5,0.2,0.6,0.5,0.5,0.9C28,24.5,28,25,27.5,25.4c-0.8,0.7-1.2,1.4-1.5,2.2c-0.1,0.3-0.3,0.6-0.7,0.7
			c-1.4,0.4-2.3,1.4-1.8,2.6c0.4,1,0.5,1.4,0.7,2.2c0.2,0.8,0.5,2,0.8,2.8c0.4,1.2,1,2.3,1.4,2.9c0.1,0.2,0.2,0.1,0.1-0.1
			c-0.6-1.1-1.2-2.8-1.4-3.7c0-0.1,0-0.3,0.2-0.3c0.5,0.1,1.7,0.4,2.5,0.8c0.1,0.1,0.2-0.1,0.1-0.2c-0.8-0.5-2.1-1-2.7-1.1
			c-0.2,0-0.3-0.2-0.3-0.5c-0.2-0.8-0.4-1.9-0.8-2.9c-0.3-0.6,0-1,0.4-1.4c0.3-0.2,0.8-0.4,1.1-0.4c0.1,0,0.1,0,0.2,0
			c0,0,0.1,0.1,0.1,0.1c0,0.1,0.1,0.1,0.1,0.2c0.1,0.6,0.5,1.3,0.9,1.7c0.4,0.5,0.6,0.8,0.7,1.3c0.1,0.2,0.2,0.2,0.2,0
			c0-0.4-0.2-1-0.6-1.4c-0.4-0.5-0.7-1.1-0.8-1.6c-0.1-0.5,0-0.9,0.1-1.3c0.2-0.8,0.8-1.6,1.4-2c0.5-0.4,0.9-1.1,0.8-2
			c0-0.2,0.3-0.4,0.4-0.1c0.4,0.9,1,1.6,1.7,2c1.6,1,1.7,2.6,0.3,3.4c-1.8,1.1-1.7,2.7-0.9,4.1c0.4,0.6,0.6,1,0.8,1.3
			c0.2,0.3,0.3,0.7,0.1,1c-0.5,1-0.5,2.1,0.1,2.8c0.4,0.6,0.6,1,0.8,1.3c0.1,0.3,0.3,0.2,0.2,0c-0.1-0.5-0.5-1.1-0.7-1.4
			c-0.3-0.6-0.2-1.6,0-2c0.1-0.4,0.3-0.6,0.4-0.8c0.1-0.2,0.3-0.3,0.4-0.1c0.4,0.4,0.7,1.1,0.9,1.5c0.2,0.4,0.5,0.6,0.8,0.7
			c0.6,0.3,1.3,0.8,1.5,1.3c0.1,0.2,0.2,0.1,0.2,0c-0.2-0.7-0.7-1.1-1.4-1.6c-0.4-0.3-0.6-0.4-0.7-0.8c-0.3-0.8-0.5-1.5-1.1-1.9
			c-0.4-0.2-0.7-0.3-0.9-0.6c-0.7-0.9-1-1.7-1-2.5c0.1-0.7,0.6-1.4,1.3-1.8c0.8-0.5,1.2-1.3,1.2-2.1c0-0.2,0.2-0.3,0.4-0.3
			c0.8,0.2,1.7,0.7,2,2.1c0,0.2,0.2,0.2,0.2,0c-0.1-0.7-0.3-1.9-1.6-2.5c-0.1-0.1-0.3-0.1-0.3-0.1c0,0-0.1,0-0.1,0
			c-0.1,0-0.2,0-0.3-0.1c-0.2,0-0.5,0-0.7-0.3c-0.4-0.7-0.9-1-1.4-1.3c-0.5-0.3-0.9-0.9-1.2-1.5c-0.3-0.6-0.7-1.1-1.4-1.1
			c-1.2-0.1-2.2-0.5-2.8-1.5c-0.1-0.2,0-0.4,0.2-0.4c1.7,0.1,2.7,0.4,3.6,1.3c0.7,0.6,1.1,1.2,1.5,1.8c0.7,1,1.7,1.2,2.9,1.2
			c1.2,0,2,0.5,2.7,2.1c0.4,1.2,0.5,2.3-0.1,3.1C36.2,31,36,32,36.2,32.8c0.1,0.5,0.1,0.9,0.2,1.4c0.1,0.5,0.5,1.1,1,1.7
			c0.4,0.4,0.5,0.7,0.6,1.2c0.1,0.5,0.3,0.9,0.6,1.3c0.1,0.1,0.2,0,0.1-0.1c-0.1-0.1-0.3-0.6-0.4-1.2c-0.1-0.6-0.3-1.1-0.6-1.3
			c-0.2-0.2-0.4-0.5-0.5-0.9c-0.1-0.3,0.1-0.4,0.4-0.2c0.9,0.6,1.9,1.7,2.3,3.1c0.1,0.2,0.2,0.2,0.2,0c-0.1-1.2-1-2.6-2-3.5
			c-0.4-0.4-1-0.8-1.2-1.7c-0.2-0.8,0.1-1.4,0.5-2.2c0.4-0.8,0.5-2-0.1-3.6c-0.4-1.2-1-1.9-1.6-2.2v0c0,0-0.1,0-0.1-0.1
			c-0.5-0.2-1.1-0.3-1.5-0.3c-0.9-0.1-1.7-0.1-2.3-0.9c-0.2-0.3-0.8-1.1-1.6-2"/>
		<path clip-path="url(#SVGID_2_)" fill="#002D5B" d="M25.4,19.8L25,19.9c-0.7,0.1-1.3,0.3-1.9,0.6c0,0,0,0,0,0l0,0l0,0
			c-0.3,0.2-0.6,0.4-0.9,0.7c-0.2,0.2-0.5,0.3-0.7,0.4c-1.3,0.5-2.9,1.4-3.7,3.3c0,0.1,0,0.2,0.1,0.2c0.1,0,0.2,0,0.2-0.1
			c0.8-1.3,2.1-2.3,3.6-2.8c0.1,0,0.2,0,0.3,0c0.1,0.1,0.1,0.2,0.2,0.3c0.1,0.6,0.1,1,0,1.4c-0.1,0.2-0.2,0.5-0.2,0.7L21.8,25
			c-0.1,0.3-0.2,0.8-0.2,1.2c0,0,0,0.2,0,0.2c0.1,0.8,0.2,1.8-0.3,2.8c-0.1,0.1,0,0.2,0,0.3c0.1,0,0.2,0.1,0.3-0.1
			c0.8-0.7,0.8-1.9,0.7-3c0-0.4,0-0.8,0.2-1c0.4-0.8,0.6-1.3,0.6-2c0,0,0-0.4,0-0.4l0-0.7c0-0.3,0-0.5,0.2-0.7
			c0.2-0.2,0.8-0.5,1.2-0.6c0.3,0,0.4,0.1,0.5,0.3c0.7,1.1,1.4,1.6,2.5,2.1c0.4,0.2,0.5,0.3,0.5,0.8l0,0c-0.1,0.4-0.1,0.8-0.5,1.2
			c-0.8,0.7-1.3,1.4-1.5,2.2c-0.1,0.2-0.2,0.5-0.6,0.6c-0.9,0.2-1.5,0.7-1.8,1.3c-0.2,0.4-0.2,0.9-0.1,1.4l0.1,0.4
			c0.3,0.8,0.4,1.1,0.6,1.8c0.2,0.8,0.5,2,0.8,2.8c0.4,1.2,1,2.3,1.4,2.9c0.1,0.1,0.2,0.1,0.3,0.1c0.1,0,0.1-0.2,0-0.3
			c-0.6-1.1-1.2-2.7-1.4-3.7c0,0,0-0.1,0-0.1c0,0,0,0,0.1,0c0.5,0,1.7,0.4,2.5,0.7c0.1,0.1,0.2,0,0.3-0.1c0-0.1,0-0.2-0.1-0.3
			c-0.9-0.5-2.1-1-2.8-1.1c-0.1,0-0.2-0.2-0.2-0.4l-0.1-0.4c-0.2-0.8-0.3-1.6-0.7-2.5c-0.2-0.5-0.1-0.9,0.4-1.3
			c0.2-0.2,0.8-0.4,1-0.4c0.1,0,0.1,0,0.1,0c0,0,0.1,0.1,0.1,0.1c0,0,0,0.1,0.1,0.2c0.2,0.6,0.5,1.3,0.9,1.8
			c0.4,0.4,0.6,0.8,0.7,1.2c0.1,0.2,0.2,0.2,0.2,0.2c0,0,0.2,0,0.1-0.3c0-0.4-0.3-1-0.6-1.5c-0.4-0.5-0.7-1.1-0.7-1.6
			c-0.1-0.4,0-0.8,0.1-1.3c0.2-0.8,0.8-1.6,1.3-2c0.6-0.5,0.9-1.2,0.9-2.1c0-0.1,0-0.1,0.1-0.1c0.1,0,0.1,0,0.1,0.1
			c0.4,0.9,0.9,1.7,1.6,2.1c0.8,0.5,1.3,1.1,1.3,1.8c0,0.6-0.2,1.1-0.8,1.5c-2,1.3-1.6,3-1,4.2c0.3,0.6,0.6,1,0.8,1.3l0,0
			c0.2,0.3,0.2,0.6,0.1,0.9c-0.5,1-0.5,2.1,0.1,2.9c0.3,0.5,0.6,1,0.8,1.3c0.1,0.2,0.2,0.2,0.3,0.2c0.1,0,0.1-0.1,0.1-0.3
			c-0.1-0.5-0.4-1-0.6-1.3l-0.1-0.1c-0.3-0.5-0.2-1.5,0-1.9l0.3-0.6l0.1-0.2c0-0.1,0.1-0.2,0.2-0.2c0,0,0.1,0,0.1,0.1
			c0.3,0.4,0.6,1,0.8,1.4l0,0.1c0.2,0.4,0.5,0.6,0.8,0.8c0.5,0.3,1.2,0.7,1.4,1.3c0.1,0.2,0.2,0.2,0.2,0.2c0.1,0,0.1-0.1,0.1-0.2
			c-0.2-0.8-0.7-1.1-1.3-1.6l-0.1-0.1c-0.4-0.3-0.6-0.4-0.7-0.8c0,0-0.2-0.4-0.2-0.4c-0.2-0.6-0.4-1.2-1-1.5l-0.3-0.2
			c-0.2-0.1-0.4-0.2-0.6-0.4c-0.7-0.9-1-1.7-1-2.4c0-0.6,0.5-1.3,1.2-1.7c0.8-0.5,1.3-1.3,1.2-2.2c0-0.1,0-0.1,0.1-0.2
			c0.1-0.1,0.2-0.1,0.3,0c1.1,0.2,1.7,0.9,1.9,2c0,0.2,0.1,0.2,0.2,0.2c0.1,0,0.2-0.1,0.2-0.3c-0.1-0.6-0.2-1.9-1.6-2.5
			c-0.2-0.1-0.3-0.2-0.4-0.1c0,0-0.1,0-0.1,0c0,0-0.3-0.1-0.3-0.1c0,0-0.1,0-0.1,0c-0.2,0-0.4-0.1-0.5-0.3c-0.4-0.7-0.9-1.1-1.4-1.4
			c-0.5-0.3-0.9-0.9-1.2-1.5c-0.3-0.6-0.7-1.1-1.4-1.2c-1.2-0.1-2.1-0.6-2.8-1.4c0,0,0-0.1,0-0.1c0,0,0,0,0-0.1
			c0-0.1,0.1-0.1,0.2-0.1c1.7,0.1,2.7,0.4,3.6,1.2c0.7,0.6,1.1,1.2,1.5,1.8c0.8,1.1,1.9,1.3,3,1.3c1.1,0,1.9,0.3,2.6,2
			c0.5,1.3,0.5,2.3,0,3c-0.5,0.8-0.7,1.8-0.5,2.7c0.1,0.3,0.1,0.5,0.1,0.7c0,0.2,0,0.4,0.1,0.7c0.1,0.6,0.5,1.2,1,1.7
			c0.4,0.4,0.5,0.7,0.6,1.1c0.1,0.4,0.2,0.9,0.6,1.3c0.1,0.1,0.2,0.1,0.3,0c0.1-0.1,0.1-0.2,0-0.3c0,0-0.3-0.4-0.4-1.2
			c-0.1-0.6-0.3-1.1-0.6-1.4c-0.2-0.2-0.4-0.4-0.5-0.9c0-0.1,0-0.2,0-0.2c0,0,0.1,0,0.2,0.1c0.5,0.4,1.8,1.5,2.2,3.1
			c0,0.2,0.1,0.2,0.2,0.2c0.1,0,0.1-0.1,0.1-0.2c-0.1-1.2-0.9-2.7-2.1-3.6l0,0l0,0c-0.4-0.4-1-0.8-1.1-1.6c0-0.2-0.1-0.3-0.1-0.5
			c0-0.5,0.2-1,0.6-1.6c0.2-0.4,0.3-0.9,0.3-1.5c0-0.6-0.1-1.4-0.4-2.1c-0.4-1.1-0.9-1.8-1.6-2.2c0,0-0.1-0.2-0.1-0.2
			c-0.5-0.2-1.1-0.3-1.5-0.4l-0.1,0c-0.9-0.1-1.7,0-2.2-0.7l-0.2-0.2c-0.3-0.4-0.8-1.1-1.5-1.7c-0.3-0.2-0.6-0.5-0.9-0.7
			c0,0-0.1-0.1-0.3-0.2c-0.4-0.2-0.8-0.4-1.3-0.5c-0.1,0-0.3-0.1-0.4-0.1l0,0l-0.4,0c0,0-0.5,0-0.5,0C25.9,19.8,25.6,19.8,25.4,19.8
			z M23.2,20.7c0.5-0.3,1.1-0.5,1.8-0.6c0,0,0.4-0.1,0.4-0.1c0.2,0,0.5,0,1,0c0,0,0.5,0,0.5,0c0,0,0.4,0,0.4,0c0.1,0,0.2,0,0.4,0.1
			c0.5,0.1,0.9,0.3,1.2,0.5c0.1,0,0.2,0.1,0.3,0.1l0,0l0,0l0,0l0,0l0,0c0.3,0.2,0.6,0.4,0.9,0.7c0.7,0.6,1.2,1.3,1.4,1.7l0.2,0.2
			c0.6,0.8,1.3,0.9,2.3,0.9l0,0l0.1,0c0.4,0,0.9,0.1,1.4,0.3c0,0,0.1,0,0.1,0l0,0c0.7,0.4,1.2,1.1,1.6,2.1c0.2,0.8,0.4,1.5,0.4,2.1
			c0,0.6-0.1,1-0.3,1.4c-0.4,0.6-0.6,1.2-0.6,1.7c0,0.2,0,0.3,0.1,0.5c0.2,0.8,0.7,1.3,1.2,1.7l0.1,0c1.1,0.9,1.9,2.3,2,3.5
			c0,0,0,0,0,0c0,0,0,0,0,0c0,0,0,0,0-0.1c-0.4-1.7-1.7-2.8-2.3-3.2c-0.2-0.1-0.3-0.1-0.4,0c0,0-0.1,0.1-0.1,0.2c0,0,0,0.1,0,0.2
			c0.2,0.5,0.4,0.7,0.6,0.9c0.2,0.2,0.5,0.7,0.5,1.3c0.1,0.6,0.3,1.1,0.4,1.3c0,0,0,0,0,0c0,0,0,0,0,0c-0.3-0.4-0.5-0.8-0.6-1.2
			c-0.1-0.5-0.2-0.8-0.6-1.2c-0.5-0.6-0.8-1.1-1-1.7c-0.1-0.3-0.1-0.5-0.1-0.7c0-0.2,0-0.4-0.1-0.7c-0.1-0.3-0.1-0.5-0.1-0.8
			c0-0.6,0.2-1.3,0.6-1.8c0.3-0.4,0.4-0.9,0.4-1.5c0-0.5-0.1-1.1-0.4-1.7c-0.6-1.5-1.4-2.1-2.7-2.1c-1,0-2.1-0.1-2.8-1.2
			c-0.4-0.6-0.9-1.2-1.5-1.8c-0.9-0.8-2-1.2-3.7-1.3c-0.2,0-0.3,0-0.3,0.2c0,0,0,0.1,0,0.1c0,0.1,0,0.1,0.1,0.2
			c0.7,0.9,1.7,1.4,2.9,1.5c0.7,0.1,1,0.5,1.3,1.1c0.3,0.6,0.7,1.2,1.3,1.5c0.5,0.3,1,0.6,1.3,1.3c0.2,0.3,0.4,0.3,0.6,0.4l0.1,0
			l0.3,0.1h0l0.1,0c0,0,0.1,0,0.3,0.1c1.2,0.5,1.5,1.5,1.6,2.4c0,0,0,0,0,0c0,0,0,0.1,0,0.1c0,0,0,0,0-0.1c-0.3-1.5-1.2-2-2-2.2
			c-0.2,0-0.3,0-0.4,0.1c-0.1,0.1-0.1,0.2-0.1,0.3c0,0,0,0,0,0c0,0,0,0.1,0,0.1c0,0.7-0.4,1.4-1.2,1.9c-0.8,0.5-1.2,1.2-1.3,1.9
			c0,0,0,0.1,0,0.1c0,0.7,0.4,1.6,1,2.4c0.2,0.2,0.4,0.3,0.6,0.4l0.3,0.2c0.5,0.3,0.7,0.8,0.9,1.4l0.2,0.4c0.2,0.4,0.3,0.6,0.8,0.9
			l0.1,0c0.6,0.5,1.1,0.8,1.3,1.5c0,0,0,0,0,0c0,0,0,0,0,0c-0.2-0.7-0.9-1.1-1.5-1.4c-0.3-0.1-0.6-0.3-0.7-0.7l0-0.1
			c-0.2-0.4-0.5-1-0.8-1.4c-0.1-0.1-0.2-0.1-0.3-0.1c-0.1,0-0.2,0.1-0.3,0.3l-0.1,0.2l-0.3,0.6c-0.1,0.3-0.2,0.6-0.2,1.1
			c0,0.4,0.1,0.8,0.2,1l0.1,0.1c0.2,0.4,0.5,0.8,0.6,1.3c0,0,0,0,0,0.1c0,0,0,0-0.1-0.1c-0.1-0.3-0.4-0.8-0.8-1.3
			c-0.3-0.4-0.4-0.8-0.4-1.3c0-0.5,0.1-0.9,0.4-1.4c0.1-0.2,0.1-0.3,0.1-0.5c0-0.2-0.1-0.4-0.2-0.6l0,0c-0.2-0.3-0.4-0.6-0.8-1.2
			c-0.6-1.2-1-2.8,0.9-4c0.6-0.4,1-1,1-1.6c0-0.7-0.5-1.4-1.3-2c-0.6-0.4-1.2-1.1-1.6-2c-0.1-0.2-0.2-0.2-0.3-0.2
			c-0.1,0-0.2,0.2-0.2,0.3c0,0,0,0,0,0c0,0.1,0,0.1,0,0.2c0,0.7-0.3,1.3-0.8,1.7c-0.5,0.4-1.2,1.2-1.4,2.1c-0.1,0.3-0.1,0.6-0.1,0.9
			c0,0.1,0,0.3,0,0.4c0.1,0.5,0.4,1.1,0.8,1.6c0.3,0.4,0.5,1,0.6,1.4c0,0,0,0,0,0c0,0,0,0,0,0c0,0,0,0,0-0.1
			c-0.1-0.4-0.4-0.8-0.8-1.3c-0.4-0.4-0.7-1.1-0.9-1.7c0-0.1-0.1-0.2-0.1-0.2l0,0l0,0l-0.1-0.1l0,0c-0.1,0-0.1-0.1-0.2-0.1
			c-0.3,0-0.9,0.2-1.1,0.4c-0.4,0.3-0.5,0.6-0.5,0.9c0,0.2,0,0.3,0.1,0.5c0.3,0.9,0.5,1.7,0.7,2.5l0.1,0.4c0.1,0.3,0.2,0.5,0.4,0.5
			c0.6,0.1,1.9,0.6,2.7,1.1c0,0,0,0,0,0c0,0,0,0,0,0c-0.9-0.4-2.1-0.7-2.6-0.8c-0.1,0-0.2,0-0.2,0.1c0,0.1-0.1,0.1-0.1,0.2
			c0,0,0,0.1,0,0.1c0.2,1,0.8,2.7,1.4,3.8c0,0,0,0,0,0c0,0,0,0,0,0c-0.4-0.6-1-1.7-1.4-2.9c-0.3-0.8-0.6-2-0.8-2.8
			c-0.2-0.7-0.3-1.1-0.6-1.8l-0.1-0.4c-0.1-0.2-0.1-0.4-0.1-0.6c0-0.2,0.1-0.5,0.2-0.7c0.3-0.5,0.9-1,1.7-1.2
			c0.4-0.1,0.7-0.5,0.8-0.8c0.2-0.8,0.7-1.4,1.4-2.1c0.4-0.4,0.5-0.9,0.6-1.3l0,0c0-0.1,0-0.1,0-0.2c0-0.4-0.2-0.6-0.6-0.8
			c-1.1-0.4-1.9-0.9-2.5-1.9c-0.1-0.2-0.3-0.4-0.7-0.4c-0.4,0.1-1,0.4-1.3,0.7c-0.2,0.2-0.3,0.4-0.3,0.7c0,0,0,0.1,0,0.1l0,0.7
			l0,0.4c0,0,0,0.1,0,0.1c0,0.6-0.2,1-0.6,1.8c-0.1,0.3-0.2,0.6-0.2,1c0,0.1,0,0.1,0,0.2c0,0.3,0,0.5,0,0.8c0,0.8-0.1,1.6-0.7,2.1
			c0,0,0,0,0,0c0,0,0,0,0,0c0.3-0.6,0.4-1.2,0.4-1.8c0-0.4,0-0.8-0.1-1.1l0-0.2c0-0.1,0-0.2,0-0.2c0-0.3,0.1-0.6,0.2-0.9l0.1-0.3
			c0.1-0.2,0.2-0.5,0.3-0.7c0-0.2,0.1-0.3,0.1-0.5c0-0.3,0-0.5-0.1-0.9c0-0.2-0.1-0.4-0.2-0.4c-0.1-0.1-0.2-0.1-0.4,0
			c-1.4,0.4-2.7,1.4-3.5,2.6c0.8-1.7,2.3-2.6,3.5-3c0.2-0.1,0.5-0.2,0.8-0.5C22.6,21.1,22.8,20.9,23.2,20.7L23.2,20.7L23.2,20.7z
			 M35.8,24.5L35.8,24.5L35.8,24.5C35.8,24.5,35.8,24.5,35.8,24.5z"/>
		<path clip-path="url(#SVGID_2_)" fill="#FFFFFF" d="M23.6,36.2c-0.3-0.1-0.5-0.3-0.9-0.8c0,0-0.1-0.1-0.3-0.2
			c-0.2-0.1-0.6-0.6-0.7-0.7c-0.1-0.1-0.9-0.6-1-0.6c-0.8-0.3-1-1-1.2-1.3l0,0l0,0c-0.2-0.3-0.4-0.6-0.6-1l0,0
			c0,0.1-0.3-0.5-0.4-0.6c0,0,0,0,0,0c-0.1-0.1-0.4-0.3-0.4-0.2c0,0.1,0.2,0.5,0.2,0.6c0.1,0.1,0.4,0.6,0.4,0.8
			c0,0.1,0.4,0.6,0.5,0.8h0c0.3,0.4,0.5,0.8,0.6,1.1c0.2,0.5,0.3,0.6,0.4,1.1c0.1,0.6,0.4,1.4,0.6,1.8c0,0.1,0.1,0.1,0.1,0.1
			c0,0,0-0.1,0-0.2c-0.2-0.7-0.5-1.8-0.5-2.1c0-0.2,0-0.2,0.1-0.3c0.1-0.1,0.2,0,0.4,0.1c0.4,0.3,0.9,0.7,1.3,1.2
			c0.2,0.3,0.6,0.6,1.1,0.7c0.1,0,0.1,0,0.1,0c0,0,0,0,0,0C23.7,36.4,23.7,36.3,23.6,36.2z"/>
		<use xlink:href="#SVGID_1_"  overflow="visible" fill="none" stroke="#002D5B" stroke-width="0.6143"/>
	</g>
	<g>
		<path fill="#174177" d="M180.6,18.8c-0.1-0.4-0.2-0.5-0.8-0.5h-2.9c-0.5,0-0.6,0.1-0.7,0.5l-0.7,2c-0.3,0.9-0.4,1.4-0.4,1.6
			c0,0.2,0.1,0.3,0.6,0.4l0.6,0.1c0.1,0.1,0.1,0.4,0,0.5c-0.5,0-1.1,0-2-0.1c-0.6,0-1.3,0-1.9,0.1c-0.1-0.1-0.2-0.4,0-0.5l0.6-0.1
			c0.5,0,0.9-0.3,1.2-1c0.3-0.9,0.9-2.2,1.7-4.3l2-5.2c0.3-0.7,0.4-1.1,0.3-1.4c0.5-0.1,0.8-0.5,1-0.7c0.1,0,0.3,0,0.3,0.2
			c0.3,0.9,0.6,1.7,0.9,2.6l2.7,7.8c0.6,1.7,0.8,2,1.6,2.1l0.5,0.1c0.1,0.1,0.1,0.4,0,0.5c-0.8,0-1.5-0.1-2.3-0.1
			c-0.9,0-1.7,0-2.2,0.1c-0.2-0.1-0.2-0.4,0-0.5l0.6-0.1c0.4,0,0.7-0.2,0.7-0.3c0-0.2-0.1-0.6-0.3-1L180.6,18.8z M176.8,17.1
			c-0.2,0.4-0.1,0.5,0.4,0.5h2.4c0.6,0,0.6-0.1,0.4-0.6l-1-3.2c-0.2-0.5-0.3-1-0.4-1.2h0c-0.1,0.1-0.3,0.6-0.5,1.1L176.8,17.1z"/>
		<path fill="#174177" d="M188.9,20.4c0,2,0,2.3,1.3,2.4l0.5,0.1c0.1,0.1,0.1,0.4,0,0.5c-1.1,0-1.7-0.1-2.5-0.1
			c-0.8,0-1.5,0-2.4,0.1c-0.1-0.1-0.2-0.4,0-0.5l0.4-0.1c1.1-0.2,1.2-0.4,1.2-2.4v-7.2c0-1.6,0-2-0.9-2.1l-0.7-0.1
			c-0.1-0.1-0.1-0.4,0-0.5c1-0.1,2.2-0.2,3.8-0.2c1.6,0,2.8,0.2,3.7,0.8c0.9,0.6,1.6,1.6,1.6,2.9c0,1.8-1.1,2.7-1.9,3.1
			c-0.9,0.4-1.9,0.6-2.7,0.6c-0.1-0.1-0.1-0.3,0-0.4c2.1-0.4,2.9-1.6,2.9-3.3c0-1.9-1.1-3.1-3.1-3.1c-1,0-1,0.1-1,0.7V20.4z"/>
		<path fill="#174177" d="M199.6,20.4c0,2,0,2.3,1.3,2.4l0.5,0.1c0.1,0.1,0.1,0.4,0,0.5c-1.1,0-1.7-0.1-2.5-0.1
			c-0.8,0-1.5,0-2.4,0.1c-0.1-0.1-0.2-0.4,0-0.5l0.4-0.1c1.1-0.2,1.2-0.4,1.2-2.4v-7.2c0-1.6,0-2-0.9-2.1l-0.7-0.1
			c-0.1-0.1-0.1-0.4,0-0.5c1-0.1,2.2-0.2,3.8-0.2c1.6,0,2.8,0.2,3.7,0.8c0.9,0.6,1.6,1.6,1.6,2.9c0,1.8-1.1,2.7-1.9,3.1
			c-0.9,0.4-1.9,0.6-2.7,0.6c-0.1-0.1-0.1-0.3,0-0.4c2.1-0.4,2.9-1.6,2.9-3.3c0-1.9-1.1-3.1-3.1-3.1c-1,0-1,0.1-1,0.7V20.4z"/>
		<path fill="#174177" d="M176.8,38.9c0,0.5,0.1,0.5,0.6,0.5h1.3c0.8,0,1.4,0,1.6-0.1c0.2-0.1,0.4-0.2,0.5-0.7l0.2-0.8
			c0.1-0.1,0.4-0.1,0.5,0c0,0.5-0.1,1.2-0.1,2c0,0.7,0.1,1.4,0.1,1.9c-0.1,0.1-0.4,0.1-0.5,0l-0.2-0.8c-0.1-0.3-0.3-0.6-0.6-0.7
			c-0.3-0.1-0.8-0.1-1.5-0.1h-1.3c-0.6,0-0.6,0-0.6,0.5v2.7c0,2,0,2.3,1.2,2.4l0.7,0.1c0.1,0.1,0.1,0.4,0,0.5
			c-1.1,0-1.8-0.1-2.6-0.1c-0.9,0-1.5,0-2.4,0.1c-0.1-0.1-0.2-0.4,0-0.5l0.5-0.1c1.1-0.1,1.2-0.4,1.2-2.4v-7c0-2,0-2.3-1.2-2.4
			l-0.3,0c-0.1-0.1-0.1-0.4,0-0.5c0.8,0,1.5,0.1,2.3,0.1h3.6c1.2,0,2.4,0,2.6-0.1c0,0.9,0,1.8,0.1,2.6c-0.1,0.1-0.3,0.2-0.5,0.1
			c-0.2-0.9-0.4-1.6-1.4-1.8c-0.4-0.1-1.1-0.1-1.9-0.1h-1.2c-0.6,0-0.6,0-0.6,0.8V38.9z"/>
		<path fill="#174177" d="M185.8,43.4c0,1.3,0.3,2.2,1.8,2.2c0.5,0,1.1-0.2,1.6-0.6c0.3-0.2,0.4-0.5,0.4-1.1v-3.2
			c0-1.3-0.1-1.3-0.7-1.5l-0.3-0.1c-0.1-0.1-0.1-0.3,0-0.4c0.8,0,1.8-0.2,2.3-0.3c0.1,0,0.2,0.1,0.2,0.1c0,0.4-0.1,1-0.1,1.7v3.3
			c0,1.5,0.1,2.1,0.6,2.1c0.2,0,0.5,0,0.8-0.1c0.1,0.1,0.1,0.5,0,0.6c-0.8,0.2-1.9,0.3-2.5,0.7c-0.1,0-0.2-0.1-0.2-0.1v-0.8
			c0-0.2-0.1-0.3-0.2-0.3c-0.6,0.4-1.5,1-2.7,1c-1.7,0-2.3-0.9-2.3-2.4v-3.2c0-1.2,0-1.4-0.6-1.6l-0.2-0.1c-0.1-0.1-0.1-0.4,0-0.4
			c0.9,0,1.6-0.2,2.1-0.3c0.1,0,0.2,0.1,0.2,0.1c0,0.3-0.1,0.7-0.1,1.7V43.4z"/>
		<path fill="#174177" d="M195.8,44.1c0,1.4,0,1.6,0.7,1.7l0.5,0.1c0.1,0.1,0.1,0.4,0,0.5c-0.6,0-1.2-0.1-1.9-0.1
			c-0.7,0-1.3,0-1.9,0.1c-0.1-0.1-0.2-0.4,0-0.5l0.4-0.1c0.7-0.1,0.7-0.3,0.7-1.7v-8.8c0-1.1,0-1.3-0.6-1.6l-0.2-0.1
			c-0.1-0.1-0.1-0.3,0-0.4c0.5-0.2,1.4-0.4,2.1-0.8c0.1,0,0.2,0,0.2,0.1c0,0.6-0.1,1.6-0.1,2.4V44.1z"/>
		<path fill="#174177" d="M200.6,44.1c0,1.4,0,1.6,0.7,1.7l0.5,0.1c0.1,0.1,0.1,0.4,0,0.5c-0.6,0-1.2-0.1-1.9-0.1
			c-0.7,0-1.3,0-1.9,0.1c-0.1-0.1-0.2-0.4,0-0.5l0.4-0.1c0.7-0.1,0.7-0.3,0.7-1.7v-8.8c0-1.1,0-1.3-0.6-1.6l-0.2-0.1
			c-0.1-0.1-0.1-0.3,0-0.4c0.5-0.2,1.4-0.4,2.1-0.8c0.1,0,0.2,0,0.2,0.1c0,0.6-0.1,1.6-0.1,2.4V44.1z"/>
		<path fill="#174177" d="M213.4,43.4c0,2,0,2.3,1.2,2.4l0.6,0.1c0.1,0.1,0.1,0.4,0,0.5c-1.1,0-1.8-0.1-2.5-0.1
			c-0.8,0-1.5,0-2.7,0.1c-0.1-0.1-0.2-0.4,0-0.5l0.7-0.1c1.1-0.1,1.2-0.4,1.2-2.4v-8.7c0-0.6,0-0.6-0.6-0.6h-1.1
			c-0.8,0-1.9,0-2.4,0.5c-0.5,0.4-0.7,0.9-0.9,1.3c-0.2,0.1-0.4,0-0.5-0.1c0.3-0.9,0.6-2.1,0.7-2.9c0.1,0,0.3-0.1,0.4,0
			c0.1,0.6,0.8,0.6,1.6,0.6h7.9c1,0,1.2,0,1.5-0.5c0.1,0,0.3,0,0.3,0.1c-0.2,0.8-0.3,2.4-0.3,3c-0.1,0.2-0.4,0.2-0.5,0
			c-0.1-0.5-0.2-1.2-0.5-1.4c-0.4-0.3-1.2-0.5-2.3-0.5h-1.4c-0.6,0-0.6,0-0.6,0.7V43.4z"/>
		<path fill="#174177" d="M220.2,40.7c0-0.8,0-0.9-0.5-1.2l-0.2-0.1c-0.1-0.1-0.1-0.3,0-0.3c0.4-0.2,1.6-0.7,2-1
			c0.1,0,0.2,0,0.2,0.1c0,0.7-0.1,1.6-0.1,2.4v3.5c0,1.4,0,1.6,0.7,1.7l0.4,0.1c0.1,0.1,0.1,0.4,0,0.5c-0.6,0-1.1-0.1-1.8-0.1
			c-0.7,0-1.3,0-1.8,0.1c-0.1-0.1-0.2-0.4,0-0.5l0.4-0.1c0.7-0.1,0.7-0.3,0.7-1.7V40.7z M221.8,35.2c0,0.7-0.5,1-1,1
			c-0.6,0-1-0.4-1-1c0-0.6,0.5-1,1-1C221.4,34.2,221.8,34.6,221.8,35.2z"/>
		<path fill="#174177" d="M226.7,39.4c-0.3,0-0.3,0.1-0.3,0.5v3.6c0,1.1,0.1,2.2,1.4,2.2c0.2,0,0.4,0,0.5-0.1
			c0.2-0.1,0.4-0.3,0.5-0.3c0.2,0,0.2,0.2,0.2,0.3c-0.3,0.4-1,0.9-2,0.9c-1.7,0-2-0.9-2-2.1V40c0-0.5,0-0.6-0.4-0.6H224
			c-0.1-0.1-0.1-0.3-0.1-0.4c0.6-0.2,1-0.4,1.2-0.6c0.3-0.2,0.6-0.8,0.8-1.1c0.1,0,0.3,0,0.4,0.1v0.9c0,0.3,0,0.4,0.3,0.4h2.2
			c0.2,0.2,0.2,0.7,0,0.8H226.7z"/>
		<path fill="#174177" d="M232.4,44.1c0,1.4,0,1.6,0.7,1.7l0.5,0.1c0.1,0.1,0.1,0.4,0,0.5c-0.6,0-1.2-0.1-1.9-0.1
			c-0.7,0-1.3,0-1.9,0.1c-0.1-0.1-0.2-0.4,0-0.5l0.4-0.1c0.7-0.1,0.7-0.3,0.7-1.7v-8.8c0-1.1,0-1.3-0.6-1.6l-0.2-0.1
			c-0.1-0.1-0.1-0.3,0-0.4c0.5-0.2,1.4-0.4,2.1-0.8c0.1,0,0.2,0,0.2,0.1c0,0.6-0.1,1.6-0.1,2.4V44.1z"/>
		<path fill="#174177" d="M236.5,41.3c-0.5,0-0.5,0-0.5,0.5c0,2,1.1,3.6,3.2,3.6c0.6,0,1.2-0.2,1.8-1c0.2-0.1,0.3,0.1,0.3,0.2
			c-0.6,1.3-2,1.8-3,1.8c-1.3,0-2.3-0.5-2.8-1.3c-0.6-0.8-0.8-1.7-0.8-2.5c0-2.4,1.6-4.4,3.9-4.4c1.7,0,2.8,1.1,2.8,2.3
			c0,0.3,0,0.4-0.1,0.5c-0.1,0.1-0.3,0.1-1.1,0.1H236.5z M237.7,40.7c1.4,0,1.9-0.1,2-0.2c0.1,0,0.1-0.1,0.1-0.4
			c0-0.5-0.4-1.2-1.5-1.2c-1.1,0-2.1,1-2.2,1.7c0,0,0,0.1,0.1,0.1H237.7z"/>
	</g>
	<line fill="#174177" stroke="#F2F2F2" stroke-width="2" stroke-miterlimit="10" x1="160.5" y1="9.4" x2="160.5" y2="47.4"/>
</g>
</svg>
